#N canvas 239 170 506 585 10;
#X obj 258 79 vsl 30 20 0 1 0 0 empty empty empty 0 -9 0 10 -262144
-1 -1 0 1;
#X obj 113 11 r metro;
#X floatatom 113 47 5 0 0 0 - - -, f 5;
#X obj 259 148 moses 0.15;
#X obj 259 182 moses 0.3;
#X obj 259 217 moses 0.45;
#X obj 259 253 moses 0.6;
#X obj 259 286 moses 0.75;
#X obj 259 321 moses 0.9;
#X obj 258 112 moses 0.1;
#X obj 227 410 \$1;
#X msg 227 384 bang;
#X obj 187 410 \$1;
#X msg 187 384 bang;
#X obj 147 410 \$1;
#X msg 147 384 bang;
#X obj 107 410 \$1;
#X msg 107 384 bang;
#X obj 67 410 \$1;
#X msg 67 384 bang;
#X obj 27 410 \$1;
#X msg 27 384 bang;
#X obj -13 410 \$1;
#X msg -13 384 bang;
#X obj 258 20 inlet;
#X obj -28 472 \$1;
#X obj -72 386 r b\$1;
#X obj -28 501 outlet;
#X obj 1 99 / 32;
#X obj 33 99 / 16;
#X obj 65 99 / 8;
#X obj 97 99 / 4;
#X obj 125 99 / 2;
#X obj 152 99 / 1;
#X obj 182 100 * 2;
#X msg 209 45 bang;
#X obj -50 338 r b\$2;
#X obj 37 11 r MIDImetro;
#X connect 0 0 9 0;
#X connect 1 0 2 0;
#X connect 1 0 35 0;
#X connect 2 0 28 0;
#X connect 2 0 29 0;
#X connect 2 0 30 0;
#X connect 2 0 31 0;
#X connect 2 0 32 0;
#X connect 2 0 33 0;
#X connect 2 0 34 0;
#X connect 3 0 21 0;
#X connect 3 1 4 0;
#X connect 4 0 19 0;
#X connect 4 1 5 0;
#X connect 5 0 17 0;
#X connect 5 1 6 0;
#X connect 6 0 15 0;
#X connect 6 1 7 0;
#X connect 7 0 13 0;
#X connect 7 1 8 0;
#X connect 8 0 11 0;
#X connect 8 1 11 0;
#X connect 9 0 23 0;
#X connect 9 1 3 0;
#X connect 10 0 25 1;
#X connect 11 0 10 0;
#X connect 12 0 25 1;
#X connect 13 0 12 0;
#X connect 14 0 25 1;
#X connect 15 0 14 0;
#X connect 16 0 25 1;
#X connect 17 0 16 0;
#X connect 18 0 25 1;
#X connect 19 0 18 0;
#X connect 20 0 25 1;
#X connect 21 0 20 0;
#X connect 22 0 25 1;
#X connect 23 0 22 0;
#X connect 24 0 0 0;
#X connect 25 0 27 0;
#X connect 26 0 25 0;
#X connect 28 0 22 1;
#X connect 29 0 20 1;
#X connect 30 0 18 1;
#X connect 31 0 16 1;
#X connect 32 0 14 1;
#X connect 33 0 12 1;
#X connect 34 0 10 1;
#X connect 35 0 0 0;
#X connect 36 0 25 0;
#X connect 37 0 2 0;
