#N canvas 645 266 182 178 10;
#X obj 69 87 \$1;
#X obj 45 52 r b\$1;
#X obj 84 24 inlet;
#X obj 69 111 outlet;
#X obj 91 51 r b\$2;
#X connect 0 0 3 0;
#X connect 1 0 0 0;
#X connect 2 0 0 1;
#X connect 4 0 0 0;
