#N canvas 466 63 450 300 10;
#X obj 17 218 send toGUI;
#X obj 176 -25 inlet;
#X obj 187 44 delay 300;
#X msg 17 32 bang;
#X msg 82 130 bang;
#X msg 17 77 list /\$2 set \$1 0 1;
#X msg 32 187 list /\$2 set \$1 0 0;
#X obj 17 54 \$1 \$2;
#X obj 82 154 \$1 \$2;
#X connect 1 0 2 0;
#X connect 1 0 3 0;
#X connect 2 0 4 0;
#X connect 3 0 7 0;
#X connect 4 0 8 0;
#X connect 5 0 0 0;
#X connect 6 0 0 0;
#X connect 7 0 5 0;
#X connect 8 0 6 0;
