#N canvas 247 103 1003 787 10;
#X obj 302 25 receive fromGUI;
#X obj 302 47 list trim;
#X text 360 97 row \, col \, value;
#X obj 232 231 spigot;
#X obj 302 121 route 0 1 2 3 4 5 6 7;
#X obj 276 231 spigot;
#X obj 323 232 spigot;
#X obj 368 232 spigot;
#X obj 414 232 spigot;
#X obj 459 232 spigot;
#X obj 504 232 spigot;
#X obj 549 232 spigot;
#X msg 510 99 0;
#X obj -249 226 r cMaj;
#X obj 79 226 r gMin;
#X obj -109 276 unpack f f f f f f f f;
#X obj -203 226 r cMin;
#X obj -158 226 r eMaj;
#X obj -108 226 r eMin;
#X obj -60 226 r fMaj;
#X obj -13 226 r fMin;
#X obj 32 226 r gMaj;
#X obj 302 70 route /\$2 /clear;
#X obj 221 133 r b\$1;
#X obj 474 631 note \$1 \$2 \$3;
#X obj 429 588 note \$1 \$2 \$3;
#X obj 384 544 note \$1 \$2 \$3;
#X obj 339 504 note \$1 \$2 \$3;
#X obj 293 466 note \$1 \$2 \$3;
#X obj 248 426 note \$1 \$2 \$3;
#X obj 201 388 note \$1 \$2 \$3;
#X obj 157 347 note \$1 \$2 \$3;
#X obj 612 391 bng 15 250 50 0 empty empty empty 17 7 0 10 -262144
-1 -1;
#X obj 171 208 bng 15 250 50 0 empty empty empty 17 7 0 10 -262144
-1 -1;
#X obj 302 94 route \$4;
#X connect 0 0 1 0;
#X connect 1 0 22 0;
#X connect 3 0 31 1;
#X connect 3 0 32 0;
#X connect 4 0 3 1;
#X connect 4 1 5 1;
#X connect 4 2 6 1;
#X connect 4 3 7 1;
#X connect 4 4 8 1;
#X connect 4 5 9 1;
#X connect 4 6 10 1;
#X connect 4 7 11 1;
#X connect 5 0 30 1;
#X connect 5 0 32 0;
#X connect 6 0 29 1;
#X connect 6 0 32 0;
#X connect 7 0 28 1;
#X connect 7 0 32 0;
#X connect 8 0 27 1;
#X connect 8 0 32 0;
#X connect 9 0 26 1;
#X connect 9 0 32 0;
#X connect 10 0 25 1;
#X connect 10 0 32 0;
#X connect 11 0 24 1;
#X connect 11 0 32 0;
#X connect 12 0 3 1;
#X connect 12 0 5 1;
#X connect 12 0 7 1;
#X connect 12 0 6 1;
#X connect 12 0 8 1;
#X connect 12 0 9 1;
#X connect 12 0 10 1;
#X connect 12 0 11 1;
#X connect 13 0 15 0;
#X connect 14 0 15 0;
#X connect 15 0 24 0;
#X connect 15 1 25 0;
#X connect 15 2 26 0;
#X connect 15 3 27 0;
#X connect 15 4 28 0;
#X connect 15 5 29 0;
#X connect 15 6 30 0;
#X connect 15 7 31 0;
#X connect 16 0 15 0;
#X connect 17 0 15 0;
#X connect 18 0 15 0;
#X connect 19 0 15 0;
#X connect 20 0 15 0;
#X connect 21 0 15 0;
#X connect 22 0 34 0;
#X connect 22 1 12 0;
#X connect 23 0 3 0;
#X connect 23 0 5 0;
#X connect 23 0 6 0;
#X connect 23 0 7 0;
#X connect 23 0 8 0;
#X connect 23 0 9 0;
#X connect 23 0 10 0;
#X connect 23 0 11 0;
#X connect 23 0 33 0;
#X connect 34 0 4 0;
