#N canvas 295 211 450 300 10;
#X obj 123 110 expr 1 - $f1;
#X obj 125 82 hsl 90 15 0 1 0 0 empty bitmix empty -2 -8 0 10 -262144
-1 -1 0 1;
#X floatatom 145 146 5 0 0 0 - - -, f 5;
#X floatatom 101 145 5 0 0 0 - - -, f 5;
#X obj 101 166 outlet;
#X obj 145 166 outlet;
#X obj 122 29 inlet;
#X obj 194 29 loadbang;
#X msg 194 56 0;
#X connect 0 0 3 0;
#X connect 1 0 0 0;
#X connect 1 0 2 0;
#X connect 2 0 5 0;
#X connect 3 0 4 0;
#X connect 6 0 1 0;
#X connect 7 0 8 0;
#X connect 8 0 1 0;
