#N canvas 368 244 427 542 10;
#X obj 73 15 inlet;
#X obj 279 272 inlet;
#X obj 251 26 receive fromGUI;
#X obj 251 51 list trim;
#X obj 161 221 spigot;
#X obj 211 221 spigot;
#X obj 257 221 spigot;
#X obj 82 117 * 1;
#X obj 112 117 * 2;
#X obj 52 117 / 2;
#X obj 301 221 spigot;
#X obj 196 504 noteout 1;
#X obj 196 318 \$1;
#X msg 279 294 bang;
#X obj 196 344 ftom;
#X obj 196 366 + 0.5;
#X obj 196 387 int;
#X obj 142 117 * 4;
#X obj 22 117 / 4;
#X obj 144 196 == 0;
#X obj 111 221 spigot;
#X obj 194 196 == 1;
#X obj 244 196 == 2;
#X obj 22 94 \$1;
#X obj 52 94 \$1;
#X obj 82 94 \$1;
#X obj 112 94 \$1;
#X obj 142 94 \$1;
#X msg 167 58 bang;
#X obj 290 196 == 3;
#X obj 334 196 == 4;
#X obj 196 476 makenote 127 0;
#X obj 277 412 r clear;
#X msg 277 436 0;
#X obj 236 354 r vel-\$1;
#X obj 330 412 r gate-\$1;
#X obj 251 77 route /\$3;
#X obj 236 383 * 127;
#X obj 330 442 * 2000;
#X connect 0 0 23 0;
#X connect 0 0 24 0;
#X connect 0 0 25 0;
#X connect 0 0 26 0;
#X connect 0 0 27 0;
#X connect 1 0 13 0;
#X connect 2 0 3 0;
#X connect 3 0 36 0;
#X connect 4 0 12 1;
#X connect 5 0 12 1;
#X connect 6 0 12 1;
#X connect 7 0 5 0;
#X connect 8 0 6 0;
#X connect 9 0 4 0;
#X connect 10 0 12 1;
#X connect 12 0 14 0;
#X connect 13 0 12 0;
#X connect 14 0 15 0;
#X connect 15 0 16 0;
#X connect 16 0 31 0;
#X connect 17 0 10 0;
#X connect 18 0 20 0;
#X connect 19 0 20 1;
#X connect 20 0 12 1;
#X connect 21 0 4 1;
#X connect 22 0 5 1;
#X connect 23 0 18 0;
#X connect 24 0 9 0;
#X connect 25 0 7 0;
#X connect 26 0 8 0;
#X connect 27 0 17 0;
#X connect 28 0 23 0;
#X connect 28 0 24 0;
#X connect 28 0 25 0;
#X connect 28 0 26 0;
#X connect 28 0 27 0;
#X connect 29 0 6 1;
#X connect 30 0 10 1;
#X connect 31 0 11 0;
#X connect 31 1 11 1;
#X connect 32 0 33 0;
#X connect 33 0 31 2;
#X connect 34 0 37 0;
#X connect 35 0 38 0;
#X connect 36 0 19 0;
#X connect 36 0 21 0;
#X connect 36 0 22 0;
#X connect 36 0 29 0;
#X connect 36 0 30 0;
#X connect 36 0 28 0;
#X connect 37 0 31 1;
#X connect 38 0 31 2;
