#N canvas 171 23 1367 657 10;
#X obj -200 14 receive fromGUI;
#X obj -200 36 list trim;
#X obj -200 109 unpack f f f f f f f f f f f f f f f f, f 39;
#X obj -200 58 route /\$2 /\$3;
#X obj -200 150 s gate-0;
#X obj -200 170 s gate-1;
#X obj -200 190 s gate-2;
#X obj -200 210 s gate-3;
#X obj -200 230 s gate-4;
#X obj -200 250 s gate-5;
#X obj -200 270 s gate-6;
#X obj -200 290 s gate-7;
#X obj -80 150 s gate-8;
#X obj -80 170 s gate-9;
#X obj -80 190 s gate-10;
#X obj -80 210 s gate-11;
#X obj -80 230 s gate-12;
#X obj -80 250 s gate-13;
#X obj -80 270 s gate-14;
#X obj -80 290 s gate-15;
#X obj 70 109 unpack f f f f f f f f f f f f f f f f, f 39;
#X obj 70 150 s vel-0;
#X obj 70 170 s vel-1;
#X obj 70 190 s vel-2;
#X obj 70 210 s vel-3;
#X obj 70 230 s vel-4;
#X obj 70 250 s vel-5;
#X obj 70 270 s vel-6;
#X obj 70 290 s vel-7;
#X obj 190 290 s vel-15;
#X obj 190 270 s vel-14;
#X obj 190 250 s vel-13;
#X obj 190 230 s vel-12;
#X obj 190 210 s vel-11;
#X obj 190 190 s vel-10;
#X obj 190 170 s vel-9;
#X obj 190 150 s vel-8;
#X obj -200 324 receive fromGUI;
#X obj -200 346 list trim;
#X obj -200 419 unpack f f f f f f f f f f f f f f f f, f 39;
#X obj 70 419 unpack f f f f f f f f f f f f f f f f, f 39;
#X obj -200 368 route /\$4 /\$5;
#X obj -200 460 s gate-16;
#X obj -200 480 s gate-17;
#X obj -200 500 s gate-18;
#X obj -200 520 s gate-19;
#X obj -200 540 s gate-20;
#X obj -200 560 s gate-21;
#X obj -200 580 s gate-22;
#X obj -200 600 s gate-23;
#X obj -80 460 s gate-24;
#X obj -80 480 s gate-25;
#X obj -80 500 s gate-26;
#X obj -80 520 s gate-27;
#X obj -80 540 s gate-28;
#X obj -80 560 s gate-29;
#X obj -80 580 s gate-30;
#X obj -80 600 s gate-31;
#X obj 70 460 s vel-16;
#X obj 70 480 s vel-17;
#X obj 70 500 s vel-18;
#X obj 70 520 s vel-19;
#X obj 70 540 s vel-20;
#X obj 70 560 s vel-21;
#X obj 70 580 s vel-22;
#X obj 70 600 s vel-23;
#X obj 190 460 s vel-24;
#X obj 190 480 s vel-25;
#X obj 190 500 s vel-26;
#X obj 190 520 s vel-27;
#X obj 190 540 s vel-28;
#X obj 190 560 s vel-29;
#X obj 190 580 s vel-30;
#X obj 190 600 s vel-31;
#X text -99 15 Steps 1-16;
#X text -99 325 Steps 17-32;
#X obj 318 444 columns 20 seq2 oct2 4;
#X obj 318 109 columns 0 seq oct 0;
#X obj 454 109 columns 1 seq oct 1;
#X obj 602 109 columns 2 seq oct 2;
#X obj 748 109 columns 3 seq oct 3;
#X obj 318 132 columns 4 seq oct 4;
#X obj 454 132 columns 5 seq oct 5;
#X obj 602 132 columns 6 seq oct 6;
#X obj 748 132 columns 7 seq oct 7;
#X obj 318 159 columns 8 seq oct 8;
#X obj 454 159 columns 9 seq oct 9;
#X obj 602 159 columns 10 seq oct 10;
#X obj 748 159 columns 11 seq oct 11;
#X obj 318 182 columns 12 seq oct 12;
#X obj 602 182 columns 14 seq oct 14;
#X obj 748 182 columns 15 seq oct 15;
#X obj 318 469 columns 24 seq2 oct2 8;
#X obj 318 494 columns 28 seq2 oct2 12;
#X obj 318 419 columns 16 seq2 oct2 0;
#X obj 467 419 columns 17 seq2 oct2 1;
#X obj 467 444 columns 21 seq2 oct2 5;
#X obj 467 469 columns 25 seq2 oct2 9;
#X obj 618 419 columns 18 seq2 oct2 2;
#X obj 618 444 columns 22 seq2 oct2 6;
#X obj 618 469 columns 26 seq2 oct2 10;
#X obj 618 494 columns 30 seq2 oct2 14;
#X obj 777 419 columns 19 seq2 oct2 3;
#X obj 777 444 columns 23 seq2 oct2 7;
#X obj 777 469 columns 27 seq2 oct2 11;
#X obj 777 494 columns 31 seq2 oct2 15;
#X obj 454 182 columns 13 seq oct 13;
#X obj 467 494 columns 29 seq2 oct2 13;
#X connect 0 0 1 0;
#X connect 1 0 3 0;
#X connect 2 0 4 0;
#X connect 2 1 5 0;
#X connect 2 2 6 0;
#X connect 2 3 7 0;
#X connect 2 4 8 0;
#X connect 2 5 9 0;
#X connect 2 6 10 0;
#X connect 2 7 11 0;
#X connect 2 8 12 0;
#X connect 2 9 13 0;
#X connect 2 10 14 0;
#X connect 2 11 15 0;
#X connect 2 12 16 0;
#X connect 2 13 17 0;
#X connect 2 14 18 0;
#X connect 2 15 19 0;
#X connect 3 0 2 0;
#X connect 3 1 20 0;
#X connect 20 0 21 0;
#X connect 20 1 22 0;
#X connect 20 2 23 0;
#X connect 20 3 24 0;
#X connect 20 4 25 0;
#X connect 20 5 26 0;
#X connect 20 6 27 0;
#X connect 20 7 28 0;
#X connect 20 8 36 0;
#X connect 20 9 35 0;
#X connect 20 10 34 0;
#X connect 20 11 33 0;
#X connect 20 12 32 0;
#X connect 20 13 31 0;
#X connect 20 14 30 0;
#X connect 20 15 29 0;
#X connect 37 0 38 0;
#X connect 38 0 41 0;
#X connect 39 0 42 0;
#X connect 39 1 43 0;
#X connect 39 2 44 0;
#X connect 39 3 45 0;
#X connect 39 4 46 0;
#X connect 39 5 47 0;
#X connect 39 6 48 0;
#X connect 39 7 49 0;
#X connect 39 8 50 0;
#X connect 39 9 51 0;
#X connect 39 10 52 0;
#X connect 39 11 53 0;
#X connect 39 12 54 0;
#X connect 39 13 55 0;
#X connect 39 14 56 0;
#X connect 39 15 57 0;
#X connect 40 0 58 0;
#X connect 40 1 59 0;
#X connect 40 2 60 0;
#X connect 40 3 61 0;
#X connect 40 4 62 0;
#X connect 40 5 63 0;
#X connect 40 6 64 0;
#X connect 40 7 65 0;
#X connect 40 8 66 0;
#X connect 40 9 67 0;
#X connect 40 10 68 0;
#X connect 40 11 69 0;
#X connect 40 12 70 0;
#X connect 40 13 71 0;
#X connect 40 14 72 0;
#X connect 40 15 73 0;
#X connect 41 0 39 0;
#X connect 41 1 40 0;
