#N canvas 36 23 1397 825 10;
#X obj 36 335 +;
#X floatatom 66 338 5 0 0 0 - - -, f 5;
#X msg 36 280 1;
#X msg 1 195 1;
#X msg 53 195 0;
#X obj 36 522 mod 16;
#X obj 1 -32 receive fromGUI;
#X obj 1 -11 list trim;
#X obj 1 119 bng 15 250 50 0 empty empty empty 17 7 0 10 -262144 -1
-1;
#X obj 53 96 sel 1;
#X obj 53 118 bng 15 250 50 0 empty empty empty 17 7 0 10 -262144 -1
-1;
#X msg -68 223 -1;
#X obj -68 158 loadbang;
#X obj 1 97 sel 1;
#X obj 1 10 route /start /stop /tempo /clear;
#X obj 305 349 send toGUI;
#X msg 307 106 list /seq clear;
#N canvas 169 446 496 163 key 0;
#X obj 28 13 receive fromGUI;
#X obj 28 35 list trim;
#N canvas 447 259 534 352 cMaj 0;
#X msg 294 137 440;
#X text 171 63 C Maj;
#X msg 208 67 bang;
#X obj 142 285 pack f f f f f f f f;
#X obj 142 310 s cMaj;
#X msg 13 137 261.626;
#X msg 71 137 293.665;
#X msg 128 137 329.628;
#X msg 185 137 349.228;
#X msg 240 137 391.995;
#X msg 322 137 493.883;
#X msg 376 137 523.251;
#X obj 208 17 inlet;
#X connect 0 0 3 5;
#X connect 2 0 11 0;
#X connect 2 0 0 0;
#X connect 2 0 9 0;
#X connect 2 0 8 0;
#X connect 2 0 7 0;
#X connect 2 0 6 0;
#X connect 2 0 5 0;
#X connect 2 0 10 0;
#X connect 3 0 4 0;
#X connect 5 0 3 0;
#X connect 6 0 3 1;
#X connect 7 0 3 2;
#X connect 8 0 3 3;
#X connect 9 0 3 4;
#X connect 10 0 3 6;
#X connect 11 0 3 7;
#X connect 12 0 2 0;
#X restore 28 107 pd cMaj;
#N canvas 643 109 1064 495 cMin 0;
#X msg 303 148 bang;
#X obj 303 98 inlet;
#X text 265 148 C Min;
#X msg 163 218 311.127;
#X msg 260 218 349.228;
#X msg 357 218 391.995;
#X msg 461 218 415.305;
#X msg 569 218 466.164;
#X msg 8 218 261.626;
#X msg 683 218 523.251;
#X obj 304 332 pack f f f f f f f f;
#X obj 322 395 s cMin;
#X msg 66 218 293.665;
#X obj 499 95 loadbang;
#X obj 499 130 t b b b b b b b b;
#X connect 0 0 9 0;
#X connect 0 0 6 0;
#X connect 0 0 5 0;
#X connect 0 0 4 0;
#X connect 0 0 3 0;
#X connect 0 0 12 0;
#X connect 0 0 8 0;
#X connect 0 0 7 0;
#X connect 1 0 0 0;
#X connect 3 0 10 2;
#X connect 4 0 10 3;
#X connect 5 0 10 4;
#X connect 6 0 10 5;
#X connect 7 0 10 6;
#X connect 8 0 10 0;
#X connect 9 0 10 7;
#X connect 10 0 11 0;
#X connect 12 0 10 1;
#X connect 13 0 14 0;
#X connect 14 0 8 0;
#X connect 14 1 12 0;
#X connect 14 2 3 0;
#X connect 14 3 4 0;
#X connect 14 4 5 0;
#X connect 14 5 6 0;
#X connect 14 6 7 0;
#X connect 14 7 9 0;
#X restore 78 107 pd cMin;
#N canvas 412 161 891 522 eMaj 0;
#X msg 303 148 bang;
#X obj 304 332 pack f f f f f f f f;
#X text 265 148 E Maj;
#X obj 303 116 inlet;
#X obj 304 369 s eMaj;
#X msg -105 222 329.628;
#X msg -7 222 369.994;
#X msg 90 222 415.305;
#X msg 186 222 440;
#X msg 217 222 493.883;
#X msg 322 222 554.36;
#X msg 379 219 622.25;
#X msg 432 218 659.255;
#X connect 0 0 12 0;
#X connect 0 0 10 0;
#X connect 0 0 9 0;
#X connect 0 0 8 0;
#X connect 0 0 7 0;
#X connect 0 0 6 0;
#X connect 0 0 5 0;
#X connect 0 0 11 0;
#X connect 1 0 4 0;
#X connect 3 0 0 0;
#X connect 5 0 1 0;
#X connect 6 0 1 1;
#X connect 7 0 1 2;
#X connect 8 0 1 3;
#X connect 9 0 1 4;
#X connect 10 0 1 5;
#X connect 11 0 1 6;
#X connect 12 0 1 7;
#X restore 129 107 pd eMaj;
#N canvas 246 235 848 477 eMin 0;
#X msg 303 148 bang;
#X obj 304 332 pack f f f f f f f f;
#X msg 194 221 440;
#X obj 316 102 inlet;
#X obj 358 383 s eMin;
#X text 265 148 E Min;
#X msg -105 222 329.628;
#X msg -7 222 369.994;
#X msg 93 221 391.995;
#X msg 227 222 493.883;
#X msg 322 222 523.251;
#X msg 419 219 587.33;
#X msg 512 218 659.255;
#X connect 0 0 12 0;
#X connect 0 0 10 0;
#X connect 0 0 9 0;
#X connect 0 0 2 0;
#X connect 0 0 8 0;
#X connect 0 0 7 0;
#X connect 0 0 6 0;
#X connect 0 0 11 0;
#X connect 1 0 4 0;
#X connect 2 0 1 3;
#X connect 3 0 0 0;
#X connect 6 0 1 0;
#X connect 7 0 1 1;
#X connect 8 0 1 2;
#X connect 9 0 1 4;
#X connect 10 0 1 5;
#X connect 11 0 1 6;
#X connect 12 0 1 7;
#X restore 180 107 pd eMin;
#N canvas 418 168 829 417 gMin 0;
#X text 81 67 G Minor;
#X msg 47 67 bang;
#X obj 47 226 pack f f f f f f f f;
#X obj 47 251 s gMin;
#X obj 47 28 inlet;
#X msg 150 109 440;
#X msg 180 109 466.164;
#X msg 275 109 523.251;
#X msg 373 109 587.33;
#X msg 472 109 622.254;
#X msg 562 109 698.456;
#X msg 47 109 391.995;
#X msg 651 109 783.99;
#X connect 1 0 11 0;
#X connect 1 0 5 0;
#X connect 1 0 6 0;
#X connect 1 0 7 0;
#X connect 1 0 8 0;
#X connect 1 0 9 0;
#X connect 1 0 10 0;
#X connect 1 0 12 0;
#X connect 2 0 3 0;
#X connect 4 0 1 0;
#X connect 5 0 2 1;
#X connect 6 0 2 2;
#X connect 7 0 2 3;
#X connect 8 0 2 4;
#X connect 9 0 2 5;
#X connect 10 0 2 6;
#X connect 11 0 2 0;
#X connect 12 0 2 7;
#X restore 384 106 pd gMin;
#N canvas 0 22 817 529 fMaj 0;
#X msg 303 148 bang;
#X obj 304 332 pack f f f f f f f f;
#X text 265 148 F Maj;
#X obj 311 109 inlet;
#X obj 341 390 s fMaj;
#X msg -105 222 349.228;
#X msg 3 222 391.995;
#X msg 103 222 440;
#X msg 144 221 466.164;
#X msg 247 222 523.251;
#X msg 342 222 587.33;
#X msg 439 221 659.255;
#X msg 537 220 698.456;
#X connect 0 0 12 0;
#X connect 0 0 10 0;
#X connect 0 0 9 0;
#X connect 0 0 8 0;
#X connect 0 0 7 0;
#X connect 0 0 6 0;
#X connect 0 0 5 0;
#X connect 0 0 11 0;
#X connect 1 0 4 0;
#X connect 3 0 0 0;
#X connect 5 0 1 0;
#X connect 6 0 1 1;
#X connect 7 0 1 2;
#X connect 8 0 1 3;
#X connect 9 0 1 4;
#X connect 10 0 1 5;
#X connect 11 0 1 6;
#X connect 12 0 1 7;
#X restore 231 107 pd fMaj;
#N canvas 182 140 762 372 fMin 0;
#X msg 253 83 bang;
#X obj 254 267 pack f f f f f f f f;
#X msg -85 157 349.228;
#X obj 241 40 inlet;
#X text 215 83 F Min;
#X msg -25 157 391.995;
#X msg 73 157 415.305;
#X msg 174 156 466.164;
#X msg 277 155 523.251;
#X msg 372 154 554.365;
#X msg 469 154 622.254;
#X msg 567 154 698.456;
#X obj 264 314 s fMin;
#X connect 0 0 11 0;
#X connect 0 0 9 0;
#X connect 0 0 8 0;
#X connect 0 0 7 0;
#X connect 0 0 6 0;
#X connect 0 0 5 0;
#X connect 0 0 2 0;
#X connect 0 0 10 0;
#X connect 1 0 12 0;
#X connect 2 0 1 0;
#X connect 3 0 0 0;
#X connect 5 0 1 1;
#X connect 6 0 1 2;
#X connect 7 0 1 3;
#X connect 8 0 1 4;
#X connect 9 0 1 5;
#X connect 10 0 1 6;
#X connect 11 0 1 7;
#X restore 282 107 pd fMin;
#X obj 28 58 route /cMaj /cMin /eMaj /eMin /fMaj /fMin /gMaj /gMin
;
#N canvas 0 22 832 333 gMaj 0;
#X msg 88 56 bang;
#X obj 89 240 pack f f f f f f f f;
#X obj 87 15 inlet;
#X text 50 56 G Maj;
#X msg -150 130 391.995;
#X msg -50 130 440;
#X msg -12 130 493.883;
#X obj 89 272 s gMaj;
#X msg 89 129 523.251;
#X msg 182 128 587.33;
#X msg 277 129 659.255;
#X msg 374 130 739.989;
#X msg 474 129 783.991;
#X connect 0 0 12 0;
#X connect 0 0 10 0;
#X connect 0 0 9 0;
#X connect 0 0 8 0;
#X connect 0 0 6 0;
#X connect 0 0 5 0;
#X connect 0 0 4 0;
#X connect 0 0 11 0;
#X connect 1 0 7 0;
#X connect 2 0 0 0;
#X connect 4 0 1 0;
#X connect 5 0 1 1;
#X connect 6 0 1 2;
#X connect 8 0 1 3;
#X connect 9 0 1 4;
#X connect 10 0 1 5;
#X connect 11 0 1 6;
#X connect 12 0 1 7;
#X restore 333 107 pd gMaj;
#X connect 0 0 1 0;
#X connect 1 0 9 0;
#X connect 9 0 2 0;
#X connect 9 1 3 0;
#X connect 9 2 4 0;
#X connect 9 3 5 0;
#X connect 9 4 7 0;
#X connect 9 5 8 0;
#X connect 9 6 10 0;
#X connect 9 7 6 0;
#X restore 779 272 pd key;
#X obj 46 236 metro 630;
#X msg 185 313 list /bpm \$1;
#X obj 228 260 \$1;
#X obj 185 237 t b b;
#X obj 185 288 /;
#X obj 185 259 60000;
#X text 709 271 Define Keys;
#N canvas 140 141 869 594 cutoff 0;
#X obj 316 -22 receive fromGUI;
#X obj 316 0 list trim;
#X obj 316 48 unpack f f f f f f f f f f f f f f f f, f 50;
#X obj 483 378 sig~;
#X obj 464 532 outlet~;
#X obj 316 23 route /cut;
#X obj 483 352 * 3000;
#X obj 670 325 send toGUI;
#X obj 301 420 inlet~;
#X obj 345 420 crossfade;
#X obj 345 343 receive fromGUI;
#X obj 330 459 *~;
#X obj 381 459 *~;
#X obj 345 366 list trim;
#X obj 345 388 route /cutMix;
#X msg 670 303 list /cutMix 0;
#X obj 670 280 r clear;
#X obj 504 488 vcf~ 1;
#X obj 550 417 / 250;
#X floatatom 550 398 5 0 0 0 - - -, f 5;
#X floatatom 550 438 5 0 0 0 - - -, f 5;
#X obj 445 489 vcf~ 1;
#X obj 532 457 clip 1 20;
#X obj 73 96 bangValue 0 16;
#X obj 109 125 bangValue 1 17;
#X obj 144 150 bangValue 2 18;
#X obj 186 187 bangValue 3 19;
#X obj 293 78 bangValue 4 20;
#X obj 307 118 bangValue 5 21;
#X obj 319 150 bangValue 6 22;
#X obj 333 196 bangValue 7 23;
#X obj 450 92 bangValue 8 24;
#X obj 461 120 bangValue 9 25;
#X obj 478 146 bangValue 10 26;
#X obj 503 178 bangValue 11 27;
#X obj 715 141 bangValue 15 28;
#X obj 717 164 bangValue 14 29;
#X obj 711 193 bangValue 13 30;
#X obj 718 219 bangValue 12 31;
#X connect 0 0 1 0;
#X connect 1 0 5 0;
#X connect 2 0 23 0;
#X connect 2 1 24 0;
#X connect 2 2 25 0;
#X connect 2 3 26 0;
#X connect 2 4 27 0;
#X connect 2 5 28 0;
#X connect 2 6 29 0;
#X connect 2 7 30 0;
#X connect 2 8 31 0;
#X connect 2 9 32 0;
#X connect 2 10 33 0;
#X connect 2 11 34 0;
#X connect 2 12 38 0;
#X connect 2 13 37 0;
#X connect 2 14 36 0;
#X connect 2 15 35 0;
#X connect 3 0 17 1;
#X connect 3 0 21 1;
#X connect 5 0 2 0;
#X connect 6 0 3 0;
#X connect 6 0 19 0;
#X connect 8 0 11 0;
#X connect 8 0 12 0;
#X connect 9 0 11 1;
#X connect 9 1 12 1;
#X connect 10 0 13 0;
#X connect 11 0 4 0;
#X connect 12 0 17 0;
#X connect 12 0 21 0;
#X connect 13 0 14 0;
#X connect 14 0 9 0;
#X connect 15 0 7 0;
#X connect 16 0 15 0;
#X connect 17 0 4 0;
#X connect 18 0 20 0;
#X connect 19 0 18 0;
#X connect 20 0 22 0;
#X connect 21 0 4 0;
#X connect 22 0 17 2;
#X connect 22 0 21 2;
#X connect 23 0 6 0;
#X connect 24 0 6 0;
#X connect 25 0 6 0;
#X connect 26 0 6 0;
#X connect 27 0 6 0;
#X connect 28 0 6 0;
#X connect 29 0 6 0;
#X connect 30 0 6 0;
#X connect 31 0 6 0;
#X connect 32 0 6 0;
#X connect 33 0 6 0;
#X connect 34 0 6 0;
#X connect 35 0 6 0;
#X connect 36 0 6 0;
#X connect 37 0 6 0;
#X connect 38 0 6 0;
#X restore 505 363 pd cutoff;
#X obj 484 284 adc~;
#X obj 505 458 dac~;
#N canvas 293 244 1120 369 clockSeq 0;
#X obj 7 46 r b0;
#X obj 127 46 r b1;
#X obj 247 45 r b2;
#X obj 367 45 r b3;
#X obj 487 45 r b4;
#X obj 607 45 r b5;
#X obj 727 43 r b6;
#X obj 847 43 r b7;
#X obj 7 101 r b8;
#X obj 123 101 r b9;
#X obj 239 101 r b10;
#X obj 359 101 r b11;
#X obj 480 101 r b12;
#X obj 600 101 r b13;
#X obj 720 101 r b14;
#X obj 840 101 r b15;
#X text 313 9 Clock Sequence on GUI;
#X obj -3 176 r b16;
#X obj 117 176 r b17;
#X obj 237 175 r b18;
#X obj 359 175 r b19;
#X obj 480 175 r b20;
#X obj 604 175 r b21;
#X obj 726 172 r b22;
#X obj 848 172 r b23;
#X obj -3 231 r b24;
#X obj 120 231 r b25;
#X obj 243 231 r b26;
#X obj 371 231 r b27;
#X obj 498 231 r b28;
#X obj 625 231 r b29;
#X obj 753 231 r b30;
#X obj 888 231 r b31;
#X obj 847 69 clockSeqPt 7 clock;
#X obj 727 69 clockSeqPt 6 clock;
#X obj 607 69 clockSeqPt 5 clock;
#X obj 487 69 clockSeqPt 4 clock;
#X obj 367 69 clockSeqPt 3 clock;
#X obj 247 69 clockSeqPt 2 clock;
#X obj 127 69 clockSeqPt 1 clock;
#X obj 7 69 clockSeqPt 0 clock;
#X obj 840 129 clockSeqPt 15 clock;
#X obj 720 129 clockSeqPt 14 clock;
#X obj 600 129 clockSeqPt 13 clock;
#X obj 480 129 clockSeqPt 12 clock;
#X obj 359 129 clockSeqPt 11 clock;
#X obj 239 129 clockSeqPt 10 clock;
#X obj 123 129 clockSeqPt 9 clock;
#X obj 7 129 clockSeqPt 8 clock;
#X obj -3 199 clockSeqPt 0 clock2;
#X obj 117 199 clockSeqPt 1 clock2;
#X obj 237 199 clockSeqPt 2 clock2;
#X obj 359 199 clockSeqPt 3 clock2;
#X obj 480 199 clockSeqPt 4 clock2;
#X obj 604 199 clockSeqPt 5 clock2;
#X obj 726 198 clockSeqPt 6 clock2;
#X obj 848 198 clockSeqPt 7 clock2;
#X obj -3 259 clockSeqPt 8 clock2;
#X obj 120 259 clockSeqPt 9 clock2;
#X obj 243 259 clockSeqPt 10 clock2;
#X obj 371 259 clockSeqPt 11 clock2;
#X obj 498 259 clockSeqPt 12 clock2;
#X obj 625 259 clockSeqPt 13 clock2;
#X obj 753 259 clockSeqPt 14 clock2;
#X obj 888 259 clockSeqPt 15 clock2;
#X connect 0 0 40 0;
#X connect 1 0 39 0;
#X connect 2 0 38 0;
#X connect 3 0 37 0;
#X connect 4 0 36 0;
#X connect 5 0 35 0;
#X connect 6 0 34 0;
#X connect 7 0 33 0;
#X connect 8 0 48 0;
#X connect 9 0 47 0;
#X connect 10 0 46 0;
#X connect 11 0 45 0;
#X connect 12 0 44 0;
#X connect 13 0 43 0;
#X connect 14 0 42 0;
#X connect 15 0 41 0;
#X connect 17 0 49 0;
#X connect 18 0 50 0;
#X connect 19 0 51 0;
#X connect 20 0 52 0;
#X connect 21 0 53 0;
#X connect 22 0 54 0;
#X connect 23 0 55 0;
#X connect 24 0 56 0;
#X connect 25 0 57 0;
#X connect 26 0 58 0;
#X connect 27 0 59 0;
#X connect 28 0 60 0;
#X connect 29 0 61 0;
#X connect 30 0 62 0;
#X connect 31 0 63 0;
#X connect 32 0 64 0;
#X restore 779 332 pd clockSeq;
#X obj 134 724 s b3;
#X obj 167 724 s b4;
#X obj 200 724 s b5;
#X obj 233 724 s b6;
#X obj 266 724 s b7;
#X obj 299 724 s b8;
#X obj 333 724 s b9;
#X obj 36 724 s b0;
#X obj 69 724 s b1;
#X obj 102 724 s b2;
#X obj 366 724 s b10;
#X obj 407 724 s b11;
#X obj 445 724 s b12;
#X obj 483 724 s b13;
#X obj 522 724 s b14;
#X obj 562 724 s b15;
#X text 727 302 SeqNotes;
#X text 739 331 guiSeq;
#X obj 520 248 receive fromGUI;
#X obj 520 270 list trim;
#X obj 520 292 route /mon;
#X obj 505 316 *~;
#N canvas 145 94 501 553 masterSliders 0;
#X obj 61 43 receive fromGUI;
#X obj 61 65 list trim;
#X obj 1 517 send toGUI;
#X msg 61 218 list /cut \$1 \$1 \$1 \$1 \$1 \$1 \$1 \$1 \$1 \$1 \$1
\$1 \$1 \$1 \$1 \$1;
#X msg 61 258 list /lofi \$1 \$1 \$1 \$1 \$1 \$1 \$1 \$1 \$1 \$1 \$1
\$1 \$1 \$1 \$1 \$1;
#X msg 61 287 list /delay \$1 \$1 \$1 \$1 \$1 \$1 \$1 \$1 \$1 \$1 \$1
\$1 \$1 \$1 \$1 \$1;
#X msg 60 315 list /reverb \$1 \$1 \$1 \$1 \$1 \$1 \$1 \$1 \$1 \$1
\$1 \$1 \$1 \$1 \$1 \$1;
#X msg 61 184 list /vel \$1 \$1 \$1 \$1 \$1 \$1 \$1 \$1 \$1 \$1 \$1
\$1 \$1 \$1 \$1 \$1;
#X msg 61 153 list /gates \$1 \$1 \$1 \$1 \$1 \$1 \$1 \$1 \$1 \$1 \$1
\$1 \$1 \$1 \$1 \$1;
#X obj 61 88 route /gateMaster /velMaster /cutMaster /lofiMaster /delayMaster
/reverbMaster /gateMaster2 /velMaster2, f 66;
#X msg 62 349 list /gates2 \$1 \$1 \$1 \$1 \$1 \$1 \$1 \$1 \$1 \$1
\$1 \$1 \$1 \$1 \$1 \$1;
#X msg 63 383 list /vel2 \$1 \$1 \$1 \$1 \$1 \$1 \$1 \$1 \$1 \$1 \$1
\$1 \$1 \$1 \$1 \$1;
#X connect 0 0 1 0;
#X connect 1 0 9 0;
#X connect 3 0 2 0;
#X connect 4 0 2 0;
#X connect 5 0 2 0;
#X connect 6 0 2 0;
#X connect 7 0 2 0;
#X connect 8 0 2 0;
#X connect 9 0 8 0;
#X connect 9 1 7 0;
#X connect 9 2 3 0;
#X connect 9 3 4 0;
#X connect 9 4 5 0;
#X connect 9 5 6 0;
#X connect 9 6 10 0;
#X connect 9 7 11 0;
#X connect 10 0 2 0;
#X connect 11 0 2 0;
#X restore 779 362 pd masterSliders;
#N canvas 0 22 646 677 lofi 0;
#X obj 114 496 samphold~;
#X obj 169 473 phasor~;
#X obj 116 -45 receive fromGUI;
#X obj 116 -23 list trim;
#X obj 116 25 unpack f f f f f f f f f f f f f f f f, f 50;
#X obj 116 0 route /lofi;
#X obj 114 561 outlet~;
#X obj 21 408 inlet~;
#X obj 98 232 send toGUI;
#X obj 98 185 r clear;
#X obj 78 415 crossfade;
#X obj 78 338 receive fromGUI;
#X obj 63 454 *~;
#X obj 114 454 *~;
#X obj 78 383 route /lofiMix;
#X obj 78 361 list trim;
#X msg 98 209 list /lofiMix 0;
#X obj 169 450 * 10000;
#X obj 340 140 bangValue 0 16;
#X obj 340 160 bangValue 1 17;
#X obj 340 180 bangValue 2 18;
#X obj 340 201 bangValue 3 19;
#X obj 340 222 bangValue 4 20;
#X obj 340 243 bangValue 5 21;
#X obj 340 264 bangValue 6 22;
#X obj 340 285 bangValue 7 23;
#X obj 522 182 bangValue 8 24;
#X obj 522 205 bangValue 9 25;
#X obj 522 226 bangValue 10 26;
#X obj 522 247 bangValue 11 27;
#X obj 522 268 bangValue 12 28;
#X obj 522 289 bangValue 13 29;
#X obj 522 308 bangValue 14 30;
#X obj 522 329 bangValue 15 31;
#X connect 0 0 6 0;
#X connect 1 0 0 1;
#X connect 2 0 3 0;
#X connect 3 0 5 0;
#X connect 4 0 18 0;
#X connect 4 1 19 0;
#X connect 4 2 20 0;
#X connect 4 3 21 0;
#X connect 4 4 22 0;
#X connect 4 5 23 0;
#X connect 4 6 24 0;
#X connect 4 7 25 0;
#X connect 4 8 26 0;
#X connect 4 9 27 0;
#X connect 4 10 28 0;
#X connect 4 11 29 0;
#X connect 4 12 30 0;
#X connect 4 13 31 0;
#X connect 4 14 32 0;
#X connect 4 15 33 0;
#X connect 5 0 4 0;
#X connect 7 0 12 0;
#X connect 7 0 13 0;
#X connect 9 0 16 0;
#X connect 10 0 12 1;
#X connect 10 1 13 1;
#X connect 11 0 15 0;
#X connect 12 0 6 0;
#X connect 13 0 0 0;
#X connect 14 0 10 0;
#X connect 15 0 14 0;
#X connect 16 0 8 0;
#X connect 17 0 1 0;
#X connect 18 0 17 0;
#X connect 19 0 17 0;
#X connect 20 0 17 0;
#X connect 21 0 17 0;
#X connect 22 0 17 0;
#X connect 23 0 17 0;
#X connect 24 0 17 0;
#X connect 25 0 17 0;
#X connect 26 0 17 0;
#X connect 27 0 17 0;
#X connect 28 0 17 0;
#X connect 29 0 17 0;
#X connect 30 0 17 0;
#X connect 31 0 17 0;
#X connect 32 0 17 0;
#X connect 33 0 17 0;
#X restore 505 341 pd lofi;
#X obj 308 77 s clear;
#N canvas 164 85 896 568 delay 0;
#X obj 296 299 *~;
#X obj 124 257 inlet~;
#X obj 195 383 outlet~;
#X obj 406 210 receive fromGUI;
#X obj 406 233 route list;
#X text 398 271 Delay Feedback;
#X obj 308 334 delwrite~ drumPitch 2000;
#X obj 406 253 route /delayFeed;
#X obj 229 -115 receive fromGUI;
#X obj 229 -93 list trim;
#X obj 229 -45 unpack f f f f f f f f f f f f f f f f, f 50;
#X obj 229 -70 route /delay;
#X msg 532 307 list /delayFeed 0;
#X obj 532 331 send toGUI;
#X obj 169 343 *~;
#X obj 220 343 *~;
#X obj 184 281 crossfade;
#X obj 184 221 loadbang;
#X msg 184 248 0.5;
#X obj 276 257 vd~ drumPitch;
#X obj 276 226 vline~;
#X msg 276 203 \$1 10;
#X obj 532 283 r clear;
#X obj 240 16 bangDelay 3 19;
#X obj -36 16 bangDelay 0 16;
#X obj 55 16 bangDelay 1 17;
#X obj 148 16 bangDelay 2 18;
#X obj -36 49 bangDelay 4 20;
#X obj 58 49 bangDelay 5 21;
#X obj 151 48 bangDelay 6 22;
#X obj 245 48 bangDelay 7 23;
#X obj 397 15 bangDelay 8 24;
#X obj 491 14 bangDelay 9 25;
#X obj 583 12 bangDelay 10 26;
#X obj 684 14 bangDelay 11 27;
#X obj 430 52 bangDelay 12 28;
#X obj 531 52 bangDelay 13 29;
#X obj 635 52 bangDelay 14 30;
#X obj 737 52 bangDelay 15 31;
#X connect 0 0 6 0;
#X connect 0 0 15 0;
#X connect 1 0 14 0;
#X connect 1 0 6 0;
#X connect 3 0 4 0;
#X connect 4 0 7 0;
#X connect 7 0 0 1;
#X connect 8 0 9 0;
#X connect 9 0 11 0;
#X connect 10 0 24 0;
#X connect 10 1 25 0;
#X connect 10 2 26 0;
#X connect 10 3 23 0;
#X connect 10 4 27 0;
#X connect 10 5 28 0;
#X connect 10 6 29 0;
#X connect 10 7 30 0;
#X connect 10 8 31 0;
#X connect 10 9 32 0;
#X connect 10 10 33 0;
#X connect 10 11 34 0;
#X connect 10 12 35 0;
#X connect 10 13 36 0;
#X connect 10 14 37 0;
#X connect 10 15 38 0;
#X connect 11 0 10 0;
#X connect 12 0 13 0;
#X connect 14 0 2 0;
#X connect 15 0 2 0;
#X connect 16 0 14 1;
#X connect 16 1 15 1;
#X connect 17 0 18 0;
#X connect 18 0 16 0;
#X connect 19 0 0 0;
#X connect 20 0 19 0;
#X connect 21 0 20 0;
#X connect 22 0 12 0;
#X connect 23 0 21 0;
#X connect 24 0 21 0;
#X connect 25 0 21 0;
#X connect 26 0 21 0;
#X connect 27 0 21 0;
#X connect 28 0 21 0;
#X connect 29 0 21 0;
#X connect 30 0 21 0;
#X connect 31 0 21 0;
#X connect 32 0 21 0;
#X connect 33 0 21 0;
#X connect 34 0 21 0;
#X connect 35 0 21 0;
#X connect 36 0 21 0;
#X connect 37 0 21 0;
#X connect 38 0 21 0;
#X restore 505 416 pd delay;
#X obj 234 231 s metro;
#N canvas 271 77 761 681 reverb 0;
#X obj 144 642 outlet~;
#X obj 160 487 inlet~;
#X obj 159 338 loadbang;
#X obj 217 340 hsl 128 15 0 1 0 1 empty empty 'roomsize' 20 8 0 10
-262144 -260097 -1 0 0;
#X obj 232 383 hsl 128 15 0 2.4 0 1 empty empty damp 20 8 0 10 -262144
-260097 -1 7937 0;
#X floatatom 223 361 5 0 0 0 - - -, f 5;
#X floatatom 238 403 5 0 0 0 - - -, f 5;
#X obj 262 476 hsl 128 15 0 1 0 1 empty empty wet 20 8 0 10 -262144
-260097 -1 6350 0;
#X obj 247 426 hsl 128 15 0 1 0 1 empty empty dry 20 8 0 10 -262144
-260097 -1 6350 0;
#N canvas 92 310 634 321 vfreeverb~ 0;
#N canvas 261 41 778 367 combfilters-left1 0;
#X obj 46 244 +~;
#X obj 61 219 *~ 0.3;
#X obj 61 194 lop~ 1000;
#X obj 231 244 +~;
#X obj 246 219 *~ 0.3;
#X obj 246 194 lop~ 1000;
#X obj 429 218 *~ 0.3;
#X obj 429 193 lop~ 1000;
#X obj 414 241 +~;
#X obj 610 218 *~ 0.3;
#X obj 610 193 lop~ 1000;
#X obj 595 241 +~;
#X obj 61 141 delread~ \$0-comb1left;
#X obj 246 142 delread~ \$0-comb2left;
#X obj 429 141 delread~ \$0-comb3left;
#X obj 610 141 delread~ \$0-comb4left;
#X obj 46 268 delwrite~ \$0-comb1left 100;
#X obj 231 268 delwrite~ \$0-comb2left 100;
#X obj 414 267 delwrite~ \$0-comb3left 100;
#X obj 595 267 delwrite~ \$0-comb4left 100;
#X obj 61 97 r \$0-comb1left;
#X obj 246 97 r \$0-comb2left;
#X obj 429 95 r \$0-comb3left;
#X obj 610 96 r \$0-comb4left;
#X obj 112 170 r \$0-frequency;
#X obj 297 170 r \$0-frequency;
#X obj 480 167 r \$0-frequency;
#X obj 661 167 r \$0-frequency;
#X obj 46 28 inlet~;
#X obj 338 326 outlet~;
#X floatatom 70 119 5 0 0 0 - - -, f 5;
#X floatatom 255 121 5 0 0 0 - - -, f 5;
#X floatatom 439 119 5 0 0 0 - - -, f 5;
#X floatatom 622 121 5 0 0 0 - - -, f 5;
#X obj 279 58 clip 0 0.99;
#X obj 279 29 r \$0-room;
#X connect 0 0 16 0;
#X connect 1 0 0 1;
#X connect 2 0 1 0;
#X connect 2 0 29 0;
#X connect 3 0 17 0;
#X connect 4 0 3 1;
#X connect 5 0 4 0;
#X connect 5 0 29 0;
#X connect 6 0 8 1;
#X connect 7 0 6 0;
#X connect 7 0 29 0;
#X connect 8 0 18 0;
#X connect 9 0 11 1;
#X connect 10 0 9 0;
#X connect 10 0 29 0;
#X connect 11 0 19 0;
#X connect 12 0 2 0;
#X connect 13 0 5 0;
#X connect 14 0 7 0;
#X connect 15 0 10 0;
#X connect 20 0 12 0;
#X connect 20 0 30 0;
#X connect 21 0 13 0;
#X connect 21 0 31 0;
#X connect 22 0 14 0;
#X connect 22 0 32 0;
#X connect 23 0 15 0;
#X connect 23 0 33 0;
#X connect 24 0 2 1;
#X connect 25 0 5 1;
#X connect 26 0 7 1;
#X connect 27 0 10 1;
#X connect 28 0 0 0;
#X connect 28 0 3 0;
#X connect 28 0 8 0;
#X connect 28 0 11 0;
#X connect 34 0 1 1;
#X connect 34 0 4 1;
#X connect 34 0 6 1;
#X connect 34 0 9 1;
#X connect 35 0 34 0;
#X restore 15 100 pd combfilters-left1;
#N canvas 27 56 358 650 diffusor-left 0;
#X obj 51 107 *~ 0.5;
#X obj 36 132 +~;
#X obj 66 132 -~;
#X obj 36 26 inlet~;
#X obj 81 238 *~ 0.5;
#X obj 66 263 +~;
#X obj 96 263 -~;
#X obj 111 368 *~ 0.5;
#X obj 96 393 +~;
#X obj 126 393 -~;
#X obj 141 498 *~ 0.5;
#X obj 126 523 +~;
#X obj 156 523 -~;
#X obj 156 605 outlet~;
#X text 95 28 freeverb's diffusor;
#X obj 156 576 hip~ 5;
#X floatatom 214 70 5 0 0 0 - - -, f 5;
#X floatatom 246 203 5 0 0 0 - - -, f 5;
#X floatatom 280 334 5 0 0 0 - - -, f 5;
#X floatatom 304 464 5 0 0 0 - - -, f 5;
#X obj 51 53 r \$0-allpass1left;
#X obj 51 80 delread~ \$0-allpass1left;
#X obj 36 158 delwrite~ \$0-allpass1left 40;
#X obj 81 186 r \$0-allpass2left;
#X obj 81 211 delread~ \$0-allpass2left;
#X obj 66 290 delwrite~ \$0-allpass2left 40;
#X obj 111 317 r \$0-allpass3left;
#X obj 111 341 delread~ \$0-allpass3left;
#X obj 96 420 delwrite~ \$0-allpass3left 40;
#X obj 141 447 r \$0-allpass4left;
#X obj 141 471 delread~ \$0-allpass4left;
#X obj 126 550 delwrite~ \$0-allpass4left 40;
#X connect 0 0 1 1;
#X connect 1 0 22 0;
#X connect 2 0 5 0;
#X connect 2 0 6 1;
#X connect 3 0 1 0;
#X connect 3 0 2 1;
#X connect 4 0 5 1;
#X connect 5 0 25 0;
#X connect 6 0 8 0;
#X connect 6 0 9 1;
#X connect 7 0 8 1;
#X connect 8 0 28 0;
#X connect 9 0 11 0;
#X connect 9 0 12 1;
#X connect 10 0 11 1;
#X connect 11 0 31 0;
#X connect 12 0 15 0;
#X connect 15 0 13 0;
#X connect 20 0 16 0;
#X connect 20 0 21 0;
#X connect 21 0 0 0;
#X connect 21 0 2 0;
#X connect 23 0 17 0;
#X connect 23 0 24 0;
#X connect 24 0 4 0;
#X connect 24 0 6 0;
#X connect 26 0 18 0;
#X connect 26 0 27 0;
#X connect 27 0 7 0;
#X connect 27 0 9 0;
#X connect 29 0 19 0;
#X connect 29 0 30 0;
#X connect 30 0 10 0;
#X connect 30 0 12 0;
#X restore 15 168 pd diffusor-left;
#N canvas 312 366 778 367 combfilters-left2 0;
#X obj 46 244 +~;
#X obj 61 219 *~ 0.3;
#X obj 61 194 lop~ 1000;
#X obj 231 244 +~;
#X obj 246 219 *~ 0.3;
#X obj 246 194 lop~ 1000;
#X obj 429 218 *~ 0.3;
#X obj 429 193 lop~ 1000;
#X obj 414 241 +~;
#X obj 610 218 *~ 0.3;
#X obj 610 193 lop~ 1000;
#X obj 595 241 +~;
#X obj 112 170 r \$0-frequency;
#X obj 297 170 r \$0-frequency;
#X obj 480 167 r \$0-frequency;
#X obj 661 167 r \$0-frequency;
#X obj 46 28 inlet~;
#X obj 338 326 outlet~;
#X obj 61 90 r \$0-comb5left;
#X obj 61 141 delread~ \$0-comb5left;
#X obj 46 268 delwrite~ \$0-comb5left 100;
#X obj 246 90 r \$0-comb6left;
#X obj 246 142 delread~ \$0-comb6left;
#X obj 231 268 delwrite~ \$0-comb6left 100;
#X obj 429 88 r \$0-comb7left;
#X obj 429 141 delread~ \$0-comb7left;
#X obj 414 267 delwrite~ \$0-comb7left 100;
#X obj 610 89 r \$0-comb8left;
#X obj 610 141 delread~ \$0-comb8left;
#X obj 595 267 delwrite~ \$0-comb8left 100;
#X floatatom 70 116 5 0 0 0 - - -, f 5;
#X floatatom 261 118 5 0 0 0 - - -, f 5;
#X floatatom 440 117 5 0 0 0 - - -, f 5;
#X floatatom 620 116 5 0 0 0 - - -, f 5;
#X obj 279 58 clip 0 0.99;
#X obj 279 28 r \$0-room;
#X connect 0 0 20 0;
#X connect 1 0 0 1;
#X connect 2 0 1 0;
#X connect 2 0 17 0;
#X connect 3 0 23 0;
#X connect 4 0 3 1;
#X connect 5 0 4 0;
#X connect 5 0 17 0;
#X connect 6 0 8 1;
#X connect 7 0 6 0;
#X connect 7 0 17 0;
#X connect 8 0 26 0;
#X connect 9 0 11 1;
#X connect 10 0 9 0;
#X connect 10 0 17 0;
#X connect 11 0 29 0;
#X connect 12 0 2 1;
#X connect 13 0 5 1;
#X connect 14 0 7 1;
#X connect 15 0 10 1;
#X connect 16 0 0 0;
#X connect 16 0 3 0;
#X connect 16 0 8 0;
#X connect 16 0 11 0;
#X connect 18 0 19 0;
#X connect 18 0 30 0;
#X connect 19 0 2 0;
#X connect 21 0 22 0;
#X connect 21 0 31 0;
#X connect 22 0 5 0;
#X connect 24 0 25 0;
#X connect 24 0 32 0;
#X connect 25 0 7 0;
#X connect 27 0 28 0;
#X connect 27 0 33 0;
#X connect 28 0 10 0;
#X connect 34 0 1 1;
#X connect 34 0 4 1;
#X connect 34 0 6 1;
#X connect 34 0 9 1;
#X connect 35 0 34 0;
#X restore 36 134 pd combfilters-left2;
#N canvas 261 41 778 367 combfilters-right1 0;
#X obj 46 244 +~;
#X obj 61 219 *~ 0.3;
#X obj 61 194 lop~ 1000;
#X obj 231 244 +~;
#X obj 246 219 *~ 0.3;
#X obj 246 194 lop~ 1000;
#X obj 429 218 *~ 0.3;
#X obj 429 193 lop~ 1000;
#X obj 414 241 +~;
#X obj 610 218 *~ 0.3;
#X obj 610 193 lop~ 1000;
#X obj 595 241 +~;
#X obj 112 170 r \$0-frequency;
#X obj 297 170 r \$0-frequency;
#X obj 480 167 r \$0-frequency;
#X obj 661 167 r \$0-frequency;
#X obj 46 28 inlet~;
#X obj 338 326 outlet~;
#X floatatom 70 119 5 0 0 0 - - -, f 5;
#X floatatom 255 121 5 0 0 0 - - -, f 5;
#X floatatom 439 119 5 0 0 0 - - -, f 5;
#X floatatom 622 121 5 0 0 0 - - -, f 5;
#X obj 61 141 delread~ \$0-comb1right;
#X obj 246 142 delread~ \$0-comb2right;
#X obj 429 141 delread~ \$0-comb3right;
#X obj 610 141 delread~ \$0-comb4right;
#X obj 61 97 r \$0-comb1right;
#X obj 246 97 r \$0-comb2right;
#X obj 429 95 r \$0-comb3right;
#X obj 610 97 r \$0-comb4right;
#X obj 46 268 delwrite~ \$0-comb1right 100;
#X obj 231 268 delwrite~ \$0-comb2right 100;
#X obj 414 267 delwrite~ \$0-comb3right 100;
#X obj 595 267 delwrite~ \$0-comb4right 100;
#X obj 279 58 clip 0 0.99;
#X obj 279 28 r \$0-room;
#X connect 0 0 30 0;
#X connect 1 0 0 1;
#X connect 2 0 1 0;
#X connect 2 0 17 0;
#X connect 3 0 31 0;
#X connect 4 0 3 1;
#X connect 5 0 4 0;
#X connect 5 0 17 0;
#X connect 6 0 8 1;
#X connect 7 0 6 0;
#X connect 7 0 17 0;
#X connect 8 0 32 0;
#X connect 9 0 11 1;
#X connect 10 0 9 0;
#X connect 10 0 17 0;
#X connect 11 0 33 0;
#X connect 12 0 2 1;
#X connect 13 0 5 1;
#X connect 14 0 7 1;
#X connect 15 0 10 1;
#X connect 16 0 0 0;
#X connect 16 0 3 0;
#X connect 16 0 8 0;
#X connect 16 0 11 0;
#X connect 22 0 2 0;
#X connect 23 0 5 0;
#X connect 24 0 7 0;
#X connect 25 0 10 0;
#X connect 26 0 18 0;
#X connect 26 0 22 0;
#X connect 27 0 19 0;
#X connect 27 0 23 0;
#X connect 28 0 20 0;
#X connect 28 0 24 0;
#X connect 29 0 21 0;
#X connect 29 0 25 0;
#X connect 34 0 1 1;
#X connect 34 0 4 1;
#X connect 34 0 6 1;
#X connect 34 0 9 1;
#X connect 35 0 34 0;
#X restore 208 99 pd combfilters-right1;
#N canvas 312 366 778 367 combfilters-right2 0;
#X obj 46 244 +~;
#X obj 61 219 *~ 0.3;
#X obj 61 194 lop~ 1000;
#X obj 231 244 +~;
#X obj 246 219 *~ 0.3;
#X obj 246 194 lop~ 1000;
#X obj 429 218 *~ 0.3;
#X obj 429 193 lop~ 1000;
#X obj 414 241 +~;
#X obj 610 218 *~ 0.3;
#X obj 610 193 lop~ 1000;
#X obj 595 241 +~;
#X obj 112 170 r \$0-frequency;
#X obj 297 170 r \$0-frequency;
#X obj 480 167 r \$0-frequency;
#X obj 661 167 r \$0-frequency;
#X obj 46 28 inlet~;
#X obj 338 326 outlet~;
#X floatatom 70 116 5 0 0 0 - - -, f 5;
#X floatatom 261 118 5 0 0 0 - - -, f 5;
#X floatatom 440 117 5 0 0 0 - - -, f 5;
#X floatatom 620 116 5 0 0 0 - - -, f 5;
#X obj 279 58 clip 0 0.99;
#X obj 61 90 r \$0-comb5right;
#X obj 246 90 r \$0-comb6right;
#X obj 429 88 r \$0-comb7right;
#X obj 610 89 r \$0-comb8right;
#X obj 61 141 delread~ \$0-comb5right;
#X obj 246 142 delread~ \$0-comb6right;
#X obj 429 141 delread~ \$0-comb7right;
#X obj 610 141 delread~ \$0-comb8right;
#X obj 46 268 delwrite~ \$0-comb5right 100;
#X obj 231 268 delwrite~ \$0-comb6right 100;
#X obj 414 267 delwrite~ \$0-comb7right 100;
#X obj 595 267 delwrite~ \$0-comb8right 100;
#X obj 279 28 r \$0-room;
#X connect 0 0 31 0;
#X connect 1 0 0 1;
#X connect 2 0 1 0;
#X connect 2 0 17 0;
#X connect 3 0 32 0;
#X connect 4 0 3 1;
#X connect 5 0 4 0;
#X connect 5 0 17 0;
#X connect 6 0 8 1;
#X connect 7 0 6 0;
#X connect 7 0 17 0;
#X connect 8 0 33 0;
#X connect 9 0 11 1;
#X connect 10 0 9 0;
#X connect 10 0 17 0;
#X connect 11 0 34 0;
#X connect 12 0 2 1;
#X connect 13 0 5 1;
#X connect 14 0 7 1;
#X connect 15 0 10 1;
#X connect 16 0 0 0;
#X connect 16 0 3 0;
#X connect 16 0 8 0;
#X connect 16 0 11 0;
#X connect 22 0 1 1;
#X connect 22 0 4 1;
#X connect 22 0 6 1;
#X connect 22 0 9 1;
#X connect 23 0 18 0;
#X connect 23 0 27 0;
#X connect 24 0 19 0;
#X connect 24 0 28 0;
#X connect 25 0 20 0;
#X connect 25 0 29 0;
#X connect 26 0 21 0;
#X connect 26 0 30 0;
#X connect 27 0 2 0;
#X connect 28 0 5 0;
#X connect 29 0 7 0;
#X connect 30 0 10 0;
#X connect 35 0 22 0;
#X restore 225 133 pd combfilters-right2;
#N canvas 27 56 358 650 diffusor-right 0;
#X obj 51 107 *~ 0.5;
#X obj 36 132 +~;
#X obj 66 132 -~;
#X obj 36 26 inlet~;
#X obj 81 238 *~ 0.5;
#X obj 66 263 +~;
#X obj 96 263 -~;
#X obj 111 368 *~ 0.5;
#X obj 96 393 +~;
#X obj 126 393 -~;
#X obj 141 498 *~ 0.5;
#X obj 126 523 +~;
#X obj 156 523 -~;
#X obj 156 605 outlet~;
#X text 95 28 freeverb's diffusor;
#X obj 156 576 hip~ 5;
#X floatatom 214 70 5 0 0 0 - - -, f 5;
#X floatatom 244 203 5 0 0 0 - - -, f 5;
#X floatatom 280 334 5 0 0 0 - - -, f 5;
#X floatatom 304 464 5 0 0 0 - - -, f 5;
#X obj 51 53 r \$0-allpass1right;
#X obj 51 80 delread~ \$0-allpass1right;
#X obj 36 158 delwrite~ \$0-allpass1right 40;
#X obj 81 186 r \$0-allpass2right;
#X obj 81 211 delread~ \$0-allpass2right;
#X obj 66 290 delwrite~ \$0-allpass2right 40;
#X obj 111 317 r \$0-allpass3right;
#X obj 111 341 delread~ \$0-allpass3right;
#X obj 96 420 delwrite~ \$0-allpass3right 40;
#X obj 141 447 r \$0-allpass4right;
#X obj 141 471 delread~ \$0-allpass4right;
#X obj 126 550 delwrite~ \$0-allpass4right 40;
#X connect 0 0 1 1;
#X connect 1 0 22 0;
#X connect 2 0 5 0;
#X connect 2 0 6 1;
#X connect 3 0 1 0;
#X connect 3 0 2 1;
#X connect 4 0 5 1;
#X connect 5 0 25 0;
#X connect 6 0 8 0;
#X connect 6 0 9 1;
#X connect 7 0 8 1;
#X connect 8 0 28 0;
#X connect 9 0 11 0;
#X connect 9 0 12 1;
#X connect 10 0 11 1;
#X connect 11 0 31 0;
#X connect 12 0 15 0;
#X connect 15 0 13 0;
#X connect 20 0 16 0;
#X connect 20 0 21 0;
#X connect 21 0 0 0;
#X connect 21 0 2 0;
#X connect 23 0 17 0;
#X connect 23 0 24 0;
#X connect 24 0 4 0;
#X connect 24 0 6 0;
#X connect 26 0 18 0;
#X connect 26 0 27 0;
#X connect 27 0 7 0;
#X connect 27 0 9 0;
#X connect 29 0 19 0;
#X connect 29 0 30 0;
#X connect 30 0 10 0;
#X connect 30 0 12 0;
#X restore 208 169 pd diffusor-right;
#X obj 208 61 *~ 0.015;
#X obj 15 226 *~ 1;
#X obj 208 228 *~ 1;
#X obj 94 228 *~ 1;
#X obj 169 228 *~ 1;
#X obj 115 202 r \$0-dry;
#X obj 229 203 r \$0-wet;
#X obj 36 201 r \$0-wet;
#X obj 94 14 inlet~;
#X obj 208 14 inlet~;
#X obj 15 268 outlet~;
#X obj 169 269 outlet~;
#X obj 312 14 inlet;
#X obj 374 14 inlet;
#X obj 462 14 inlet;
#X obj 544 16 inlet;
#N canvas 0 22 207 207 room 0;
#X obj 32 35 inlet;
#X obj 32 63 * 0.28;
#X obj 32 94 + 0.7;
#X obj 32 160 outlet;
#X text 80 65 scaleroom;
#X text 76 94 offsetroom;
#X obj 47 126 s \$0-room;
#X connect 0 0 1 0;
#X connect 1 0 2 0;
#X connect 2 0 3 0;
#X connect 2 0 6 0;
#X restore 312 45 pd room;
#N canvas 684 169 244 376 frequency 0;
#X obj 60 222 samplerate~;
#X obj 33 8 inlet;
#X obj 33 194 t f b;
#X obj 33 249 *;
#X obj 53 303 s \$0-frequency;
#X obj 33 327 outlet;
#X obj 33 64 * 0.4;
#X text 76 66 scaledamp;
#X obj 33 90 t b f;
#X obj 33 141 -;
#X msg 33 116 1;
#X obj 33 168 abs;
#X obj 33 275 * 0.5;
#X text 153 303 for [lop~];
#X obj 33 38 clip 0 2.4;
#X connect 0 0 3 1;
#X connect 1 0 14 0;
#X connect 2 0 3 0;
#X connect 2 1 0 0;
#X connect 3 0 12 0;
#X connect 6 0 8 0;
#X connect 8 0 10 0;
#X connect 8 1 9 1;
#X connect 9 0 11 0;
#X connect 10 0 9 0;
#X connect 11 0 2 0;
#X connect 12 0 5 0;
#X connect 12 0 4 0;
#X connect 14 0 6 0;
#X restore 374 45 pd frequency;
#N canvas 0 22 170 187 scalewet 0;
#X obj 22 42 inlet;
#X obj 22 143 outlet;
#X obj 22 73 * 3;
#X text 49 74 scalewet;
#X obj 40 112 s \$0-wet;
#X connect 0 0 2 0;
#X connect 2 0 1 0;
#X connect 2 0 4 0;
#X restore 544 45 pd scalewet;
#N canvas 0 22 220 198 scaledry 0;
#X obj 32 74 * 2;
#X obj 32 40 inlet;
#X obj 32 141 outlet;
#X text 58 75 scaledry;
#X obj 41 105 s \$0-dry;
#X connect 0 0 2 0;
#X connect 0 0 4 0;
#X connect 1 0 0 0;
#X restore 462 45 pd scaledry;
#X floatatom 312 70 5 0 0 0 - - -, f 5;
#X floatatom 374 70 10 0 0 0 - - -, f 10;
#X floatatom 462 69 5 0 0 0 - - -, f 5;
#X floatatom 544 69 5 0 0 0 - - -, f 5;
#N canvas 405 27 635 684 tuning 0;
#X msg 332 81 1139 \, 1211 \, 1300 \, 1379 \, 1445 \, 1514 \, 1580
\, 1640;
#X text 72 57 combfilter tunings left;
#X text 377 56 combfilter tunings right;
#X text 71 360 allpass tunings left;
#X text 383 355 allpass tunings right;
#N canvas 243 170 195 233 sampstoms 0;
#X obj 27 21 inlet;
#X obj 54 86 samplerate~;
#X obj 27 111 /;
#X obj 27 57 t f b;
#X obj 27 136 * 1000;
#X obj 27 162 outlet;
#X connect 0 0 3 0;
#X connect 1 0 2 1;
#X connect 2 0 4 0;
#X connect 3 0 2 0;
#X connect 3 1 1 0;
#X connect 4 0 5 0;
#X restore 30 107 pd sampstoms;
#X msg 30 82 1116 \, 1188 \, 1277 \, 1356 \, 1422 \, 1491 \, 1557 \,
1617;
#X obj 57 188 +;
#X msg 57 159 1;
#X obj 30 135 t f b;
#X obj 87 188 f;
#X obj 30 56 t b b;
#X msg 87 159 0;
#X obj 57 212 pack f \$0;
#X msg 57 238 \$2-comb\$1left;
#X obj 30 282 s;
#X obj 57 265 symbol;
#N canvas 0 22 195 233 sampstoms 0;
#X obj 27 21 inlet;
#X obj 54 86 samplerate~;
#X obj 27 111 /;
#X obj 27 57 t f b;
#X obj 27 136 * 1000;
#X obj 27 162 outlet;
#X connect 0 0 3 0;
#X connect 1 0 2 1;
#X connect 2 0 4 0;
#X connect 3 0 2 0;
#X connect 3 1 1 0;
#X connect 4 0 5 0;
#X restore 332 107 pd sampstoms;
#X obj 359 188 +;
#X msg 359 159 1;
#X obj 332 135 t f b;
#X obj 389 188 f;
#X msg 389 159 0;
#X obj 359 212 pack f \$0;
#X obj 332 282 s;
#X obj 359 265 symbol;
#X obj 332 56 t b b;
#X msg 359 238 \$2-comb\$1right;
#X obj 30 360 t b b;
#N canvas 0 22 195 233 sampstoms 0;
#X obj 27 21 inlet;
#X obj 54 86 samplerate~;
#X obj 27 111 /;
#X obj 27 57 t f b;
#X obj 27 136 * 1000;
#X obj 27 162 outlet;
#X connect 0 0 3 0;
#X connect 1 0 2 1;
#X connect 2 0 4 0;
#X connect 3 0 2 0;
#X connect 3 1 1 0;
#X connect 4 0 5 0;
#X restore 30 411 pd sampstoms;
#X obj 57 492 +;
#X msg 57 463 1;
#X obj 30 439 t f b;
#X obj 87 492 f;
#X msg 87 463 0;
#X obj 57 516 pack f \$0;
#X obj 30 586 s;
#X obj 57 569 symbol;
#X obj 334 356 t b b;
#N canvas 0 22 195 233 sampstoms 0;
#X obj 27 21 inlet;
#X obj 54 86 samplerate~;
#X obj 27 111 /;
#X obj 27 57 t f b;
#X obj 27 136 * 1000;
#X obj 27 162 outlet;
#X connect 0 0 3 0;
#X connect 1 0 2 1;
#X connect 2 0 4 0;
#X connect 3 0 2 0;
#X connect 3 1 1 0;
#X connect 4 0 5 0;
#X restore 334 407 pd sampstoms;
#X obj 361 488 +;
#X msg 361 459 1;
#X obj 334 435 t f b;
#X obj 391 488 f;
#X msg 391 459 0;
#X obj 361 512 pack f \$0;
#X obj 334 582 s;
#X obj 361 565 symbol;
#X obj 30 22 loadbang;
#X obj 332 27 loadbang;
#X obj 30 334 loadbang;
#X obj 334 331 loadbang;
#X obj 268 41 bng 15 250 50 0 empty empty empty 17 7 0 10 -262144 -1
-1;
#X msg 30 386 225 \, 556 \, 441 \, 341;
#X msg 334 380 248 \, 579 \, 464 \, 364;
#X msg 57 542 \$2-allpass\$1left;
#X msg 361 539 \$2-allpass\$1right;
#X text 27 624 Original Freeverb delay line lengths are converted to
milliseconds \, based on samplerate.;
#X connect 0 0 17 0;
#X connect 5 0 9 0;
#X connect 6 0 5 0;
#X connect 7 0 10 0;
#X connect 7 0 13 0;
#X connect 8 0 7 0;
#X connect 9 0 15 0;
#X connect 9 1 8 0;
#X connect 10 0 7 1;
#X connect 11 0 6 0;
#X connect 11 1 12 0;
#X connect 12 0 10 0;
#X connect 13 0 14 0;
#X connect 14 0 16 0;
#X connect 16 0 15 1;
#X connect 17 0 20 0;
#X connect 18 0 21 0;
#X connect 18 0 23 0;
#X connect 19 0 18 0;
#X connect 20 0 24 0;
#X connect 20 1 19 0;
#X connect 21 0 18 1;
#X connect 22 0 21 0;
#X connect 23 0 27 0;
#X connect 25 0 24 1;
#X connect 26 0 0 0;
#X connect 26 1 22 0;
#X connect 27 0 25 0;
#X connect 28 0 53 0;
#X connect 28 1 34 0;
#X connect 29 0 32 0;
#X connect 30 0 33 0;
#X connect 30 0 35 0;
#X connect 31 0 30 0;
#X connect 32 0 36 0;
#X connect 32 1 31 0;
#X connect 33 0 30 1;
#X connect 34 0 33 0;
#X connect 35 0 55 0;
#X connect 37 0 36 1;
#X connect 38 0 54 0;
#X connect 38 1 44 0;
#X connect 39 0 42 0;
#X connect 40 0 43 0;
#X connect 40 0 45 0;
#X connect 41 0 40 0;
#X connect 42 0 46 0;
#X connect 42 1 41 0;
#X connect 43 0 40 1;
#X connect 44 0 43 0;
#X connect 45 0 56 0;
#X connect 47 0 46 1;
#X connect 48 0 11 0;
#X connect 49 0 26 0;
#X connect 50 0 28 0;
#X connect 51 0 38 0;
#X connect 52 0 11 0;
#X connect 52 0 28 0;
#X connect 52 0 26 0;
#X connect 52 0 38 0;
#X connect 53 0 29 0;
#X connect 54 0 39 0;
#X connect 55 0 37 0;
#X connect 56 0 47 0;
#X restore 410 141 pd tuning;
#X connect 0 0 1 0;
#X connect 1 0 7 0;
#X connect 2 0 1 0;
#X connect 3 0 5 0;
#X connect 4 0 5 0;
#X connect 5 0 8 0;
#X connect 6 0 3 0;
#X connect 6 0 0 0;
#X connect 6 0 4 0;
#X connect 6 0 2 0;
#X connect 7 0 16 0;
#X connect 8 0 17 0;
#X connect 9 0 16 0;
#X connect 10 0 17 0;
#X connect 11 0 10 1;
#X connect 11 0 9 1;
#X connect 12 0 8 1;
#X connect 13 0 7 1;
#X connect 14 0 6 0;
#X connect 14 0 9 0;
#X connect 15 0 6 0;
#X connect 15 0 10 0;
#X connect 18 0 22 0;
#X connect 19 0 23 0;
#X connect 20 0 25 0;
#X connect 21 0 24 0;
#X connect 22 0 26 0;
#X connect 23 0 27 0;
#X connect 24 0 29 0;
#X connect 25 0 28 0;
#X restore 184 532 pd vfreeverb~;
#X obj 21 475 crossfade;
#X obj 21 404 receive fromGUI;
#X obj 21 428 list trim;
#X obj 451 412 send toGUI;
#X obj 451 364 r clear;
#X obj 151 13 receive fromGUI;
#X obj 151 35 list trim;
#X obj 151 83 unpack f f f f f f f f f f f f f f f f, f 50;
#X obj 151 58 route /reverb;
#X msg 451 387 list /reverbMix 0;
#X obj 21 452 route /reverbMix;
#X msg 159 361 1.5, f 4;
#X msg 178 403 0.5;
#X obj 122 585 *~;
#X obj 162 585 *~;
#X obj 44 129 bangValue 0 16;
#X obj 80 158 bangValue 1 17;
#X obj 115 183 bangValue 2 18;
#X obj 157 220 bangValue 3 19;
#X obj 228 128 bangValue 4 20;
#X obj 242 168 bangValue 5 21;
#X obj 254 200 bangValue 6 22;
#X obj 268 246 bangValue 7 23;
#X obj 339 132 bangValue 8 24;
#X obj 367 167 bangValue 9 25;
#X obj 384 193 bangValue 10 26;
#X obj 410 225 bangValue 11 27;
#X obj 621 188 bangValue 15 28;
#X obj 623 211 bangValue 14 29;
#X obj 617 240 bangValue 13 30;
#X obj 624 266 bangValue 12 31;
#X connect 1 0 9 0;
#X connect 1 0 9 1;
#X connect 1 0 23 0;
#X connect 2 0 21 0;
#X connect 2 0 22 0;
#X connect 3 0 5 0;
#X connect 3 0 9 2;
#X connect 4 0 6 0;
#X connect 4 0 9 3;
#X connect 7 0 9 5;
#X connect 8 0 9 4;
#X connect 9 0 24 0;
#X connect 9 1 24 0;
#X connect 10 0 23 1;
#X connect 10 1 24 1;
#X connect 11 0 12 0;
#X connect 12 0 20 0;
#X connect 14 0 19 0;
#X connect 15 0 16 0;
#X connect 16 0 18 0;
#X connect 17 0 25 0;
#X connect 17 1 26 0;
#X connect 17 2 27 0;
#X connect 17 3 28 0;
#X connect 17 4 29 0;
#X connect 17 5 30 0;
#X connect 17 6 31 0;
#X connect 17 7 32 0;
#X connect 17 8 33 0;
#X connect 17 9 34 0;
#X connect 17 10 35 0;
#X connect 17 11 36 0;
#X connect 17 12 40 0;
#X connect 17 13 39 0;
#X connect 17 14 38 0;
#X connect 17 15 37 0;
#X connect 18 0 17 0;
#X connect 19 0 13 0;
#X connect 20 0 10 0;
#X connect 21 0 4 0;
#X connect 22 0 8 0;
#X connect 22 0 7 0;
#X connect 23 0 0 0;
#X connect 24 0 0 0;
#X connect 25 0 3 0;
#X connect 26 0 3 0;
#X connect 27 0 3 0;
#X connect 28 0 3 0;
#X connect 29 0 3 0;
#X connect 30 0 3 0;
#X connect 31 0 3 0;
#X connect 32 0 3 0;
#X connect 33 0 3 0;
#X connect 34 0 3 0;
#X connect 35 0 3 0;
#X connect 36 0 3 0;
#X connect 37 0 3 0;
#X connect 38 0 3 0;
#X connect 39 0 3 0;
#X connect 40 0 3 0;
#X restore 505 389 pd reverb;
#X floatatom 205 108 10 0 0 0 - - -, f 10;
#X obj 205 86 * 1000;
#X obj 175 103 300;
#X obj 185 132 +;
#X floatatom 185 196 10 0 0 0 - - -, f 10;
#X obj 175 84 bng 15 250 50 0 empty empty empty 17 7 0 10 -262144 -1
-1;
#X msg 199 175 500;
#X text 691 361 Master Sliders;
#X msg 68 486 16;
#X msg 108 486 32;
#X obj 68 372 receive fromGUI;
#X obj 68 395 route list;
#X obj 36 547 sel 0 1 2 3 4 5 6 7 8 9 10 11 12 13 14 15 16 17 18 19
20 21 22 23 24 25 26 27 28 29 30 31, f 187;
#X obj 606 724 s b16;
#X obj 646 724 s b17;
#X obj 686 724 s b18;
#X obj 726 724 s b19;
#X obj 766 724 s b20;
#X obj 806 724 s b21;
#X obj 846 724 s b22;
#X obj 886 724 s b23;
#X obj 926 724 s b24;
#X obj 966 724 s b25;
#X obj 1006 724 s b26;
#X obj 1046 724 s b27;
#X obj 1086 724 s b28;
#X obj 1126 724 s b29;
#X obj 1166 724 s b30;
#X obj 1206 724 s b31;
#X obj 236 628 bng 15 250 50 0 empty empty empty 17 7 0 10 -262144
-1 -1;
#X obj 256 628 bng 15 250 50 0 empty empty empty 17 7 0 10 -262144
-1 -1;
#X obj 276 628 bng 15 250 50 0 empty empty empty 17 7 0 10 -262144
-1 -1;
#X obj 296 628 bng 15 250 50 0 empty empty empty 17 7 0 10 -262144
-1 -1;
#X obj 316 628 bng 15 250 50 0 empty empty empty 17 7 0 10 -262144
-1 -1;
#X obj 336 628 bng 15 250 50 0 empty empty empty 17 7 0 10 -262144
-1 -1;
#X obj 356 628 bng 15 250 50 0 empty empty empty 17 7 0 10 -262144
-1 -1;
#X obj 376 628 bng 15 250 50 0 empty empty empty 17 7 0 10 -262144
-1 -1;
#X obj 396 628 bng 15 250 50 0 empty empty empty 17 7 0 10 -262144
-1 -1;
#X obj 416 628 bng 15 250 50 0 empty empty empty 17 7 0 10 -262144
-1 -1;
#X obj 436 628 bng 15 250 50 0 empty empty empty 17 7 0 10 -262144
-1 -1;
#X obj 456 628 bng 15 250 50 0 empty empty empty 17 7 0 10 -262144
-1 -1;
#X obj 476 628 bng 15 250 50 0 empty empty empty 17 7 0 10 -262144
-1 -1;
#X obj 496 628 bng 15 250 50 0 empty empty empty 17 7 0 10 -262144
-1 -1;
#X obj 516 628 bng 15 250 50 0 empty empty empty 17 7 0 10 -262144
-1 -1;
#X obj 536 628 bng 15 250 50 0 empty empty empty 17 7 0 10 -262144
-1 -1;
#X obj 609 635 bng 15 250 50 0 empty empty empty 17 7 0 10 -262144
-1 -1;
#X obj 629 635 bng 15 250 50 0 empty empty empty 17 7 0 10 -262144
-1 -1;
#X obj 649 635 bng 15 250 50 0 empty empty empty 17 7 0 10 -262144
-1 -1;
#X obj 669 635 bng 15 250 50 0 empty empty empty 17 7 0 10 -262144
-1 -1;
#X obj 689 635 bng 15 250 50 0 empty empty empty 17 7 0 10 -262144
-1 -1;
#X obj 709 635 bng 15 250 50 0 empty empty empty 17 7 0 10 -262144
-1 -1;
#X obj 729 635 bng 15 250 50 0 empty empty empty 17 7 0 10 -262144
-1 -1;
#X obj 749 635 bng 15 250 50 0 empty empty empty 17 7 0 10 -262144
-1 -1;
#X obj 769 635 bng 15 250 50 0 empty empty empty 17 7 0 10 -262144
-1 -1;
#X obj 789 635 bng 15 250 50 0 empty empty empty 17 7 0 10 -262144
-1 -1;
#X obj 809 635 bng 15 250 50 0 empty empty empty 17 7 0 10 -262144
-1 -1;
#X obj 829 635 bng 15 250 50 0 empty empty empty 17 7 0 10 -262144
-1 -1;
#X obj 849 635 bng 15 250 50 0 empty empty empty 17 7 0 10 -262144
-1 -1;
#X obj 869 635 bng 15 250 50 0 empty empty empty 17 7 0 10 -262144
-1 -1;
#X obj 889 635 bng 15 250 50 0 empty empty empty 17 7 0 10 -262144
-1 -1;
#X obj 909 635 bng 15 250 50 0 empty empty empty 17 7 0 10 -262144
-1 -1;
#X msg 321 134 list /seq2 clear;
#X obj 68 419 route /half /full;
#X obj 68 444 sel 0;
#X obj 108 444 sel 0;
#X obj 108 516 s reset;
#X obj -118 157 r reset;
#X obj 199 155 loadbang;
#N canvas 0 22 1269 462 startup 0;
#X msg 287 265 list /oct 2;
#X msg 366 266 list /tempo 0.2;
#X obj 29 26 receive fromGUI;
#X obj 29 49 route list;
#X msg 29 96 list /mon set \$1;
#X msg 140 97 list /tempo set \$1;
#X msg 593 266 list /gateMaster 0;
#X msg 91 265 list /velMaster 0;
#X msg 714 266 list /cutMaster 0;
#X msg 828 266 list /lofiMaster 0;
#X msg 1084 266 list /delayMaster 0;
#X msg 948 266 list /reverbMaster 0;
#X msg -29 265 list /velMaster2 0;
#X msg 467 266 list /gateMaster2 0;
#X obj 140 26 receive fromGUI;
#X obj 140 49 route list;
#X obj 29 73 route /mon;
#X obj 29 120 send toGUI;
#X obj 140 73 route /tempo;
#X obj 140 119 send toGUI;
#X obj 467 151 r clear;
#X obj 490 417 send toGUI;
#X msg 203 265 list /oct2 2;
#X connect 0 0 21 0;
#X connect 1 0 21 0;
#X connect 2 0 3 0;
#X connect 3 0 16 0;
#X connect 4 0 17 0;
#X connect 5 0 19 0;
#X connect 6 0 21 0;
#X connect 7 0 21 0;
#X connect 8 0 21 0;
#X connect 9 0 21 0;
#X connect 10 0 21 0;
#X connect 11 0 21 0;
#X connect 12 0 21 0;
#X connect 13 0 21 0;
#X connect 14 0 15 0;
#X connect 15 0 18 0;
#X connect 16 0 4 0;
#X connect 18 0 5 0;
#X connect 20 0 12 0;
#X connect 20 0 7 0;
#X connect 20 0 0 0;
#X connect 20 0 1 0;
#X connect 20 0 13 0;
#X connect 20 0 6 0;
#X connect 20 0 8 0;
#X connect 20 0 9 0;
#X connect 20 0 11 0;
#X connect 20 0 10 0;
#X connect 20 0 22 0;
#X connect 22 0 21 0;
#X restore 779 392 pd startup;
#X obj 308 51 loadbang;
#X text 450 284 Audio;
#X text 661 391 Startup/persistence;
#N canvas 144 81 490 402 MIDIclock 0;
#X obj 136 120 + 1;
#X obj 98 120 f;
#X msg 125 96 0;
#X obj 98 49 t b b;
#X obj 98 171 sel 0;
#X obj 98 20 select 248;
#X obj 98 -15 midiin;
#X obj 23 20 select 252;
#X obj 176 20 select 251;
#X obj 23 43 s stop;
#X obj 176 43 s start;
#X obj 125 73 del 1000;
#X text 69 -34 Midi Clock Input;
#X obj 98 238 s midiTemp;
#X obj 98 207 bng 15 250 50 0 empty empty empty 17 7 0 10 -262144 -1
-1;
#X obj 98 146 mod 48;
#X obj 277 151 sel 1 2;
#X floatatom 276 222 5 0 0 0 - - -, f 5;
#X msg 276 197 1;
#X msg 309 197 0;
#X obj 309 174 t b b;
#X msg 354 147 0;
#X obj 280 125 +;
#X floatatom 308 127 5 0 0 0 - - -, f 5;
#X obj 276 268 timer;
#X msg 280 101 1;
#X obj 276 241 sel 1 0;
#X floatatom 276 292 5 0 0 0 - - -, f 5;
#X obj 276 314 s MIDImetro;
#X connect 0 0 1 1;
#X connect 1 0 0 0;
#X connect 1 0 15 0;
#X connect 2 0 1 1;
#X connect 3 0 1 0;
#X connect 3 1 11 0;
#X connect 4 0 14 0;
#X connect 5 0 3 0;
#X connect 6 0 5 0;
#X connect 6 0 7 0;
#X connect 6 0 8 0;
#X connect 7 0 9 0;
#X connect 8 0 10 0;
#X connect 11 0 2 0;
#X connect 14 0 13 0;
#X connect 14 0 25 0;
#X connect 15 0 4 0;
#X connect 16 0 18 0;
#X connect 16 1 20 0;
#X connect 17 0 26 0;
#X connect 18 0 17 0;
#X connect 19 0 17 0;
#X connect 20 0 19 0;
#X connect 20 1 21 0;
#X connect 21 0 23 0;
#X connect 22 0 23 0;
#X connect 23 0 22 1;
#X connect 23 0 16 0;
#X connect 24 0 27 0;
#X connect 25 0 22 0;
#X connect 26 0 24 0;
#X connect 26 1 24 1;
#X connect 27 0 28 0;
#X restore 779 422 pd MIDIclock;
#X obj -24 225 r start;
#X obj -134 199 r stop;
#X obj 34 161 r midiTemp;
#X text 679 421 MIDI Slave Clock;
#X obj 779 303 rows 1 gates vel gates2 vel2;
#X connect 0 0 1 0;
#X connect 0 0 5 0;
#X connect 1 0 0 1;
#X connect 2 0 0 0;
#X connect 3 0 18 0;
#X connect 4 0 18 0;
#X connect 5 0 69 0;
#X connect 6 0 7 0;
#X connect 7 0 14 0;
#X connect 8 0 3 0;
#X connect 9 0 10 0;
#X connect 10 0 4 0;
#X connect 10 0 11 0;
#X connect 11 0 1 0;
#X connect 12 0 11 0;
#X connect 13 0 8 0;
#X connect 14 0 13 0;
#X connect 14 1 9 0;
#X connect 14 2 58 0;
#X connect 14 2 62 0;
#X connect 14 3 9 0;
#X connect 14 3 16 0;
#X connect 14 3 53 0;
#X connect 14 3 118 0;
#X connect 16 0 15 0;
#X connect 18 0 2 0;
#X connect 19 0 15 0;
#X connect 20 0 22 1;
#X connect 21 0 23 0;
#X connect 21 1 20 0;
#X connect 22 0 19 0;
#X connect 23 0 22 0;
#X connect 25 0 56 0;
#X connect 26 0 50 0;
#X connect 26 1 50 0;
#X connect 47 0 48 0;
#X connect 48 0 49 0;
#X connect 49 0 50 1;
#X connect 50 0 52 0;
#X connect 52 0 25 0;
#X connect 54 0 27 0;
#X connect 54 0 27 1;
#X connect 56 0 54 0;
#X connect 57 0 60 1;
#X connect 58 0 57 0;
#X connect 59 0 60 0;
#X connect 60 0 61 0;
#X connect 61 0 18 1;
#X connect 61 0 55 0;
#X connect 61 0 21 0;
#X connect 61 0 20 1;
#X connect 62 0 59 0;
#X connect 63 0 61 0;
#X connect 65 0 5 1;
#X connect 65 0 122 0;
#X connect 66 0 5 1;
#X connect 66 0 122 0;
#X connect 67 0 68 0;
#X connect 68 0 119 0;
#X connect 69 0 36 0;
#X connect 69 0 86 0;
#X connect 69 1 37 0;
#X connect 69 1 87 0;
#X connect 69 2 38 0;
#X connect 69 2 88 0;
#X connect 69 3 29 0;
#X connect 69 3 89 0;
#X connect 69 4 30 0;
#X connect 69 4 90 0;
#X connect 69 5 31 0;
#X connect 69 5 91 0;
#X connect 69 6 32 0;
#X connect 69 6 92 0;
#X connect 69 7 33 0;
#X connect 69 7 93 0;
#X connect 69 8 34 0;
#X connect 69 8 94 0;
#X connect 69 9 35 0;
#X connect 69 9 95 0;
#X connect 69 10 39 0;
#X connect 69 10 96 0;
#X connect 69 11 40 0;
#X connect 69 11 97 0;
#X connect 69 12 41 0;
#X connect 69 12 98 0;
#X connect 69 13 42 0;
#X connect 69 13 99 0;
#X connect 69 14 43 0;
#X connect 69 14 100 0;
#X connect 69 15 44 0;
#X connect 69 15 101 0;
#X connect 69 16 70 0;
#X connect 69 16 102 0;
#X connect 69 17 71 0;
#X connect 69 17 103 0;
#X connect 69 18 72 0;
#X connect 69 18 104 0;
#X connect 69 19 73 0;
#X connect 69 19 105 0;
#X connect 69 20 74 0;
#X connect 69 20 106 0;
#X connect 69 21 75 0;
#X connect 69 21 107 0;
#X connect 69 22 76 0;
#X connect 69 22 108 0;
#X connect 69 23 77 0;
#X connect 69 23 109 0;
#X connect 69 24 78 0;
#X connect 69 24 110 0;
#X connect 69 25 79 0;
#X connect 69 25 111 0;
#X connect 69 26 80 0;
#X connect 69 26 112 0;
#X connect 69 27 81 0;
#X connect 69 27 113 0;
#X connect 69 28 82 0;
#X connect 69 28 114 0;
#X connect 69 29 83 0;
#X connect 69 29 115 0;
#X connect 69 30 84 0;
#X connect 69 30 116 0;
#X connect 69 31 85 0;
#X connect 69 31 117 0;
#X connect 118 0 15 0;
#X connect 119 0 120 0;
#X connect 119 1 121 0;
#X connect 120 0 65 0;
#X connect 121 0 66 0;
#X connect 123 0 11 0;
#X connect 124 0 63 0;
#X connect 126 0 53 0;
#X connect 130 0 2 0;
#X connect 131 0 11 0;
#X connect 132 0 2 0;
