#N canvas 186 224 450 300 10;
#X obj 9 18 receive fromGUI;
#X obj 9 40 list trim;
#X obj 13 87 sel 0 1;
#X obj 9 61 route /clear\$1;
#X obj 9 113 s clear\$1;
#X obj 226 142 r clear;
#X obj 226 248 send toGUI;
#X obj 226 193 \$1;
#X obj 226 168 bng 15 250 50 0 empty empty empty 17 7 0 10 -262144
-1 -1;
#X obj 257 169 s clear\$1;
#X msg 226 216 list /vol\$1 31.75;
#X connect 0 0 1 0;
#X connect 1 0 3 0;
#X connect 2 1 4 0;
#X connect 3 0 2 0;
#X connect 5 0 8 0;
#X connect 5 0 9 0;
#X connect 7 0 10 0;
#X connect 8 0 7 0;
#X connect 10 0 6 0;
