#N canvas 19 44 1405 386 10;
#X obj 170 7 receive fromGUI;
#X obj 170 29 list trim;
#X text 228 79 row \, col \, value;
#X obj 88 293 spigot;
#X obj 158 297 spigot;
#X obj 228 295 spigot;
#X obj 298 295 spigot;
#X obj 370 297 spigot;
#X obj 448 294 spigot;
#X obj 518 297 spigot;
#X obj 588 297 spigot;
#X obj 170 103 route 0 1 2 3 4 5 6 7 8 9 10 11 12 13 14 15, f 192
;
#X obj 170 76 route \$1;
#X obj 660 296 spigot;
#X obj 738 296 spigot;
#X obj 818 297 spigot;
#X obj 896 297 spigot;
#X obj 985 299 spigot;
#X obj 1068 297 spigot;
#X obj 1148 296 spigot;
#X obj 1226 293 spigot;
#X obj 88 320 s btn/btn1;
#X obj 50 160 r b-\$1;
#X obj 158 320 s btn/btn2;
#X obj 228 320 s btn/btn3;
#X obj 1226 320 s btn/btn16;
#X obj 170 52 route /drumGrid /clearGrid /clear;
#X msg 861 31 0;
#X obj 298 320 s btn/btn9;
#X obj 370 321 s btn/btn10;
#X obj 448 320 s btn/btn11;
#X obj 518 320 s btn/btn5;
#X obj 588 320 s btn/btn6;
#X obj 660 321 s btn/btn7;
#X obj 738 320 s btn/btn13;
#X obj 818 320 s btn/btn14;
#X obj 896 320 s btn/btn15;
#X obj 985 321 s btn/btn4;
#X obj 1068 320 s btn/btn8;
#X obj 1148 320 s btn/btn12;
#X connect 0 0 1 0;
#X connect 1 0 26 0;
#X connect 3 0 21 0;
#X connect 4 0 23 0;
#X connect 5 0 24 0;
#X connect 6 0 28 0;
#X connect 7 0 29 0;
#X connect 8 0 30 0;
#X connect 9 0 31 0;
#X connect 10 0 32 0;
#X connect 11 0 3 1;
#X connect 11 1 4 1;
#X connect 11 2 5 1;
#X connect 11 3 6 1;
#X connect 11 4 7 1;
#X connect 11 5 8 1;
#X connect 11 6 9 1;
#X connect 11 7 10 1;
#X connect 11 8 13 1;
#X connect 11 9 14 1;
#X connect 11 10 15 1;
#X connect 11 11 16 1;
#X connect 11 12 17 1;
#X connect 11 13 18 1;
#X connect 11 14 19 1;
#X connect 11 15 20 1;
#X connect 12 0 11 0;
#X connect 13 0 33 0;
#X connect 14 0 34 0;
#X connect 15 0 35 0;
#X connect 16 0 36 0;
#X connect 17 0 37 0;
#X connect 18 0 38 0;
#X connect 19 0 39 0;
#X connect 20 0 25 0;
#X connect 22 0 3 0;
#X connect 22 0 4 0;
#X connect 22 0 5 0;
#X connect 22 0 6 0;
#X connect 22 0 7 0;
#X connect 22 0 8 0;
#X connect 22 0 9 0;
#X connect 22 0 10 0;
#X connect 22 0 13 0;
#X connect 22 0 14 0;
#X connect 22 0 15 0;
#X connect 22 0 16 0;
#X connect 22 0 17 0;
#X connect 22 0 18 0;
#X connect 22 0 19 0;
#X connect 22 0 20 0;
#X connect 26 0 12 0;
#X connect 26 1 27 0;
#X connect 26 2 27 0;
#X connect 27 0 3 1;
#X connect 27 0 4 1;
#X connect 27 0 5 1;
#X connect 27 0 6 1;
#X connect 27 0 7 1;
#X connect 27 0 9 1;
#X connect 27 0 8 1;
#X connect 27 0 10 1;
#X connect 27 0 13 1;
#X connect 27 0 14 1;
#X connect 27 0 15 1;
#X connect 27 0 16 1;
#X connect 27 0 17 1;
#X connect 27 0 18 1;
#X connect 27 0 19 1;
#X connect 27 0 20 1;
