#N canvas 245 133 450 300 10;
#X obj 138 113 \$1;
#X obj 172 115 \$1;
#X obj 210 107 \$1;
#X obj 157 176 \$1;
#X obj 157 200 s \$2;
#X obj 210 130 + 12;
#X obj 104 70 r octMin;
#X obj 164 71 r octCen;
#X obj 224 71 r octMax;
#X obj 138 135 - 24;
#X connect 0 0 9 0;
#X connect 1 0 3 0;
#X connect 2 0 5 0;
#X connect 3 0 4 0;
#X connect 5 0 3 0;
#X connect 6 0 0 0;
#X connect 7 0 1 0;
#X connect 8 0 2 0;
#X connect 9 0 3 0;
