#N canvas 272 401 551 280 10;
#X obj 53 125 spigot;
#X obj 53 95 == \$1;
#X obj 53 47 inlet;
#X obj 106 62 receive fromGUI;
#X obj 106 86 route list;
#X obj 106 110 route \$2;
#X text 207 63 Play on Screen;
#X obj 106 199 outlet~;
#X obj 106 171 oneshot \$3;
#X obj 163 146 inlet;
#X text 20 23 midi note #;
#X text 199 145 pass through pad velocity;
#X msg 203 107 1;
#X obj 203 83 r btn\$2;
#X connect 0 0 8 0;
#X connect 1 0 0 1;
#X connect 1 0 0 0;
#X connect 2 0 1 0;
#X connect 3 0 4 0;
#X connect 4 0 5 0;
#X connect 5 0 8 0;
#X connect 8 0 7 0;
#X connect 9 0 8 1;
#X connect 12 0 8 0;
#X connect 13 0 12 0;
