#N canvas 65 32 1339 833 10;
#X obj 554 523 inlet~;
#X msg 603 523 start;
#X msg 656 523 stop;
#X obj 155 332 spigot;
#X obj 155 261 r f;
#X obj 250 805 outlet~;
#X obj 250 481 r f;
#X obj 265 721 line~;
#X obj 265 587 receive fromGUI;
#X obj 265 607 route list;
#X obj 250 745 *~;
#X obj 317 648 loadbang;
#X obj 250 774 *~;
#X msg 357 722 \$1 15;
#X obj 701 328 send toGUI;
#X obj 572 231 \$1;
#X obj 572 181 r clear\$1;
#X obj 17 484 \$1;
#X obj 17 791 send toGUI;
#X obj 17 461 bng 15 250 50 0 empty empty empty 17 7 0 10 -262144 -1
-1;
#X obj 572 206 bng 15 250 50 0 empty empty empty 17 7 0 10 -262144
-1 -1;
#X obj 996 716 r clear\$1;
#X obj 228 6 r lp\$1;
#X obj 554 566 tabwrite~ /loop-\$1 700000;
#X obj 250 560 tabplay~ /loop-\$1;
#X msg 996 787 \; /loop-\$1 const 0 \;;
#X obj 853 795 table /loop-\$1 1e+06;
#X obj 876 47 receive fromGUI;
#X obj 876 70 route list;
#X obj 21 81 r tapOne;
#X obj 68 126 r clockBlock;
#X msg 68 149 0;
#X obj 39 104 r clear;
#X msg 39 149 1;
#X obj 357 777 line~;
#X msg 265 700 \$1 15;
#X obj 996 762 \$1;
#X obj 996 738 bng 15 250 50 0 empty empty empty 17 7 0 10 -262144
-1 -1;
#X obj 973 528 r ms;
#X obj 922 553 delay 500;
#X msg 878 553 start;
#X msg 922 575 stop;
#X obj 856 639 writesf~ 2;
#X obj 943 312 sel 0;
#X msg 263 533 bang;
#X obj 943 471 bng 15 250 50 0 empty empty empty 17 7 0 10 -262144
-1 -1;
#X text 1024 333 Export all loops into stems folder, f 11;
#X obj 993 289 soundfiler;
#X text 1061 291 load loop to array;
#X obj 861 238 s vol-\$1;
#X obj 861 216 \$1;
#X obj 775 468 s st-\$1;
#X obj 1091 515 r bank;
#X obj 1010 539 pack \$1 symbol;
#X msg 1009 563 open ../exports/\$2/stem-\$1.wav;
#X obj 993 238 pack \$1 symbol;
#X obj 1074 215 r bank;
#X msg 993 263 read ../exports/\$2/stem-\$1.wav /loop-\$1;
#X obj 29 597 \$1;
#X obj 29 574 bng 15 250 50 0 empty empty empty 17 7 0 10 -262144 -1
-1;
#X obj 943 445 spigot;
#X msg 1012 417 0;
#X obj 1012 392 r clear\$1;
#X obj 23 175 spigot;
#X msg 47 690 list /recSt PENDING REC;
#X msg 951 416 1;
#X text 992 448 but only create the file if there is a loop here,
f 17;
#X obj 507 273 \$1;
#X msg 507 296 list /loop-\$1 refresh;
#X obj 1236 659 r loopResize;
#X msg 1257 716 1e+06;
#X obj 1129 738 bng 15 250 50 0 empty empty empty 17 7 0 10 -262144
-1 -1;
#X obj 1129 761 pack \$1 \$2;
#X obj 1109 711 r tableCrop-\$1;
#X msg 1129 787 \; /loop-\$1 resize \$2 \;;
#X obj 1257 685 r clear;
#X text 867 10 Send gui values to saveGUI, f 20;
#X obj 507 251 delay 350;
#X obj 228 91 f;
#X obj 257 91 + 1;
#X obj 228 51 bng 15 250 50 0 empty empty empty 17 7 0 10 -262144 -1
-1;
#X msg 257 52 0;
#X obj 257 27 r clear\$1;
#X obj 228 138 bng 15 250 50 0 empty empty empty 17 7 0 10 -262144
-1 -1;
#X obj 247 138 bng 15 250 50 0 empty empty empty 17 7 0 10 -262144
-1 -1;
#X obj 267 138 bng 15 250 50 0 empty empty empty 17 7 0 10 -262144
-1 -1;
#X obj 228 114 sel 0 1;
#X msg 188 300 1;
#X msg 247 307 0;
#X obj 17 438 r rec\$1;
#X obj 29 547 r stop\$1;
#X obj 279 166 f;
#X obj 308 166 + 1;
#X msg 294 108 0;
#X obj 294 83 r clear\$1;
#X obj 279 189 mod 2;
#X obj 265 627 route /vol\$1;
#X msg 17 508 list /lp\$1 set 1 \, list /recSt RECORDING, f 21;
#X obj 279 214 s mute\$1;
#X obj 357 698 r mute\$1;
#X msg 29 621 list /lp\$1 set 1 \, list /recSt, f 18;
#X msg 572 252 list /lp\$1 set 0 \, list /recSt, f 18;
#X obj 507 208 r stop\$1;
#X obj 191 389 f;
#X obj 220 389 + 1;
#X obj 191 370 bng 15 250 50 0 empty empty empty 17 7 0 10 -262144
-1 -1;
#X msg 220 361 0;
#X obj 220 336 r clear\$1;
#X obj 191 413 sel 0 1;
#X obj 168 441 s rec\$1;
#X obj 218 441 s stop\$1;
#X obj 603 492 r rec\$1;
#X obj 656 492 r stop\$1;
#X obj 247 283 delay 1;
#X obj 259 238 r stop\$1;
#X obj 259 259 bng 15 250 50 0 empty empty empty 17 7 0 10 -262144
-1 -1;
#X obj 321 18 r stop\$1;
#X msg 321 52 2;
#X obj 328 108 r stop\$1;
#X msg 328 133 0;
#X obj 142 178 s pend\$1;
#X obj 47 666 r pend\$1;
#X obj 701 203 receive fromGUI;
#X obj 701 226 route list;
#X obj 701 249 route /lp\$1;
#X obj 701 272 \$1 \$2;
#X msg 701 296 list /lp\$2 set \$1;
#X obj 951 392 r stop\$1;
#X obj 178 646 s~ export\$1;
#X obj 785 594 r~ export\$1;
#X obj 847 515 s exp\$1;
#X obj 278 509 r exp\$1;
#X obj 1047 185 s tabref\$1;
#X obj 438 208 r tabref\$1;
#X obj 861 187 sel 1;
#X obj 876 94 route /vol\$1 /export /load, f 34;
#X obj 775 442 10;
#X obj 775 416 r stop\$1;
#X text 774 397 Looped;
#X obj 384 4 r lpd-\$1;
#X msg 317 676 1;
#X obj 384 27 sel 10;
#X obj 121 230 s erlstop-\$1;
#X obj 85 548 r erlstop-\$1;
#X obj 389 75 r lpd-\$1;
#X obj 389 99 sel 10;
#X msg 389 128 1;
#X obj 416 697 r lpd-\$1;
#X obj 416 721 sel 10;
#X msg 416 750 0;
#X obj 832 415 r clear\$1;
#X msg 832 437 0;
#X msg 1104 122 1;
#X msg 1165 110 0;
#X obj 1047 158 spigot 0, f 10;
#X obj 1165 84 r clear;
#X obj 1104 74 r lpd-\$1;
#X obj 1104 98 sel 10;
#X obj 474 697 r stop\$1;
#X msg 474 745 1;
#X obj 716 416 r lpd-\$1;
#X obj 578 647 r rec\$1;
#X obj 578 741 ctlout \$1 10;
#X msg 578 679 1;
#X obj 631 647 r mute\$1;
#X obj 58 714 r mute\$1;
#X obj 58 737 \$1 \$2;
#X msg 58 760 list /lp\$2 set \$1;
#X obj 621 685 r clear\$1;
#X msg 621 709 0;
#X text 576 628 Send LED Data CH10;
#X text 1026 678 //DISABLED// To much glitch;
#X obj 1010 130 delay 300;
#X obj 265 649 / 31.75;
#X obj 94 460 s loopChange;
#X connect 0 0 23 0;
#X connect 1 0 23 0;
#X connect 2 0 23 0;
#X connect 3 0 105 0;
#X connect 4 0 3 0;
#X connect 6 0 24 0;
#X connect 7 0 10 1;
#X connect 8 0 9 0;
#X connect 9 0 96 0;
#X connect 10 0 12 0;
#X connect 11 0 140 0;
#X connect 12 0 5 0;
#X connect 13 0 34 0;
#X connect 15 0 101 0;
#X connect 16 0 20 0;
#X connect 17 0 97 0;
#X connect 19 0 17 0;
#X connect 20 0 15 0;
#X connect 20 0 77 0;
#X connect 21 0 37 0;
#X connect 22 0 80 0;
#X connect 24 0 128 0;
#X connect 24 0 10 0;
#X connect 27 0 28 0;
#X connect 28 0 135 0;
#X connect 29 0 63 0;
#X connect 30 0 31 0;
#X connect 31 0 63 1;
#X connect 32 0 33 0;
#X connect 33 0 63 1;
#X connect 34 0 12 1;
#X connect 35 0 7 0;
#X connect 36 0 25 0;
#X connect 37 0 36 0;
#X connect 38 0 39 1;
#X connect 39 0 41 0;
#X connect 40 0 42 0;
#X connect 41 0 42 0;
#X connect 43 0 60 0;
#X connect 44 0 24 0;
#X connect 45 0 53 0;
#X connect 45 0 40 0;
#X connect 45 0 39 0;
#X connect 45 0 130 0;
#X connect 50 0 49 0;
#X connect 52 0 53 1;
#X connect 53 0 54 0;
#X connect 54 0 42 0;
#X connect 55 0 57 0;
#X connect 56 0 55 1;
#X connect 57 0 47 0;
#X connect 58 0 100 0;
#X connect 59 0 58 0;
#X connect 60 0 45 0;
#X connect 61 0 60 1;
#X connect 62 0 61 0;
#X connect 63 0 3 0;
#X connect 64 0 18 0;
#X connect 65 0 60 1;
#X connect 67 0 68 0;
#X connect 68 0 14 0;
#X connect 69 0 72 1;
#X connect 70 0 72 1;
#X connect 71 0 72 0;
#X connect 72 0 74 0;
#X connect 73 0 71 0;
#X connect 75 0 70 0;
#X connect 77 0 67 0;
#X connect 78 0 79 0;
#X connect 78 0 86 0;
#X connect 79 0 78 1;
#X connect 80 0 78 0;
#X connect 81 0 78 1;
#X connect 82 0 81 0;
#X connect 83 0 87 0;
#X connect 83 0 120 0;
#X connect 84 0 113 0;
#X connect 84 0 3 0;
#X connect 84 0 142 0;
#X connect 85 0 91 0;
#X connect 86 0 83 0;
#X connect 86 1 84 0;
#X connect 86 2 85 0;
#X connect 87 0 3 1;
#X connect 88 0 3 1;
#X connect 89 0 19 0;
#X connect 90 0 59 0;
#X connect 91 0 92 0;
#X connect 91 0 95 0;
#X connect 92 0 91 1;
#X connect 93 0 91 1;
#X connect 94 0 93 0;
#X connect 95 0 98 0;
#X connect 96 0 173 0;
#X connect 97 0 18 0;
#X connect 99 0 13 0;
#X connect 100 0 18 0;
#X connect 101 0 14 0;
#X connect 102 0 77 0;
#X connect 103 0 104 0;
#X connect 103 0 108 0;
#X connect 104 0 103 1;
#X connect 105 0 103 0;
#X connect 106 0 103 1;
#X connect 107 0 106 0;
#X connect 108 0 109 0;
#X connect 108 0 174 0;
#X connect 108 1 110 0;
#X connect 111 0 1 0;
#X connect 112 0 2 0;
#X connect 113 0 88 0;
#X connect 114 0 115 0;
#X connect 115 0 113 0;
#X connect 116 0 117 0;
#X connect 117 0 78 1;
#X connect 118 0 119 0;
#X connect 119 0 91 1;
#X connect 121 0 64 0;
#X connect 122 0 123 0;
#X connect 123 0 124 0;
#X connect 124 0 125 0;
#X connect 125 0 126 0;
#X connect 126 0 14 0;
#X connect 127 0 65 0;
#X connect 129 0 42 0;
#X connect 129 0 42 1;
#X connect 131 0 44 0;
#X connect 133 0 77 0;
#X connect 134 0 50 0;
#X connect 135 0 50 1;
#X connect 135 1 134 0;
#X connect 135 1 43 0;
#X connect 135 2 172 0;
#X connect 136 0 51 0;
#X connect 137 0 136 0;
#X connect 139 0 141 0;
#X connect 140 0 35 0;
#X connect 140 0 13 0;
#X connect 141 0 117 0;
#X connect 143 0 59 0;
#X connect 144 0 145 0;
#X connect 145 0 146 0;
#X connect 146 0 91 1;
#X connect 147 0 148 0;
#X connect 148 0 149 0;
#X connect 149 0 34 0;
#X connect 150 0 151 0;
#X connect 151 0 51 0;
#X connect 152 0 154 1;
#X connect 153 0 154 1;
#X connect 154 0 132 0;
#X connect 154 0 55 0;
#X connect 155 0 153 0;
#X connect 156 0 157 0;
#X connect 157 0 152 0;
#X connect 158 0 159 0;
#X connect 159 0 34 0;
#X connect 160 0 51 0;
#X connect 161 0 163 0;
#X connect 163 0 162 0;
#X connect 164 0 162 0;
#X connect 165 0 166 0;
#X connect 166 0 167 0;
#X connect 167 0 18 0;
#X connect 168 0 169 0;
#X connect 169 0 162 0;
#X connect 172 0 154 0;
#X connect 173 0 35 0;
