#N canvas 407 206 562 521 10;
#N canvas 0 23 1280 379 ss 0;
#X text 20 77 Bank One;
#X text 703 78 Bank Two;
#X obj 317 266 outlet~;
#X text 1413 78 Bank Three;
#X obj 15 190 samp 48 /btn1 kick_01.wav;
#X obj 7 105 samp 60 /btn13 snare_04.wav;
#X obj 177 105 samp 61 /btn14 snare_05.wav;
#X obj 347 105 samp 62 /btn15 snare_06.wav;
#X obj 517 105 samp 63 /btn16 crash_01.wav;
#X obj 505 134 samp 59 /btn12 hh_03.wav;
#X obj 341 134 samp 58 /btn11 kick_06.wav;
#X obj 177 134 samp 57 /btn10 kick_05.wav;
#X obj 17 134 samp 56 /btn9 kick_04.wav;
#X obj 11 162 samp 52 /btn5 snare_01.wav;
#X obj 177 162 samp 53 /btn6 snare_02.wav;
#X obj 342 162 samp 54 /btn7 snare_03.wav;
#X obj 336 191 samp 50 /btn3 kick_03.wav;
#X obj 177 191 samp 49 /btn2 kick_02.wav;
#X obj 992 231 outlet~;
#X obj 698 190 samp 48 /btn1 kick_07.wav;
#X obj 864 190 samp 49 /btn2 kick_08.wav;
#X obj 1034 190 samp 50 /btn3 kick_09.wav;
#X obj 499 191 samp 51 /btn4 hh_01.wav;
#X obj 1197 190 samp 51 /btn4 hh_04.wav;
#X obj 693 161 samp 52 /btn5 snare_07.wav;
#X obj 864 161 samp 53 /btn6 snare_08.wav;
#X obj 1038 161 samp 54 /btn7 snare_09.wav;
#X obj 505 162 samp 55 /btn8 hh_02.wav;
#X obj 1210 161 samp 55 /btn8 hh_05.wav;
#X obj 695 133 samp 56 /btn9 kick_10.wav;
#X obj 864 133 samp 57 /btn10 kick_11.wav;
#X obj 1028 133 samp 58 /btn11 kick_12.wav;
#X obj 1192 133 samp 59 /btn12 hh_06.wav;
#X obj 688 104 samp 60 /btn13 snare_10.wav;
#X obj 864 104 samp 61 /btn14 snare_11.wav;
#X obj 1034 104 samp 62 /btn15 snare_12.wav;
#X obj 1208 104 samp 63 /btn16 crash_02.wav;
#X obj 1787 256 outlet~;
#X obj 1428 190 samp 48 /btn1 kick_13.wav;
#X obj 1594 190 samp 49 /btn2 kick_14.wav;
#X obj 1764 190 samp 50 /btn3 kick_15.wav;
#X obj 1927 190 samp 51 /btn4 hh_07.wav;
#X obj 1940 161 samp 55 /btn8 hh_08.wav;
#X obj 1922 133 samp 59 /btn12 hh_09.wav;
#X obj 1938 104 samp 63 /btn16 crash_03.wav;
#X obj 1425 133 samp 56 /btn9 kick_16.wav;
#X obj 1594 133 samp 57 /btn10 kick_17.wav;
#X obj 1758 133 samp 58 /btn11 kick_18.wav;
#X obj 1423 161 samp 52 /btn5 snare_13.wav;
#X obj 1594 161 samp 53 /btn6 snare_14.wav;
#X obj 1768 161 samp 54 /btn7 snare_15.wav;
#X obj 1418 104 samp 60 /btn13 snare_16.wav;
#X obj 1594 104 samp 61 /btn14 snare_17.wav;
#X obj 1764 104 samp 62 /btn15 snare_18.wav;
#X obj 2537 256 outlet~;
#X text 2163 78 Bank Four;
#X obj 2178 190 samp 48 /btn1 kick_19.wav;
#X obj 2344 190 samp 49 /btn2 kick_20.wav;
#X obj 2514 190 samp 50 /btn3 kick_21.wav;
#X obj 2677 190 samp 51 /btn4 hh_10.wav;
#X obj 2173 161 samp 52 /btn5 snare_19.wav;
#X obj 2344 161 samp 53 /btn6 snare_20.wav;
#X obj 2518 161 samp 54 /btn7 snare_21.wav;
#X obj 2690 161 samp 55 /btn8 hh_11.wav;
#X obj 2672 133 samp 59 /btn12 hh_12.wav;
#X obj 2688 104 samp 63 /btn16 crash_04.wav;
#X obj 2175 133 samp 56 /btn9 kick_22.wav;
#X obj 2344 133 samp 57 /btn10 kick_23.wav;
#X obj 2508 133 samp 58 /btn11 kick_24.wav;
#X obj 2168 104 samp 60 /btn13 snare_22.wav;
#X obj 2344 104 samp 61 /btn14 snare_23.wav;
#X obj 2514 104 samp 62 /btn15 snare_24.wav, f 28;
#X connect 4 0 2 0;
#X connect 5 0 2 0;
#X connect 6 0 2 0;
#X connect 7 0 2 0;
#X connect 8 0 2 0;
#X connect 9 0 2 0;
#X connect 10 0 2 0;
#X connect 11 0 2 0;
#X connect 12 0 2 0;
#X connect 13 0 2 0;
#X connect 14 0 2 0;
#X connect 15 0 2 0;
#X connect 16 0 2 0;
#X connect 17 0 2 0;
#X connect 19 0 18 0;
#X connect 20 0 18 0;
#X connect 21 0 18 0;
#X connect 22 0 2 0;
#X connect 23 0 18 0;
#X connect 24 0 18 0;
#X connect 25 0 18 0;
#X connect 26 0 18 0;
#X connect 27 0 2 0;
#X connect 28 0 18 0;
#X connect 29 0 18 0;
#X connect 30 0 18 0;
#X connect 31 0 18 0;
#X connect 32 0 18 0;
#X connect 33 0 18 0;
#X connect 34 0 18 0;
#X connect 35 0 18 0;
#X connect 36 0 18 0;
#X connect 38 0 37 0;
#X connect 39 0 37 0;
#X connect 40 0 37 0;
#X connect 41 0 37 0;
#X connect 42 0 37 0;
#X connect 43 0 37 0;
#X connect 44 0 37 0;
#X connect 45 0 37 0;
#X connect 46 0 37 0;
#X connect 47 0 37 0;
#X connect 48 0 37 0;
#X connect 49 0 37 0;
#X connect 50 0 37 0;
#X connect 51 0 37 0;
#X connect 52 0 37 0;
#X connect 53 0 37 0;
#X connect 56 0 54 0;
#X connect 57 0 54 0;
#X connect 58 0 54 0;
#X connect 59 0 54 0;
#X connect 60 0 54 0;
#X connect 61 0 54 0;
#X connect 62 0 54 0;
#X connect 63 0 54 0;
#X connect 64 0 54 0;
#X connect 65 0 54 0;
#X connect 66 0 54 0;
#X connect 67 0 54 0;
#X connect 68 0 54 0;
#X connect 69 0 54 0;
#X connect 70 0 54 0;
#X connect 71 0 54 0;
#X restore 60 44 pd ss;
#X obj 223 468 outlet~;
#X obj 223 414 *~ 0.5;
#N canvas 394 118 916 543 sliderSynth 0;
#X obj 181 482 outlet~;
#N canvas 74 84 1280 699 synth 0;
#X obj 49 107 mtof;
#X obj 906 1162 outlet~;
#X obj 49 24 inlet, f 7;
#X obj 49 70 unpack 0 0;
#X obj 126 116 sel 0;
#X obj 937 748 receive fromGUI;
#X obj 937 771 list trim;
#X obj 936 846 * 20;
#X obj 1008 850 * 20;
#X obj 1008 825 + 1;
#X obj 937 823 + 1;
#X obj 921 1024 vline~;
#X msg 921 988 0 \$1;
#X msg 994 988 1 \$1 \, 0.5 1000 1000;
#X obj 994 962 10;
#X obj 921 938 bng 15 250 50 0 empty empty empty 17 7 0 10 -262144
-1 -1;
#X obj 906 1050 *~;
#X obj 994 941 bng 15 250 50 0 empty empty empty 17 7 0 10 -262144
-1 -1;
#X obj 521 418 +~;
#X obj 521 484 osc~;
#X obj 560 484 osc~;
#X obj 560 460 *~ 2;
#X obj 521 309 osc~ 30;
#X obj 521 363 *~ 10;
#X obj 839 643 noise~;
#X obj 839 676 *~ 0.01;
#X obj 937 797 route /release /attack;
#X obj 921 962 500;
#X obj 646 315 expr~ $v1 > 0.5;
#X obj 646 415 +~;
#X obj 722 446 *~ 2;
#X obj 743 494 expr~ $v1 > 0.5;
#X obj 743 471 phasor~ 30;
#X obj 646 494 expr~ $v1 > 0.5;
#X obj 646 471 phasor~ 30;
#X obj 646 292 phasor~ 10;
#X obj 743 641 *~;
#X obj 758 617 line~;
#X obj 758 563 expr 1 - $f1;
#X msg 758 590 \$1 15;
#X obj 603 641 *~;
#X obj 618 617 line~;
#X msg 618 590 \$1 15;
#X obj 646 360 *~ 10;
#X obj 878 494 / 127;
#X obj 521 251 inlet;
#X obj 790 312 inlet;
#X obj 878 458 inlet;
#X obj 906 1137 *~ 0.2;
#X obj 743 669 *~ 0.5;
#X msg 96 236 \$1 \$2;
#X obj 96 259 line;
#X obj 96 211 pack \$1 0;
#X obj 1133 143 inlet;
#X connect 0 0 52 0;
#X connect 2 0 3 0;
#X connect 3 0 0 0;
#X connect 3 1 4 0;
#X connect 4 0 15 0;
#X connect 4 1 17 0;
#X connect 5 0 6 0;
#X connect 6 0 26 0;
#X connect 7 0 27 1;
#X connect 8 0 14 1;
#X connect 9 0 8 0;
#X connect 10 0 7 0;
#X connect 11 0 16 1;
#X connect 12 0 11 0;
#X connect 13 0 11 0;
#X connect 14 0 13 0;
#X connect 15 0 27 0;
#X connect 16 0 48 0;
#X connect 17 0 14 0;
#X connect 18 0 19 0;
#X connect 18 0 21 0;
#X connect 19 0 40 0;
#X connect 20 0 40 0;
#X connect 21 0 20 0;
#X connect 22 0 23 0;
#X connect 23 0 18 0;
#X connect 24 0 25 0;
#X connect 25 0 16 0;
#X connect 26 0 10 0;
#X connect 26 1 9 0;
#X connect 27 0 12 0;
#X connect 28 0 43 0;
#X connect 29 0 30 0;
#X connect 29 0 34 0;
#X connect 30 0 32 0;
#X connect 31 0 36 0;
#X connect 32 0 31 0;
#X connect 33 0 36 0;
#X connect 34 0 33 0;
#X connect 35 0 28 0;
#X connect 36 0 49 0;
#X connect 37 0 36 1;
#X connect 38 0 39 0;
#X connect 39 0 37 0;
#X connect 40 0 16 0;
#X connect 41 0 40 1;
#X connect 42 0 41 0;
#X connect 43 0 29 0;
#X connect 44 0 42 0;
#X connect 44 0 38 0;
#X connect 45 0 22 0;
#X connect 45 0 35 0;
#X connect 46 0 23 1;
#X connect 46 0 43 1;
#X connect 47 0 44 0;
#X connect 48 0 1 0;
#X connect 49 0 16 0;
#X connect 50 0 51 0;
#X connect 51 0 29 1;
#X connect 51 0 18 1;
#X connect 52 0 50 0;
#X connect 53 0 52 1;
#X restore 181 276 pd synth;
#X obj 95 123 pack 0 0 0;
#X obj 95 146 route 1 2 3 4;
#X obj 95 97 poly 4 1;
#X obj 181 314 expr~ $v1+$v2+$v3+$v4;
#N canvas 46 38 1408 727 notesFromGUI 0;
#X obj 358 18 receive fromGUI;
#X obj 358 40 list trim;
#X obj 49 344 select 1, f 9;
#X obj 139 344 select 1, f 9;
#X obj 229 344 select 1, f 9;
#X obj 593 652 outlet;
#X obj 329 344 select 1, f 9;
#X obj 429 344 select 1, f 9;
#X obj 519 344 select 1, f 9;
#X obj 609 344 select 1, f 9;
#X obj 699 344 select 1, f 9;
#X obj 799 344 select 1, f 9;
#X obj 889 344 select 1, f 9;
#X obj 979 344 select 1, f 9;
#X obj 1069 344 select 1, f 9;
#X msg 49 467 \$1 127;
#X obj 100 399 bng 15 250 50 0 empty empty empty 17 7 0 10 -262144
-1 -1;
#X msg 100 467 \$1 0;
#X obj 69 384 r c;
#X obj 49 428 60;
#X obj 100 428 60;
#X obj 1034 181 guiKeys 60 c;
#X obj 900 101 sel 0 1 2;
#X text 1085 144 Listen for GUI and set oct;
#X obj 190 399 bng 15 250 50 0 empty empty empty 17 7 0 10 -262144
-1 -1;
#X msg 139 467 \$1 127;
#X msg 190 467 \$1 0;
#X obj 190 428 61;
#X obj 139 428 61;
#X obj 159 384 r cS;
#X msg 229 467 \$1 127;
#X msg 280 467 \$1 0;
#X msg 329 467 \$1 127;
#X msg 380 467 \$1 0;
#X obj 280 399 bng 15 250 50 0 empty empty empty 17 7 0 10 -262144
-1 -1;
#X obj 249 384 r d;
#X obj 229 428 62;
#X obj 280 428 62;
#X obj 380 399 bng 15 250 50 0 empty empty empty 17 7 0 10 -262144
-1 -1;
#X obj 349 384 r dS;
#X obj 329 428 63;
#X obj 380 428 63;
#X obj 480 399 bng 15 250 50 0 empty empty empty 17 7 0 10 -262144
-1 -1;
#X msg 429 467 \$1 127;
#X msg 480 467 \$1 0;
#X obj 429 428 64;
#X obj 480 428 64;
#X obj 449 384 r e;
#X obj 570 399 bng 15 250 50 0 empty empty empty 17 7 0 10 -262144
-1 -1;
#X obj 519 428 65;
#X obj 570 428 65;
#X msg 519 467 \$1 127;
#X msg 570 467 \$1 0;
#X obj 660 399 bng 15 250 50 0 empty empty empty 17 7 0 10 -262144
-1 -1;
#X msg 609 467 \$1 127;
#X msg 660 467 \$1 0;
#X obj 609 428 66;
#X obj 660 428 66;
#X obj 629 384 r fs;
#X obj 750 399 bng 15 250 50 0 empty empty empty 17 7 0 10 -262144
-1 -1;
#X obj 719 384 r g;
#X obj 699 428 67;
#X obj 750 428 67;
#X msg 699 467 \$1 127;
#X msg 750 467 \$1 0;
#X obj 850 399 bng 15 250 50 0 empty empty empty 17 7 0 10 -262144
-1 -1;
#X obj 819 384 r gS;
#X obj 799 428 68;
#X obj 850 428 68;
#X msg 799 467 \$1 127;
#X msg 850 467 \$1 0;
#X obj 940 399 bng 15 250 50 0 empty empty empty 17 7 0 10 -262144
-1 -1;
#X obj 909 384 r a;
#X obj 889 428 69;
#X obj 940 428 69;
#X msg 889 467 \$1 127;
#X msg 940 467 \$1 0;
#X obj 1030 399 bng 15 250 50 0 empty empty empty 17 7 0 10 -262144
-1 -1;
#X obj 999 384 r aS;
#X obj 979 428 70;
#X obj 1030 428 70;
#X msg 979 467 \$1 127;
#X msg 1030 467 \$1 0;
#X obj 1120 399 bng 15 250 50 0 empty empty empty 17 7 0 10 -262144
-1 -1;
#X obj 1069 428 71;
#X obj 1120 428 71;
#X obj 1089 384 r b;
#X msg 1069 467 \$1 127;
#X msg 1120 467 \$1 0;
#X obj 358 65 route /c /cS /d /dS /e /f /fS /g /gS /a /aS /b /octShift
, f 90;
#X obj 539 384 r fN;
#X obj 900 134 s octMin;
#X obj 957 134 s octCen;
#X obj 1013 134 s octMax;
#X obj 93 78 loadbang;
#X msg 93 103 list /octShift 1;
#X obj 93 128 send toGUI;
#X obj 1114 181 guiKeys 61 cS;
#X obj 1202 181 guiKeys 62 d;
#X obj 1284 181 guiKeys 63 dS;
#X obj 1034 211 guiKeys 64 e;
#X obj 1202 211 guiKeys 66 fs;
#X obj 1289 211 guiKeys 67 g;
#X obj 1028 241 guiKeys 68 gS;
#X obj 1114 241 guiKeys 69 a;
#X obj 1202 241 guiKeys 70 aS;
#X obj 1289 241 guiKeys 71 b;
#X obj 1114 211 guiKeys 65 fN;
#X connect 0 0 1 0;
#X connect 1 0 89 0;
#X connect 2 0 19 0;
#X connect 2 1 16 0;
#X connect 3 0 28 0;
#X connect 3 1 24 0;
#X connect 4 0 36 0;
#X connect 4 1 34 0;
#X connect 6 0 40 0;
#X connect 6 1 38 0;
#X connect 7 0 45 0;
#X connect 7 1 42 0;
#X connect 8 0 49 0;
#X connect 8 1 48 0;
#X connect 9 0 56 0;
#X connect 9 1 53 0;
#X connect 10 0 61 0;
#X connect 10 1 59 0;
#X connect 11 0 67 0;
#X connect 11 1 65 0;
#X connect 12 0 73 0;
#X connect 12 1 71 0;
#X connect 13 0 79 0;
#X connect 13 1 77 0;
#X connect 14 0 84 0;
#X connect 14 1 83 0;
#X connect 15 0 5 0;
#X connect 16 0 20 0;
#X connect 17 0 5 0;
#X connect 18 0 19 1;
#X connect 18 0 20 1;
#X connect 19 0 15 0;
#X connect 20 0 17 0;
#X connect 22 0 91 0;
#X connect 22 1 92 0;
#X connect 22 2 93 0;
#X connect 24 0 27 0;
#X connect 25 0 5 0;
#X connect 26 0 5 0;
#X connect 27 0 26 0;
#X connect 28 0 25 0;
#X connect 29 0 27 1;
#X connect 29 0 28 1;
#X connect 30 0 5 0;
#X connect 31 0 5 0;
#X connect 32 0 5 0;
#X connect 33 0 5 0;
#X connect 34 0 37 0;
#X connect 35 0 36 1;
#X connect 35 0 37 1;
#X connect 36 0 30 0;
#X connect 37 0 31 0;
#X connect 38 0 41 0;
#X connect 39 0 40 1;
#X connect 39 0 41 1;
#X connect 40 0 32 0;
#X connect 41 0 33 0;
#X connect 42 0 46 0;
#X connect 43 0 5 0;
#X connect 44 0 5 0;
#X connect 45 0 43 0;
#X connect 46 0 44 0;
#X connect 47 0 45 1;
#X connect 47 0 46 1;
#X connect 48 0 50 0;
#X connect 49 0 51 0;
#X connect 50 0 52 0;
#X connect 51 0 5 0;
#X connect 52 0 5 0;
#X connect 53 0 57 0;
#X connect 54 0 5 0;
#X connect 55 0 5 0;
#X connect 56 0 54 0;
#X connect 57 0 55 0;
#X connect 58 0 56 1;
#X connect 58 0 57 1;
#X connect 59 0 62 0;
#X connect 60 0 61 1;
#X connect 60 0 62 1;
#X connect 61 0 63 0;
#X connect 62 0 64 0;
#X connect 63 0 5 0;
#X connect 64 0 5 0;
#X connect 65 0 68 0;
#X connect 66 0 67 1;
#X connect 66 0 68 1;
#X connect 67 0 69 0;
#X connect 68 0 70 0;
#X connect 69 0 5 0;
#X connect 70 0 5 0;
#X connect 71 0 74 0;
#X connect 72 0 73 1;
#X connect 72 0 74 1;
#X connect 73 0 75 0;
#X connect 74 0 76 0;
#X connect 75 0 5 0;
#X connect 76 0 5 0;
#X connect 77 0 80 0;
#X connect 78 0 79 1;
#X connect 78 0 80 1;
#X connect 79 0 81 0;
#X connect 80 0 82 0;
#X connect 81 0 5 0;
#X connect 82 0 5 0;
#X connect 83 0 85 0;
#X connect 84 0 87 0;
#X connect 85 0 88 0;
#X connect 86 0 84 1;
#X connect 86 0 85 1;
#X connect 87 0 5 0;
#X connect 88 0 5 0;
#X connect 89 0 2 0;
#X connect 89 1 3 0;
#X connect 89 2 4 0;
#X connect 89 3 6 0;
#X connect 89 4 7 0;
#X connect 89 5 8 0;
#X connect 89 6 9 0;
#X connect 89 7 10 0;
#X connect 89 8 11 0;
#X connect 89 9 12 0;
#X connect 89 10 13 0;
#X connect 89 11 14 0;
#X connect 89 12 22 0;
#X connect 90 0 49 1;
#X connect 90 0 50 1;
#X connect 94 0 95 0;
#X connect 95 0 96 0;
#X restore 49 19 pd notesFromGUI;
#X obj 95 44 notein 2;
#X obj 194 10 loadbang;
#X obj 194 86 send toGUI;
#X obj 279 83 receive fromGUI;
#X obj 279 106 list trim;
#X obj 279 156 / 5;
#X obj 346 156 / 5;
#X obj 385 311 loadbang;
#X msg 548 365 list /synthShapeOsc refresh;
#X obj 432 407 send toGUI;
#X obj 270 375 tabwrite~ /synthShapeOsc;
#X obj 385 335 metro 100;
#X obj 536 265 table /synthShapeOsc 200;
#X msg 486 336 list /synthShapeOsc enable 0;
#X obj 279 132 route /fmRate /fmIndex /synthShape /synthGlideTime;
#N canvas 0 270 1280 699 synth 0;
#X obj 49 107 mtof;
#X obj 906 1162 outlet~;
#X obj 49 24 inlet, f 7;
#X obj 49 70 unpack 0 0;
#X obj 126 116 sel 0;
#X obj 937 748 receive fromGUI;
#X obj 937 771 list trim;
#X obj 936 846 * 20;
#X obj 1008 850 * 20;
#X obj 1008 825 + 1;
#X obj 937 823 + 1;
#X obj 921 1024 vline~;
#X msg 921 988 0 \$1;
#X msg 994 988 1 \$1 \, 0.5 1000 1000;
#X obj 994 962 10;
#X obj 921 938 bng 15 250 50 0 empty empty empty 17 7 0 10 -262144
-1 -1;
#X obj 906 1050 *~;
#X obj 994 941 bng 15 250 50 0 empty empty empty 17 7 0 10 -262144
-1 -1;
#X obj 521 418 +~;
#X obj 521 484 osc~;
#X obj 560 484 osc~;
#X obj 560 460 *~ 2;
#X obj 521 309 osc~ 30;
#X obj 521 363 *~ 10;
#X obj 839 643 noise~;
#X obj 839 676 *~ 0.01;
#X obj 937 797 route /release /attack;
#X obj 921 962 500;
#X obj 646 315 expr~ $v1 > 0.5;
#X obj 646 415 +~;
#X obj 722 446 *~ 2;
#X obj 743 494 expr~ $v1 > 0.5;
#X obj 743 471 phasor~ 30;
#X obj 646 494 expr~ $v1 > 0.5;
#X obj 646 471 phasor~ 30;
#X obj 646 292 phasor~ 10;
#X obj 743 641 *~;
#X obj 758 617 line~;
#X obj 758 563 expr 1 - $f1;
#X msg 758 590 \$1 15;
#X obj 603 641 *~;
#X obj 618 617 line~;
#X msg 618 590 \$1 15;
#X obj 646 360 *~ 10;
#X obj 878 494 / 127;
#X obj 521 251 inlet;
#X obj 790 312 inlet;
#X obj 878 458 inlet;
#X obj 906 1137 *~ 0.2;
#X obj 743 669 *~ 0.5;
#X msg 96 236 \$1 \$2;
#X obj 96 259 line;
#X obj 96 211 pack \$1 0;
#X obj 1133 143 inlet;
#X connect 0 0 52 0;
#X connect 2 0 3 0;
#X connect 3 0 0 0;
#X connect 3 1 4 0;
#X connect 4 0 15 0;
#X connect 4 1 17 0;
#X connect 5 0 6 0;
#X connect 6 0 26 0;
#X connect 7 0 27 1;
#X connect 8 0 14 1;
#X connect 9 0 8 0;
#X connect 10 0 7 0;
#X connect 11 0 16 1;
#X connect 12 0 11 0;
#X connect 13 0 11 0;
#X connect 14 0 13 0;
#X connect 15 0 27 0;
#X connect 16 0 48 0;
#X connect 17 0 14 0;
#X connect 18 0 19 0;
#X connect 18 0 21 0;
#X connect 19 0 40 0;
#X connect 20 0 40 0;
#X connect 21 0 20 0;
#X connect 22 0 23 0;
#X connect 23 0 18 0;
#X connect 24 0 25 0;
#X connect 25 0 16 0;
#X connect 26 0 10 0;
#X connect 26 1 9 0;
#X connect 27 0 12 0;
#X connect 28 0 43 0;
#X connect 29 0 30 0;
#X connect 29 0 34 0;
#X connect 30 0 32 0;
#X connect 31 0 36 0;
#X connect 32 0 31 0;
#X connect 33 0 36 0;
#X connect 34 0 33 0;
#X connect 35 0 28 0;
#X connect 36 0 49 0;
#X connect 37 0 36 1;
#X connect 38 0 39 0;
#X connect 39 0 37 0;
#X connect 40 0 16 0;
#X connect 41 0 40 1;
#X connect 42 0 41 0;
#X connect 43 0 29 0;
#X connect 44 0 42 0;
#X connect 44 0 38 0;
#X connect 45 0 22 0;
#X connect 45 0 35 0;
#X connect 46 0 23 1;
#X connect 46 0 43 1;
#X connect 47 0 44 0;
#X connect 48 0 1 0;
#X connect 49 0 16 0;
#X connect 50 0 51 0;
#X connect 51 0 29 1;
#X connect 51 0 18 1;
#X connect 52 0 50 0;
#X connect 53 0 52 1;
#X restore 241 276 pd synth;
#N canvas 84 100 1280 699 synth 0;
#X obj 49 107 mtof;
#X obj 906 1162 outlet~;
#X obj 49 24 inlet, f 7;
#X obj 49 70 unpack 0 0;
#X obj 126 116 sel 0;
#X obj 937 748 receive fromGUI;
#X obj 937 771 list trim;
#X obj 936 846 * 20;
#X obj 1008 850 * 20;
#X obj 1008 825 + 1;
#X obj 937 823 + 1;
#X obj 921 1024 vline~;
#X msg 921 988 0 \$1;
#X msg 994 988 1 \$1 \, 0.5 1000 1000;
#X obj 994 962 10;
#X obj 921 938 bng 15 250 50 0 empty empty empty 17 7 0 10 -262144
-1 -1;
#X obj 906 1050 *~;
#X obj 994 941 bng 15 250 50 0 empty empty empty 17 7 0 10 -262144
-1 -1;
#X obj 521 418 +~;
#X obj 521 484 osc~;
#X obj 560 484 osc~;
#X obj 560 460 *~ 2;
#X obj 521 309 osc~ 30;
#X obj 521 363 *~ 10;
#X obj 839 643 noise~;
#X obj 839 676 *~ 0.01;
#X obj 937 797 route /release /attack;
#X obj 921 962 500;
#X obj 646 315 expr~ $v1 > 0.5;
#X obj 646 415 +~;
#X obj 722 446 *~ 2;
#X obj 743 494 expr~ $v1 > 0.5;
#X obj 743 471 phasor~ 30;
#X obj 646 494 expr~ $v1 > 0.5;
#X obj 646 471 phasor~ 30;
#X obj 646 292 phasor~ 10;
#X obj 743 641 *~;
#X obj 758 617 line~;
#X obj 758 563 expr 1 - $f1;
#X msg 758 590 \$1 15;
#X obj 603 641 *~;
#X obj 618 617 line~;
#X msg 618 590 \$1 15;
#X obj 646 360 *~ 10;
#X obj 878 494 / 127;
#X obj 521 251 inlet;
#X obj 790 312 inlet;
#X obj 878 458 inlet;
#X obj 906 1137 *~ 0.2;
#X obj 743 669 *~ 0.5;
#X msg 96 236 \$1 \$2;
#X obj 96 259 line;
#X obj 96 211 pack \$1 0;
#X obj 1133 143 inlet;
#X connect 0 0 52 0;
#X connect 2 0 3 0;
#X connect 3 0 0 0;
#X connect 3 1 4 0;
#X connect 4 0 15 0;
#X connect 4 1 17 0;
#X connect 5 0 6 0;
#X connect 6 0 26 0;
#X connect 7 0 27 1;
#X connect 8 0 14 1;
#X connect 9 0 8 0;
#X connect 10 0 7 0;
#X connect 11 0 16 1;
#X connect 12 0 11 0;
#X connect 13 0 11 0;
#X connect 14 0 13 0;
#X connect 15 0 27 0;
#X connect 16 0 48 0;
#X connect 17 0 14 0;
#X connect 18 0 19 0;
#X connect 18 0 21 0;
#X connect 19 0 40 0;
#X connect 20 0 40 0;
#X connect 21 0 20 0;
#X connect 22 0 23 0;
#X connect 23 0 18 0;
#X connect 24 0 25 0;
#X connect 25 0 16 0;
#X connect 26 0 10 0;
#X connect 26 1 9 0;
#X connect 27 0 12 0;
#X connect 28 0 43 0;
#X connect 29 0 30 0;
#X connect 29 0 34 0;
#X connect 30 0 32 0;
#X connect 31 0 36 0;
#X connect 32 0 31 0;
#X connect 33 0 36 0;
#X connect 34 0 33 0;
#X connect 35 0 28 0;
#X connect 36 0 49 0;
#X connect 37 0 36 1;
#X connect 38 0 39 0;
#X connect 39 0 37 0;
#X connect 40 0 16 0;
#X connect 41 0 40 1;
#X connect 42 0 41 0;
#X connect 43 0 29 0;
#X connect 44 0 42 0;
#X connect 44 0 38 0;
#X connect 45 0 22 0;
#X connect 45 0 35 0;
#X connect 46 0 23 1;
#X connect 46 0 43 1;
#X connect 47 0 44 0;
#X connect 48 0 1 0;
#X connect 49 0 16 0;
#X connect 50 0 51 0;
#X connect 51 0 29 1;
#X connect 51 0 18 1;
#X connect 52 0 50 0;
#X connect 53 0 52 1;
#X restore 301 276 pd synth;
#N canvas 0 270 1280 699 synth 0;
#X obj 49 107 mtof;
#X obj 906 1162 outlet~;
#X obj 49 24 inlet, f 7;
#X obj 49 70 unpack 0 0;
#X obj 126 116 sel 0;
#X obj 937 748 receive fromGUI;
#X obj 937 771 list trim;
#X obj 936 846 * 20;
#X obj 1008 850 * 20;
#X obj 1008 825 + 1;
#X obj 937 823 + 1;
#X obj 921 1024 vline~;
#X msg 921 988 0 \$1;
#X msg 994 988 1 \$1 \, 0.5 1000 1000;
#X obj 994 962 10;
#X obj 921 938 bng 15 250 50 0 empty empty empty 17 7 0 10 -262144
-1 -1;
#X obj 906 1050 *~;
#X obj 994 941 bng 15 250 50 0 empty empty empty 17 7 0 10 -262144
-1 -1;
#X obj 521 418 +~;
#X obj 521 484 osc~;
#X obj 560 484 osc~;
#X obj 560 460 *~ 2;
#X obj 521 309 osc~ 30;
#X obj 521 363 *~ 10;
#X obj 839 643 noise~;
#X obj 839 676 *~ 0.01;
#X obj 937 797 route /release /attack;
#X obj 921 962 500;
#X obj 646 315 expr~ $v1 > 0.5;
#X obj 646 415 +~;
#X obj 722 446 *~ 2;
#X obj 743 494 expr~ $v1 > 0.5;
#X obj 743 471 phasor~ 30;
#X obj 646 494 expr~ $v1 > 0.5;
#X obj 646 471 phasor~ 30;
#X obj 646 292 phasor~ 10;
#X obj 743 641 *~;
#X obj 758 617 line~;
#X obj 758 563 expr 1 - $f1;
#X msg 758 590 \$1 15;
#X obj 603 641 *~;
#X obj 618 617 line~;
#X msg 618 590 \$1 15;
#X obj 646 360 *~ 10;
#X obj 878 494 / 127;
#X obj 521 251 inlet;
#X obj 790 312 inlet;
#X obj 878 458 inlet;
#X obj 906 1137 *~ 0.2;
#X obj 743 669 *~ 0.5;
#X msg 96 236 \$1 \$2;
#X obj 96 259 line;
#X obj 96 211 pack \$1 0;
#X obj 1133 143 inlet;
#X connect 0 0 52 0;
#X connect 2 0 3 0;
#X connect 3 0 0 0;
#X connect 3 1 4 0;
#X connect 4 0 15 0;
#X connect 4 1 17 0;
#X connect 5 0 6 0;
#X connect 6 0 26 0;
#X connect 7 0 27 1;
#X connect 8 0 14 1;
#X connect 9 0 8 0;
#X connect 10 0 7 0;
#X connect 11 0 16 1;
#X connect 12 0 11 0;
#X connect 13 0 11 0;
#X connect 14 0 13 0;
#X connect 15 0 27 0;
#X connect 16 0 48 0;
#X connect 17 0 14 0;
#X connect 18 0 19 0;
#X connect 18 0 21 0;
#X connect 19 0 40 0;
#X connect 20 0 40 0;
#X connect 21 0 20 0;
#X connect 22 0 23 0;
#X connect 23 0 18 0;
#X connect 24 0 25 0;
#X connect 25 0 16 0;
#X connect 26 0 10 0;
#X connect 26 1 9 0;
#X connect 27 0 12 0;
#X connect 28 0 43 0;
#X connect 29 0 30 0;
#X connect 29 0 34 0;
#X connect 30 0 32 0;
#X connect 31 0 36 0;
#X connect 32 0 31 0;
#X connect 33 0 36 0;
#X connect 34 0 33 0;
#X connect 35 0 28 0;
#X connect 36 0 49 0;
#X connect 37 0 36 1;
#X connect 38 0 39 0;
#X connect 39 0 37 0;
#X connect 40 0 16 0;
#X connect 41 0 40 1;
#X connect 42 0 41 0;
#X connect 43 0 29 0;
#X connect 44 0 42 0;
#X connect 44 0 38 0;
#X connect 45 0 22 0;
#X connect 45 0 35 0;
#X connect 46 0 23 1;
#X connect 46 0 43 1;
#X connect 47 0 44 0;
#X connect 48 0 1 0;
#X connect 49 0 16 0;
#X connect 50 0 51 0;
#X connect 51 0 29 1;
#X connect 51 0 18 1;
#X connect 52 0 50 0;
#X connect 53 0 52 1;
#X restore 361 276 pd synth;
#X obj 501 159 * 2;
#X obj 18 199 receive fromGUI;
#X obj 18 224 list trim;
#X obj 18 252 route /synthVolume;
#X obj 181 453 *~;
#X obj 196 422 line~;
#X msg 196 396 \$1 15;
#X obj 18 276 / 127;
#X msg 194 37 list /release 63 \, list /attack 1 \, list /synthShape
75 \, list /fmIndex 15 \, list /fmRate 15 \, list /synthGlideTime 0
\, list /synthVolume 63.5, f 112;
#X msg 448 306 0;
#X obj 448 273 r stopStuff;
#X connect 1 0 5 0;
#X connect 2 0 3 0;
#X connect 3 0 1 0;
#X connect 3 1 22 0;
#X connect 3 2 23 0;
#X connect 3 3 24 0;
#X connect 4 0 2 0;
#X connect 4 1 2 1;
#X connect 4 2 2 2;
#X connect 5 0 17 0;
#X connect 5 0 29 0;
#X connect 6 0 4 0;
#X connect 7 0 4 0;
#X connect 7 1 4 1;
#X connect 8 0 33 0;
#X connect 10 0 11 0;
#X connect 11 0 21 0;
#X connect 12 0 1 1;
#X connect 12 0 22 1;
#X connect 12 0 23 1;
#X connect 12 0 24 1;
#X connect 13 0 1 2;
#X connect 13 0 22 2;
#X connect 13 0 23 2;
#X connect 13 0 24 2;
#X connect 14 0 18 0;
#X connect 14 0 20 0;
#X connect 15 0 16 0;
#X connect 18 0 15 0;
#X connect 18 0 17 0;
#X connect 20 0 16 0;
#X connect 21 0 12 0;
#X connect 21 1 13 0;
#X connect 21 2 1 3;
#X connect 21 2 22 3;
#X connect 21 2 23 3;
#X connect 21 2 24 3;
#X connect 21 3 25 0;
#X connect 22 0 5 1;
#X connect 23 0 5 2;
#X connect 24 0 5 3;
#X connect 25 0 1 4;
#X connect 25 0 22 4;
#X connect 25 0 23 4;
#X connect 25 0 24 4;
#X connect 26 0 27 0;
#X connect 27 0 28 0;
#X connect 28 0 32 0;
#X connect 29 0 0 0;
#X connect 30 0 29 1;
#X connect 31 0 30 0;
#X connect 32 0 31 0;
#X connect 33 0 9 0;
#X connect 34 0 18 0;
#X connect 35 0 34 0;
#X restore 226 72 pd sliderSynth;
#X text 52 26 Drum Pads;
#X text 232 50 Synth;
#X text 164 310 Effects;
#N canvas 187 131 994 701 kitSelector 0;
#X obj 192 238 *~;
#X obj 207 217 line~;
#X obj 265 61 receive fromGUI;
#X obj 265 84 list trim;
#X obj 265 109 route /kits;
#X msg 207 187 1 10;
#X msg 246 186 0 10;
#X obj 207 157 sel 0;
#X obj 272 238 *~;
#X obj 287 217 line~;
#X msg 287 187 1 10;
#X msg 326 186 0 10;
#X obj 287 157 sel 1;
#X obj 32 70 inlet~;
#X obj 79 71 inlet~;
#X obj 362 238 *~;
#X obj 377 217 line~;
#X msg 377 187 1 10;
#X msg 416 186 0 10;
#X obj 377 157 sel 2;
#X obj 127 71 inlet~;
#X obj 177 71 inlet~;
#X obj 452 238 *~;
#X obj 467 217 line~;
#X msg 467 187 1 10;
#X msg 506 186 0 10;
#X obj 467 157 sel 3;
#X obj 620 369 send toGUI;
#X msg 831 111 0;
#X msg 864 111 1;
#X msg 901 111 2;
#X msg 934 111 3;
#X obj 854 212 send toGUI;
#X obj 838 83 sel 2 3 4 5;
#X obj 775 66 loadbang;
#X obj 838 7 pgmin;
#X msg 530 303 list /kitLabel A;
#X msg 640 303 list /kitLabel B;
#X msg 750 303 list /kitLabel C;
#X msg 860 303 list /kitLabel D;
#X msg 854 156 list /kits \$1;
#X obj 396 497 line~;
#X obj 396 455 / 127;
#X obj 396 388 receive fromGUI;
#X obj 396 410 route list;
#X obj 396 432 route /drumVol;
#X text 393 370 Drum Volume;
#X msg 396 475 \$1 15;
#X obj 254 576 *~;
#X obj 254 605 outlet~;
#X msg 725 156 list /drumVol 127;
#X connect 0 0 48 0;
#X connect 1 0 0 1;
#X connect 2 0 3 0;
#X connect 3 0 4 0;
#X connect 4 0 7 0;
#X connect 4 0 12 0;
#X connect 4 0 19 0;
#X connect 4 0 26 0;
#X connect 5 0 1 0;
#X connect 6 0 1 0;
#X connect 7 0 5 0;
#X connect 7 0 36 0;
#X connect 7 1 6 0;
#X connect 8 0 48 0;
#X connect 9 0 8 1;
#X connect 10 0 9 0;
#X connect 11 0 9 0;
#X connect 12 0 10 0;
#X connect 12 0 37 0;
#X connect 12 1 11 0;
#X connect 13 0 0 0;
#X connect 14 0 8 0;
#X connect 15 0 48 0;
#X connect 16 0 15 1;
#X connect 17 0 16 0;
#X connect 18 0 16 0;
#X connect 19 0 17 0;
#X connect 19 0 38 0;
#X connect 19 1 18 0;
#X connect 20 0 15 0;
#X connect 21 0 22 0;
#X connect 22 0 48 0;
#X connect 23 0 22 1;
#X connect 24 0 23 0;
#X connect 25 0 23 0;
#X connect 26 0 24 0;
#X connect 26 0 39 0;
#X connect 26 1 25 0;
#X connect 28 0 40 0;
#X connect 29 0 40 0;
#X connect 30 0 40 0;
#X connect 31 0 40 0;
#X connect 33 0 28 0;
#X connect 33 1 29 0;
#X connect 33 2 30 0;
#X connect 33 3 31 0;
#X connect 34 0 28 0;
#X connect 34 0 50 0;
#X connect 35 0 33 0;
#X connect 36 0 27 0;
#X connect 37 0 27 0;
#X connect 38 0 27 0;
#X connect 39 0 27 0;
#X connect 40 0 32 0;
#X connect 41 0 48 1;
#X connect 42 0 47 0;
#X connect 43 0 44 0;
#X connect 44 0 45 0;
#X connect 45 0 42 0;
#X connect 47 0 41 0;
#X connect 48 0 49 0;
#X connect 50 0 32 0;
#X restore 60 72 pd kitSelector;
#N canvas 0 22 570 468 ringMod 0;
#X obj 156 30 receive fromGUI;
#X obj 156 51 route list;
#X obj 76 360 outlet~;
#X obj 139 318 *~;
#X obj 18 320 *~;
#X obj 179 116 loadbang;
#X msg 179 137 0;
#X obj 18 141 inlet~;
#X obj 33 223 mtof;
#X obj 33 246 osc~;
#X obj 18 271 *~;
#X text 158 10 wet/dry/freq;
#X obj 33 297 line~, f 6;
#X msg 155 191 0 15;
#X msg 242 191 0.5 15;
#X msg 196 191 1 15;
#X obj 154 290 line~;
#X obj 155 162 moses 5;
#X obj 362 90 spigot 0;
#X obj 362 212 send toGUI;
#X obj 362 62 random 127;
#X obj 384 140 line;
#X msg 384 114 \$1 10;
#X obj 156 72 route /ringMod /ringRandom;
#X msg 362 178 list /ringMod set \$1;
#X obj 440 92 r clear;
#X msg 440 121 list /ringRandom 0;
#X obj 362 36 r sixFour;
#X connect 0 0 1 0;
#X connect 1 0 23 0;
#X connect 3 0 2 0;
#X connect 4 0 2 0;
#X connect 5 0 6 0;
#X connect 6 0 17 0;
#X connect 7 0 10 0;
#X connect 7 0 3 0;
#X connect 8 0 9 0;
#X connect 9 0 10 1;
#X connect 10 0 4 0;
#X connect 12 0 4 1;
#X connect 13 0 12 0;
#X connect 14 0 12 0;
#X connect 14 0 16 0;
#X connect 15 0 16 0;
#X connect 16 0 3 1;
#X connect 17 0 15 0;
#X connect 17 0 13 0;
#X connect 17 1 14 0;
#X connect 18 0 24 0;
#X connect 18 0 22 0;
#X connect 20 0 18 0;
#X connect 21 0 8 0;
#X connect 21 0 17 0;
#X connect 22 0 21 0;
#X connect 23 0 8 0;
#X connect 23 0 17 0;
#X connect 23 1 18 1;
#X connect 24 0 19 0;
#X connect 25 0 26 0;
#X connect 26 0 19 0;
#X connect 27 0 20 0;
#X restore 223 339 pd ringMod;
#N canvas 803 245 490 785 input 1;
#X obj 271 668 vline~;
#X obj 256 695 *~;
#X msg 271 643 \$1 15;
#X obj 85 259 adc~;
#X text 63 241 Live Input;
#X obj 28 52 loadbang;
#X obj 256 718 outlet~;
#X obj 301 365 receive fromGUI;
#X obj 301 387 route list;
#X obj 28 132 send toGUI;
#X msg 167 244 \$1 15;
#X obj 167 267 vline~;
#X obj 152 342 *~;
#X obj 167 214 + 1;
#X obj 167 139 receive fromGUI;
#X obj 167 162 list trim;
#X msg 277 244 \$1 15;
#X obj 277 267 vline~;
#X obj 262 342 *~;
#X obj 277 214 + 1;
#X obj 167 188 route /preAmpLeft /preAmpRight;
#X obj 262 548 *~;
#X obj 277 517 line~;
#X msg 277 495 \$1 15;
#X obj 152 548 *~;
#X obj 167 517 line~;
#X msg 167 495 \$1 15;
#X obj 301 409 route /monitorVolL /monitorVolR /monitorTog, f 17;
#X msg 28 76 list /monitorTog 0 \, list /preAmpLeft 0 \, list /preAmpRight
0 \, list /monitorVolL 0.5 \, list /monitorVolR 0.5 \, list /myPanel
enable 0, f 45;
#X connect 0 0 1 1;
#X connect 1 0 6 0;
#X connect 2 0 0 0;
#X connect 3 0 12 0;
#X connect 3 1 18 0;
#X connect 5 0 28 0;
#X connect 7 0 8 0;
#X connect 8 0 27 0;
#X connect 10 0 11 0;
#X connect 11 0 12 1;
#X connect 12 0 24 0;
#X connect 13 0 10 0;
#X connect 14 0 15 0;
#X connect 15 0 20 0;
#X connect 16 0 17 0;
#X connect 17 0 18 1;
#X connect 18 0 21 0;
#X connect 19 0 16 0;
#X connect 20 0 13 0;
#X connect 20 1 19 0;
#X connect 21 0 1 0;
#X connect 22 0 21 1;
#X connect 23 0 22 0;
#X connect 24 0 1 0;
#X connect 25 0 24 1;
#X connect 26 0 25 0;
#X connect 27 0 26 0;
#X connect 27 1 23 0;
#X connect 27 2 2 0;
#X connect 28 0 9 0;
#X restore 157 72 pd input;
#X text 155 42 Input;
#X obj 331 290 receive fromGUI;
#X obj 331 315 list trim;
#X obj 331 339 route /postFXVol;
#X obj 331 364 / 127;
#X obj 223 443 *~;
#X obj 331 410 line~;
#X msg 331 387 \$1 15;
#X obj 395 372 loadbang;
#X obj 395 427 send toGUI;
#N canvas 41 50 1327 797 noiseBox 0;
#X obj 164 157 ctlin 120 1;
#X obj 844 752 outlet~;
#X obj 269 440 noise~;
#X obj 435 342 ctlin 119 1;
#X obj 164 217 mtof;
#X obj 121 405 expr~ $v1 > 0.5;
#X obj 121 434 *~ 2;
#X obj 121 457 -~ 1;
#X obj 269 465 *~ 0.1;
#X obj 121 380 phasor~;
#N canvas 14 23 1026 678 noteSplitter 0;
#X msg 54 75 69;
#X msg 99 103 71;
#X msg 144 131 72;
#X msg 189 169 74;
#X msg 234 202 76;
#X msg 279 227 77;
#X msg 330 253 79;
#X obj 54 25 inlet;
#X obj 54 53 moses 8;
#X obj 99 80 moses 16;
#X obj 144 108 moses 24;
#X obj 189 147 moses 32;
#X obj 234 180 moses 40;
#X obj 279 205 moses 48;
#X obj 330 229 moses 56;
#X obj 374 253 moses 64;
#X obj 419 280 moses 72;
#X obj 464 308 moses 80;
#X obj 509 347 moses 88;
#X obj 554 380 moses 96;
#X obj 599 405 moses 104;
#X obj 650 429 moses 112;
#X msg 374 280 81;
#X msg 419 308 83;
#X msg 464 342 84;
#X msg 509 376 86;
#X msg 554 409 88;
#X msg 599 430 89;
#X msg 650 458 91;
#X msg 701 474 93;
#X obj 54 631 outlet;
#X connect 0 0 30 0;
#X connect 1 0 30 0;
#X connect 2 0 30 0;
#X connect 3 0 30 0;
#X connect 4 0 30 0;
#X connect 5 0 30 0;
#X connect 6 0 30 0;
#X connect 7 0 8 0;
#X connect 8 0 0 0;
#X connect 8 1 9 0;
#X connect 9 0 1 0;
#X connect 9 1 10 0;
#X connect 10 0 2 0;
#X connect 10 1 11 0;
#X connect 11 0 3 0;
#X connect 11 1 12 0;
#X connect 12 0 4 0;
#X connect 12 1 13 0;
#X connect 13 0 5 0;
#X connect 13 1 14 0;
#X connect 14 0 6 0;
#X connect 14 1 15 0;
#X connect 15 0 22 0;
#X connect 15 1 16 0;
#X connect 16 0 23 0;
#X connect 16 1 17 0;
#X connect 17 0 24 0;
#X connect 17 1 18 0;
#X connect 18 0 25 0;
#X connect 18 1 19 0;
#X connect 19 0 26 0;
#X connect 19 1 20 0;
#X connect 20 0 27 0;
#X connect 20 1 21 0;
#X connect 21 0 28 0;
#X connect 21 1 29 0;
#X connect 22 0 30 0;
#X connect 23 0 30 0;
#X connect 24 0 30 0;
#X connect 25 0 30 0;
#X connect 26 0 30 0;
#X connect 27 0 30 0;
#X connect 28 0 30 0;
#X connect 29 0 30 0;
#X restore 164 191 pd noteSplitter;
#X obj 121 356 +~;
#X obj 224 374 +~;
#X obj 302 627 *~;
#X obj 224 406 osc~;
#X obj 269 500 *~ 0.3;
#X obj 259 338 *~ 5;
#X obj 149 304 osc~ 1;
#X obj 259 313 osc~ 10;
#X obj 435 374 sel 127 0;
#X obj 165 244 / 2;
#X msg 341 501 0 600;
#X msg 460 502 1 20;
#X msg 499 503 0 500;
#X msg 333 448 900 10;
#X obj 276 567 vcf~ 5;
#X obj 353 582 line~;
#X obj 327 532 line~;
#X obj 149 329 *~ 1;
#X obj 60 468 osc~;
#X obj 60 440 / 4;
#X obj 60 494 *~ 2;
#X obj 690 270 osc~;
#X obj 675 461 +~;
#X obj 690 401 *~;
#X obj 705 376 vline~;
#X obj 923 412 *~;
#X obj 619 466 +~;
#X obj 619 288 mtof~;
#X obj 675 490 osc~;
#X obj 811 643 *~;
#X obj 1141 440 vline~;
#X obj 938 376 vline~;
#N canvas 14 23 1026 678 noteSplitter 0;
#X msg 54 75 69;
#X msg 99 103 71;
#X msg 144 131 72;
#X msg 189 169 74;
#X msg 234 202 76;
#X msg 279 227 77;
#X msg 330 253 79;
#X obj 54 25 inlet;
#X obj 54 53 moses 8;
#X obj 99 80 moses 16;
#X obj 144 108 moses 24;
#X obj 189 147 moses 32;
#X obj 234 180 moses 40;
#X obj 279 205 moses 48;
#X obj 330 229 moses 56;
#X obj 374 253 moses 64;
#X obj 419 280 moses 72;
#X obj 464 308 moses 80;
#X obj 509 347 moses 88;
#X obj 554 380 moses 96;
#X obj 599 405 moses 104;
#X obj 650 429 moses 112;
#X msg 374 280 81;
#X msg 419 308 83;
#X msg 464 342 84;
#X msg 509 376 86;
#X msg 554 409 88;
#X msg 599 430 89;
#X msg 650 458 91;
#X msg 701 474 93;
#X obj 54 631 outlet;
#X connect 0 0 30 0;
#X connect 1 0 30 0;
#X connect 2 0 30 0;
#X connect 3 0 30 0;
#X connect 4 0 30 0;
#X connect 5 0 30 0;
#X connect 6 0 30 0;
#X connect 7 0 8 0;
#X connect 8 0 0 0;
#X connect 8 1 9 0;
#X connect 9 0 1 0;
#X connect 9 1 10 0;
#X connect 10 0 2 0;
#X connect 10 1 11 0;
#X connect 11 0 3 0;
#X connect 11 1 12 0;
#X connect 12 0 4 0;
#X connect 12 1 13 0;
#X connect 13 0 5 0;
#X connect 13 1 14 0;
#X connect 14 0 6 0;
#X connect 14 1 15 0;
#X connect 15 0 22 0;
#X connect 15 1 16 0;
#X connect 16 0 23 0;
#X connect 16 1 17 0;
#X connect 17 0 24 0;
#X connect 17 1 18 0;
#X connect 18 0 25 0;
#X connect 18 1 19 0;
#X connect 19 0 26 0;
#X connect 19 1 20 0;
#X connect 20 0 27 0;
#X connect 20 1 21 0;
#X connect 21 0 28 0;
#X connect 21 1 29 0;
#X connect 22 0 30 0;
#X connect 23 0 30 0;
#X connect 24 0 30 0;
#X connect 25 0 30 0;
#X connect 26 0 30 0;
#X connect 27 0 30 0;
#X connect 28 0 30 0;
#X connect 29 0 30 0;
#X restore 711 74 pd noteSplitter;
#X obj 711 21 ctlin 120 1;
#X obj 847 167 mtof;
#X obj 1148 102 ctlin 119 1;
#X obj 1148 134 sel 127 0;
#X obj 811 673 *~ 0.2;
#X msg 1141 378 1 15 \, 0.3 20 15;
#X msg 1253 377 0 500;
#X obj 619 490 osc~;
#X obj 866 640 ctlin 121 1;
#X obj 866 665 / 33;
#X obj 866 688 vline~;
#X obj 845 715 *~;
#X obj 777 757 dac~;
#X obj 714 50 hsl 128 15 0 127 0 0 empty empty empty -2 -8 0 10 -262144
-1 -1 0 1;
#X obj 822 310 noise~;
#X obj 869 313 osc~ 110;
#X obj 869 290 * 0.75;
#X msg 938 340 0.75 50 \, 0.5 200 300;
#X obj 869 348 *~ 500;
#X msg 705 341 1 100 \, 0.5 100 100;
#X obj 690 247 * 0.5;
#X obj 690 295 *~ 2000;
#X obj 971 610 loadbang;
#X msg 971 632 33;
#X connect 0 0 10 0;
#X connect 2 0 8 0;
#X connect 3 0 19 0;
#X connect 4 0 20 0;
#X connect 5 0 6 0;
#X connect 6 0 7 0;
#X connect 7 0 15 0;
#X connect 8 0 15 0;
#X connect 9 0 5 0;
#X connect 10 0 4 0;
#X connect 11 0 9 0;
#X connect 12 0 14 0;
#X connect 14 0 15 0;
#X connect 15 0 25 0;
#X connect 16 0 12 1;
#X connect 17 0 28 0;
#X connect 18 0 16 0;
#X connect 19 0 22 0;
#X connect 19 0 24 0;
#X connect 19 1 21 0;
#X connect 19 1 23 0;
#X connect 20 0 11 0;
#X connect 20 0 12 0;
#X connect 20 0 30 0;
#X connect 21 0 27 0;
#X connect 22 0 26 0;
#X connect 23 0 26 0;
#X connect 24 0 27 0;
#X connect 25 0 13 0;
#X connect 26 0 13 1;
#X connect 27 0 25 1;
#X connect 28 0 11 1;
#X connect 29 0 31 0;
#X connect 30 0 29 0;
#X connect 31 0 15 0;
#X connect 32 0 65 0;
#X connect 33 0 39 0;
#X connect 34 0 33 1;
#X connect 35 0 34 1;
#X connect 36 0 37 1;
#X connect 37 0 51 0;
#X connect 38 0 33 0;
#X connect 38 0 37 0;
#X connect 39 0 40 0;
#X connect 40 0 48 0;
#X connect 41 0 40 1;
#X connect 42 0 36 1;
#X connect 43 0 38 0;
#X connect 43 0 45 0;
#X connect 44 0 57 0;
#X connect 45 0 61 0;
#X connect 45 0 63 0;
#X connect 45 0 60 0;
#X connect 45 0 64 0;
#X connect 46 0 47 0;
#X connect 47 0 49 0;
#X connect 47 0 61 0;
#X connect 47 0 63 0;
#X connect 47 1 50 0;
#X connect 48 0 55 0;
#X connect 49 0 41 0;
#X connect 50 0 41 0;
#X connect 51 0 40 0;
#X connect 52 0 53 0;
#X connect 53 0 54 0;
#X connect 54 0 55 1;
#X connect 55 0 1 0;
#X connect 57 0 43 0;
#X connect 58 0 62 0;
#X connect 59 0 62 0;
#X connect 60 0 59 0;
#X connect 61 0 42 0;
#X connect 62 0 36 0;
#X connect 63 0 35 0;
#X connect 64 0 32 0;
#X connect 65 0 34 0;
#X connect 66 0 67 0;
#X connect 67 0 53 0;
#X restore 329 72 pd noiseBox;
#X text 326 43 noise synth \, no gui, f 12;
#X msg 395 401 list /postFXVol 127;
#N canvas 75 23 586 522 drumPatterns 0;
#X obj 24 15 receive fromGUI;
#X obj 395 395 send toGUI;
#X obj 24 40 list trim;
#X obj 24 132 sel 0 1 2 3 4, f 28;
#X obj 23 249 send toGUI;
#X msg 19 213 list /patternLabel OFF;
#X msg 29 183 list /patternLabel A;
#X msg 159 183 list /patternLabel B;
#X msg 159 213 list /patternLabel C;
#X msg 299 213 list /patternLabel D;
#X obj 51 103 s patternSel;
#N canvas 215 165 569 426 patternOne 0;
#X obj 103 84 + 1;
#X obj 68 84 f;
#X obj 68 109 mod 16;
#X obj 68 133 sel 0 1 2 3 4 5 6 7 8 9 10 11 12 13 14 15;
#X obj 140 21 r stop;
#X msg 140 48 0;
#X obj 336 263 spigot 0;
#X obj 381 213 r patternSel;
#X obj 381 236 == 1;
#X obj 68 48 r sixFour;
#X obj 60 301 s btn/btn4;
#X obj 147 301 s btn/btn1;
#X msg 60 184 bang;
#X msg 152 184 bang;
#X obj 226 291 s btn/btn15;
#X msg 242 184 bang;
#X obj 336 291 s btn/btn8;
#X msg 336 184 bang;
#X obj 226 263 spigot 0;
#X obj 271 213 r patternSel;
#X obj 271 236 == 1;
#X obj 146 263 spigot 0;
#X obj 191 213 r patternSel;
#X obj 191 236 == 1;
#X obj 46 263 spigot 0;
#X obj 91 213 r patternSel;
#X obj 91 236 == 1;
#X connect 0 0 1 1;
#X connect 1 0 0 0;
#X connect 1 0 2 0;
#X connect 2 0 3 0;
#X connect 3 0 12 0;
#X connect 3 0 13 0;
#X connect 3 2 12 0;
#X connect 3 3 17 0;
#X connect 3 4 12 0;
#X connect 3 4 15 0;
#X connect 3 6 12 0;
#X connect 3 8 12 0;
#X connect 3 8 13 0;
#X connect 3 10 12 0;
#X connect 3 10 13 0;
#X connect 3 12 12 0;
#X connect 3 12 15 0;
#X connect 3 14 12 0;
#X connect 3 15 15 0;
#X connect 4 0 5 0;
#X connect 5 0 1 1;
#X connect 6 0 16 0;
#X connect 7 0 8 0;
#X connect 8 0 6 1;
#X connect 9 0 1 0;
#X connect 12 0 24 0;
#X connect 13 0 21 0;
#X connect 15 0 18 0;
#X connect 17 0 6 0;
#X connect 18 0 14 0;
#X connect 19 0 20 0;
#X connect 20 0 18 1;
#X connect 21 0 11 0;
#X connect 22 0 23 0;
#X connect 23 0 21 1;
#X connect 24 0 10 0;
#X connect 25 0 26 0;
#X connect 26 0 24 1;
#X restore 18 364 pd patternOne;
#N canvas 0 22 834 400 patternTwo 0;
#X obj 137 101 + 1;
#X obj 102 101 f;
#X obj 102 126 mod 16;
#X obj 102 160 sel 0 1 2 3 4 5 6 7 8 9 10 11 12 13 14 15, f 43;
#X msg 102 214 list /btn7 1;
#X msg 17 214 list /btn4 1;
#X msg 184 214 list /btn3 1;
#X msg 270 213 list /btn2 1;
#X msg 443 214 list /btn10 1;
#X msg 626 215 list /btn14 1;
#X msg 357 213 list /btn8 1;
#X msg 533 214 list /btn5 1;
#X obj 171 32 r stop;
#X msg 171 59 0;
#X obj 102 56 r sixFour;
#X obj 727 116 r patternSel;
#X obj 727 142 == 2;
#X obj 727 180 s PTC;
#X obj 17 314 s btn/btn4;
#X obj 17 287 spigot 0;
#X obj 62 259 r PTC;
#X obj 97 287 spigot 0;
#X obj 142 259 r PTC;
#X obj 97 314 s btn/btn7;
#X obj 177 287 spigot 0;
#X obj 222 259 r PTC;
#X obj 177 314 s btn/btn3;
#X obj 257 287 spigot 0;
#X obj 302 259 r PTC;
#X obj 257 314 s btn/btn2;
#X obj 357 287 spigot 0;
#X obj 402 259 r PTC;
#X obj 357 314 s btn/btn8;
#X obj 437 287 spigot 0;
#X obj 482 259 r PTC;
#X obj 437 314 s btn/btn10;
#X obj 517 287 spigot 0;
#X obj 562 259 r PTC;
#X obj 517 314 s btn/btn5;
#X obj 607 287 spigot 0;
#X obj 652 259 r PTC;
#X obj 607 314 s btn/btn14;
#X connect 0 0 1 1;
#X connect 1 0 0 0;
#X connect 1 0 2 0;
#X connect 2 0 3 0;
#X connect 3 0 5 0;
#X connect 3 0 6 0;
#X connect 3 1 5 0;
#X connect 3 1 7 0;
#X connect 3 1 10 0;
#X connect 3 2 5 0;
#X connect 3 2 8 0;
#X connect 3 3 5 0;
#X connect 3 4 5 0;
#X connect 3 4 4 0;
#X connect 3 5 5 0;
#X connect 3 6 5 0;
#X connect 3 7 5 0;
#X connect 3 7 8 0;
#X connect 3 8 5 0;
#X connect 3 9 5 0;
#X connect 3 9 7 0;
#X connect 3 10 5 0;
#X connect 3 10 10 0;
#X connect 3 11 5 0;
#X connect 3 11 7 0;
#X connect 3 12 5 0;
#X connect 3 12 9 0;
#X connect 3 13 5 0;
#X connect 3 14 5 0;
#X connect 3 15 5 0;
#X connect 3 15 11 0;
#X connect 4 0 21 0;
#X connect 5 0 19 0;
#X connect 6 0 24 0;
#X connect 7 0 27 0;
#X connect 8 0 33 0;
#X connect 9 0 39 0;
#X connect 10 0 30 0;
#X connect 11 0 36 0;
#X connect 12 0 13 0;
#X connect 13 0 1 1;
#X connect 14 0 1 0;
#X connect 15 0 16 0;
#X connect 16 0 17 0;
#X connect 19 0 18 0;
#X connect 20 0 19 1;
#X connect 21 0 23 0;
#X connect 22 0 21 1;
#X connect 24 0 26 0;
#X connect 25 0 24 1;
#X connect 27 0 29 0;
#X connect 28 0 27 1;
#X connect 30 0 32 0;
#X connect 31 0 30 1;
#X connect 33 0 35 0;
#X connect 34 0 33 1;
#X connect 36 0 38 0;
#X connect 37 0 36 1;
#X connect 39 0 41 0;
#X connect 40 0 39 1;
#X restore 106 364 pd patternTwo;
#X obj 24 68 route /patternSelector /bpmKnob;
#X obj 132 103 s bpmChange;
#N canvas 0 23 755 519 patternThree 0;
#X obj 137 101 + 1;
#X obj 102 101 f;
#X obj 206 25 r stop;
#X msg 206 52 0;
#X obj 72 287 spigot 0;
#X msg 102 219 list /btn2 1;
#X msg 186 219 list /btn9 1;
#X msg 308 220 list /btn6 1;
#X msg 404 209 list /btn13 1;
#X msg 533 267 list /btn4 1;
#X obj 102 126 mod 32;
#X obj 102 160 sel 0 2 4 6 8 10 12 14 16 18 20 22 24 26 28 30, f 55
;
#X obj 533 154 mod 32;
#X obj 533 179 sel 14 15 16 26 27 28 29 30 31 32;
#X msg 623 266 list /btn5 1;
#X obj 102 54 r oneTwoEight;
#X obj 642 17 r patternSel;
#X obj 642 44 == 3;
#X obj 642 73 s PTHC;
#X obj 117 249 r PTHC;
#X obj 72 323 s btn/btn2;
#X obj 182 287 spigot 0;
#X obj 227 249 r PTHC;
#X obj 182 323 s btn/btn9;
#X obj 282 287 spigot 0;
#X obj 327 249 r PTHC;
#X obj 282 323 s btn/btn6;
#X obj 402 287 spigot 0;
#X obj 447 249 r PTHC;
#X obj 402 323 s btn/btn13;
#X obj 532 347 spigot 0;
#X obj 577 309 r PTHC;
#X obj 532 383 s btn/btn4;
#X obj 622 347 spigot 0;
#X obj 667 309 r PTHC;
#X obj 622 383 s btn/btn5;
#X connect 0 0 1 1;
#X connect 1 0 0 0;
#X connect 1 0 10 0;
#X connect 1 0 12 0;
#X connect 2 0 3 0;
#X connect 3 0 1 1;
#X connect 4 0 20 0;
#X connect 5 0 4 0;
#X connect 6 0 21 0;
#X connect 7 0 24 0;
#X connect 8 0 27 0;
#X connect 9 0 30 0;
#X connect 10 0 11 0;
#X connect 11 0 5 0;
#X connect 11 3 6 0;
#X connect 11 5 5 0;
#X connect 11 7 6 0;
#X connect 11 8 7 0;
#X connect 11 11 8 0;
#X connect 12 0 13 0;
#X connect 13 0 9 0;
#X connect 13 1 9 0;
#X connect 13 2 9 0;
#X connect 13 3 9 0;
#X connect 13 5 9 0;
#X connect 13 7 9 0;
#X connect 13 7 14 0;
#X connect 13 8 14 0;
#X connect 14 0 33 0;
#X connect 15 0 1 0;
#X connect 16 0 17 0;
#X connect 17 0 18 0;
#X connect 19 0 4 1;
#X connect 21 0 23 0;
#X connect 22 0 21 1;
#X connect 24 0 26 0;
#X connect 25 0 24 1;
#X connect 27 0 29 0;
#X connect 28 0 27 1;
#X connect 30 0 32 0;
#X connect 31 0 30 1;
#X connect 33 0 35 0;
#X connect 34 0 33 1;
#X restore 191 364 pd patternThree;
#N canvas 0 22 599 430 patternFour 0;
#X obj 137 121 + 1;
#X obj 102 121 f;
#X obj 102 146 mod 16;
#X obj 89 193 sel 0 1 2 3 4 5 6 7 8 9 10 11 12 13 14 15, f 52;
#X obj 219 37 r stop;
#X msg 219 64 0;
#X obj 98 288 spigot 0;
#X msg 98 235 list /btn11 1;
#X msg 188 236 list /btn5 1;
#X msg 274 236 list /btn10 1;
#X msg 374 237 list /btn4 1;
#X obj 102 77 r oneTwoEight;
#X obj 452 57 r patternSel;
#X obj 452 86 == 4;
#X obj 452 118 s PFC;
#X obj 143 259 r PFC;
#X obj 98 317 s btn/btn11;
#X obj 178 288 spigot 0;
#X obj 223 259 r PFC;
#X obj 178 317 s btn/btn5;
#X obj 278 288 spigot 0;
#X obj 323 259 r PFC;
#X obj 278 317 s btn/btn10;
#X obj 378 288 spigot 0;
#X obj 423 259 r PFC;
#X obj 378 317 s btn/btn4;
#X connect 0 0 1 1;
#X connect 1 0 0 0;
#X connect 1 0 2 0;
#X connect 2 0 3 0;
#X connect 3 0 7 0;
#X connect 3 2 10 0;
#X connect 3 4 8 0;
#X connect 3 4 10 0;
#X connect 3 6 7 0;
#X connect 3 8 7 0;
#X connect 3 8 10 0;
#X connect 3 10 9 0;
#X connect 3 12 8 0;
#X connect 4 0 5 0;
#X connect 5 0 1 1;
#X connect 6 0 16 0;
#X connect 7 0 6 0;
#X connect 8 0 17 0;
#X connect 9 0 20 0;
#X connect 10 0 23 0;
#X connect 11 0 1 0;
#X connect 12 0 13 0;
#X connect 13 0 14 0;
#X connect 15 0 6 1;
#X connect 17 0 19 0;
#X connect 18 0 17 1;
#X connect 20 0 22 0;
#X connect 21 0 20 1;
#X connect 23 0 25 0;
#X connect 24 0 23 1;
#X restore 291 364 pd patternFour;
#X obj 395 341 r clear;
#X msg 395 365 list /patternSelector 0;
#X connect 0 0 2 0;
#X connect 2 0 13 0;
#X connect 3 0 5 0;
#X connect 3 1 6 0;
#X connect 3 2 7 0;
#X connect 3 3 8 0;
#X connect 3 4 9 0;
#X connect 5 0 4 0;
#X connect 6 0 4 0;
#X connect 7 0 4 0;
#X connect 8 0 4 0;
#X connect 9 0 4 0;
#X connect 13 0 3 0;
#X connect 13 0 10 0;
#X connect 13 1 14 0;
#X connect 17 0 18 0;
#X connect 18 0 1 0;
#X restore 47 195 pd drumPatterns;
#N canvas 204 23 681 641 TapeDelay 0;
#X obj 159 373 vline~;
#X obj 266 483 *~;
#X obj 34 396 inlet~;
#X obj 34 578 outlet~;
#X obj 281 339 receive fromGUI;
#X obj 281 370 route list;
#X obj 281 413 / 127;
#X obj 266 526 delwrite~ drumpitchdie 2000;
#X obj 159 397 vd~ drumpitchdie;
#X obj 317 72 r ms;
#X obj 302 105 \$1;
#X msg 258 72 bang;
#X obj 75 193 spigot;
#X obj 122 193 spigot;
#X obj 168 193 spigot;
#X obj 212 193 spigot;
#X obj 256 193 spigot;
#X obj 26 136 == 0;
#X obj 59 136 == 1;
#X obj 91 136 == 2;
#X obj 125 136 == 3;
#X obj 157 136 == 4;
#X obj 91 78 random 5;
#X obj 191 136 == 5;
#X obj 301 193 spigot;
#X msg 159 351 \$1 \$1;
#X obj 305 436 loadbang;
#X msg 305 458 0;
#X obj 233 136 / 64;
#X obj 266 136 / 32;
#X obj 298 136 / 16;
#X obj 332 136 / 8;
#X obj 359 136 / 4;
#X obj 387 136 / 2;
#X obj 192 14 r trigMet;
#X obj 473 426 spigot 0;
#X obj 473 548 send toGUI;
#X obj 473 398 random 127;
#X obj 495 476 line;
#X msg 495 450 \$1 10;
#X obj 281 390 route /glitchDelay /randomTape;
#X msg 473 514 list /glitchDelay set \$1;
#X obj 552 426 r clear;
#X msg 552 456 list /randomTape 0;
#X obj 473 372 r sixFour;
#X obj 34 532 *~ 0.5;
#X obj 85 531 *~ 0.5;
#X connect 0 0 8 0;
#X connect 1 0 7 0;
#X connect 1 0 46 0;
#X connect 2 0 7 0;
#X connect 2 0 45 0;
#X connect 4 0 5 0;
#X connect 5 0 40 0;
#X connect 6 0 1 1;
#X connect 8 0 1 0;
#X connect 9 0 10 1;
#X connect 10 0 28 0;
#X connect 10 0 29 0;
#X connect 10 0 30 0;
#X connect 10 0 31 0;
#X connect 10 0 32 0;
#X connect 10 0 33 0;
#X connect 11 0 10 0;
#X connect 12 0 25 0;
#X connect 13 0 25 0;
#X connect 14 0 25 0;
#X connect 15 0 25 0;
#X connect 16 0 25 0;
#X connect 17 0 12 1;
#X connect 18 0 13 1;
#X connect 19 0 14 1;
#X connect 20 0 15 1;
#X connect 21 0 16 1;
#X connect 22 0 17 0;
#X connect 22 0 18 0;
#X connect 22 0 19 0;
#X connect 22 0 20 0;
#X connect 22 0 21 0;
#X connect 22 0 23 0;
#X connect 23 0 24 1;
#X connect 24 0 25 0;
#X connect 25 0 0 0;
#X connect 26 0 27 0;
#X connect 27 0 1 1;
#X connect 28 0 12 0;
#X connect 29 0 13 0;
#X connect 30 0 14 0;
#X connect 31 0 15 0;
#X connect 32 0 16 0;
#X connect 33 0 24 0;
#X connect 34 0 11 0;
#X connect 34 0 22 0;
#X connect 35 0 41 0;
#X connect 35 0 39 0;
#X connect 37 0 35 0;
#X connect 38 0 6 0;
#X connect 39 0 38 0;
#X connect 40 0 6 0;
#X connect 40 1 35 1;
#X connect 41 0 36 0;
#X connect 42 0 43 0;
#X connect 43 0 36 0;
#X connect 44 0 37 0;
#X connect 45 0 3 0;
#X connect 46 0 3 0;
#X restore 434 200 pd TapeDelay;
#N canvas 53 23 1282 741 reTrigger 0;
#X obj 32 93 inlet~;
#X obj 121 495 outlet~;
#X obj 32 210 s~ dryGlitchPre;
#X obj 708 712 s~ wetGlitchPre;
#X obj 121 435 r~ dryGlitchPre;
#X obj 14 376 r~ wetGlitchPre;
#X msg 122 351 \$1 15;
#X obj 122 325 expr 1 - $f1;
#X obj 122 300 expr $f1 < 0.05;
#X obj 220 29 receive fromGUI;
#X obj 220 51 list trim;
#X obj 220 74 route /glitchTimePre;
#X obj 220 97 / 127;
#X obj 220 118 s guipreglitch;
#X obj 122 276 r guipreglitch;
#X obj 490 25 r ms;
#X obj 475 48 \$1;
#X obj 475 4 r trig;
#X obj 579 78 / 128;
#X obj 689 78 / 64;
#X obj 787 78 / 32;
#X obj 885 78 / 16;
#X obj 475 78 / 256;
#X obj 971 78 / 8;
#X obj 579 102 s tabOneTwoEight;
#X obj 475 102 s tabTwoFiveSix;
#X obj 689 102 s tabSixtyFour;
#X obj 787 102 s tabThirtyTwo;
#X obj 885 102 s tabSixteen;
#X obj 971 102 s tabEight;
#X obj 808 258 metro;
#X obj 967 268 metro;
#X obj 77 130 spigot 1;
#X obj 122 105 < 0.05;
#X obj 122 80 r guipreglitch;
#X obj 835 180 r tabThirtyTwo;
#X obj 994 190 r tabSixteen;
#X obj 77 154 tabwrite~ /eight;
#X obj 75 26 table /eight 125000;
#X obj 641 260 metro;
#X obj 668 182 r tabSixtyFour;
#X obj 470 265 metro;
#X obj 497 187 r tabOneTwoEight;
#X obj 308 260 metro;
#X obj 335 182 r tabTwoFiveSix;
#X obj 352 206 r clear;
#X msg 352 228 stop;
#X obj 514 211 r clear;
#X msg 514 233 stop;
#X obj 685 206 r clear;
#X msg 685 228 stop;
#X obj 852 204 r clear;
#X msg 852 226 stop;
#X obj 1011 214 r clear;
#X msg 1011 236 stop;
#X obj 306 466 line~;
#X obj 346 413 delay \$1;
#X obj 351 386 - 2;
#X msg 346 436 0 2;
#X msg 306 436 1 2;
#X obj 291 493 *~;
#X obj 351 358 r tabTwoFiveSix;
#X obj 466 466 line~;
#X obj 506 413 delay \$1;
#X obj 511 386 - 2;
#X msg 506 436 0 2;
#X msg 466 436 1 2;
#X obj 451 493 *~;
#X obj 636 466 line~;
#X obj 676 413 delay \$1;
#X obj 681 386 - 2;
#X msg 676 436 0 2;
#X msg 636 436 1 2;
#X obj 621 493 *~;
#X obj 681 358 r tabSixtyFour;
#X obj 511 358 r tabOneTwoEight;
#X obj 796 466 line~;
#X obj 836 413 delay \$1;
#X obj 841 386 - 2;
#X msg 836 436 0 2;
#X msg 796 436 1 2;
#X obj 781 493 *~;
#X obj 841 358 r tabThirtyTwo;
#X obj 956 466 line~;
#X obj 996 413 delay \$1;
#X obj 1001 386 - 2;
#X msg 996 436 0 2;
#X msg 956 436 1 2;
#X obj 941 493 *~;
#X obj 1001 358 r tabSixteen;
#X obj 306 531 r guipreglitch;
#X obj 636 531 r guipreglitch;
#X obj 796 531 r guipreglitch;
#X obj 306 555 expr $f1 > 0.85;
#X obj 291 651 *~;
#X obj 306 626 line~;
#X msg 306 601 \$1 15;
#X obj 466 531 r guipreglitch;
#X obj 451 651 *~;
#X obj 466 626 line~;
#X msg 466 601 \$1 15;
#X obj 466 555 expr $f1 > 0.7 && $f1 < 0.85, f 18;
#X obj 621 651 *~;
#X obj 636 626 line~;
#X msg 636 601 \$1 15;
#X obj 636 555 expr $f1 > 0.55 && $f1 < 0.7, f 15;
#X obj 781 651 *~;
#X obj 796 626 line~;
#X msg 796 601 \$1 15;
#X obj 796 553 expr $f1 > 0.4 && $f1 < 0.55, f 16;
#X obj 956 531 r guipreglitch;
#X obj 941 651 *~;
#X obj 956 626 line~;
#X msg 956 601 \$1 15;
#X obj 956 553 expr $f1 > 0.25 && $f1 < 0.4, f 16;
#X obj 291 319 tabplay~ /eight;
#X obj 451 319 tabplay~ /eight;
#X obj 621 319 tabplay~ /eight;
#X obj 781 319 tabplay~ /eight;
#X obj 941 319 tabplay~ /eight;
#X obj 1117 268 metro;
#X obj 1144 190 r tabEight;
#X obj 1161 214 r clear;
#X msg 1161 236 stop;
#X obj 1093 319 tabplay~ /eight;
#X obj 1108 466 line~;
#X obj 1148 413 delay \$1;
#X obj 1153 386 - 2;
#X msg 1148 436 0 2;
#X msg 1108 436 1 2;
#X obj 1093 493 *~;
#X obj 1153 358 r tabEight;
#X obj 1108 553 expr $f1 < 0.25;
#X obj 1108 531 r guipreglitch;
#X obj 1093 651 *~;
#X obj 1108 626 line~;
#X msg 1108 601 \$1 15;
#X obj 1136 293 s startWritePreTab;
#X obj 77 56 r startWritePreTab;
#X obj 308 222 r f;
#X obj 470 222 r f;
#X obj 641 222 r f;
#X obj 808 222 r f;
#X obj 967 222 r f;
#X obj 1117 222 r f;
#X obj 101 405 *~ 0;
#X obj 122 376 line;
#X connect 0 0 2 0;
#X connect 0 0 37 0;
#X connect 4 0 1 0;
#X connect 5 0 145 0;
#X connect 6 0 146 0;
#X connect 7 0 6 0;
#X connect 8 0 7 0;
#X connect 9 0 10 0;
#X connect 10 0 11 0;
#X connect 11 0 12 0;
#X connect 12 0 13 0;
#X connect 14 0 8 0;
#X connect 15 0 16 1;
#X connect 16 0 22 0;
#X connect 16 0 18 0;
#X connect 16 0 19 0;
#X connect 16 0 20 0;
#X connect 16 0 21 0;
#X connect 16 0 23 0;
#X connect 17 0 16 0;
#X connect 18 0 24 0;
#X connect 19 0 26 0;
#X connect 20 0 27 0;
#X connect 21 0 28 0;
#X connect 22 0 25 0;
#X connect 23 0 29 0;
#X connect 30 0 77 0;
#X connect 30 0 80 0;
#X connect 30 0 118 0;
#X connect 31 0 84 0;
#X connect 31 0 87 0;
#X connect 31 0 119 0;
#X connect 32 0 37 0;
#X connect 33 0 32 1;
#X connect 34 0 33 0;
#X connect 35 0 30 1;
#X connect 36 0 31 1;
#X connect 39 0 69 0;
#X connect 39 0 72 0;
#X connect 39 0 117 0;
#X connect 40 0 39 1;
#X connect 41 0 63 0;
#X connect 41 0 66 0;
#X connect 41 0 116 0;
#X connect 42 0 41 1;
#X connect 43 0 56 0;
#X connect 43 0 59 0;
#X connect 43 0 115 0;
#X connect 44 0 43 1;
#X connect 45 0 46 0;
#X connect 46 0 43 0;
#X connect 47 0 48 0;
#X connect 48 0 41 0;
#X connect 49 0 50 0;
#X connect 50 0 39 0;
#X connect 51 0 52 0;
#X connect 52 0 30 0;
#X connect 53 0 54 0;
#X connect 54 0 31 0;
#X connect 55 0 60 1;
#X connect 56 0 58 0;
#X connect 57 0 56 1;
#X connect 58 0 55 0;
#X connect 59 0 55 0;
#X connect 60 0 94 0;
#X connect 61 0 57 0;
#X connect 62 0 67 1;
#X connect 63 0 65 0;
#X connect 64 0 63 1;
#X connect 65 0 62 0;
#X connect 66 0 62 0;
#X connect 67 0 98 0;
#X connect 68 0 73 1;
#X connect 69 0 71 0;
#X connect 70 0 69 1;
#X connect 71 0 68 0;
#X connect 72 0 68 0;
#X connect 73 0 102 0;
#X connect 74 0 70 0;
#X connect 75 0 64 0;
#X connect 76 0 81 1;
#X connect 77 0 79 0;
#X connect 78 0 77 1;
#X connect 79 0 76 0;
#X connect 80 0 76 0;
#X connect 81 0 106 0;
#X connect 82 0 78 0;
#X connect 83 0 88 1;
#X connect 84 0 86 0;
#X connect 85 0 84 1;
#X connect 86 0 83 0;
#X connect 87 0 83 0;
#X connect 88 0 111 0;
#X connect 89 0 85 0;
#X connect 90 0 93 0;
#X connect 91 0 105 0;
#X connect 92 0 109 0;
#X connect 93 0 96 0;
#X connect 94 0 3 0;
#X connect 95 0 94 1;
#X connect 96 0 95 0;
#X connect 97 0 101 0;
#X connect 98 0 3 0;
#X connect 99 0 98 1;
#X connect 100 0 99 0;
#X connect 101 0 100 0;
#X connect 102 0 3 0;
#X connect 103 0 102 1;
#X connect 104 0 103 0;
#X connect 105 0 104 0;
#X connect 106 0 3 0;
#X connect 107 0 106 1;
#X connect 108 0 107 0;
#X connect 109 0 108 0;
#X connect 110 0 114 0;
#X connect 111 0 3 0;
#X connect 112 0 111 1;
#X connect 113 0 112 0;
#X connect 114 0 113 0;
#X connect 115 0 60 0;
#X connect 116 0 67 0;
#X connect 117 0 73 0;
#X connect 118 0 81 0;
#X connect 119 0 88 0;
#X connect 120 0 124 0;
#X connect 120 0 126 0;
#X connect 120 0 129 0;
#X connect 120 0 137 0;
#X connect 121 0 120 1;
#X connect 122 0 123 0;
#X connect 123 0 120 0;
#X connect 124 0 130 0;
#X connect 125 0 130 1;
#X connect 126 0 128 0;
#X connect 127 0 126 1;
#X connect 128 0 125 0;
#X connect 129 0 125 0;
#X connect 130 0 134 0;
#X connect 131 0 127 0;
#X connect 132 0 136 0;
#X connect 133 0 132 0;
#X connect 134 0 3 0;
#X connect 135 0 134 1;
#X connect 136 0 135 0;
#X connect 138 0 32 0;
#X connect 139 0 43 0;
#X connect 140 0 41 0;
#X connect 141 0 39 0;
#X connect 142 0 30 0;
#X connect 143 0 31 0;
#X connect 144 0 120 0;
#X connect 145 0 1 0;
#X connect 146 0 145 1;
#X restore 223 245 pd reTrigger;
#N canvas 602 74 681 433 distortion 0;
#X obj 71 28 inlet~;
#X obj 71 408 outlet~;
#X obj 148 61 *~ 40;
#X obj 148 84 clip~ -0.5 0.5;
#X obj 254 37 receive fromGUI;
#X obj 254 58 route list;
#X obj 148 349 *~ 0.3;
#X obj 433 106 spigot 0;
#X obj 433 268 send toGUI;
#X obj 433 78 random 127;
#X obj 455 156 line;
#X msg 455 130 \$1 10;
#X obj 254 78 route /drumDist /randomDist;
#X msg 433 194 list /drumDist set \$1;
#X obj 448 218 r clear;
#X msg 448 244 list /randomDist 0;
#X obj 433 52 r sixFour;
#X obj 71 321 *~ 1;
#X obj 148 321 *~ 0;
#X msg 92 275 \$1 15;
#X msg 169 273 \$1 15;
#X obj 92 297 line;
#X obj 169 295 line;
#X obj 169 204 / 127;
#X obj 254 207 expr (127 - $f1) / 127;
#X connect 0 0 2 0;
#X connect 0 0 17 0;
#X connect 2 0 3 0;
#X connect 3 0 18 0;
#X connect 4 0 5 0;
#X connect 5 0 12 0;
#X connect 6 0 1 0;
#X connect 7 0 13 0;
#X connect 7 0 11 0;
#X connect 9 0 7 0;
#X connect 10 0 24 0;
#X connect 10 0 23 0;
#X connect 11 0 10 0;
#X connect 12 0 24 0;
#X connect 12 0 23 0;
#X connect 12 1 7 1;
#X connect 13 0 8 0;
#X connect 14 0 15 0;
#X connect 15 0 8 0;
#X connect 16 0 9 0;
#X connect 17 0 1 0;
#X connect 18 0 6 0;
#X connect 19 0 21 0;
#X connect 20 0 22 0;
#X connect 21 0 17 1;
#X connect 22 0 18 1;
#X connect 23 0 20 0;
#X connect 24 0 19 0;
#X restore 223 270 pd distortion;
#N canvas 90 46 669 530 bitCrush 0;
#X obj 389 386 samphold~;
#X obj 444 363 phasor~;
#X obj 148 281 inlet~;
#X obj 164 500 outlet~;
#X obj 444 11 receive fromGUI;
#X obj 444 34 route list;
#X obj 132 110 spigot 0;
#X obj 132 232 send toGUI;
#X obj 132 82 random 127;
#X obj 154 160 line;
#X msg 154 134 \$1 10;
#X obj 444 57 route /drumBits /randomBits;
#X msg 132 208 list /drumBits set \$1;
#X obj 10 126 r clear;
#X msg 10 153 list /randomBits 0;
#X obj 132 56 r sixFour;
#X obj 444 274 expr (127 - $f1) / 127;
#X obj 148 467 *~ 1;
#X obj 189 465 *~ 0;
#X obj 210 341 > 0.95;
#X obj 169 421 line;
#X msg 169 396 \$1 15;
#X obj 210 420 line;
#X msg 210 395 \$1 15;
#X obj 210 369 expr 1 - $f1;
#X obj 444 303 * 4000;
#X obj 444 333 + 3000;
#X connect 0 0 18 0;
#X connect 1 0 0 1;
#X connect 2 0 0 0;
#X connect 2 0 17 0;
#X connect 4 0 5 0;
#X connect 5 0 11 0;
#X connect 6 0 12 0;
#X connect 6 0 10 0;
#X connect 8 0 6 0;
#X connect 9 0 16 0;
#X connect 10 0 9 0;
#X connect 11 0 16 0;
#X connect 11 1 6 1;
#X connect 12 0 7 0;
#X connect 13 0 14 0;
#X connect 14 0 7 0;
#X connect 15 0 8 0;
#X connect 16 0 19 0;
#X connect 16 0 25 0;
#X connect 17 0 3 0;
#X connect 18 0 3 0;
#X connect 19 0 24 0;
#X connect 19 0 21 0;
#X connect 20 0 17 1;
#X connect 21 0 20 0;
#X connect 22 0 18 1;
#X connect 23 0 22 0;
#X connect 24 0 23 0;
#X connect 25 0 26 0;
#X connect 26 0 1 0;
#X restore 223 292 pd bitCrush;
#N canvas 163 69 965 601 delay 0;
#X obj 166 293 vline~;
#X msg 166 272 \$1 200;
#X obj 69 348 inlet~;
#X obj 83 479 outlet~;
#X obj 312 56 receive fromGUI;
#X obj 312 77 route list;
#X text 219 206 Delay Feedback;
#X obj 312 146 / 127;
#X obj 605 350 spigot;
#X obj 661 350 spigot;
#X obj 715 349 spigot;
#X obj 772 350 spigot;
#X obj 661 62 receive fromGUI;
#X obj 661 83 route list;
#X obj 661 104 route /drumDelayTime;
#X obj 687 450 s drumDelayTimeInc;
#X obj 166 137 r drumDelayTimeInc;
#X obj 92 374 s~ drumPitch;
#X obj 258 398 r~ drumPitch;
#X obj 184 330 vd~ drumPitch;
#X obj 254 436 delwrite~ drumPitch 2000;
#X obj 563 236 \$1;
#X obj 578 206 r ms;
#X msg 527 199 bang;
#X obj 822 350 spigot;
#X obj 555 350 spigot;
#X obj 588 322 == 0;
#X obj 638 322 == 1;
#X obj 694 316 == 2;
#X obj 748 318 == 3;
#X obj 805 315 == 4;
#X obj 855 316 == 5;
#X obj 367 201 * 16;
#X obj 312 97 route /drumDelayBack /freeDelayTime, f 19;
#X obj 555 373 / 128;
#X obj 605 373 / 64;
#X obj 661 373 / 32;
#X obj 715 372 / 16;
#X obj 772 377 / 8;
#X obj 822 377 / 4;
#X text 85 168 Quantize Delay Time, f 12;
#X obj 457 571 send toGUI;
#X obj 523 485 r ms;
#X msg 523 516 list /drumDelayTime enable 1 \, list /freeDelayTime
enable 0, f 30;
#X obj 287 493 loadbang;
#X obj 351 494 r clear;
#X msg 287 519 list /drumDelayTime enable 0 \, list /freeDelayTime
enable 1, f 31;
#X obj 204 372 *~ 0;
#X obj 69 433 *~ 0.5;
#X obj 115 433 *~ 0.5;
#X obj 661 144 0;
#X connect 0 0 19 0;
#X connect 1 0 0 0;
#X connect 2 0 17 0;
#X connect 2 0 48 0;
#X connect 4 0 5 0;
#X connect 5 0 33 0;
#X connect 7 0 47 1;
#X connect 8 0 35 0;
#X connect 9 0 36 0;
#X connect 10 0 37 0;
#X connect 11 0 38 0;
#X connect 12 0 13 0;
#X connect 13 0 14 0;
#X connect 14 0 50 0;
#X connect 16 0 1 0;
#X connect 18 0 20 0;
#X connect 19 0 47 0;
#X connect 21 0 8 0;
#X connect 21 0 9 0;
#X connect 21 0 10 0;
#X connect 21 0 11 0;
#X connect 21 0 25 0;
#X connect 21 0 24 0;
#X connect 22 0 21 1;
#X connect 23 0 21 0;
#X connect 24 0 39 0;
#X connect 25 0 34 0;
#X connect 26 0 25 1;
#X connect 27 0 8 1;
#X connect 28 0 9 1;
#X connect 29 0 10 1;
#X connect 30 0 11 1;
#X connect 31 0 24 1;
#X connect 32 0 1 0;
#X connect 33 0 7 0;
#X connect 33 1 32 0;
#X connect 34 0 15 0;
#X connect 35 0 15 0;
#X connect 36 0 15 0;
#X connect 37 0 15 0;
#X connect 38 0 15 0;
#X connect 39 0 15 0;
#X connect 42 0 43 0;
#X connect 43 0 41 0;
#X connect 44 0 46 0;
#X connect 45 0 46 0;
#X connect 46 0 41 0;
#X connect 47 0 20 0;
#X connect 47 0 49 0;
#X connect 48 0 3 0;
#X connect 49 0 3 0;
#X connect 50 0 23 0;
#X connect 50 0 26 0;
#X connect 50 0 27 0;
#X connect 50 0 28 0;
#X connect 50 0 29 0;
#X connect 50 0 30 0;
#X connect 50 0 31 0;
#X restore 223 317 pd delay;
#N canvas 211 72 670 429 reverb 0;
#X obj 51 375 outlet~;
#X obj 55 266 inlet~;
#X obj 310 293 expr 1 - $f1;
#X obj 311 139 receive fromGUI;
#X obj 311 160 route list;
#X obj 296 59 loadbang;
#X obj 112 119 hsl 128 15 0 1 0 1 empty empty 'roomsize' 20 8 0 10
-262144 -260097 -1 0 0;
#X obj 127 162 hsl 128 15 0 2.4 0 1 empty empty damp 20 8 0 10 -262144
-260097 -1 0 0;
#X obj 157 255 hsl 128 15 0 1 0 1 empty empty wet 20 8 0 10 -262144
-260097 -1 0 0;
#X obj 142 205 hsl 128 15 0 1 0 1 empty empty dry 20 8 0 10 -262144
-260097 -1 12700 0;
#N canvas 92 310 634 321 vfreeverb~ 0;
#N canvas 261 41 778 367 combfilters-left1 0;
#X obj 46 244 +~;
#X obj 61 219 *~ 0.3;
#X obj 61 194 lop~ 1000;
#X obj 231 244 +~;
#X obj 246 219 *~ 0.3;
#X obj 246 194 lop~ 1000;
#X obj 429 218 *~ 0.3;
#X obj 429 193 lop~ 1000;
#X obj 414 241 +~;
#X obj 610 218 *~ 0.3;
#X obj 610 193 lop~ 1000;
#X obj 595 241 +~;
#X obj 61 141 delread~ \$0-comb1left;
#X obj 246 142 delread~ \$0-comb2left;
#X obj 429 141 delread~ \$0-comb3left;
#X obj 610 141 delread~ \$0-comb4left;
#X obj 46 268 delwrite~ \$0-comb1left 100;
#X obj 231 268 delwrite~ \$0-comb2left 100;
#X obj 414 267 delwrite~ \$0-comb3left 100;
#X obj 595 267 delwrite~ \$0-comb4left 100;
#X obj 61 97 r \$0-comb1left;
#X obj 246 97 r \$0-comb2left;
#X obj 429 95 r \$0-comb3left;
#X obj 610 96 r \$0-comb4left;
#X obj 112 170 r \$0-frequency;
#X obj 297 170 r \$0-frequency;
#X obj 480 167 r \$0-frequency;
#X obj 661 167 r \$0-frequency;
#X obj 46 28 inlet~;
#X obj 338 326 outlet~;
#X floatatom 70 119 5 0 0 0 - - -, f 5;
#X floatatom 255 121 5 0 0 0 - - -, f 5;
#X floatatom 439 119 5 0 0 0 - - -, f 5;
#X floatatom 622 121 5 0 0 0 - - -, f 5;
#X obj 279 58 clip 0 0.99;
#X obj 279 29 r \$0-room;
#X connect 0 0 16 0;
#X connect 1 0 0 1;
#X connect 2 0 1 0;
#X connect 2 0 29 0;
#X connect 3 0 17 0;
#X connect 4 0 3 1;
#X connect 5 0 4 0;
#X connect 5 0 29 0;
#X connect 6 0 8 1;
#X connect 7 0 6 0;
#X connect 7 0 29 0;
#X connect 8 0 18 0;
#X connect 9 0 11 1;
#X connect 10 0 9 0;
#X connect 10 0 29 0;
#X connect 11 0 19 0;
#X connect 12 0 2 0;
#X connect 13 0 5 0;
#X connect 14 0 7 0;
#X connect 15 0 10 0;
#X connect 20 0 12 0;
#X connect 20 0 30 0;
#X connect 21 0 13 0;
#X connect 21 0 31 0;
#X connect 22 0 14 0;
#X connect 22 0 32 0;
#X connect 23 0 15 0;
#X connect 23 0 33 0;
#X connect 24 0 2 1;
#X connect 25 0 5 1;
#X connect 26 0 7 1;
#X connect 27 0 10 1;
#X connect 28 0 0 0;
#X connect 28 0 3 0;
#X connect 28 0 8 0;
#X connect 28 0 11 0;
#X connect 34 0 1 1;
#X connect 34 0 4 1;
#X connect 34 0 6 1;
#X connect 34 0 9 1;
#X connect 35 0 34 0;
#X restore 15 100 pd combfilters-left1;
#N canvas 27 56 358 650 diffusor-left 0;
#X obj 51 107 *~ 0.5;
#X obj 36 132 +~;
#X obj 66 132 -~;
#X obj 36 26 inlet~;
#X obj 81 238 *~ 0.5;
#X obj 66 263 +~;
#X obj 96 263 -~;
#X obj 111 368 *~ 0.5;
#X obj 96 393 +~;
#X obj 126 393 -~;
#X obj 141 498 *~ 0.5;
#X obj 126 523 +~;
#X obj 156 523 -~;
#X obj 156 605 outlet~;
#X text 95 28 freeverb's diffusor;
#X obj 156 576 hip~ 5;
#X floatatom 214 70 5 0 0 0 - - -, f 5;
#X floatatom 246 203 5 0 0 0 - - -, f 5;
#X floatatom 280 334 5 0 0 0 - - -, f 5;
#X floatatom 304 464 5 0 0 0 - - -, f 5;
#X obj 51 53 r \$0-allpass1left;
#X obj 51 80 delread~ \$0-allpass1left;
#X obj 36 158 delwrite~ \$0-allpass1left 40;
#X obj 81 186 r \$0-allpass2left;
#X obj 81 211 delread~ \$0-allpass2left;
#X obj 66 290 delwrite~ \$0-allpass2left 40;
#X obj 111 317 r \$0-allpass3left;
#X obj 111 341 delread~ \$0-allpass3left;
#X obj 96 420 delwrite~ \$0-allpass3left 40;
#X obj 141 447 r \$0-allpass4left;
#X obj 141 471 delread~ \$0-allpass4left;
#X obj 126 550 delwrite~ \$0-allpass4left 40;
#X connect 0 0 1 1;
#X connect 1 0 22 0;
#X connect 2 0 5 0;
#X connect 2 0 6 1;
#X connect 3 0 1 0;
#X connect 3 0 2 1;
#X connect 4 0 5 1;
#X connect 5 0 25 0;
#X connect 6 0 8 0;
#X connect 6 0 9 1;
#X connect 7 0 8 1;
#X connect 8 0 28 0;
#X connect 9 0 11 0;
#X connect 9 0 12 1;
#X connect 10 0 11 1;
#X connect 11 0 31 0;
#X connect 12 0 15 0;
#X connect 15 0 13 0;
#X connect 20 0 16 0;
#X connect 20 0 21 0;
#X connect 21 0 0 0;
#X connect 21 0 2 0;
#X connect 23 0 17 0;
#X connect 23 0 24 0;
#X connect 24 0 4 0;
#X connect 24 0 6 0;
#X connect 26 0 18 0;
#X connect 26 0 27 0;
#X connect 27 0 7 0;
#X connect 27 0 9 0;
#X connect 29 0 19 0;
#X connect 29 0 30 0;
#X connect 30 0 10 0;
#X connect 30 0 12 0;
#X restore 15 168 pd diffusor-left;
#N canvas 312 366 778 367 combfilters-left2 0;
#X obj 46 244 +~;
#X obj 61 219 *~ 0.3;
#X obj 61 194 lop~ 1000;
#X obj 231 244 +~;
#X obj 246 219 *~ 0.3;
#X obj 246 194 lop~ 1000;
#X obj 429 218 *~ 0.3;
#X obj 429 193 lop~ 1000;
#X obj 414 241 +~;
#X obj 610 218 *~ 0.3;
#X obj 610 193 lop~ 1000;
#X obj 595 241 +~;
#X obj 112 170 r \$0-frequency;
#X obj 297 170 r \$0-frequency;
#X obj 480 167 r \$0-frequency;
#X obj 661 167 r \$0-frequency;
#X obj 46 28 inlet~;
#X obj 338 326 outlet~;
#X obj 61 90 r \$0-comb5left;
#X obj 61 141 delread~ \$0-comb5left;
#X obj 46 268 delwrite~ \$0-comb5left 100;
#X obj 246 90 r \$0-comb6left;
#X obj 246 142 delread~ \$0-comb6left;
#X obj 231 268 delwrite~ \$0-comb6left 100;
#X obj 429 88 r \$0-comb7left;
#X obj 429 141 delread~ \$0-comb7left;
#X obj 414 267 delwrite~ \$0-comb7left 100;
#X obj 610 89 r \$0-comb8left;
#X obj 610 141 delread~ \$0-comb8left;
#X obj 595 267 delwrite~ \$0-comb8left 100;
#X floatatom 70 116 5 0 0 0 - - -, f 5;
#X floatatom 261 118 5 0 0 0 - - -, f 5;
#X floatatom 440 117 5 0 0 0 - - -, f 5;
#X floatatom 620 116 5 0 0 0 - - -, f 5;
#X obj 279 58 clip 0 0.99;
#X obj 279 28 r \$0-room;
#X connect 0 0 20 0;
#X connect 1 0 0 1;
#X connect 2 0 1 0;
#X connect 2 0 17 0;
#X connect 3 0 23 0;
#X connect 4 0 3 1;
#X connect 5 0 4 0;
#X connect 5 0 17 0;
#X connect 6 0 8 1;
#X connect 7 0 6 0;
#X connect 7 0 17 0;
#X connect 8 0 26 0;
#X connect 9 0 11 1;
#X connect 10 0 9 0;
#X connect 10 0 17 0;
#X connect 11 0 29 0;
#X connect 12 0 2 1;
#X connect 13 0 5 1;
#X connect 14 0 7 1;
#X connect 15 0 10 1;
#X connect 16 0 0 0;
#X connect 16 0 3 0;
#X connect 16 0 8 0;
#X connect 16 0 11 0;
#X connect 18 0 19 0;
#X connect 18 0 30 0;
#X connect 19 0 2 0;
#X connect 21 0 22 0;
#X connect 21 0 31 0;
#X connect 22 0 5 0;
#X connect 24 0 25 0;
#X connect 24 0 32 0;
#X connect 25 0 7 0;
#X connect 27 0 28 0;
#X connect 27 0 33 0;
#X connect 28 0 10 0;
#X connect 34 0 1 1;
#X connect 34 0 4 1;
#X connect 34 0 6 1;
#X connect 34 0 9 1;
#X connect 35 0 34 0;
#X restore 36 134 pd combfilters-left2;
#N canvas 261 41 778 367 combfilters-right1 0;
#X obj 46 244 +~;
#X obj 61 219 *~ 0.3;
#X obj 61 194 lop~ 1000;
#X obj 231 244 +~;
#X obj 246 219 *~ 0.3;
#X obj 246 194 lop~ 1000;
#X obj 429 218 *~ 0.3;
#X obj 429 193 lop~ 1000;
#X obj 414 241 +~;
#X obj 610 218 *~ 0.3;
#X obj 610 193 lop~ 1000;
#X obj 595 241 +~;
#X obj 112 170 r \$0-frequency;
#X obj 297 170 r \$0-frequency;
#X obj 480 167 r \$0-frequency;
#X obj 661 167 r \$0-frequency;
#X obj 46 28 inlet~;
#X obj 338 326 outlet~;
#X floatatom 70 119 5 0 0 0 - - -, f 5;
#X floatatom 255 121 5 0 0 0 - - -, f 5;
#X floatatom 439 119 5 0 0 0 - - -, f 5;
#X floatatom 622 121 5 0 0 0 - - -, f 5;
#X obj 61 141 delread~ \$0-comb1right;
#X obj 246 142 delread~ \$0-comb2right;
#X obj 429 141 delread~ \$0-comb3right;
#X obj 610 141 delread~ \$0-comb4right;
#X obj 61 97 r \$0-comb1right;
#X obj 246 97 r \$0-comb2right;
#X obj 429 95 r \$0-comb3right;
#X obj 610 97 r \$0-comb4right;
#X obj 46 268 delwrite~ \$0-comb1right 100;
#X obj 231 268 delwrite~ \$0-comb2right 100;
#X obj 414 267 delwrite~ \$0-comb3right 100;
#X obj 595 267 delwrite~ \$0-comb4right 100;
#X obj 279 58 clip 0 0.99;
#X obj 279 28 r \$0-room;
#X connect 0 0 30 0;
#X connect 1 0 0 1;
#X connect 2 0 1 0;
#X connect 2 0 17 0;
#X connect 3 0 31 0;
#X connect 4 0 3 1;
#X connect 5 0 4 0;
#X connect 5 0 17 0;
#X connect 6 0 8 1;
#X connect 7 0 6 0;
#X connect 7 0 17 0;
#X connect 8 0 32 0;
#X connect 9 0 11 1;
#X connect 10 0 9 0;
#X connect 10 0 17 0;
#X connect 11 0 33 0;
#X connect 12 0 2 1;
#X connect 13 0 5 1;
#X connect 14 0 7 1;
#X connect 15 0 10 1;
#X connect 16 0 0 0;
#X connect 16 0 3 0;
#X connect 16 0 8 0;
#X connect 16 0 11 0;
#X connect 22 0 2 0;
#X connect 23 0 5 0;
#X connect 24 0 7 0;
#X connect 25 0 10 0;
#X connect 26 0 18 0;
#X connect 26 0 22 0;
#X connect 27 0 19 0;
#X connect 27 0 23 0;
#X connect 28 0 20 0;
#X connect 28 0 24 0;
#X connect 29 0 21 0;
#X connect 29 0 25 0;
#X connect 34 0 1 1;
#X connect 34 0 4 1;
#X connect 34 0 6 1;
#X connect 34 0 9 1;
#X connect 35 0 34 0;
#X restore 208 99 pd combfilters-right1;
#N canvas 312 366 778 367 combfilters-right2 0;
#X obj 46 244 +~;
#X obj 61 219 *~ 0.3;
#X obj 61 194 lop~ 1000;
#X obj 231 244 +~;
#X obj 246 219 *~ 0.3;
#X obj 246 194 lop~ 1000;
#X obj 429 218 *~ 0.3;
#X obj 429 193 lop~ 1000;
#X obj 414 241 +~;
#X obj 610 218 *~ 0.3;
#X obj 610 193 lop~ 1000;
#X obj 595 241 +~;
#X obj 112 170 r \$0-frequency;
#X obj 297 170 r \$0-frequency;
#X obj 480 167 r \$0-frequency;
#X obj 661 167 r \$0-frequency;
#X obj 46 28 inlet~;
#X obj 338 326 outlet~;
#X floatatom 70 116 5 0 0 0 - - -, f 5;
#X floatatom 261 118 5 0 0 0 - - -, f 5;
#X floatatom 440 117 5 0 0 0 - - -, f 5;
#X floatatom 620 116 5 0 0 0 - - -, f 5;
#X obj 279 58 clip 0 0.99;
#X obj 61 90 r \$0-comb5right;
#X obj 246 90 r \$0-comb6right;
#X obj 429 88 r \$0-comb7right;
#X obj 610 89 r \$0-comb8right;
#X obj 61 141 delread~ \$0-comb5right;
#X obj 246 142 delread~ \$0-comb6right;
#X obj 429 141 delread~ \$0-comb7right;
#X obj 610 141 delread~ \$0-comb8right;
#X obj 46 268 delwrite~ \$0-comb5right 100;
#X obj 231 268 delwrite~ \$0-comb6right 100;
#X obj 414 267 delwrite~ \$0-comb7right 100;
#X obj 595 267 delwrite~ \$0-comb8right 100;
#X obj 279 28 r \$0-room;
#X connect 0 0 31 0;
#X connect 1 0 0 1;
#X connect 2 0 1 0;
#X connect 2 0 17 0;
#X connect 3 0 32 0;
#X connect 4 0 3 1;
#X connect 5 0 4 0;
#X connect 5 0 17 0;
#X connect 6 0 8 1;
#X connect 7 0 6 0;
#X connect 7 0 17 0;
#X connect 8 0 33 0;
#X connect 9 0 11 1;
#X connect 10 0 9 0;
#X connect 10 0 17 0;
#X connect 11 0 34 0;
#X connect 12 0 2 1;
#X connect 13 0 5 1;
#X connect 14 0 7 1;
#X connect 15 0 10 1;
#X connect 16 0 0 0;
#X connect 16 0 3 0;
#X connect 16 0 8 0;
#X connect 16 0 11 0;
#X connect 22 0 1 1;
#X connect 22 0 4 1;
#X connect 22 0 6 1;
#X connect 22 0 9 1;
#X connect 23 0 18 0;
#X connect 23 0 27 0;
#X connect 24 0 19 0;
#X connect 24 0 28 0;
#X connect 25 0 20 0;
#X connect 25 0 29 0;
#X connect 26 0 21 0;
#X connect 26 0 30 0;
#X connect 27 0 2 0;
#X connect 28 0 5 0;
#X connect 29 0 7 0;
#X connect 30 0 10 0;
#X connect 35 0 22 0;
#X restore 225 133 pd combfilters-right2;
#N canvas 27 56 358 650 diffusor-right 0;
#X obj 51 107 *~ 0.5;
#X obj 36 132 +~;
#X obj 66 132 -~;
#X obj 36 26 inlet~;
#X obj 81 238 *~ 0.5;
#X obj 66 263 +~;
#X obj 96 263 -~;
#X obj 111 368 *~ 0.5;
#X obj 96 393 +~;
#X obj 126 393 -~;
#X obj 141 498 *~ 0.5;
#X obj 126 523 +~;
#X obj 156 523 -~;
#X obj 156 605 outlet~;
#X text 95 28 freeverb's diffusor;
#X obj 156 576 hip~ 5;
#X floatatom 214 70 5 0 0 0 - - -, f 5;
#X floatatom 244 203 5 0 0 0 - - -, f 5;
#X floatatom 280 334 5 0 0 0 - - -, f 5;
#X floatatom 304 464 5 0 0 0 - - -, f 5;
#X obj 51 53 r \$0-allpass1right;
#X obj 51 80 delread~ \$0-allpass1right;
#X obj 36 158 delwrite~ \$0-allpass1right 40;
#X obj 81 186 r \$0-allpass2right;
#X obj 81 211 delread~ \$0-allpass2right;
#X obj 66 290 delwrite~ \$0-allpass2right 40;
#X obj 111 317 r \$0-allpass3right;
#X obj 111 341 delread~ \$0-allpass3right;
#X obj 96 420 delwrite~ \$0-allpass3right 40;
#X obj 141 447 r \$0-allpass4right;
#X obj 141 471 delread~ \$0-allpass4right;
#X obj 126 550 delwrite~ \$0-allpass4right 40;
#X connect 0 0 1 1;
#X connect 1 0 22 0;
#X connect 2 0 5 0;
#X connect 2 0 6 1;
#X connect 3 0 1 0;
#X connect 3 0 2 1;
#X connect 4 0 5 1;
#X connect 5 0 25 0;
#X connect 6 0 8 0;
#X connect 6 0 9 1;
#X connect 7 0 8 1;
#X connect 8 0 28 0;
#X connect 9 0 11 0;
#X connect 9 0 12 1;
#X connect 10 0 11 1;
#X connect 11 0 31 0;
#X connect 12 0 15 0;
#X connect 15 0 13 0;
#X connect 20 0 16 0;
#X connect 20 0 21 0;
#X connect 21 0 0 0;
#X connect 21 0 2 0;
#X connect 23 0 17 0;
#X connect 23 0 24 0;
#X connect 24 0 4 0;
#X connect 24 0 6 0;
#X connect 26 0 18 0;
#X connect 26 0 27 0;
#X connect 27 0 7 0;
#X connect 27 0 9 0;
#X connect 29 0 19 0;
#X connect 29 0 30 0;
#X connect 30 0 10 0;
#X connect 30 0 12 0;
#X restore 208 169 pd diffusor-right;
#X obj 208 61 *~ 0.015;
#X obj 15 226 *~ 1;
#X obj 208 228 *~ 1;
#X obj 94 228 *~ 1;
#X obj 169 228 *~ 1;
#X obj 115 202 r \$0-dry;
#X obj 229 203 r \$0-wet;
#X obj 36 201 r \$0-wet;
#X obj 94 14 inlet~;
#X obj 208 14 inlet~;
#X obj 15 268 outlet~;
#X obj 169 269 outlet~;
#X obj 312 14 inlet;
#X obj 374 14 inlet;
#X obj 462 14 inlet;
#X obj 544 16 inlet;
#N canvas 0 22 207 207 room 0;
#X obj 32 35 inlet;
#X obj 32 63 * 0.28;
#X obj 32 94 + 0.7;
#X obj 32 160 outlet;
#X text 80 65 scaleroom;
#X text 76 94 offsetroom;
#X obj 47 126 s \$0-room;
#X connect 0 0 1 0;
#X connect 1 0 2 0;
#X connect 2 0 3 0;
#X connect 2 0 6 0;
#X restore 312 45 pd room;
#N canvas 684 169 244 376 frequency 0;
#X obj 60 222 samplerate~;
#X obj 33 8 inlet;
#X obj 33 194 t f b;
#X obj 33 249 *;
#X obj 53 303 s \$0-frequency;
#X obj 33 327 outlet;
#X obj 33 64 * 0.4;
#X text 76 66 scaledamp;
#X obj 33 90 t b f;
#X obj 33 141 -;
#X msg 33 116 1;
#X obj 33 168 abs;
#X obj 33 275 * 0.5;
#X text 153 303 for [lop~];
#X obj 33 38 clip 0 2.4;
#X connect 0 0 3 1;
#X connect 1 0 14 0;
#X connect 2 0 3 0;
#X connect 2 1 0 0;
#X connect 3 0 12 0;
#X connect 6 0 8 0;
#X connect 8 0 10 0;
#X connect 8 1 9 1;
#X connect 9 0 11 0;
#X connect 10 0 9 0;
#X connect 11 0 2 0;
#X connect 12 0 5 0;
#X connect 12 0 4 0;
#X connect 14 0 6 0;
#X restore 374 45 pd frequency;
#N canvas 0 22 170 187 scalewet 0;
#X obj 22 42 inlet;
#X obj 22 143 outlet;
#X obj 22 73 * 3;
#X text 49 74 scalewet;
#X obj 40 112 s \$0-wet;
#X connect 0 0 2 0;
#X connect 2 0 1 0;
#X connect 2 0 4 0;
#X restore 544 45 pd scalewet;
#N canvas 0 22 220 198 scaledry 0;
#X obj 32 74 * 2;
#X obj 32 40 inlet;
#X obj 32 141 outlet;
#X text 58 75 scaledry;
#X obj 41 105 s \$0-dry;
#X connect 0 0 2 0;
#X connect 0 0 4 0;
#X connect 1 0 0 0;
#X restore 462 45 pd scaledry;
#X floatatom 312 70 5 0 0 0 - - -, f 5;
#X floatatom 374 70 10 0 0 0 - - -, f 10;
#X floatatom 462 69 5 0 0 0 - - -, f 5;
#X floatatom 544 69 5 0 0 0 - - -, f 5;
#N canvas 405 27 635 684 tuning 0;
#X msg 332 81 1139 \, 1211 \, 1300 \, 1379 \, 1445 \, 1514 \, 1580
\, 1640;
#X text 72 57 combfilter tunings left;
#X text 377 56 combfilter tunings right;
#X text 71 360 allpass tunings left;
#X text 383 355 allpass tunings right;
#N canvas 243 170 195 233 sampstoms 0;
#X obj 27 21 inlet;
#X obj 54 86 samplerate~;
#X obj 27 111 /;
#X obj 27 57 t f b;
#X obj 27 136 * 1000;
#X obj 27 162 outlet;
#X connect 0 0 3 0;
#X connect 1 0 2 1;
#X connect 2 0 4 0;
#X connect 3 0 2 0;
#X connect 3 1 1 0;
#X connect 4 0 5 0;
#X restore 30 107 pd sampstoms;
#X msg 30 82 1116 \, 1188 \, 1277 \, 1356 \, 1422 \, 1491 \, 1557 \,
1617;
#X obj 57 188 +;
#X msg 57 159 1;
#X obj 30 135 t f b;
#X obj 87 188 f;
#X obj 30 56 t b b;
#X msg 87 159 0;
#X obj 57 212 pack f \$0;
#X msg 57 238 \$2-comb\$1left;
#X obj 30 282 s;
#X obj 57 265 symbol;
#N canvas 0 22 195 233 sampstoms 0;
#X obj 27 21 inlet;
#X obj 54 86 samplerate~;
#X obj 27 111 /;
#X obj 27 57 t f b;
#X obj 27 136 * 1000;
#X obj 27 162 outlet;
#X connect 0 0 3 0;
#X connect 1 0 2 1;
#X connect 2 0 4 0;
#X connect 3 0 2 0;
#X connect 3 1 1 0;
#X connect 4 0 5 0;
#X restore 332 107 pd sampstoms;
#X obj 359 188 +;
#X msg 359 159 1;
#X obj 332 135 t f b;
#X obj 389 188 f;
#X msg 389 159 0;
#X obj 359 212 pack f \$0;
#X obj 332 282 s;
#X obj 359 265 symbol;
#X obj 332 56 t b b;
#X msg 359 238 \$2-comb\$1right;
#X obj 30 360 t b b;
#N canvas 0 22 195 233 sampstoms 0;
#X obj 27 21 inlet;
#X obj 54 86 samplerate~;
#X obj 27 111 /;
#X obj 27 57 t f b;
#X obj 27 136 * 1000;
#X obj 27 162 outlet;
#X connect 0 0 3 0;
#X connect 1 0 2 1;
#X connect 2 0 4 0;
#X connect 3 0 2 0;
#X connect 3 1 1 0;
#X connect 4 0 5 0;
#X restore 30 411 pd sampstoms;
#X obj 57 492 +;
#X msg 57 463 1;
#X obj 30 439 t f b;
#X obj 87 492 f;
#X msg 87 463 0;
#X obj 57 516 pack f \$0;
#X obj 30 586 s;
#X obj 57 569 symbol;
#X obj 334 356 t b b;
#N canvas 0 22 195 233 sampstoms 0;
#X obj 27 21 inlet;
#X obj 54 86 samplerate~;
#X obj 27 111 /;
#X obj 27 57 t f b;
#X obj 27 136 * 1000;
#X obj 27 162 outlet;
#X connect 0 0 3 0;
#X connect 1 0 2 1;
#X connect 2 0 4 0;
#X connect 3 0 2 0;
#X connect 3 1 1 0;
#X connect 4 0 5 0;
#X restore 334 407 pd sampstoms;
#X obj 361 488 +;
#X msg 361 459 1;
#X obj 334 435 t f b;
#X obj 391 488 f;
#X msg 391 459 0;
#X obj 361 512 pack f \$0;
#X obj 334 582 s;
#X obj 361 565 symbol;
#X obj 30 22 loadbang;
#X obj 332 27 loadbang;
#X obj 30 334 loadbang;
#X obj 334 331 loadbang;
#X obj 268 41 bng 15 250 50 0 empty empty empty 17 7 0 10 -262144 -1
-1;
#X msg 30 386 225 \, 556 \, 441 \, 341;
#X msg 334 380 248 \, 579 \, 464 \, 364;
#X msg 57 542 \$2-allpass\$1left;
#X msg 361 539 \$2-allpass\$1right;
#X text 27 624 Original Freeverb delay line lengths are converted to
milliseconds \, based on samplerate.;
#X connect 0 0 17 0;
#X connect 5 0 9 0;
#X connect 6 0 5 0;
#X connect 7 0 10 0;
#X connect 7 0 13 0;
#X connect 8 0 7 0;
#X connect 9 0 15 0;
#X connect 9 1 8 0;
#X connect 10 0 7 1;
#X connect 11 0 6 0;
#X connect 11 1 12 0;
#X connect 12 0 10 0;
#X connect 13 0 14 0;
#X connect 14 0 16 0;
#X connect 16 0 15 1;
#X connect 17 0 20 0;
#X connect 18 0 21 0;
#X connect 18 0 23 0;
#X connect 19 0 18 0;
#X connect 20 0 24 0;
#X connect 20 1 19 0;
#X connect 21 0 18 1;
#X connect 22 0 21 0;
#X connect 23 0 27 0;
#X connect 25 0 24 1;
#X connect 26 0 0 0;
#X connect 26 1 22 0;
#X connect 27 0 25 0;
#X connect 28 0 53 0;
#X connect 28 1 34 0;
#X connect 29 0 32 0;
#X connect 30 0 33 0;
#X connect 30 0 35 0;
#X connect 31 0 30 0;
#X connect 32 0 36 0;
#X connect 32 1 31 0;
#X connect 33 0 30 1;
#X connect 34 0 33 0;
#X connect 35 0 55 0;
#X connect 37 0 36 1;
#X connect 38 0 54 0;
#X connect 38 1 44 0;
#X connect 39 0 42 0;
#X connect 40 0 43 0;
#X connect 40 0 45 0;
#X connect 41 0 40 0;
#X connect 42 0 46 0;
#X connect 42 1 41 0;
#X connect 43 0 40 1;
#X connect 44 0 43 0;
#X connect 45 0 56 0;
#X connect 47 0 46 1;
#X connect 48 0 11 0;
#X connect 49 0 26 0;
#X connect 50 0 28 0;
#X connect 51 0 38 0;
#X connect 52 0 11 0;
#X connect 52 0 28 0;
#X connect 52 0 26 0;
#X connect 52 0 38 0;
#X connect 53 0 29 0;
#X connect 54 0 39 0;
#X connect 55 0 37 0;
#X connect 56 0 47 0;
#X restore 410 141 pd tuning;
#X connect 0 0 1 0;
#X connect 1 0 7 0;
#X connect 2 0 1 0;
#X connect 3 0 5 0;
#X connect 4 0 5 0;
#X connect 5 0 8 0;
#X connect 6 0 3 0;
#X connect 6 0 0 0;
#X connect 6 0 4 0;
#X connect 6 0 2 0;
#X connect 7 0 16 0;
#X connect 8 0 17 0;
#X connect 9 0 16 0;
#X connect 10 0 17 0;
#X connect 11 0 10 1;
#X connect 11 0 9 1;
#X connect 12 0 8 1;
#X connect 13 0 7 1;
#X connect 14 0 6 0;
#X connect 14 0 9 0;
#X connect 15 0 6 0;
#X connect 15 0 10 0;
#X connect 18 0 22 0;
#X connect 19 0 23 0;
#X connect 20 0 25 0;
#X connect 21 0 24 0;
#X connect 22 0 26 0;
#X connect 23 0 27 0;
#X connect 24 0 29 0;
#X connect 25 0 28 0;
#X restore 79 311 pd vfreeverb~;
#X obj 311 267 / 508, f 8;
#X msg 235 74 0;
#X msg 295 87 0;
#X obj 343 222 / 127;
#X obj 503 219 spigot 0;
#X obj 503 341 send toGUI;
#X obj 503 191 random 127;
#X obj 525 269 line;
#X msg 525 243 \$1 10;
#X obj 311 183 route /drumVerbMix /randomVerb;
#X msg 503 307 list /drumVerbMix set \$1;
#X obj 538 81 r clear;
#X msg 538 110 list /randomVerb 0;
#X obj 503 165 r sixFour;
#X connect 1 0 10 0;
#X connect 1 0 10 1;
#X connect 2 0 9 0;
#X connect 3 0 4 0;
#X connect 4 0 20 0;
#X connect 5 0 13 0;
#X connect 5 0 12 0;
#X connect 6 0 10 2;
#X connect 7 0 10 3;
#X connect 8 0 10 5;
#X connect 9 0 10 4;
#X connect 10 0 0 0;
#X connect 10 1 0 0;
#X connect 11 0 2 0;
#X connect 11 0 8 0;
#X connect 12 0 6 0;
#X connect 12 0 8 0;
#X connect 13 0 7 0;
#X connect 14 0 6 0;
#X connect 15 0 21 0;
#X connect 15 0 19 0;
#X connect 17 0 15 0;
#X connect 18 0 14 0;
#X connect 18 0 11 0;
#X connect 19 0 18 0;
#X connect 20 0 11 0;
#X connect 20 0 14 0;
#X connect 20 1 15 1;
#X connect 21 0 16 0;
#X connect 22 0 23 0;
#X connect 23 0 16 0;
#X connect 24 0 17 0;
#X restore 223 365 pd reverb;
#N canvas 463 224 685 506 cutoff 0;
#X text 304 224 cutoff filter;
#X obj 311 277 inlet~;
#X obj 115 425 *~;
#X obj 166 423 *~;
#X obj 130 195 expr 1 - $f1;
#X text 44 165 wet/dry;
#X obj 246 10 receive fromGUI;
#X obj 246 33 route list;
#X obj 127 474 outlet~;
#X obj 391 282 sig~;
#X obj 119 81 loadbang;
#X obj 130 301 vline~;
#X msg 130 276 \$1 50;
#X obj 181 301 vline~;
#X msg 181 276 \$1 50;
#X msg 119 105 0;
#X obj 157 129 clip 0 1;
#X obj 391 199 * 127;
#X obj 391 178 expr 1 - $f1;
#X obj 391 155 / 127;
#X obj 130 160 \$1;
#X obj 497 77 spigot 0;
#X obj 246 58 route /drumCutoff /cutoffRandom;
#X obj 523 366 send toGUI;
#X msg 523 312 list /drumCutoff set \$1;
#X obj 482 39 random 127;
#X obj 438 122 line;
#X msg 438 96 \$1 10;
#X obj 391 255 + 200;
#X obj 451 282 sig~;
#X obj 391 224 * 25;
#X obj 546 153 r clear;
#X msg 546 182 list /cutoffRandom 0;
#X obj 372 313 vcf~ 5;
#X obj 432 313 vcf~ 5;
#X obj 482 13 r sixFour;
#X connect 1 0 2 0;
#X connect 1 0 33 0;
#X connect 1 0 34 0;
#X connect 2 0 8 0;
#X connect 3 0 8 0;
#X connect 4 0 12 0;
#X connect 6 0 7 0;
#X connect 7 0 22 0;
#X connect 9 0 33 1;
#X connect 10 0 15 0;
#X connect 11 0 2 1;
#X connect 12 0 11 0;
#X connect 13 0 3 1;
#X connect 14 0 13 0;
#X connect 15 0 20 0;
#X connect 16 0 20 0;
#X connect 17 0 30 0;
#X connect 18 0 17 0;
#X connect 19 0 18 0;
#X connect 20 0 4 0;
#X connect 20 0 14 0;
#X connect 21 0 24 0;
#X connect 21 0 27 0;
#X connect 22 0 16 0;
#X connect 22 0 19 0;
#X connect 22 1 21 1;
#X connect 24 0 23 0;
#X connect 25 0 21 0;
#X connect 26 0 19 0;
#X connect 26 0 16 0;
#X connect 27 0 26 0;
#X connect 28 0 9 0;
#X connect 28 0 29 0;
#X connect 29 0 34 1;
#X connect 30 0 28 0;
#X connect 31 0 32 0;
#X connect 32 0 23 0;
#X connect 33 0 3 0;
#X connect 33 1 3 0;
#X connect 34 0 3 0;
#X connect 34 1 3 0;
#X connect 35 0 25 0;
#X restore 223 389 pd cutoff;
#N canvas 107 80 1214 744 drumGrid 0;
#X obj 678 20 receive fromGUI;
#X obj 678 48 list trim;
#X obj 25 65 r trigMet;
#X msg 159 221 0;
#X obj 144 247 f;
#X obj 181 247 + 1;
#X obj 144 276 mod 16;
#X msg 60 476 list /drumGridPos \$1 0 1;
#X obj 162 610 send toGUI;
#X obj 246 390 delay;
#X obj 277 201 r ms;
#X msg 224 476 list /drumGridPos \$1 0 0;
#X obj 246 432 \$1;
#X obj 159 197 r stop;
#X obj 246 365 bng 15 250 50 0 empty empty empty 17 7 0 10 -262144
-1 -1;
#X obj 146 65 r threeTwo;
#X obj 678 98 s gridSpeed;
#X obj 70 94 r gridSpeed;
#X obj 70 119 == 0;
#X obj 191 91 r gridSpeed;
#X obj 191 116 == 1;
#X obj 146 139 spigot 0;
#X obj 25 143 spigot 1;
#X obj 312 247 / 32;
#X obj 277 247 / 16;
#X obj 301 348 \$1;
#X obj 273 348 \$1;
#X obj 424 196 r gridSpeed;
#X obj 235 507 r clear;
#X msg 225 541 list /drumGrid clear;
#X obj 757 98 s clearGrid;
#X obj 286 507 r clearGrid;
#X obj 144 392 s bangNumber;
#X obj 25 614 r bangNumber;
#X obj 25 638 sel 0 1 2 3 4 5 6 7 8 9 10 11 12 13 14 15, f 116;
#X obj 25 681 s b-0;
#X obj 64 681 s b-1;
#X obj 102 681 s b-2;
#X obj 142 681 s b-3;
#X obj 182 681 s b-4;
#X obj 222 681 s b-5;
#X obj 262 681 s b-6;
#X obj 302 681 s b-7;
#X obj 342 681 s b-8;
#X obj 382 681 s b-9;
#X obj 422 681 s b-10;
#X obj 467 681 s b-11;
#X obj 512 681 s b-12;
#X obj 557 681 s b-13;
#X obj 602 681 s b-14;
#X obj 648 681 s b-15;
#X obj 518 178 columns 0;
#X msg 369 562 list /drumGridPos clear;
#X obj 369 539 r stop;
#X obj 649 173 loadbang;
#X obj 813 603 send toGUI;
#X msg 649 291 list /markerGrid 0 0 1 \, list /markerGrid 4 0 1 \,
list /markerGrid 8 0 1 \, list /markerGrid 12 0 1, f 27;
#X obj 518 198 columns 1;
#X obj 518 218 columns 2;
#X obj 518 238 columns 3;
#X obj 518 258 columns 4;
#X obj 518 278 columns 5;
#X obj 518 298 columns 6;
#X obj 518 318 columns 7;
#X obj 518 338 columns 8;
#X obj 518 358 columns 9;
#X obj 518 378 columns 10;
#X obj 518 398 columns 11;
#X obj 518 418 columns 12;
#X obj 518 438 columns 13;
#X obj 518 458 columns 14;
#X obj 518 478 columns 15;
#X obj 296 66 r sixFour;
#X obj 342 91 r gridSpeed;
#X obj 297 139 spigot 0;
#X obj 342 116 == 2;
#X obj 462 91 r gridSpeed;
#X obj 417 139 spigot 0;
#X obj 424 256 sel 0 1 2 3;
#X obj 346 247 / 64;
#X obj 331 348 \$1;
#X obj 361 348 \$1;
#X obj 379 247 / 128;
#X obj 417 68 r oneTwoEight;
#X obj 462 116 == 3;
#X msg 831 271 list /kickGrid 0 0 1 \, list /kickGrid 0 1 1 \, list
/kickGrid 0 2 1 \, list /kickGrid 0 3 1 \, list /kickGrid 0 4 1 \,
list /kickGrid 0 5 1 \, list /snareGrid 0 6 1 \, list /snareGrid 0
7 1 \, list /snareGrid 0 8 1 \, list /snareGrid 0 9 1 \, list /snareGrid
0 10 1 \, list /snareGrid 0 11 1 \, list /hhGrid 0 12 1 \, list /hhGrid
0 13 1 \, list /hhGrid 0 14 1 \, list /hhGrid 0 15 1, f 24;
#X obj 1001 184 r start;
#X msg 1021 247 list /gridSpeed enable \$1;
#X msg 1001 209 0;
#X obj 1055 182 r stop;
#X msg 1055 206 1;
#X obj 424 232 \$1;
#X obj 399 205 bng 15 250 50 0 empty empty empty 17 7 0 10 -262144
-1 -1;
#X obj 976 516 r lp;
#X msg 925 542 1;
#X msg 976 543 0;
#X msg 919 570 list /bpmKnob enable \$1;
#X obj 925 516 r clear;
#X obj 678 71 route /gridSpeed /clearGrid /bpmKnob /load;
#X connect 0 0 1 0;
#X connect 1 0 98 0;
#X connect 2 0 22 0;
#X connect 3 0 4 1;
#X connect 4 0 5 0;
#X connect 4 0 6 0;
#X connect 5 0 4 1;
#X connect 6 0 14 0;
#X connect 6 0 12 1;
#X connect 6 0 7 0;
#X connect 6 0 32 0;
#X connect 7 0 8 0;
#X connect 9 0 12 0;
#X connect 10 0 23 0;
#X connect 10 0 24 0;
#X connect 10 0 79 0;
#X connect 10 0 82 0;
#X connect 10 0 92 0;
#X connect 11 0 8 0;
#X connect 12 0 11 0;
#X connect 13 0 3 0;
#X connect 14 0 9 0;
#X connect 15 0 21 0;
#X connect 17 0 18 0;
#X connect 18 0 22 1;
#X connect 19 0 20 0;
#X connect 20 0 21 1;
#X connect 21 0 4 0;
#X connect 22 0 4 0;
#X connect 23 0 25 1;
#X connect 24 0 26 1;
#X connect 25 0 9 1;
#X connect 26 0 9 1;
#X connect 27 0 91 0;
#X connect 28 0 29 0;
#X connect 29 0 8 0;
#X connect 31 0 29 0;
#X connect 33 0 34 0;
#X connect 34 0 35 0;
#X connect 34 1 36 0;
#X connect 34 2 37 0;
#X connect 34 3 38 0;
#X connect 34 4 39 0;
#X connect 34 5 40 0;
#X connect 34 6 41 0;
#X connect 34 7 42 0;
#X connect 34 8 43 0;
#X connect 34 9 44 0;
#X connect 34 10 45 0;
#X connect 34 11 46 0;
#X connect 34 12 47 0;
#X connect 34 13 48 0;
#X connect 34 14 49 0;
#X connect 34 15 50 0;
#X connect 52 0 8 0;
#X connect 53 0 52 0;
#X connect 54 0 56 0;
#X connect 54 0 85 0;
#X connect 56 0 55 0;
#X connect 72 0 74 0;
#X connect 73 0 75 0;
#X connect 74 0 4 0;
#X connect 75 0 74 1;
#X connect 76 0 84 0;
#X connect 77 0 4 0;
#X connect 78 0 26 0;
#X connect 78 1 25 0;
#X connect 78 2 80 0;
#X connect 78 3 81 0;
#X connect 79 0 80 1;
#X connect 80 0 9 1;
#X connect 81 0 9 1;
#X connect 82 0 81 1;
#X connect 83 0 77 0;
#X connect 84 0 77 1;
#X connect 85 0 55 0;
#X connect 86 0 88 0;
#X connect 87 0 55 0;
#X connect 88 0 87 0;
#X connect 89 0 90 0;
#X connect 90 0 87 0;
#X connect 91 0 78 0;
#X connect 92 0 91 0;
#X connect 93 0 95 0;
#X connect 94 0 96 0;
#X connect 95 0 96 0;
#X connect 96 0 55 0;
#X connect 97 0 94 0;
#X connect 98 0 16 0;
#X connect 98 1 30 0;
#X connect 98 2 52 0;
#X connect 98 3 95 0;
#X restore 60 248 pd drumGrid;
#N canvas 417 132 810 637 robotDelay 0;
#X obj 193 261 vline~;
#X obj 300 371 *~;
#X obj 68 284 inlet~;
#X obj 68 466 outlet~;
#X obj 315 227 receive fromGUI;
#X obj 315 258 route list;
#X obj 315 301 / 127;
#X obj 339 324 loadbang;
#X msg 339 346 0;
#X obj 547 320 spigot 0;
#X obj 547 442 send toGUI;
#X obj 547 292 random 127;
#X obj 569 370 line;
#X msg 569 344 \$1 10;
#X obj 315 278 route /glitchDelay /randomTape;
#X msg 547 408 list /glitchDelay set \$1;
#X obj 626 320 r clear;
#X msg 626 350 list /randomTape 0;
#X obj 547 266 r sixFour;
#X obj 68 420 *~ 0.5;
#X obj 119 419 *~ 0.5;
#X obj 193 285 vd~ robotDelay;
#X obj 300 414 delwrite~ robotDelay 2000;
#X msg 193 239 \$1 \$1;
#X obj 227 199 + 5;
#X obj 267 92 loadbang;
#X msg 78 137 200;
#X obj 169 97 bng 15 250 50 0 empty empty empty 17 7 0 10 -262144 -1
-1;
#X obj 227 178 random 300;
#X obj 227 150 metro 200;
#X connect 0 0 21 0;
#X connect 1 0 20 0;
#X connect 1 0 22 0;
#X connect 2 0 19 0;
#X connect 2 0 22 0;
#X connect 4 0 5 0;
#X connect 5 0 14 0;
#X connect 6 0 1 1;
#X connect 7 0 8 0;
#X connect 8 0 1 1;
#X connect 9 0 15 0;
#X connect 9 0 13 0;
#X connect 11 0 9 0;
#X connect 13 0 12 0;
#X connect 14 0 6 0;
#X connect 14 1 9 1;
#X connect 15 0 10 0;
#X connect 16 0 17 0;
#X connect 17 0 10 0;
#X connect 18 0 11 0;
#X connect 19 0 3 0;
#X connect 20 0 3 0;
#X connect 21 0 1 0;
#X connect 23 0 0 0;
#X connect 24 0 23 0;
#X connect 25 0 29 0;
#X connect 26 0 23 0;
#X connect 27 0 29 0;
#X connect 28 0 24 0;
#X connect 29 0 28 0;
#X restore 219 189 pd robotDelay;
#X connect 0 0 7 0;
#X connect 0 1 7 1;
#X connect 0 2 7 2;
#X connect 0 3 7 3;
#X connect 2 0 15 0;
#X connect 3 0 32 0;
#X connect 7 0 32 0;
#X connect 8 0 29 0;
#X connect 9 0 32 0;
#X connect 11 0 12 0;
#X connect 12 0 13 0;
#X connect 13 0 14 0;
#X connect 14 0 17 0;
#X connect 15 0 1 0;
#X connect 16 0 15 1;
#X connect 17 0 16 0;
#X connect 18 0 22 0;
#X connect 20 0 32 0;
#X connect 22 0 19 0;
#X connect 25 0 26 0;
#X connect 26 0 27 0;
#X connect 27 0 28 0;
#X connect 28 0 8 0;
#X connect 29 0 30 0;
#X connect 30 0 2 0;
#X connect 32 0 25 0;
