#N canvas 331 152 930 618 10;
#X obj 399 590 s~ loopSignal;
#N canvas 46 37 1280 819 controls 0;
#X obj 723 163 s clear;
#X obj 105 21 receive fromGUI;
#X obj 105 46 list trim;
#X obj 800 411 s lp, f 5;
#X obj 20 159 s lp1;
#X obj 60 159 s lp2;
#X obj 100 159 s lp3;
#X obj 140 159 s lp4;
#X obj 186 159 s lp5;
#X obj 230 159 s lp6;
#X obj 270 159 s lp7;
#X obj 310 159 s lp8;
#X text 331 253 clock seq on GUI;
#X obj 92 277 r ms;
#X msg 30 455 list /bpm \$1;
#X obj 30 384 /, f 4;
#X msg 30 344 60000;
#X obj 30 305 t b b;
#X obj 77 342 \$1;
#X obj 667 299 r lp1;
#X obj 707 299 r lp2;
#X obj 747 299 r lp3;
#X obj 787 299 r lp4;
#X obj 827 299 r lp5;
#X obj 867 299 r lp6;
#X obj 907 299 r lp7;
#X obj 947 299 r lp8;
#X obj 800 375 bng 15 250 50 0 empty empty empty 17 7 0 10 -262144
-1 -1;
#X obj 913 389 r clear;
#X obj 49 483 r clear;
#X msg 49 507 list /bpm 0;
#X obj 723 138 loadbang;
#X obj 1088 207 receive fromGUI;
#X obj 1088 231 list trim;
#X obj 1088 288 sel 0 1;
#X obj 1140 287 sel 0 1;
#X obj 1159 317 s stop;
#X obj 1107 317 s start;
#X obj 1197 288 r clear;
#X obj 30 540 send toGUI;
#X msg 913 413 0;
#X obj 338 350 mod 4;
#X obj 338 377 sel 0 1 2 3;
#X obj 373 325 + 1;
#X obj 385 272 r stop;
#X obj 328 644 send toGUI;
#X obj 328 487 1;
#X obj 355 487 2;
#X obj 383 487 3;
#X obj 410 487 4;
#N canvas 46 67 523 375 met 0;
#X obj 292 170 vline~;
#X msg 285 124 1 15;
#X msg 325 124 0 15;
#X obj 262 216 *~;
#X obj 326 104 delay 100;
#X obj 206 171 vcf~ 3;
#X obj 384 240 line~;
#X obj 384 218 pack 0 50;
#X obj 384 195 / 127;
#X obj 384 133 receive fromGUI;
#X obj 384 153 route list;
#X obj 384 173 route /metVol;
#X obj 262 312 *~;
#X obj 102 170 vline~;
#X msg 95 124 1 15;
#X msg 135 124 0 15;
#X obj 136 104 delay 100;
#X obj 16 165 vcf~ 3;
#X obj 83 211 *~;
#X obj 16 96 osc~ 700;
#X obj 206 102 osc~ 500;
#X msg 32 144 5000;
#X msg 222 150 5000;
#X obj 32 122 loadbang;
#X obj 222 124 loadbang;
#X obj 177 13 inlet;
#X obj 216 13 inlet;
#X obj 257 13 inlet;
#X obj 296 13 inlet, f 6;
#X obj 71 326 switch~;
#X obj 92 299 env~;
#X msg 58 299 1, f 10;
#X obj 262 343 s~ metroAudio;
#X connect 0 0 3 1;
#X connect 1 0 0 0;
#X connect 2 0 0 0;
#X connect 3 0 12 0;
#X connect 4 0 2 0;
#X connect 5 0 3 0;
#X connect 6 0 12 1;
#X connect 7 0 6 0;
#X connect 8 0 7 0;
#X connect 9 0 10 0;
#X connect 10 0 11 0;
#X connect 11 0 8 0;
#X connect 12 0 30 0;
#X connect 12 0 32 0;
#X connect 13 0 18 1;
#X connect 14 0 13 0;
#X connect 15 0 13 0;
#X connect 16 0 15 0;
#X connect 17 0 18 0;
#X connect 18 0 12 0;
#X connect 19 0 17 0;
#X connect 20 0 5 0;
#X connect 21 0 17 1;
#X connect 22 0 5 1;
#X connect 23 0 21 0;
#X connect 24 0 22 0;
#X connect 25 0 14 0;
#X connect 25 0 16 0;
#X connect 25 0 31 0;
#X connect 26 0 1 0;
#X connect 26 0 4 0;
#X connect 26 0 31 0;
#X connect 27 0 1 0;
#X connect 27 0 4 0;
#X connect 27 0 31 0;
#X connect 28 0 1 0;
#X connect 28 0 4 0;
#X connect 28 0 31 0;
#X connect 30 0 29 0;
#X connect 31 0 29 0;
#X restore 102 409 pd met;
#X obj 898 470 sel 0 1;
#X obj 898 439 f;
#X obj 935 439 + 1;
#X obj 338 325 f;
#X msg 385 296 0;
#X obj 898 503 s tapOne;
#X obj 953 503 s tapTwo;
#X text 13 275 Display BPM;
#X obj 338 278 r trig;
#X obj 188 339 mod 4;
#X obj 188 366 sel 0 1 2 3;
#X obj 223 314 + 1;
#X obj 235 261 r stop;
#X obj 188 314 f;
#X msg 235 285 0;
#X obj 169 261 r trigMet;
#X obj 30 432 * 16;
#X msg 328 550 list /measure \$1;
#X obj 158 446 1;
#X obj 185 446 2;
#X obj 213 446 3;
#X obj 240 446 4;
#X msg 239 550 list /pos .\$1;
#X msg 338 588 list /posGrid clear;
#X obj 492 486 0;
#X obj 519 486 1;
#X obj 547 486 2;
#X obj 574 486 3;
#X msg 468 600 list /posGrid \$1 0 1;
#X obj 449 459 delay 1;
#X obj 349 159 s lp9;
#X obj 386 159 s lp10;
#X obj 430 159 s lp11;
#X obj 474 159 s lp12;
#X obj 518 159 s lp13;
#X obj 562 159 s lp14;
#X obj 606 159 s lp15;
#X obj 650 159 s lp16;
#X obj 658 325 r lp9;
#X obj 695 325 r lp10;
#X obj 739 325 r lp11;
#X obj 783 325 r lp12;
#X obj 827 325 r lp13;
#X obj 871 325 r lp14;
#X obj 915 325 r lp15;
#X obj 959 325 r lp16;
#X obj 993 88 clears 1;
#X text 171 240 audible metronome;
#X obj 693 133 bng 15 250 50 0 empty empty empty 17 7 0 10 -262144
-1 -1;
#X obj 623 520 loadbang;
#X obj 623 693 send toGUI;
#N canvas 0 23 553 241 GUIpersistance 0;
#X obj 42 32 receive fromGUI;
#X obj 42 55 route list;
#X obj 42 180 send toGUI;
#X msg 206 126 list /mainVol set \$1;
#X msg 336 126 list /monitorVolume set \$1;
#X text 24 13 Persistance between pages;
#X obj 42 79 route /monitorTog /mainVol /monitorVolume;
#X msg 42 126 list /monitorTog set \$1;
#X connect 0 0 1 0;
#X connect 1 0 6 0;
#X connect 3 0 2 0;
#X connect 4 0 2 0;
#X connect 6 0 7 0;
#X connect 6 1 3 0;
#X connect 6 2 4 0;
#X connect 7 0 2 0;
#X restore 762 33 pd GUIpersistance;
#X text 758 14 Keep shit consistant between views;
#X obj 1088 253 route /start /stop;
#X msg 623 546 list /midiMenu LOOPS Record/Mute:CC#1-16 Clear:CC#33-48
Volume:CC#49-64 -- POST-LOOP-FX Cuttoff:CC#65 Delay_Time:CC#66 Delay_Feedback:CC#67
Reverb:CC#68 Effects_Toggle:CC#69 -- TRANSPORT Clear_All:CC#70 Start:CC#71
Stop:CC#72 Main_Volume:CC#73 Input_Volume:CC#74 Monitor_Toggle:CC#75
Tap_Tempo:CC#76 -- INPUT/DRUM/SYNTH-FX Free_Delay_Time:CC#77 Quantized_Delay_Time:CC#78
Delay_Feedback:CC#79 Reverb:CC#80 Cutoff:CC#81 Mod_Filter:CC#82 Bit_Crush:CC#83
Distortion:CC#84 Glitch_Delay:CC#85 Harmonizer:CC#86 -- DRUMS Notes:#48-63
-- SYNTH Channel:2 -- SYNC Channel:16 -- LED Output_Channel:10, f
72;
#X obj 105 69 route /lp1 /lp2 /lp3 /lp4 /lp5 /lp6 /lp7 /lp8 /lp9 /lp10
/lp11 /lp12 /lp13 /lp14 /lp15 /lp16 /clear /bpmKnob, f 112;
#X obj 789 193 s ms;
#X obj 871 113 r ms;
#X obj 871 249 send toGUI;
#X obj 789 148 expr 1 - $f1;
#X obj 871 157 expr 1 - $f1;
#X obj 789 123 - 0.2;
#X obj 871 180 + 0.2;
#X obj 789 169 * 18140;
#X obj 871 136 / 18140;
#X msg 871 223 list /bpmKnob set \$1;
#X obj 789 101 / 100;
#X obj 871 202 * 100;
#X obj 1307 370 sel 1;
#X obj 1307 422 send toSystem;
#X obj 1307 294 receive fromGUI;
#X obj 1307 318 list trim;
#X obj 1307 342 route /bpmPopUp;
#X obj 1252 477 r fromSystem;
#X obj 1252 499 list trim;
#X obj 1252 548 route /textDialogTag;
#X msg 1307 394 list /textDialog /textDialogTag BPM:;
#X obj 1252 525 route /textDialog;
#X msg 132 636 1;
#X msg 163 636 0;
#X obj 161 605 delay 200;
#X obj 161 578 bng 15 250 50 0 empty empty empty 17 7 0 10 -262144
-1 -1;
#X msg 139 670 list /flash \$1;
#X obj 139 774 send toSystem;
#X obj 1319 581 list prepend;
#X msg 693 221 list /sessionSlider 0;
#X obj 274 499 r stop;
#X msg 274 522 0;
#N canvas 0 372 1222 431 flashTitle 0;
#X obj 598 111 loadbang;
#X obj 415 381 send toGUI;
#X msg 165 54 0;
#X obj 150 80 f;
#X obj 187 80 + 1;
#X obj 153 133 + 1;
#X obj 165 30 r stop;
#X msg 72 213 list /flash-1 S;
#X msg 182 213 list /flash-1 SU;
#X msg 292 213 list /flash-1 SUP;
#X msg 413 213 list /flash-1 SUPE;
#X msg 532 213 list /flash-1 SUPER;
#X msg 662 213 list /flash-1 SUPERL;
#X msg 802 213 list /flash-1 SUPERLO;
#X msg 942 213 list /flash-1 SUPERLOO;
#X msg 381 297 list /flash-1 SUPERLOOP;
#X msg 531 297 list /flash-1 SUPERLOOPE;
#X msg 691 297 list /flash-1 SUPERLOOPER;
#X msg 1083 261 list /flash-1;
#X obj 96 31 r trigMet;
#X obj 1116 220 delay 200;
#X obj 35 159 select 1 2 3 4 5 6 7 8 9 10 11 12 13 14 15 16, f 189
;
#X obj 153 109 mod 16;
#X msg 758 327 list /flash-1 SUPERLOOPER!;
#X msg 788 357 list /flash-1 SUPERLOOPER!!;
#X msg 798 377 list /flash-1 SUPERLOOPER!!!;
#X msg 798 397 list /flash-1 SUPERLOOPER!!!!;
#X msg 938 327 list /flash-1 SUPERLOOPER!!!!;
#X connect 0 0 27 0;
#X connect 2 0 3 1;
#X connect 3 0 4 0;
#X connect 3 0 22 0;
#X connect 4 0 3 1;
#X connect 5 0 21 0;
#X connect 6 0 2 0;
#X connect 7 0 1 0;
#X connect 8 0 1 0;
#X connect 9 0 1 0;
#X connect 10 0 1 0;
#X connect 11 0 1 0;
#X connect 12 0 1 0;
#X connect 13 0 1 0;
#X connect 14 0 1 0;
#X connect 15 0 1 0;
#X connect 16 0 1 0;
#X connect 17 0 1 0;
#X connect 18 0 1 0;
#X connect 19 0 3 0;
#X connect 20 0 18 0;
#X connect 21 0 7 0;
#X connect 21 1 8 0;
#X connect 21 2 9 0;
#X connect 21 3 10 0;
#X connect 21 4 11 0;
#X connect 21 5 12 0;
#X connect 21 6 13 0;
#X connect 21 7 14 0;
#X connect 21 8 15 0;
#X connect 21 9 16 0;
#X connect 21 10 17 0;
#X connect 21 11 23 0;
#X connect 21 12 24 0;
#X connect 21 13 25 0;
#X connect 21 14 26 0;
#X connect 21 15 27 0;
#X connect 21 15 20 0;
#X connect 22 0 5 0;
#X connect 23 0 1 0;
#X connect 24 0 1 0;
#X connect 25 0 1 0;
#X connect 26 0 1 0;
#X connect 27 0 1 0;
#X restore 1325 116 pd flashTitle;
#X obj 184 691 receive fromGUI;
#X obj 184 711 list trim;
#X obj 184 730 route /flashTog;
#X obj 139 751 spigot 0;
#X obj 143 545 r trigMet;
#X obj 1051 88 clears 2;
#X obj 1110 88 clears 3;
#X obj 1167 88 clears 4;
#X obj 993 118 clears 5;
#X obj 1051 118 clears 6;
#X obj 1110 118 clears 7;
#X obj 1167 118 clears 8;
#X obj 994 143 clears 9;
#X obj 1052 143 clears 10;
#X obj 1118 143 clears 11;
#X obj 1179 143 clears 12;
#X obj 994 173 clears 13;
#X obj 1056 173 clears 14;
#X obj 1118 173 clears 15;
#X obj 1183 173 clears 16;
#X connect 1 0 2 0;
#X connect 2 0 106 0;
#X connect 13 0 18 1;
#X connect 13 0 17 0;
#X connect 14 0 39 0;
#X connect 15 0 67 0;
#X connect 16 0 15 0;
#X connect 17 0 16 0;
#X connect 17 1 18 0;
#X connect 18 0 15 1;
#X connect 19 0 27 0;
#X connect 20 0 27 0;
#X connect 21 0 27 0;
#X connect 22 0 27 0;
#X connect 23 0 27 0;
#X connect 24 0 27 0;
#X connect 25 0 27 0;
#X connect 26 0 27 0;
#X connect 27 0 3 0;
#X connect 27 0 52 0;
#X connect 28 0 40 0;
#X connect 29 0 30 0;
#X connect 30 0 39 0;
#X connect 31 0 0 0;
#X connect 32 0 33 0;
#X connect 33 0 104 0;
#X connect 34 0 37 0;
#X connect 35 0 36 0;
#X connect 38 0 36 0;
#X connect 40 0 52 1;
#X connect 41 0 42 0;
#X connect 42 0 46 0;
#X connect 42 0 74 0;
#X connect 42 0 80 0;
#X connect 42 1 76 0;
#X connect 42 1 47 0;
#X connect 42 2 77 0;
#X connect 42 2 48 0;
#X connect 42 3 78 0;
#X connect 42 3 49 0;
#X connect 43 0 54 1;
#X connect 44 0 55 0;
#X connect 46 0 68 0;
#X connect 47 0 68 0;
#X connect 48 0 68 0;
#X connect 49 0 68 0;
#X connect 51 0 56 0;
#X connect 51 1 57 0;
#X connect 52 0 53 0;
#X connect 52 0 51 0;
#X connect 53 0 52 1;
#X connect 54 0 43 0;
#X connect 54 0 41 0;
#X connect 55 0 54 1;
#X connect 59 0 54 0;
#X connect 60 0 61 0;
#X connect 61 0 69 0;
#X connect 61 0 50 0;
#X connect 61 1 70 0;
#X connect 61 1 50 1;
#X connect 61 2 71 0;
#X connect 61 2 50 2;
#X connect 61 3 72 0;
#X connect 61 3 50 3;
#X connect 62 0 64 1;
#X connect 63 0 65 0;
#X connect 64 0 62 0;
#X connect 64 0 60 0;
#X connect 65 0 64 1;
#X connect 66 0 64 0;
#X connect 67 0 14 0;
#X connect 68 0 45 0;
#X connect 69 0 73 0;
#X connect 70 0 73 0;
#X connect 71 0 73 0;
#X connect 72 0 73 0;
#X connect 73 0 45 0;
#X connect 74 0 45 0;
#X connect 75 0 79 0;
#X connect 76 0 79 0;
#X connect 77 0 79 0;
#X connect 78 0 79 0;
#X connect 79 0 45 0;
#X connect 80 0 75 0;
#X connect 89 0 27 0;
#X connect 90 0 27 0;
#X connect 91 0 27 0;
#X connect 92 0 27 0;
#X connect 93 0 27 0;
#X connect 94 0 27 0;
#X connect 95 0 27 0;
#X connect 96 0 27 0;
#X connect 99 0 0 0;
#X connect 99 0 136 0;
#X connect 100 0 105 0;
#X connect 104 0 34 0;
#X connect 104 1 35 0;
#X connect 105 0 101 0;
#X connect 106 0 4 0;
#X connect 106 1 5 0;
#X connect 106 2 6 0;
#X connect 106 3 7 0;
#X connect 106 4 8 0;
#X connect 106 5 9 0;
#X connect 106 6 10 0;
#X connect 106 7 11 0;
#X connect 106 8 81 0;
#X connect 106 9 82 0;
#X connect 106 10 83 0;
#X connect 106 11 84 0;
#X connect 106 12 85 0;
#X connect 106 13 86 0;
#X connect 106 14 87 0;
#X connect 106 15 88 0;
#X connect 106 16 99 0;
#X connect 106 17 117 0;
#X connect 108 0 115 0;
#X connect 110 0 114 0;
#X connect 111 0 113 0;
#X connect 112 0 110 0;
#X connect 113 0 118 0;
#X connect 114 0 107 0;
#X connect 115 0 111 0;
#X connect 116 0 109 0;
#X connect 117 0 112 0;
#X connect 118 0 116 0;
#X connect 119 0 127 0;
#X connect 121 0 122 0;
#X connect 122 0 123 0;
#X connect 123 0 119 0;
#X connect 124 0 125 0;
#X connect 125 0 128 0;
#X connect 126 0 135 0;
#X connect 127 0 120 0;
#X connect 128 0 126 0;
#X connect 129 0 133 0;
#X connect 130 0 133 0;
#X connect 131 0 130 0;
#X connect 132 0 131 0;
#X connect 133 0 143 0;
#X connect 136 0 109 0;
#X connect 137 0 138 0;
#X connect 138 0 73 0;
#X connect 138 0 68 0;
#X connect 138 0 74 0;
#X connect 140 0 141 0;
#X connect 141 0 142 0;
#X connect 142 0 143 1;
#X connect 143 0 134 0;
#X connect 144 0 129 0;
#X connect 144 0 132 0;
#X restore 30 45 pd controls;
#X obj 388 130 s~ mainInput;
#X obj 388 160 r~ mainInput;
#N canvas 110 39 1080 714 clock 1;
#X obj 507 370 s ms;
#X obj 452 365 s f;
#X obj 400 365 s trig;
#X obj 507 244 spigot;
#X msg 674 202 0;
#X obj 674 163 r clear;
#X obj 886 243 midiin;
#X obj 507 341 \$1;
#X msg 616 185 1;
#X obj 507 122 f;
#X obj 538 122 + 1;
#X msg 522 93 0;
#X obj 507 145 mod 2;
#X obj 507 48 r tapOne;
#X obj 616 163 r tapOne;
#X obj 724 163 r tapTwo;
#X obj 451 48 r tapTwo;
#X obj 507 200 timer;
#X obj 571 138 r clear;
#X obj 522 71 r clear;
#X obj 507 172 sel 0 1, f 8;
#X obj 924 431 + 1;
#X obj 886 431 f;
#X obj 886 358 select 248;
#X obj 913 382 r clear;
#X obj 818 358 select 252;
#X obj 507 307 spigot 1;
#X msg 552 279 0;
#X obj 636 258 r clear;
#X msg 636 281 1;
#X obj 826 528 s trig;
#X obj 947 540 timer;
#X obj 947 594 s ms;
#X obj 886 552 s f;
#X obj 552 258 r clockBlock;
#X obj 922 454 s clockBlock;
#X msg 913 407 0;
#X msg 177 517 127;
#X obj 177 591 ctlout 2 16;
#X msg 273 507 127;
#X obj 273 591 ctlout 1 16;
#X text 437 28 Tap tempo or manual loop;
#X msg 919 298 1;
#X obj 886 329 spigot;
#X msg 989 298 0;
#X obj 919 267 select 250 251 252;
#X obj 90 116 r stop;
#X msg 90 141 stop;
#X obj 37 130 r start;
#X obj 334 365 s trigMet;
#X text 55 611 double time for metro, f 12;
#N canvas 476 151 673 523 saveTime 0;
#X obj 139 336 textfile;
#X obj 90 142 r ms;
#X obj 75 169 \$1;
#X msg 75 194 set \$1;
#X obj 75 8 receive fromGUI;
#X obj 75 31 list trim;
#X obj 75 54 route /export /load;
#X obj 139 374 outlet;
#X obj 184 375 s clockBlock;
#X obj 107 374 s ms;
#X obj 156 150 r bank;
#X obj 123 174 symbol;
#X obj 185 223 r bank;
#X obj 152 250 symbol;
#X obj 152 81 sel 1 0;
#X msg 123 195 write ../exports/\$1/time.txt;
#X msg 152 273 read ../exports/\$1/time.txt;
#X obj 75 109 sel 1 0;
#X msg 411 227 rewind \, bang;
#X connect 0 0 7 0;
#X connect 0 0 8 0;
#X connect 0 0 9 0;
#X connect 1 0 2 1;
#X connect 2 0 3 0;
#X connect 3 0 0 0;
#X connect 4 0 5 0;
#X connect 5 0 6 0;
#X connect 6 0 17 0;
#X connect 6 1 14 0;
#X connect 10 0 11 1;
#X connect 11 0 15 0;
#X connect 12 0 13 1;
#X connect 13 0 16 0;
#X connect 14 0 13 0;
#X connect 14 1 18 0;
#X connect 15 0 0 0;
#X connect 16 0 0 0;
#X connect 17 0 2 0;
#X connect 17 1 11 0;
#X connect 18 0 0 0;
#X restore 148 111 pd saveTime;
#X obj 233 145 s clockBlock;
#N canvas 42 85 1280 599 TableResizing 0;
#X obj 112 225 *;
#X obj 139 198 samplerate~;
#X obj 112 175 t f b;
#X obj 112 151 / 1000;
#X obj 112 1 r ms;
#X obj 17 256 s loopResize;
#X obj 113 258 t b b b b b b b b b b b b b b b b, f 165;
#X obj 23 325 s tableCrop-1;
#X obj 119 325 s tableCrop-2;
#X obj 209 325 s tableCrop-3;
#X obj 300 324 s tableCrop-4;
#X obj 60 538 s tableCrop-5;
#X obj 150 538 s tableCrop-6;
#X obj 240 538 s tableCrop-7;
#X obj 330 538 s tableCrop-8;
#X obj 420 538 s tableCrop-9;
#X obj 510 538 s tableCrop-10;
#X obj 610 538 s tableCrop-11;
#X obj 710 538 s tableCrop-12;
#X obj 805 537 s tableCrop-13;
#X obj 915 537 s tableCrop-14;
#X obj 1015 537 s tableCrop-15;
#X obj 1125 537 s tableCrop-16;
#X text 362 195 Stagger table resizes so we don't get glitches;
#X obj 112 117 spigot;
#X msg 145 92 1;
#X msg 186 92 0;
#X obj 186 55 r clear;
#X obj 130 55 delay 50;
#X obj 130 29 bng 15 250 50 0 empty empty empty 17 7 0 10 -262144 -1
-1;
#X obj 23 301 delay 20;
#X obj 119 301 delay 40;
#X obj 209 301 delay 60;
#X obj 300 300 delay 80;
#X obj 60 514 delay 100;
#X obj 150 514 delay 120;
#X obj 240 514 delay 140;
#X obj 330 514 delay 160;
#X obj 420 514 delay 180;
#X obj 510 514 delay 200;
#X obj 610 514 delay 220;
#X obj 710 514 delay 240;
#X obj 805 513 delay 260;
#X obj 915 513 delay 280;
#X obj 1015 513 delay 300;
#X obj 1125 513 delay 320;
#X obj 45 193 r clear;
#X connect 0 0 6 0;
#X connect 0 0 5 0;
#X connect 1 0 0 1;
#X connect 2 0 0 0;
#X connect 2 1 1 0;
#X connect 3 0 2 0;
#X connect 6 0 30 0;
#X connect 6 1 31 0;
#X connect 6 2 32 0;
#X connect 6 3 33 0;
#X connect 6 4 34 0;
#X connect 6 5 35 0;
#X connect 6 6 36 0;
#X connect 6 7 37 0;
#X connect 6 8 38 0;
#X connect 6 9 39 0;
#X connect 6 10 40 0;
#X connect 6 11 41 0;
#X connect 6 12 42 0;
#X connect 6 13 43 0;
#X connect 6 14 44 0;
#X connect 6 15 45 0;
#X connect 24 0 3 0;
#X connect 25 0 24 1;
#X connect 26 0 24 1;
#X connect 27 0 25 0;
#X connect 28 0 26 0;
#X connect 29 0 28 0;
#X connect 30 0 7 0;
#X connect 31 0 8 0;
#X connect 32 0 9 0;
#X connect 33 0 10 0;
#X connect 34 0 11 0;
#X connect 35 0 12 0;
#X connect 36 0 13 0;
#X connect 37 0 14 0;
#X connect 38 0 15 0;
#X connect 39 0 16 0;
#X connect 40 0 17 0;
#X connect 41 0 18 0;
#X connect 42 0 19 0;
#X connect 43 0 20 0;
#X connect 44 0 21 0;
#X connect 45 0 22 0;
#X connect 46 0 6 0;
#X restore 854 40 pd TableResizing;
#X obj 760 529 s trigMet;
#X obj 886 502 sel 0;
#X obj 886 477 mod 384;
#X obj 760 476 mod 24;
#X obj 826 477 mod 96;
#X msg 58 516 127;
#X obj 947 568 * 4;
#X obj 760 501 sel 0;
#X obj 826 502 sel 0 95;
#X obj 58 591 ctlout 5 16;
#X msg 383 508 1;
#X msg 442 515 0;
#X obj 442 492 r syncBlock;
#X text 177 616 Send ctl values for slave Midi Clock hack unless blocked
by incoming ctrls, f 28;
#X obj 383 484 r clear;
#X text 831 58 ///THIS IS DISABLED/// take ms and resize all tables
\, one at at time. So tables will zoom on wav in gui., f 24;
#N canvas 625 161 823 655 midiClockReceive 1;
#X obj 28 37 ctlin 1 16;
#X obj 133 63 s clockBlock;
#X obj 28 82 s f;
#X obj 108 103 s trig;
#X obj 28 60 bng 15 250 50 0 empty empty empty 17 7 0 10 -262144 -1
-1;
#X obj 108 60 bng 15 250 50 0 empty empty empty 17 7 0 10 -262144 -1
-1;
#X obj 108 37 ctlin 2 16;
#X obj 238 60 bng 15 250 50 0 empty empty empty 17 7 0 10 -262144 -1
-1;
#X obj 238 83 s trigMet;
#X obj 238 37 ctlin 5 16;
#X obj 80 573 s syncBlock;
#X msg 369 124 list /slave highlight \$1;
#X msg 369 97 1;
#X obj 369 167 send toGUI;
#X obj 576 25 r clear;
#X msg 403 96 0;
#X obj 369 28 r syncBlock;
#X obj 270 233 r ms;
#X obj 270 312 / 150;
#X obj 270 408 ctlout 20 16;
#X obj 35 276 ctlin 20 16;
#X msg 191 351 1;
#X obj 35 396 spigot 1;
#X msg 160 323 0;
#X obj 35 573 s ms;
#X obj 191 323 r clear;
#X obj 270 339 t f f;
#X obj 270 377 int;
#X obj 356 380 wrap;
#X obj 356 438 ctlout 21 16;
#X obj 115 396 spigot 1;
#X obj 115 276 ctlin 21 16;
#X obj 356 406 * 100;
#X obj 115 436 / 100;
#X obj 35 475 +;
#X obj 35 500 * 150;
#X text 24 15 Receive ticks for Midi Clock Hack;
#X msg 535 124 list /start enable \$1 \, list /stop enable \$1;
#X text 368 8 GUI slave and start stop disable;
#X msg 576 70 1;
#X msg 535 70 0;
#X obj 576 98 s blockMidiTransportCtrl;
#X obj 80 539 bng 15 250 50 0 empty empty empty 17 7 0 10 -262144 -1
-1;
#X obj 299 278 \$1;
#X obj 326 236 r trig;
#X text 320 320 Send ms. Split decimals to recombine on second device
, f 28;
#X text 53 241 Receive ms and reconstruct decimal, f 19;
#X connect 0 0 4 0;
#X connect 4 0 2 0;
#X connect 5 0 3 0;
#X connect 6 0 5 0;
#X connect 6 0 1 0;
#X connect 7 0 8 0;
#X connect 9 0 7 0;
#X connect 11 0 13 0;
#X connect 12 0 11 0;
#X connect 14 0 15 0;
#X connect 14 0 39 0;
#X connect 15 0 11 0;
#X connect 16 0 12 0;
#X connect 16 0 40 0;
#X connect 17 0 18 0;
#X connect 17 0 23 0;
#X connect 17 0 43 1;
#X connect 18 0 26 0;
#X connect 20 0 22 0;
#X connect 21 0 30 1;
#X connect 21 0 22 1;
#X connect 22 0 34 0;
#X connect 23 0 30 1;
#X connect 23 0 22 1;
#X connect 25 0 21 0;
#X connect 26 0 27 0;
#X connect 26 1 28 0;
#X connect 27 0 19 0;
#X connect 28 0 32 0;
#X connect 30 0 33 0;
#X connect 31 0 30 0;
#X connect 32 0 29 0;
#X connect 33 0 34 1;
#X connect 34 0 35 0;
#X connect 35 0 24 0;
#X connect 35 0 42 0;
#X connect 37 0 13 0;
#X connect 39 0 37 0;
#X connect 39 0 41 0;
#X connect 40 0 37 0;
#X connect 40 0 41 0;
#X connect 42 0 10 0;
#X connect 43 0 18 0;
#X connect 44 0 43 0;
#X restore 498 426 pd midiClockReceive;
#X text 496 405 Midi Clock Hack;
#X text 850 224 Real Midi Clock Input;
#X obj 233 112 r ms;
#X obj 121 182 metro;
#X obj 148 148 / 256;
#X obj 121 250 f;
#X obj 150 250 + 1;
#X obj 452 316 mod 256;
#X obj 452 339 sel 0;
#X obj 400 341 sel 0;
#X obj 400 316 mod 64;
#X obj 334 318 mod 16;
#X obj 334 340 sel 0;
#X obj 199 314 mod 4;
#X obj 199 337 sel 0;
#X obj 273 555 spigot 1;
#X obj 177 555 spigot 1;
#X obj 58 555 spigot 1;
#X msg 136 226 0;
#X obj 273 483 r f;
#X obj 177 486 r trig;
#X obj 58 491 r trigMet;
#X obj 136 204 r stop;
#X obj 199 365 s sixFour;
#X obj 113 311 mod 2;
#X obj 113 335 sel 0;
#X obj 113 365 s oneTwoEight;
#X obj 31 365 s twoFiveSix;
#X obj 550 368 s start;
#X obj 31 332 bng 15 250 50 0 empty empty empty 17 7 0 10 -262144 -1
-1;
#X obj 267 318 mod 8;
#X obj 267 340 sel 0;
#X obj 267 365 s threeTwo;
#X connect 3 0 26 0;
#X connect 4 0 3 1;
#X connect 5 0 4 0;
#X connect 6 0 25 0;
#X connect 6 0 43 0;
#X connect 6 0 45 0;
#X connect 7 0 0 0;
#X connect 7 0 99 0;
#X connect 8 0 3 1;
#X connect 9 0 10 0;
#X connect 9 0 12 0;
#X connect 10 0 9 1;
#X connect 11 0 9 1;
#X connect 12 0 20 0;
#X connect 13 0 9 0;
#X connect 14 0 8 0;
#X connect 15 0 4 0;
#X connect 16 0 9 0;
#X connect 17 0 3 0;
#X connect 18 0 17 1;
#X connect 19 0 11 0;
#X connect 20 0 17 0;
#X connect 20 1 17 1;
#X connect 21 0 22 1;
#X connect 22 0 21 0;
#X connect 22 0 35 0;
#X connect 22 0 56 0;
#X connect 22 0 57 0;
#X connect 22 0 58 0;
#X connect 23 0 22 0;
#X connect 24 0 36 0;
#X connect 25 0 36 0;
#X connect 26 0 7 0;
#X connect 27 0 26 1;
#X connect 28 0 29 0;
#X connect 29 0 26 1;
#X connect 31 0 60 0;
#X connect 34 0 27 0;
#X connect 36 0 22 1;
#X connect 37 0 87 0;
#X connect 39 0 86 0;
#X connect 42 0 43 1;
#X connect 43 0 23 0;
#X connect 44 0 43 1;
#X connect 45 0 42 0;
#X connect 45 1 42 0;
#X connect 45 2 44 0;
#X connect 46 0 47 0;
#X connect 47 0 74 0;
#X connect 48 0 74 0;
#X connect 51 0 75 0;
#X connect 55 0 33 0;
#X connect 56 0 55 0;
#X connect 57 0 61 0;
#X connect 58 0 62 0;
#X connect 59 0 88 0;
#X connect 60 0 32 0;
#X connect 61 0 54 0;
#X connect 62 0 30 0;
#X connect 62 0 31 0;
#X connect 62 1 31 1;
#X connect 64 0 86 1;
#X connect 64 0 87 1;
#X connect 64 0 88 1;
#X connect 65 0 86 1;
#X connect 65 0 87 1;
#X connect 65 0 88 1;
#X connect 66 0 65 0;
#X connect 68 0 64 0;
#X connect 73 0 52 0;
#X connect 73 0 75 0;
#X connect 74 0 76 0;
#X connect 75 0 74 1;
#X connect 76 0 77 0;
#X connect 76 0 78 0;
#X connect 76 0 81 0;
#X connect 76 0 82 0;
#X connect 76 0 84 0;
#X connect 76 0 95 0;
#X connect 76 0 100 0;
#X connect 76 0 101 0;
#X connect 77 0 76 1;
#X connect 78 0 79 0;
#X connect 79 0 1 0;
#X connect 80 0 2 0;
#X connect 81 0 80 0;
#X connect 82 0 83 0;
#X connect 83 0 49 0;
#X connect 84 0 85 0;
#X connect 85 0 94 0;
#X connect 86 0 40 0;
#X connect 87 0 38 0;
#X connect 88 0 63 0;
#X connect 89 0 76 1;
#X connect 90 0 39 0;
#X connect 91 0 37 0;
#X connect 92 0 59 0;
#X connect 93 0 89 0;
#X connect 95 0 96 0;
#X connect 96 0 97 0;
#X connect 100 0 98 0;
#X connect 101 0 102 0;
#X connect 102 0 103 0;
#X restore 30 15 pd clock;
#N canvas 58 23 1314 842 midi 0;
#X obj 182 293 send toGUI;
#X obj 370 360 send toGUI;
#X obj 536 283 send toGUI;
#X msg 182 271 list /cutofff \$1;
#X obj 671 305 send toGUI;
#X text 671 213 FX Togg;
#X msg 671 281 list /tfx \$1;
#X obj 671 258 / 127, f 8;
#X text 51 261 Post Loop Effects;
#X obj 684 495 send toGUI;
#X obj 248 765 send toGUI;
#X obj 523 690 send toGUI;
#X obj 675 690 send toGUI;
#X obj 812 690 send toGUI;
#X text 812 624 cutoff mix;
#X text 675 624 verb mix;
#X text 523 624 delay fback;
#X obj 78 871 send toGUI;
#X obj 243 872 send toGUI;
#X obj 358 872 send toGUI;
#X obj 481 871 send toGUI;
#X text 240 806 crush bits;
#X text 357 804 distortion mix;
#X msg 684 471 list /drumVol \$1;
#X msg 248 741 list /drumDelayTime \$1;
#X msg 523 666 list /drumDelayBack \$1;
#X msg 675 666 list /drumVerbMix \$1;
#X msg 812 666 list /drumCutoff \$1;
#X msg 243 847 list /drumBits \$1;
#X msg 358 848 list /drumDist \$1;
#X text 11 96 Loop Volume \, Mutes & Clears, f 15;
#X obj 248 697 / 21;
#X obj 568 496 send toGUI;
#X text 570 400 Main Volume;
#X msg 568 472 list /mainVol \$1;
#X text 185 213 Cutoff;
#X obj 799 507 send toGUI;
#X obj 799 460 / 127, f 8;
#X text 359 412 Stop;
#X text 288 411 Start;
#X obj 288 456 sel 0;
#X obj 360 456 sel 0;
#X obj 288 533 s start;
#X obj 360 532 s stop;
#X msg 536 261 list /mainVerb \$1;
#X obj 671 234 ctlin 69 1;
#X obj 182 234 ctlin 65 1;
#X obj 306 234 ctlin 66 1;
#X obj 416 235 ctlin 67 1;
#X obj 536 235 ctlin 68 1;
#X obj 799 437 ctlin 75 1;
#X obj 288 433 ctlin 71 1;
#X obj 360 433 ctlin 72 1;
#X obj 568 419 ctlin 73 1;
#X obj 684 448 ctlin 74 1;
#X text 108 49 lp# \, rec \, mute \, clear \, vol;
#X obj 111 68 MIDIAssign 1 1 17 33 49;
#X obj 393 765 send toGUI;
#X msg 393 741 list /freeDelayTime \$1;
#X text 245 604 Qdelay time;
#X obj 248 623 ctlin 78 1;
#X obj 523 643 ctlin 79 1;
#X obj 675 643 ctlin 80 1;
#X obj 812 643 ctlin 81 1;
#X obj 78 824 ctlin 82 1;
#X obj 243 825 ctlin 83 1;
#X obj 358 825 ctlin 84 1;
#X obj 481 824 ctlin 85 1;
#X text 24 450 Transport;
#X obj 110 128 MIDIAssign 9 9 25 41 57;
#X obj 261 68 MIDIAssign 2 2 18 34 50;
#X obj 411 68 MIDIAssign 3 3 19 35 51;
#X obj 561 68 MIDIAssign 4 4 20 36 52;
#X obj 111 98 MIDIAssign 5 5 21 37 53;
#X obj 261 98 MIDIAssign 6 6 22 38 54;
#X obj 411 98 MIDIAssign 7 7 23 39 55;
#X obj 561 98 MIDIAssign 8 8 24 40 56;
#X obj 260 128 MIDIAssign 10 10 26 42 58;
#X obj 420 128 MIDIAssign 11 11 27 43 59;
#X obj 580 128 MIDIAssign 12 12 28 44 60;
#X obj 110 158 MIDIAssign 13 13 29 45 61;
#X obj 270 158 MIDIAssign 14 14 30 46 62;
#X obj 430 158 MIDIAssign 15 15 31 47 63;
#X obj 600 158 MIDIAssign 16 16 32 48 64;
#X obj 248 719 clip 0 5;
#X obj 621 871 send toGUI;
#X obj 621 824 ctlin 86 1;
#X text 536 211 Verb;
#X obj 306 259 / 127;
#X obj 416 260 / 127;
#X obj 370 311 pack f f;
#X obj 370 287 bng 15 250 50 0 empty empty empty 17 7 0 10 -262144
-1 -1;
#X msg 370 335 list /glitchTime \$1 \$2;
#X text 77 803 RingMod;
#X msg 78 847 list /ringMod \$1;
#X msg 481 847 list /glitchDelay \$1;
#X text 483 802 gDelay;
#X text 623 802 re-trigger;
#X msg 621 847 list /glitchTimePre \$1;
#X msg 1078 295 127;
#X obj 1078 319 ctlout 3 16;
#X obj 987 50 ctlin 3 16;
#X obj 1010 79 bng 15 250 50 0 empty empty empty 17 7 0 10 -262144
-1 -1;
#X obj 1132 50 r clear;
#X obj 1010 98 spigot 0;
#X msg 1055 75 1;
#X obj 1078 273 r stop;
#X msg 1090 76 0;
#X obj 1010 121 s stop;
#X obj 1055 50 r syncBlock;
#X msg 998 295 127;
#X obj 998 273 r clear;
#X obj 998 319 ctlout 4 16;
#X obj 1019 186 bng 15 250 50 0 empty empty empty 17 7 0 10 -262144
-1 -1;
#X obj 1141 160 r clear;
#X obj 1019 208 spigot 0;
#X msg 1064 185 1;
#X msg 1099 186 0;
#X obj 1064 160 r syncBlock;
#X obj 996 160 ctlin 4 16;
#X obj 1019 231 s clear;
#X text 894 68 MidiClock Hack, f 12;
#X obj 405 472 r blockMidiTransportCtrl;
#X obj 288 505 spigot 1;
#X obj 360 505 spigot 1;
#X text 31 952 Synth;
#X obj 78 991 send toGUI;
#X text 77 923 Volume;
#X msg 78 967 list /synthVolume \$1;
#X obj 218 991 send toGUI;
#X text 217 923 Attack;
#X msg 218 967 list /attack \$1;
#X obj 328 991 send toGUI;
#X text 327 923 Release;
#X msg 328 967 list /release \$1;
#X obj 448 991 send toGUI;
#X text 447 923 Shape;
#X msg 448 967 list /synthShape \$1;
#X obj 588 991 send toGUI;
#X text 587 923 Vibrato Amt;
#X msg 588 967 list /fmIndex \$1;
#X obj 708 991 send toGUI;
#X text 707 923 Vibrato rate;
#X msg 708 967 list /fmRate \$1;
#X obj 818 991 send toGUI;
#X text 817 923 glide;
#X msg 818 967 list /synthGlideTime \$1;
#X text 304 214 re-trig time;
#X text 412 210 re-trig amt;
#X text 686 429 Drum Volume;
#X text 1 699 FX & Input;
#X text 800 415 Input Toggle;
#X obj 1001 499 send toGUI;
#X obj 1001 452 / 127, f 8;
#X text 1089 409 Input Volume;
#X obj 1001 429 ctlin 94 1;
#X obj 329 579 r ms;
#X obj 248 672 spigot 0;
#X obj 329 637 expr 1 - $f1;
#X obj 393 709 spigot 1;
#X obj 329 607 > 0;
#X obj 375 581 r clear;
#X msg 370 610 1;
#X msg 399 611 0;
#X msg 799 483 list /monitorTog \$1;
#X obj 151 482 send toGUI;
#X text 152 410 Clear All;
#X msg 151 458 list /clear 1;
#X obj 151 432 ctlin 70 1;
#X obj 78 681 send toGUI;
#X obj 78 634 ctlin 77 1;
#X msg 78 657 list /postFXVol \$1;
#X text 77 613 post fx vol;
#X obj 568 445 / 127;
#X obj 78 944 ctlin 87 2;
#X obj 218 944 ctlin 88 2;
#X obj 328 945 ctlin 89 2;
#X obj 448 945 ctlin 90 2;
#X obj 588 945 ctlin 91 2;
#X obj 708 945 ctlin 92 2;
#X obj 818 945 ctlin 93 2;
#X msg 1001 475 list /monitorVolL \$1;
#X obj 1134 499 send toGUI;
#X obj 1134 452 / 127, f 8;
#X msg 1134 475 list /monitorVolR \$1;
#X obj 1134 429 ctlin 95 1;
#X connect 3 0 0 0;
#X connect 6 0 4 0;
#X connect 7 0 6 0;
#X connect 23 0 9 0;
#X connect 24 0 10 0;
#X connect 25 0 11 0;
#X connect 26 0 12 0;
#X connect 27 0 13 0;
#X connect 28 0 18 0;
#X connect 29 0 19 0;
#X connect 31 0 84 0;
#X connect 34 0 32 0;
#X connect 37 0 164 0;
#X connect 40 0 123 0;
#X connect 41 0 124 0;
#X connect 44 0 2 0;
#X connect 45 0 7 0;
#X connect 46 0 3 0;
#X connect 47 0 88 0;
#X connect 47 0 91 0;
#X connect 48 0 89 0;
#X connect 48 0 91 0;
#X connect 49 0 44 0;
#X connect 50 0 37 0;
#X connect 51 0 40 0;
#X connect 52 0 41 0;
#X connect 53 0 173 0;
#X connect 54 0 23 0;
#X connect 58 0 57 0;
#X connect 60 0 157 0;
#X connect 60 0 159 0;
#X connect 61 0 25 0;
#X connect 62 0 26 0;
#X connect 63 0 27 0;
#X connect 64 0 94 0;
#X connect 65 0 28 0;
#X connect 66 0 29 0;
#X connect 67 0 95 0;
#X connect 84 0 24 0;
#X connect 86 0 98 0;
#X connect 88 0 90 0;
#X connect 89 0 90 1;
#X connect 90 0 92 0;
#X connect 91 0 90 0;
#X connect 92 0 1 0;
#X connect 94 0 17 0;
#X connect 95 0 20 0;
#X connect 98 0 85 0;
#X connect 99 0 100 0;
#X connect 101 0 102 0;
#X connect 102 0 104 0;
#X connect 103 0 107 0;
#X connect 104 0 108 0;
#X connect 105 0 104 1;
#X connect 106 0 99 0;
#X connect 107 0 104 1;
#X connect 109 0 105 0;
#X connect 110 0 112 0;
#X connect 111 0 110 0;
#X connect 113 0 115 0;
#X connect 114 0 117 0;
#X connect 115 0 120 0;
#X connect 116 0 115 1;
#X connect 117 0 115 1;
#X connect 118 0 116 0;
#X connect 119 0 113 0;
#X connect 122 0 124 1;
#X connect 122 0 123 1;
#X connect 123 0 42 0;
#X connect 124 0 43 0;
#X connect 128 0 126 0;
#X connect 131 0 129 0;
#X connect 134 0 132 0;
#X connect 137 0 135 0;
#X connect 140 0 138 0;
#X connect 143 0 141 0;
#X connect 146 0 144 0;
#X connect 153 0 181 0;
#X connect 155 0 153 0;
#X connect 156 0 160 0;
#X connect 157 0 31 0;
#X connect 158 0 159 1;
#X connect 159 0 58 0;
#X connect 160 0 157 1;
#X connect 160 0 158 0;
#X connect 161 0 162 0;
#X connect 161 0 163 0;
#X connect 162 0 159 1;
#X connect 163 0 157 1;
#X connect 164 0 36 0;
#X connect 167 0 165 0;
#X connect 168 0 167 0;
#X connect 170 0 171 0;
#X connect 171 0 169 0;
#X connect 173 0 34 0;
#X connect 174 0 128 0;
#X connect 175 0 131 0;
#X connect 176 0 134 0;
#X connect 177 0 137 0;
#X connect 178 0 140 0;
#X connect 179 0 143 0;
#X connect 180 0 146 0;
#X connect 181 0 152 0;
#X connect 183 0 184 0;
#X connect 184 0 182 0;
#X connect 185 0 183 0;
#X restore 30 75 pd midi;
#X text 103 47 GUI Communication;
#X text 78 77 MIDI Assignments;
#X text 126 106 Main Output and FX;
#N canvas 301 71 758 734 mainOutandFX 0;
#X obj 362 499 dac~;
#X obj 65 89 r~ loopSignal;
#N canvas 404 22 570 640 cutoff 0;
#X obj 160 14 receive fromGUI;
#X obj 160 39 route list;
#X obj 14 109 inlet~;
#X obj 9 590 outlet~;
#X obj 160 61 route /cutofff;
#X obj 410 335 sig~;
#X obj 410 262 * 127;
#X obj 410 241 expr 1 - $f1;
#X obj 410 218 / 127;
#X obj 461 266 loadbang;
#X msg 461 289 8000;
#X obj 410 289 * 60;
#X obj 9 486 *~;
#X obj 24 372 expr 1 - $f1;
#X text 141 343 wet/dry;
#X obj 34 258 loadbang;
#X msg 34 301 0;
#X obj 62 483 *~;
#X obj 81 429 vline~;
#X msg 81 404 \$1 50;
#X obj 24 429 vline~;
#X msg 24 404 \$1 50;
#X obj 317 409 vcf~ 6;
#X obj 362 409 vcf~ 6;
#X obj 273 409 vcf~ 6;
#X obj 160 89 moses 5;
#X msg 410 188 0;
#X obj 206 206 / 127;
#X obj 34 336 \$1;
#X connect 0 0 1 0;
#X connect 1 0 4 0;
#X connect 2 0 12 0;
#X connect 2 0 22 0;
#X connect 2 0 23 0;
#X connect 2 0 24 0;
#X connect 4 0 25 0;
#X connect 5 0 22 1;
#X connect 5 0 23 1;
#X connect 5 0 24 1;
#X connect 6 0 11 0;
#X connect 7 0 6 0;
#X connect 8 0 7 0;
#X connect 9 0 10 0;
#X connect 10 0 5 0;
#X connect 11 0 5 0;
#X connect 12 0 3 0;
#X connect 13 0 21 0;
#X connect 15 0 16 0;
#X connect 16 0 28 0;
#X connect 17 0 3 0;
#X connect 18 0 17 1;
#X connect 19 0 18 0;
#X connect 20 0 12 1;
#X connect 21 0 20 0;
#X connect 22 1 17 0;
#X connect 23 0 17 0;
#X connect 24 0 17 0;
#X connect 25 0 16 0;
#X connect 25 0 26 0;
#X connect 25 1 8 0;
#X connect 25 1 27 0;
#X connect 26 0 8 0;
#X connect 27 0 28 0;
#X connect 28 0 13 0;
#X connect 28 0 19 0;
#X restore 54 273 pd cutoff;
#X obj 367 468 *~;
#X obj 382 372 line~;
#X obj 382 350 pack 0 50;
#X obj 382 284 receive fromGUI;
#X obj 382 304 route list;
#X obj 382 324 route /mainVol;
#X obj 491 261 loadbang;
#X obj 491 306 send toGUI;
#X obj 184 345 *~;
#X obj 230 345 *~;
#X obj 252 207 expr 1 - $f1;
#X obj 242 78 receive fromGUI;
#X obj 242 103 list trim;
#X obj 242 126 route /tfx;
#X obj 182 113 loadbang;
#X obj 367 222 r~ mainInput;
#N canvas 525 122 511 405 mainVerb 0;
#X obj 79 365 outlet~;
#X obj 55 266 inlet~;
#X obj 310 293 expr 1 - $f1;
#X obj 311 139 receive fromGUI;
#X obj 311 160 route list;
#X obj 296 59 loadbang;
#X obj 112 119 hsl 128 15 0 1 0 1 empty empty 'roomsize' 20 8 0 10
-262144 -260097 -1 0 0;
#X obj 127 162 hsl 128 15 0 2.4 0 1 empty empty damp 20 8 0 10 -262144
-260097 -1 0 0;
#X obj 157 255 hsl 128 15 0 1 0 1 empty empty wet 20 8 0 10 -262144
-260097 -1 0 0;
#X obj 142 205 hsl 128 15 0 1 0 1 empty empty dry 20 8 0 10 -262144
-260097 -1 9850 0;
#N canvas 188 449 634 321 vfreeverb~ 0;
#N canvas 261 41 778 367 combfilters-left1 0;
#X obj 46 244 +~;
#X obj 61 219 *~ 0.3;
#X obj 61 194 lop~ 1000;
#X obj 231 244 +~;
#X obj 246 219 *~ 0.3;
#X obj 246 194 lop~ 1000;
#X obj 429 218 *~ 0.3;
#X obj 429 193 lop~ 1000;
#X obj 414 241 +~;
#X obj 610 218 *~ 0.3;
#X obj 610 193 lop~ 1000;
#X obj 595 241 +~;
#X obj 61 141 delread~ \$0-comb1left;
#X obj 246 142 delread~ \$0-comb2left;
#X obj 429 141 delread~ \$0-comb3left;
#X obj 610 141 delread~ \$0-comb4left;
#X obj 46 268 delwrite~ \$0-comb1left 100;
#X obj 231 268 delwrite~ \$0-comb2left 100;
#X obj 414 267 delwrite~ \$0-comb3left 100;
#X obj 595 267 delwrite~ \$0-comb4left 100;
#X obj 61 97 r \$0-comb1left;
#X obj 246 97 r \$0-comb2left;
#X obj 429 95 r \$0-comb3left;
#X obj 610 96 r \$0-comb4left;
#X obj 112 170 r \$0-frequency;
#X obj 297 170 r \$0-frequency;
#X obj 480 167 r \$0-frequency;
#X obj 661 167 r \$0-frequency;
#X obj 46 28 inlet~;
#X obj 338 326 outlet~;
#X floatatom 70 119 5 0 0 0 - - -, f 5;
#X floatatom 255 121 5 0 0 0 - - -, f 5;
#X floatatom 439 119 5 0 0 0 - - -, f 5;
#X floatatom 622 121 5 0 0 0 - - -, f 5;
#X obj 279 58 clip 0 0.99;
#X obj 279 29 r \$0-room;
#X connect 0 0 16 0;
#X connect 1 0 0 1;
#X connect 2 0 1 0;
#X connect 2 0 29 0;
#X connect 3 0 17 0;
#X connect 4 0 3 1;
#X connect 5 0 4 0;
#X connect 5 0 29 0;
#X connect 6 0 8 1;
#X connect 7 0 6 0;
#X connect 7 0 29 0;
#X connect 8 0 18 0;
#X connect 9 0 11 1;
#X connect 10 0 9 0;
#X connect 10 0 29 0;
#X connect 11 0 19 0;
#X connect 12 0 2 0;
#X connect 13 0 5 0;
#X connect 14 0 7 0;
#X connect 15 0 10 0;
#X connect 20 0 12 0;
#X connect 20 0 30 0;
#X connect 21 0 13 0;
#X connect 21 0 31 0;
#X connect 22 0 14 0;
#X connect 22 0 32 0;
#X connect 23 0 15 0;
#X connect 23 0 33 0;
#X connect 24 0 2 1;
#X connect 25 0 5 1;
#X connect 26 0 7 1;
#X connect 27 0 10 1;
#X connect 28 0 0 0;
#X connect 28 0 3 0;
#X connect 28 0 8 0;
#X connect 28 0 11 0;
#X connect 34 0 1 1;
#X connect 34 0 4 1;
#X connect 34 0 6 1;
#X connect 34 0 9 1;
#X connect 35 0 34 0;
#X restore 15 100 pd combfilters-left1;
#N canvas 27 56 358 650 diffusor-left 0;
#X obj 51 107 *~ 0.5;
#X obj 36 132 +~;
#X obj 66 132 -~;
#X obj 36 26 inlet~;
#X obj 81 238 *~ 0.5;
#X obj 66 263 +~;
#X obj 96 263 -~;
#X obj 111 368 *~ 0.5;
#X obj 96 393 +~;
#X obj 126 393 -~;
#X obj 141 498 *~ 0.5;
#X obj 126 523 +~;
#X obj 156 523 -~;
#X obj 156 605 outlet~;
#X text 95 28 freeverb's diffusor;
#X obj 156 576 hip~ 5;
#X floatatom 214 70 5 0 0 0 - - -, f 5;
#X floatatom 246 203 5 0 0 0 - - -, f 5;
#X floatatom 280 334 5 0 0 0 - - -, f 5;
#X floatatom 304 464 5 0 0 0 - - -, f 5;
#X obj 51 53 r \$0-allpass1left;
#X obj 51 80 delread~ \$0-allpass1left;
#X obj 36 158 delwrite~ \$0-allpass1left 40;
#X obj 81 186 r \$0-allpass2left;
#X obj 81 211 delread~ \$0-allpass2left;
#X obj 66 290 delwrite~ \$0-allpass2left 40;
#X obj 111 317 r \$0-allpass3left;
#X obj 111 341 delread~ \$0-allpass3left;
#X obj 96 420 delwrite~ \$0-allpass3left 40;
#X obj 141 447 r \$0-allpass4left;
#X obj 141 471 delread~ \$0-allpass4left;
#X obj 126 550 delwrite~ \$0-allpass4left 40;
#X connect 0 0 1 1;
#X connect 1 0 22 0;
#X connect 2 0 5 0;
#X connect 2 0 6 1;
#X connect 3 0 1 0;
#X connect 3 0 2 1;
#X connect 4 0 5 1;
#X connect 5 0 25 0;
#X connect 6 0 8 0;
#X connect 6 0 9 1;
#X connect 7 0 8 1;
#X connect 8 0 28 0;
#X connect 9 0 11 0;
#X connect 9 0 12 1;
#X connect 10 0 11 1;
#X connect 11 0 31 0;
#X connect 12 0 15 0;
#X connect 15 0 13 0;
#X connect 20 0 16 0;
#X connect 20 0 21 0;
#X connect 21 0 0 0;
#X connect 21 0 2 0;
#X connect 23 0 17 0;
#X connect 23 0 24 0;
#X connect 24 0 4 0;
#X connect 24 0 6 0;
#X connect 26 0 18 0;
#X connect 26 0 27 0;
#X connect 27 0 7 0;
#X connect 27 0 9 0;
#X connect 29 0 19 0;
#X connect 29 0 30 0;
#X connect 30 0 10 0;
#X connect 30 0 12 0;
#X restore 15 168 pd diffusor-left;
#N canvas 312 366 778 367 combfilters-left2 0;
#X obj 46 244 +~;
#X obj 61 219 *~ 0.3;
#X obj 61 194 lop~ 1000;
#X obj 231 244 +~;
#X obj 246 219 *~ 0.3;
#X obj 246 194 lop~ 1000;
#X obj 429 218 *~ 0.3;
#X obj 429 193 lop~ 1000;
#X obj 414 241 +~;
#X obj 610 218 *~ 0.3;
#X obj 610 193 lop~ 1000;
#X obj 595 241 +~;
#X obj 112 170 r \$0-frequency;
#X obj 297 170 r \$0-frequency;
#X obj 480 167 r \$0-frequency;
#X obj 661 167 r \$0-frequency;
#X obj 46 28 inlet~;
#X obj 338 326 outlet~;
#X obj 61 90 r \$0-comb5left;
#X obj 61 141 delread~ \$0-comb5left;
#X obj 46 268 delwrite~ \$0-comb5left 100;
#X obj 246 90 r \$0-comb6left;
#X obj 246 142 delread~ \$0-comb6left;
#X obj 231 268 delwrite~ \$0-comb6left 100;
#X obj 429 88 r \$0-comb7left;
#X obj 429 141 delread~ \$0-comb7left;
#X obj 414 267 delwrite~ \$0-comb7left 100;
#X obj 610 89 r \$0-comb8left;
#X obj 610 141 delread~ \$0-comb8left;
#X obj 595 267 delwrite~ \$0-comb8left 100;
#X floatatom 70 116 5 0 0 0 - - -, f 5;
#X floatatom 261 118 5 0 0 0 - - -, f 5;
#X floatatom 440 117 5 0 0 0 - - -, f 5;
#X floatatom 620 116 5 0 0 0 - - -, f 5;
#X obj 279 58 clip 0 0.99;
#X obj 279 28 r \$0-room;
#X connect 0 0 20 0;
#X connect 1 0 0 1;
#X connect 2 0 1 0;
#X connect 2 0 17 0;
#X connect 3 0 23 0;
#X connect 4 0 3 1;
#X connect 5 0 4 0;
#X connect 5 0 17 0;
#X connect 6 0 8 1;
#X connect 7 0 6 0;
#X connect 7 0 17 0;
#X connect 8 0 26 0;
#X connect 9 0 11 1;
#X connect 10 0 9 0;
#X connect 10 0 17 0;
#X connect 11 0 29 0;
#X connect 12 0 2 1;
#X connect 13 0 5 1;
#X connect 14 0 7 1;
#X connect 15 0 10 1;
#X connect 16 0 0 0;
#X connect 16 0 3 0;
#X connect 16 0 8 0;
#X connect 16 0 11 0;
#X connect 18 0 19 0;
#X connect 18 0 30 0;
#X connect 19 0 2 0;
#X connect 21 0 22 0;
#X connect 21 0 31 0;
#X connect 22 0 5 0;
#X connect 24 0 25 0;
#X connect 24 0 32 0;
#X connect 25 0 7 0;
#X connect 27 0 28 0;
#X connect 27 0 33 0;
#X connect 28 0 10 0;
#X connect 34 0 1 1;
#X connect 34 0 4 1;
#X connect 34 0 6 1;
#X connect 34 0 9 1;
#X connect 35 0 34 0;
#X restore 36 134 pd combfilters-left2;
#N canvas 261 41 778 367 combfilters-right1 0;
#X obj 46 244 +~;
#X obj 61 219 *~ 0.3;
#X obj 61 194 lop~ 1000;
#X obj 231 244 +~;
#X obj 246 219 *~ 0.3;
#X obj 246 194 lop~ 1000;
#X obj 429 218 *~ 0.3;
#X obj 429 193 lop~ 1000;
#X obj 414 241 +~;
#X obj 610 218 *~ 0.3;
#X obj 610 193 lop~ 1000;
#X obj 595 241 +~;
#X obj 112 170 r \$0-frequency;
#X obj 297 170 r \$0-frequency;
#X obj 480 167 r \$0-frequency;
#X obj 661 167 r \$0-frequency;
#X obj 46 28 inlet~;
#X obj 338 326 outlet~;
#X floatatom 70 119 5 0 0 0 - - -, f 5;
#X floatatom 255 121 5 0 0 0 - - -, f 5;
#X floatatom 439 119 5 0 0 0 - - -, f 5;
#X floatatom 622 121 5 0 0 0 - - -, f 5;
#X obj 61 141 delread~ \$0-comb1right;
#X obj 246 142 delread~ \$0-comb2right;
#X obj 429 141 delread~ \$0-comb3right;
#X obj 610 141 delread~ \$0-comb4right;
#X obj 61 97 r \$0-comb1right;
#X obj 246 97 r \$0-comb2right;
#X obj 429 95 r \$0-comb3right;
#X obj 610 97 r \$0-comb4right;
#X obj 46 268 delwrite~ \$0-comb1right 100;
#X obj 231 268 delwrite~ \$0-comb2right 100;
#X obj 414 267 delwrite~ \$0-comb3right 100;
#X obj 595 267 delwrite~ \$0-comb4right 100;
#X obj 279 58 clip 0 0.99;
#X obj 279 28 r \$0-room;
#X connect 0 0 30 0;
#X connect 1 0 0 1;
#X connect 2 0 1 0;
#X connect 2 0 17 0;
#X connect 3 0 31 0;
#X connect 4 0 3 1;
#X connect 5 0 4 0;
#X connect 5 0 17 0;
#X connect 6 0 8 1;
#X connect 7 0 6 0;
#X connect 7 0 17 0;
#X connect 8 0 32 0;
#X connect 9 0 11 1;
#X connect 10 0 9 0;
#X connect 10 0 17 0;
#X connect 11 0 33 0;
#X connect 12 0 2 1;
#X connect 13 0 5 1;
#X connect 14 0 7 1;
#X connect 15 0 10 1;
#X connect 16 0 0 0;
#X connect 16 0 3 0;
#X connect 16 0 8 0;
#X connect 16 0 11 0;
#X connect 22 0 2 0;
#X connect 23 0 5 0;
#X connect 24 0 7 0;
#X connect 25 0 10 0;
#X connect 26 0 18 0;
#X connect 26 0 22 0;
#X connect 27 0 19 0;
#X connect 27 0 23 0;
#X connect 28 0 20 0;
#X connect 28 0 24 0;
#X connect 29 0 21 0;
#X connect 29 0 25 0;
#X connect 34 0 1 1;
#X connect 34 0 4 1;
#X connect 34 0 6 1;
#X connect 34 0 9 1;
#X connect 35 0 34 0;
#X restore 208 99 pd combfilters-right1;
#N canvas 312 366 778 367 combfilters-right2 0;
#X obj 46 244 +~;
#X obj 61 219 *~ 0.3;
#X obj 61 194 lop~ 1000;
#X obj 231 244 +~;
#X obj 246 219 *~ 0.3;
#X obj 246 194 lop~ 1000;
#X obj 429 218 *~ 0.3;
#X obj 429 193 lop~ 1000;
#X obj 414 241 +~;
#X obj 610 218 *~ 0.3;
#X obj 610 193 lop~ 1000;
#X obj 595 241 +~;
#X obj 112 170 r \$0-frequency;
#X obj 297 170 r \$0-frequency;
#X obj 480 167 r \$0-frequency;
#X obj 661 167 r \$0-frequency;
#X obj 46 28 inlet~;
#X obj 338 326 outlet~;
#X floatatom 70 116 5 0 0 0 - - -, f 5;
#X floatatom 261 118 5 0 0 0 - - -, f 5;
#X floatatom 440 117 5 0 0 0 - - -, f 5;
#X floatatom 620 116 5 0 0 0 - - -, f 5;
#X obj 279 58 clip 0 0.99;
#X obj 61 90 r \$0-comb5right;
#X obj 246 90 r \$0-comb6right;
#X obj 429 88 r \$0-comb7right;
#X obj 610 89 r \$0-comb8right;
#X obj 61 141 delread~ \$0-comb5right;
#X obj 246 142 delread~ \$0-comb6right;
#X obj 429 141 delread~ \$0-comb7right;
#X obj 610 141 delread~ \$0-comb8right;
#X obj 46 268 delwrite~ \$0-comb5right 100;
#X obj 231 268 delwrite~ \$0-comb6right 100;
#X obj 414 267 delwrite~ \$0-comb7right 100;
#X obj 595 267 delwrite~ \$0-comb8right 100;
#X obj 279 28 r \$0-room;
#X connect 0 0 31 0;
#X connect 1 0 0 1;
#X connect 2 0 1 0;
#X connect 2 0 17 0;
#X connect 3 0 32 0;
#X connect 4 0 3 1;
#X connect 5 0 4 0;
#X connect 5 0 17 0;
#X connect 6 0 8 1;
#X connect 7 0 6 0;
#X connect 7 0 17 0;
#X connect 8 0 33 0;
#X connect 9 0 11 1;
#X connect 10 0 9 0;
#X connect 10 0 17 0;
#X connect 11 0 34 0;
#X connect 12 0 2 1;
#X connect 13 0 5 1;
#X connect 14 0 7 1;
#X connect 15 0 10 1;
#X connect 16 0 0 0;
#X connect 16 0 3 0;
#X connect 16 0 8 0;
#X connect 16 0 11 0;
#X connect 22 0 1 1;
#X connect 22 0 4 1;
#X connect 22 0 6 1;
#X connect 22 0 9 1;
#X connect 23 0 18 0;
#X connect 23 0 27 0;
#X connect 24 0 19 0;
#X connect 24 0 28 0;
#X connect 25 0 20 0;
#X connect 25 0 29 0;
#X connect 26 0 21 0;
#X connect 26 0 30 0;
#X connect 27 0 2 0;
#X connect 28 0 5 0;
#X connect 29 0 7 0;
#X connect 30 0 10 0;
#X connect 35 0 22 0;
#X restore 225 133 pd combfilters-right2;
#N canvas 27 56 358 650 diffusor-right 0;
#X obj 51 107 *~ 0.5;
#X obj 36 132 +~;
#X obj 66 132 -~;
#X obj 36 26 inlet~;
#X obj 81 238 *~ 0.5;
#X obj 66 263 +~;
#X obj 96 263 -~;
#X obj 111 368 *~ 0.5;
#X obj 96 393 +~;
#X obj 126 393 -~;
#X obj 141 498 *~ 0.5;
#X obj 126 523 +~;
#X obj 156 523 -~;
#X obj 156 605 outlet~;
#X text 95 28 freeverb's diffusor;
#X obj 156 576 hip~ 5;
#X floatatom 214 70 5 0 0 0 - - -, f 5;
#X floatatom 244 203 5 0 0 0 - - -, f 5;
#X floatatom 280 334 5 0 0 0 - - -, f 5;
#X floatatom 304 464 5 0 0 0 - - -, f 5;
#X obj 51 53 r \$0-allpass1right;
#X obj 51 80 delread~ \$0-allpass1right;
#X obj 36 158 delwrite~ \$0-allpass1right 40;
#X obj 81 186 r \$0-allpass2right;
#X obj 81 211 delread~ \$0-allpass2right;
#X obj 66 290 delwrite~ \$0-allpass2right 40;
#X obj 111 317 r \$0-allpass3right;
#X obj 111 341 delread~ \$0-allpass3right;
#X obj 96 420 delwrite~ \$0-allpass3right 40;
#X obj 141 447 r \$0-allpass4right;
#X obj 141 471 delread~ \$0-allpass4right;
#X obj 126 550 delwrite~ \$0-allpass4right 40;
#X connect 0 0 1 1;
#X connect 1 0 22 0;
#X connect 2 0 5 0;
#X connect 2 0 6 1;
#X connect 3 0 1 0;
#X connect 3 0 2 1;
#X connect 4 0 5 1;
#X connect 5 0 25 0;
#X connect 6 0 8 0;
#X connect 6 0 9 1;
#X connect 7 0 8 1;
#X connect 8 0 28 0;
#X connect 9 0 11 0;
#X connect 9 0 12 1;
#X connect 10 0 11 1;
#X connect 11 0 31 0;
#X connect 12 0 15 0;
#X connect 15 0 13 0;
#X connect 20 0 16 0;
#X connect 20 0 21 0;
#X connect 21 0 0 0;
#X connect 21 0 2 0;
#X connect 23 0 17 0;
#X connect 23 0 24 0;
#X connect 24 0 4 0;
#X connect 24 0 6 0;
#X connect 26 0 18 0;
#X connect 26 0 27 0;
#X connect 27 0 7 0;
#X connect 27 0 9 0;
#X connect 29 0 19 0;
#X connect 29 0 30 0;
#X connect 30 0 10 0;
#X connect 30 0 12 0;
#X restore 208 169 pd diffusor-right;
#X obj 208 61 *~ 0.015;
#X obj 15 226 *~ 1;
#X obj 208 228 *~ 1;
#X obj 94 228 *~ 1;
#X obj 169 228 *~ 1;
#X obj 115 202 r \$0-dry;
#X obj 229 203 r \$0-wet;
#X obj 36 201 r \$0-wet;
#X obj 94 14 inlet~;
#X obj 208 14 inlet~;
#X obj 15 268 outlet~;
#X obj 169 269 outlet~;
#X obj 312 14 inlet;
#X obj 374 14 inlet;
#X obj 462 14 inlet;
#X obj 544 16 inlet;
#N canvas 0 22 207 207 room 0;
#X obj 32 35 inlet;
#X obj 32 63 * 0.28;
#X obj 32 94 + 0.7;
#X obj 32 160 outlet;
#X text 80 65 scaleroom;
#X text 76 94 offsetroom;
#X obj 47 126 s \$0-room;
#X connect 0 0 1 0;
#X connect 1 0 2 0;
#X connect 2 0 3 0;
#X connect 2 0 6 0;
#X restore 312 45 pd room;
#N canvas 684 169 244 376 frequency 0;
#X obj 60 222 samplerate~;
#X obj 33 8 inlet;
#X obj 33 194 t f b;
#X obj 33 249 *;
#X obj 53 303 s \$0-frequency;
#X obj 33 327 outlet;
#X obj 33 64 * 0.4;
#X text 76 66 scaledamp;
#X obj 33 90 t b f;
#X obj 33 141 -;
#X msg 33 116 1;
#X obj 33 168 abs;
#X obj 33 275 * 0.5;
#X text 153 303 for [lop~];
#X obj 33 38 clip 0 2.4;
#X connect 0 0 3 1;
#X connect 1 0 14 0;
#X connect 2 0 3 0;
#X connect 2 1 0 0;
#X connect 3 0 12 0;
#X connect 6 0 8 0;
#X connect 8 0 10 0;
#X connect 8 1 9 1;
#X connect 9 0 11 0;
#X connect 10 0 9 0;
#X connect 11 0 2 0;
#X connect 12 0 5 0;
#X connect 12 0 4 0;
#X connect 14 0 6 0;
#X restore 374 45 pd frequency;
#N canvas 0 22 170 187 scalewet 0;
#X obj 22 42 inlet;
#X obj 22 143 outlet;
#X obj 22 73 * 3;
#X text 49 74 scalewet;
#X obj 40 112 s \$0-wet;
#X connect 0 0 2 0;
#X connect 2 0 1 0;
#X connect 2 0 4 0;
#X restore 544 45 pd scalewet;
#N canvas 0 22 220 198 scaledry 0;
#X obj 32 74 * 2;
#X obj 32 40 inlet;
#X obj 32 141 outlet;
#X text 58 75 scaledry;
#X obj 41 105 s \$0-dry;
#X connect 0 0 2 0;
#X connect 0 0 4 0;
#X connect 1 0 0 0;
#X restore 462 45 pd scaledry;
#X floatatom 312 70 5 0 0 0 - - -, f 5;
#X floatatom 374 70 10 0 0 0 - - -, f 10;
#X floatatom 462 69 5 0 0 0 - - -, f 5;
#X floatatom 544 69 5 0 0 0 - - -, f 5;
#N canvas 405 27 635 684 tuning 0;
#X msg 332 81 1139 \, 1211 \, 1300 \, 1379 \, 1445 \, 1514 \, 1580
\, 1640;
#X text 72 57 combfilter tunings left;
#X text 377 56 combfilter tunings right;
#X text 71 360 allpass tunings left;
#X text 383 355 allpass tunings right;
#N canvas 243 170 195 233 sampstoms 0;
#X obj 27 21 inlet;
#X obj 54 86 samplerate~;
#X obj 27 111 /;
#X obj 27 57 t f b;
#X obj 27 136 * 1000;
#X obj 27 162 outlet;
#X connect 0 0 3 0;
#X connect 1 0 2 1;
#X connect 2 0 4 0;
#X connect 3 0 2 0;
#X connect 3 1 1 0;
#X connect 4 0 5 0;
#X restore 30 107 pd sampstoms;
#X msg 30 82 1116 \, 1188 \, 1277 \, 1356 \, 1422 \, 1491 \, 1557 \,
1617;
#X obj 57 188 +;
#X msg 57 159 1;
#X obj 30 135 t f b;
#X obj 87 188 f;
#X obj 30 56 t b b;
#X msg 87 159 0;
#X obj 57 212 pack f \$0;
#X msg 57 238 \$2-comb\$1left;
#X obj 30 282 s;
#X obj 57 265 symbol;
#N canvas 0 22 195 233 sampstoms 0;
#X obj 27 21 inlet;
#X obj 54 86 samplerate~;
#X obj 27 111 /;
#X obj 27 57 t f b;
#X obj 27 136 * 1000;
#X obj 27 162 outlet;
#X connect 0 0 3 0;
#X connect 1 0 2 1;
#X connect 2 0 4 0;
#X connect 3 0 2 0;
#X connect 3 1 1 0;
#X connect 4 0 5 0;
#X restore 332 107 pd sampstoms;
#X obj 359 188 +;
#X msg 359 159 1;
#X obj 332 135 t f b;
#X obj 389 188 f;
#X msg 389 159 0;
#X obj 359 212 pack f \$0;
#X obj 332 282 s;
#X obj 359 265 symbol;
#X obj 332 56 t b b;
#X msg 359 238 \$2-comb\$1right;
#X obj 30 360 t b b;
#N canvas 0 22 195 233 sampstoms 0;
#X obj 27 21 inlet;
#X obj 54 86 samplerate~;
#X obj 27 111 /;
#X obj 27 57 t f b;
#X obj 27 136 * 1000;
#X obj 27 162 outlet;
#X connect 0 0 3 0;
#X connect 1 0 2 1;
#X connect 2 0 4 0;
#X connect 3 0 2 0;
#X connect 3 1 1 0;
#X connect 4 0 5 0;
#X restore 30 411 pd sampstoms;
#X obj 57 492 +;
#X msg 57 463 1;
#X obj 30 439 t f b;
#X obj 87 492 f;
#X msg 87 463 0;
#X obj 57 516 pack f \$0;
#X obj 30 586 s;
#X obj 57 569 symbol;
#X obj 334 356 t b b;
#N canvas 0 22 195 233 sampstoms 0;
#X obj 27 21 inlet;
#X obj 54 86 samplerate~;
#X obj 27 111 /;
#X obj 27 57 t f b;
#X obj 27 136 * 1000;
#X obj 27 162 outlet;
#X connect 0 0 3 0;
#X connect 1 0 2 1;
#X connect 2 0 4 0;
#X connect 3 0 2 0;
#X connect 3 1 1 0;
#X connect 4 0 5 0;
#X restore 334 407 pd sampstoms;
#X obj 361 488 +;
#X msg 361 459 1;
#X obj 334 435 t f b;
#X obj 391 488 f;
#X msg 391 459 0;
#X obj 361 512 pack f \$0;
#X obj 334 582 s;
#X obj 361 565 symbol;
#X obj 30 22 loadbang;
#X obj 332 27 loadbang;
#X obj 30 334 loadbang;
#X obj 334 331 loadbang;
#X obj 268 41 bng 15 250 50 0 empty empty empty 17 7 0 10 -262144 -1
-1;
#X msg 30 386 225 \, 556 \, 441 \, 341;
#X msg 334 380 248 \, 579 \, 464 \, 364;
#X msg 57 542 \$2-allpass\$1left;
#X msg 361 539 \$2-allpass\$1right;
#X text 27 624 Original Freeverb delay line lengths are converted to
milliseconds \, based on samplerate.;
#X connect 0 0 17 0;
#X connect 5 0 9 0;
#X connect 6 0 5 0;
#X connect 7 0 10 0;
#X connect 7 0 13 0;
#X connect 8 0 7 0;
#X connect 9 0 15 0;
#X connect 9 1 8 0;
#X connect 10 0 7 1;
#X connect 11 0 6 0;
#X connect 11 1 12 0;
#X connect 12 0 10 0;
#X connect 13 0 14 0;
#X connect 14 0 16 0;
#X connect 16 0 15 1;
#X connect 17 0 20 0;
#X connect 18 0 21 0;
#X connect 18 0 23 0;
#X connect 19 0 18 0;
#X connect 20 0 24 0;
#X connect 20 1 19 0;
#X connect 21 0 18 1;
#X connect 22 0 21 0;
#X connect 23 0 27 0;
#X connect 25 0 24 1;
#X connect 26 0 0 0;
#X connect 26 1 22 0;
#X connect 27 0 25 0;
#X connect 28 0 53 0;
#X connect 28 1 34 0;
#X connect 29 0 32 0;
#X connect 30 0 33 0;
#X connect 30 0 35 0;
#X connect 31 0 30 0;
#X connect 32 0 36 0;
#X connect 32 1 31 0;
#X connect 33 0 30 1;
#X connect 34 0 33 0;
#X connect 35 0 55 0;
#X connect 37 0 36 1;
#X connect 38 0 54 0;
#X connect 38 1 44 0;
#X connect 39 0 42 0;
#X connect 40 0 43 0;
#X connect 40 0 45 0;
#X connect 41 0 40 0;
#X connect 42 0 46 0;
#X connect 42 1 41 0;
#X connect 43 0 40 1;
#X connect 44 0 43 0;
#X connect 45 0 56 0;
#X connect 47 0 46 1;
#X connect 48 0 11 0;
#X connect 49 0 26 0;
#X connect 50 0 28 0;
#X connect 51 0 38 0;
#X connect 52 0 11 0;
#X connect 52 0 28 0;
#X connect 52 0 26 0;
#X connect 52 0 38 0;
#X connect 53 0 29 0;
#X connect 54 0 39 0;
#X connect 55 0 37 0;
#X connect 56 0 47 0;
#X restore 410 141 pd tuning;
#X connect 0 0 1 0;
#X connect 1 0 7 0;
#X connect 2 0 1 0;
#X connect 3 0 5 0;
#X connect 4 0 5 0;
#X connect 5 0 8 0;
#X connect 6 0 3 0;
#X connect 6 0 0 0;
#X connect 6 0 4 0;
#X connect 6 0 2 0;
#X connect 7 0 16 0;
#X connect 8 0 17 0;
#X connect 9 0 16 0;
#X connect 10 0 17 0;
#X connect 11 0 10 1;
#X connect 11 0 9 1;
#X connect 12 0 8 1;
#X connect 13 0 7 1;
#X connect 14 0 6 0;
#X connect 14 0 9 0;
#X connect 15 0 6 0;
#X connect 15 0 10 0;
#X connect 18 0 22 0;
#X connect 19 0 23 0;
#X connect 20 0 25 0;
#X connect 21 0 24 0;
#X connect 22 0 26 0;
#X connect 23 0 27 0;
#X connect 24 0 29 0;
#X connect 25 0 28 0;
#X restore 79 311 pd vfreeverb~;
#X obj 311 267 / 508, f 8;
#X msg 235 74 0;
#X msg 295 87 0;
#X obj 343 222 / 127;
#X obj 311 183 route /mainVerb;
#X obj 89 342 *~ 0.24;
#X connect 1 0 10 0;
#X connect 1 0 10 1;
#X connect 2 0 9 0;
#X connect 3 0 4 0;
#X connect 4 0 15 0;
#X connect 5 0 13 0;
#X connect 5 0 12 0;
#X connect 6 0 10 2;
#X connect 7 0 10 3;
#X connect 8 0 10 5;
#X connect 9 0 10 4;
#X connect 10 0 16 0;
#X connect 10 1 16 0;
#X connect 11 0 2 0;
#X connect 11 0 8 0;
#X connect 12 0 6 0;
#X connect 12 0 8 0;
#X connect 13 0 7 0;
#X connect 14 0 6 0;
#X connect 15 0 11 0;
#X connect 15 0 14 0;
#X connect 16 0 0 0;
#X restore 54 297 pd mainVerb;
#X msg 233 263 \$1 15;
#X msg 283 263 \$1 15;
#X text 198 47 post Loop Effects btn;
#N canvas 120 38 889 699 tableGlitch 0;
#X obj 21 261 tabwrite~ /waves;
#X msg 130 261 list /waves refresh;
#X obj 130 289 send toGUI;
#X obj 556 76 unpack f f;
#X obj 737 184 line~;
#X obj 722 213 *~;
#X obj 21 34 inlet~;
#X obj 556 6 receive fromGUI;
#X obj 556 28 list trim;
#X obj 598 281 outlet~;
#X obj 598 208 *~;
#X obj 613 184 line~;
#X obj 556 51 route /glitchTime;
#X msg 613 159 \$1 15;
#X msg 737 159 \$1 15;
#X obj 31 63 s~ dryGlitch;
#X obj 424 923 s~ wetGlitch;
#X obj 524 184 r~ dryGlitch;
#X obj 655 184 r~ wetGlitch;
#X obj 613 128 expr 1 - $f1;
#X obj 748 104 loadbang;
#X msg 748 129 1;
#X msg 781 128 0;
#X obj 175 98 receive fromGUI;
#X obj 175 122 list trim;
#X obj 175 146 route /tfx;
#X obj 130 223 spigot 1;
#X obj 175 170 expr 1 - $f1;
#X obj 486 115 s guiTabGlitchTime;
#X obj 537 491 metro;
#X obj 696 501 metro;
#X obj 564 413 r tabThirtyTwo;
#X obj 723 423 r tabSixteen;
#X obj 370 493 metro;
#X obj 397 415 r tabSixtyFour;
#X obj 199 498 metro;
#X obj 226 420 r tabOneTwoEight;
#X obj 37 493 metro;
#X obj 64 415 r tabTwoFiveSix;
#X obj 81 439 r clear;
#X msg 81 461 stop;
#X obj 243 444 r clear;
#X msg 243 466 stop;
#X obj 414 439 r clear;
#X msg 414 461 stop;
#X obj 581 437 r clear;
#X msg 581 459 stop;
#X obj 740 447 r clear;
#X msg 740 469 stop;
#X obj 35 699 line~;
#X obj 75 646 delay \$1;
#X obj 80 619 - 2;
#X msg 75 669 0 2;
#X msg 35 669 1 2;
#X obj 20 726 *~;
#X obj 80 591 r tabTwoFiveSix;
#X obj 195 699 line~;
#X obj 235 646 delay \$1;
#X obj 240 619 - 2;
#X msg 235 669 0 2;
#X msg 195 669 1 2;
#X obj 180 726 *~;
#X obj 365 699 line~;
#X obj 405 646 delay \$1;
#X obj 410 619 - 2;
#X msg 405 669 0 2;
#X msg 365 669 1 2;
#X obj 350 726 *~;
#X obj 410 591 r tabSixtyFour;
#X obj 240 591 r tabOneTwoEight;
#X obj 525 699 line~;
#X obj 565 646 delay \$1;
#X obj 570 619 - 2;
#X msg 565 669 0 2;
#X msg 525 669 1 2;
#X obj 510 726 *~;
#X obj 570 591 r tabThirtyTwo;
#X obj 685 699 line~;
#X obj 725 646 delay \$1;
#X obj 730 619 - 2;
#X msg 725 669 0 2;
#X msg 685 669 1 2;
#X obj 670 726 *~;
#X obj 730 591 r tabSixteen;
#X obj 20 884 *~;
#X obj 35 859 line~;
#X msg 35 834 \$1 15;
#X obj 180 884 *~;
#X obj 195 859 line~;
#X msg 195 834 \$1 15;
#X obj 350 884 *~;
#X obj 365 859 line~;
#X msg 365 834 \$1 15;
#X obj 510 884 *~;
#X obj 525 859 line~;
#X msg 525 834 \$1 15;
#X obj 670 884 *~;
#X obj 685 859 line~;
#X msg 685 834 \$1 15;
#X obj 35 764 r guiTabGlitchTime;
#X obj 195 764 r guiTabGlitchTime;
#X obj 365 764 r guiTabGlitchTime;
#X obj 525 764 r guiTabGlitchTime;
#X obj 685 764 r guiTabGlitchTime;
#X obj 20 552 tabplay~ /waves;
#X obj 180 552 tabplay~ /waves;
#X obj 350 552 tabplay~ /waves;
#X obj 510 552 tabplay~ /waves;
#X obj 670 552 tabplay~ /waves;
#X obj 9 288 table /waves 125000;
#X obj 49 138 r trigMet;
#X obj 35 788 expr $f1 > 0.8;
#X obj 195 788 expr $f1 > 0.6 && $f1 < 0.8, f 18;
#X obj 365 788 expr $f1 > 0.4 && $f1 < 0.6, f 15;
#X obj 525 786 expr $f1 > 0.2 && $f1 < 0.4, f 16;
#X obj 685 786 expr $f1 < 0.2;
#X msg 256 261 list /waves enable 0;
#X obj 257 235 loadbang;
#X obj 37 371 r f;
#X obj 199 371 r f;
#X obj 537 371 r f;
#X obj 370 371 r f;
#X obj 696 371 r f;
#X msg 145 192 0;
#X obj 89 162 r stopStuff;
#X connect 1 0 2 0;
#X connect 3 0 28 0;
#X connect 3 1 14 0;
#X connect 3 1 19 0;
#X connect 4 0 5 1;
#X connect 5 0 9 0;
#X connect 6 0 0 0;
#X connect 6 0 15 0;
#X connect 7 0 8 0;
#X connect 8 0 12 0;
#X connect 10 0 9 0;
#X connect 11 0 10 1;
#X connect 12 0 3 0;
#X connect 13 0 11 0;
#X connect 14 0 4 0;
#X connect 17 0 10 0;
#X connect 18 0 5 0;
#X connect 19 0 13 0;
#X connect 20 0 21 0;
#X connect 20 0 22 0;
#X connect 21 0 13 0;
#X connect 22 0 14 0;
#X connect 23 0 24 0;
#X connect 24 0 25 0;
#X connect 25 0 27 0;
#X connect 26 0 0 0;
#X connect 26 0 1 0;
#X connect 27 0 26 1;
#X connect 29 0 71 0;
#X connect 29 0 74 0;
#X connect 29 0 107 0;
#X connect 30 0 78 0;
#X connect 30 0 81 0;
#X connect 30 0 108 0;
#X connect 31 0 29 1;
#X connect 32 0 30 1;
#X connect 33 0 63 0;
#X connect 33 0 66 0;
#X connect 33 0 106 0;
#X connect 34 0 33 1;
#X connect 35 0 57 0;
#X connect 35 0 60 0;
#X connect 35 0 105 0;
#X connect 36 0 35 1;
#X connect 37 0 50 0;
#X connect 37 0 53 0;
#X connect 37 0 104 0;
#X connect 38 0 37 1;
#X connect 39 0 40 0;
#X connect 40 0 37 0;
#X connect 41 0 42 0;
#X connect 42 0 35 0;
#X connect 43 0 44 0;
#X connect 44 0 33 0;
#X connect 45 0 46 0;
#X connect 46 0 29 0;
#X connect 47 0 48 0;
#X connect 48 0 30 0;
#X connect 49 0 54 1;
#X connect 50 0 52 0;
#X connect 51 0 50 1;
#X connect 52 0 49 0;
#X connect 53 0 49 0;
#X connect 54 0 84 0;
#X connect 55 0 51 0;
#X connect 56 0 61 1;
#X connect 57 0 59 0;
#X connect 58 0 57 1;
#X connect 59 0 56 0;
#X connect 60 0 56 0;
#X connect 61 0 87 0;
#X connect 62 0 67 1;
#X connect 63 0 65 0;
#X connect 64 0 63 1;
#X connect 65 0 62 0;
#X connect 66 0 62 0;
#X connect 67 0 90 0;
#X connect 68 0 64 0;
#X connect 69 0 58 0;
#X connect 70 0 75 1;
#X connect 71 0 73 0;
#X connect 72 0 71 1;
#X connect 73 0 70 0;
#X connect 74 0 70 0;
#X connect 75 0 93 0;
#X connect 76 0 72 0;
#X connect 77 0 82 1;
#X connect 78 0 80 0;
#X connect 79 0 78 1;
#X connect 80 0 77 0;
#X connect 81 0 77 0;
#X connect 82 0 96 0;
#X connect 83 0 79 0;
#X connect 84 0 16 0;
#X connect 85 0 84 1;
#X connect 86 0 85 0;
#X connect 87 0 16 0;
#X connect 88 0 87 1;
#X connect 89 0 88 0;
#X connect 90 0 16 0;
#X connect 91 0 90 1;
#X connect 92 0 91 0;
#X connect 93 0 16 0;
#X connect 94 0 93 1;
#X connect 95 0 94 0;
#X connect 96 0 16 0;
#X connect 97 0 96 1;
#X connect 98 0 97 0;
#X connect 99 0 111 0;
#X connect 100 0 112 0;
#X connect 101 0 113 0;
#X connect 102 0 114 0;
#X connect 103 0 115 0;
#X connect 104 0 54 0;
#X connect 105 0 61 0;
#X connect 106 0 67 0;
#X connect 107 0 75 0;
#X connect 108 0 82 0;
#X connect 110 0 26 0;
#X connect 111 0 86 0;
#X connect 112 0 89 0;
#X connect 113 0 92 0;
#X connect 114 0 95 0;
#X connect 115 0 98 0;
#X connect 116 0 2 0;
#X connect 117 0 116 0;
#X connect 118 0 37 0;
#X connect 119 0 35 0;
#X connect 120 0 29 0;
#X connect 121 0 33 0;
#X connect 122 0 30 0;
#X connect 123 0 26 1;
#X connect 124 0 123 0;
#X restore 54 245 pd tableGlitch;
#X obj 233 286 line~;
#X obj 283 286 line~;
#X msg 182 136 0;
#X obj 348 193 r~ metroAudio;
#X msg 491 284 list /mainVol 0.5, f 19;
#X obj 416 636 * 1.27;
#X obj 416 685 ctlout 20 10;
#X obj 416 659 int;
#X text 471 620 Send midi amp data for leds!!, f 15;
#X obj 414 581 env~ 1024 1024;
#X connect 1 0 23 0;
#X connect 1 0 12 0;
#X connect 2 0 19 0;
#X connect 3 0 0 0;
#X connect 3 0 0 1;
#X connect 3 0 33 0;
#X connect 4 0 3 1;
#X connect 5 0 4 0;
#X connect 6 0 7 0;
#X connect 7 0 8 0;
#X connect 8 0 5 0;
#X connect 9 0 28 0;
#X connect 11 0 3 0;
#X connect 12 0 3 0;
#X connect 13 0 21 0;
#X connect 14 0 15 0;
#X connect 15 0 16 0;
#X connect 16 0 13 0;
#X connect 16 0 20 0;
#X connect 17 0 26 0;
#X connect 18 0 3 0;
#X connect 19 0 11 0;
#X connect 20 0 24 0;
#X connect 21 0 25 0;
#X connect 23 0 2 0;
#X connect 24 0 11 1;
#X connect 25 0 12 1;
#X connect 26 0 13 0;
#X connect 26 0 20 0;
#X connect 27 0 3 0;
#X connect 28 0 10 0;
#X connect 29 0 31 0;
#X connect 31 0 30 0;
#X connect 33 0 29 0;
#X restore 30 105 pd mainOutandFX;
#X obj 388 16 inlet~;
#X obj 568 544 vline~;
#X obj 650 419 r ms;
#X obj 568 441 r f;
#X obj 605 466 delay \$1;
#X obj 399 567 *~;
#X obj 25 215 loops 1;
#N canvas 2 23 1437 830 saveGUI 0;
#X obj 370 508 textfile;
#X obj 726 171 receive fromGUI;
#X obj 726 194 list trim;
#X obj 48 18 r vol-1;
#X obj 101 18 r vol-2;
#X obj 154 18 r vol-3;
#X obj 207 18 r vol-4;
#X obj 258 18 r vol-5;
#X obj 311 18 r vol-6;
#X obj 364 18 r vol-7;
#X obj 417 18 r vol-8;
#X obj 333 350 bng 15 250 50 0 empty empty empty 17 7 0 10 -262144
-1 -1;
#X obj 370 622 send toGUI;
#X obj 505 76 r st-1;
#X obj 549 76 r st-2;
#X obj 595 76 r st-3;
#X obj 639 76 r st-4;
#X obj 685 76 r st-5;
#X obj 729 76 r st-6;
#X obj 775 76 r st-7;
#X obj 819 76 r st-8;
#X obj 505 76 r st-1;
#X obj 549 76 r st-2;
#X obj 595 76 r st-3;
#X obj 639 76 r st-4;
#X text 46 235 This receives values from all loops (vol \, mute \,
active flag) and outputs them as one big ass list in a text file.,
f 28;
#X text 240 551 Read that big ass list and spit that shit back into
the gui., f 21;
#X obj 984 588 r ms;
#X msg 1141 558 list /saveProg Saving...;
#X obj 872 682 delay 1000;
#X msg 872 703 list /saveProg;
#X obj 1140 796 send toGUI;
#X text 1142 512 Tell the gui that you are saving that shit, f 17
;
#X obj 289 455 r clear;
#X msg 289 480 clear;
#X obj 333 378 symbol;
#X obj 366 351 r bank;
#X msg 333 412 write ../exports/\$1/gui.txt cr;
#X obj 538 390 symbol;
#X obj 571 363 r bank;
#X msg 538 412 read ../exports/\$1/gui.txt cr;
#X msg 956 672 list /saveProg Done!, f 21;
#X obj 469 18 r vol-9;
#X obj 521 18 r vol-10;
#X obj 579 18 r vol-11;
#X obj 637 18 r vol-12;
#X obj 695 18 r vol-13;
#X obj 753 18 r vol-14;
#X obj 810 18 r vol-15;
#X obj 867 18 r vol-16;
#X obj 864 76 r st-9;
#X obj 909 76 r st-10;
#X obj 960 76 r st-11;
#X obj 1010 76 r st-12;
#X obj 1060 75 r st-13;
#X obj 1117 75 r st-14;
#X obj 1173 76 r st-15;
#X obj 1227 76 r st-16;
#X obj 939 611 delay 50;
#X obj 726 246 sel 1 0;
#X obj 916 406 sel 1 0;
#X msg 690 370 rewind \, bang;
#X obj 1305 521 send toSystem;
#X obj 63 150 pack f f f f f f f f f f f f f f f f f f f f f f f f
f f f f f f f f, f 195;
#X msg 223 231 set \$1 \$2 \$3 \$4 \$5 \$6 \$7 \$8 \$9 \$10 \$11 \$12
\$13 \$14 \$15 \$16 \$17 \$18 \$19 \$20 \$21 \$22 \$23 \$24 \$25 \$26
\$27 \$28 \$29 \$30 \$31 \$32;
#X msg 370 541 list /vol1 \$1 \, list /vol2 \$2 \, list /vol3 \$3 \,
list /vol4 \$4 \, list /vol5 \$5 \, list /vol6 \$6 \, list /vol7 \$7
\, list /vol8 \$8 \, list /vol9 \$9 \, list /vol10 \$10 \, list /vol11
\$11 \, list /vol12 \$12 \, list /vol13 \$13 \, list /vol14 \$14 \,
list /vol15 \$15 \, list /vol16 \$16 \,, f 52;
#X obj 308 716 unpack f f f f f f f f f f f f f f f f, f 82;
#X obj 189 771 s lpd-1;
#X obj 239 771 s lpd-2;
#X obj 289 771 s lpd-3;
#X obj 339 771 s lpd-4;
#X obj 389 771 s lpd-5;
#X obj 439 771 s lpd-6;
#X obj 489 771 s lpd-7;
#X obj 539 771 s lpd-8;
#X obj 590 771 s lpd-9;
#X obj 640 771 s lpd-10;
#X obj 696 771 s lpd-11;
#X obj 752 771 s lpd-12;
#X obj 809 771 s lpd-13;
#X obj 867 771 s lpd-14;
#X obj 925 771 s lpd-15;
#X obj 982 771 s lpd-16;
#X msg 308 653 \$17 \$18 \$19 \$20 \$21 \$22 \$23 \$24 \$25 \$26 \$27
\$28 \$29 \$30 \$31 \$32;
#X obj 1305 452 bng 15 250 50 0 empty empty empty 17 7 0 10 -262144
-1 -1;
#X msg 1305 472 2;
#X msg 1305 496 list /setPage \$1;
#X obj 1061 300 sel 1 0;
#X obj 1158 428 send toGUI;
#X msg 1158 344 1;
#X msg 1258 328 0;
#X msg 1158 374 list /export enable \$1 \, list /nope enable \$1;
#X obj 1143 285 sel 1;
#X msg 967 369 list /saveMessage highlight \$1;
#X msg 1061 339 1;
#X msg 1096 339 0;
#X obj 726 216 route /load /export;
#X obj 1066 181 receive fromGUI;
#X obj 1066 204 list trim;
#X obj 1066 226 route /fakeSave /nope /export;
#X obj 1206 260 sel 1;
#X text 1331 438 //DISABLED// this shit never works right, f 13;
#X obj 1293 276 loadbang;
#N canvas 65 23 1232 591 sessionSelection 0;
#X obj 139 11 receive fromGUI;
#X obj 139 36 list trim;
#X msg 139 186 symbol Session-0\$1;
#X msg 268 187 symbol Session-\$1;
#X obj 613 515 send toGUI;
#X obj 307 289 == 1;
#X obj 472 283 == 2;
#X obj 139 221 s bank;
#X msg 307 311 list /Name-1 highlight \$1;
#X msg 472 311 list /Name-2 highlight \$1;
#X obj 307 265 r nameNumber;
#X obj 49 135 s nameNumber;
#X obj 472 259 r nameNumber;
#X obj 642 259 r nameNumber;
#X obj 642 283 == 3;
#X msg 642 307 list /Name-3 highlight \$1;
#X obj 812 259 r nameNumber;
#X msg 812 311 list /Name-4 highlight \$1;
#X obj 812 283 == 4;
#X obj 982 259 r nameNumber;
#X obj 982 283 == 5;
#X msg 982 311 list /Name-5 highlight \$1;
#X obj 307 345 r nameNumber;
#X obj 472 339 r nameNumber;
#X obj 642 339 r nameNumber;
#X obj 812 339 r nameNumber;
#X obj 982 339 r nameNumber;
#X obj 307 369 == 6;
#X msg 307 391 list /Name-6 highlight \$1;
#X obj 472 363 == 7;
#X msg 472 391 list /Name-7 highlight \$1;
#X obj 642 363 == 8;
#X msg 642 391 list /Name-8 highlight \$1;
#X obj 812 363 == 9;
#X msg 812 391 list /Name-9 highlight \$1;
#X obj 982 363 == 10;
#X msg 982 391 list /Name-10 highlight \$1;
#X obj 139 160 moses 10;
#X obj 184 110 > 0;
#X obj 139 134 spigot 0;
#X obj 211 141 s saveLoadEnable;
#X obj 139 59 route /sessionSlider;
#X obj 56 306 r nameNumber;
#X msg 56 431 list /SessionLabel \$1:;
#X obj 56 403 spigot 0;
#X msg 142 400 list /SessionLabel --;
#X obj 521 48 r clear;
#X obj 521 108 send toGUI;
#X msg 521 82 list /sessionSlider 0;
#X obj 142 348 sel 0;
#X obj 101 378 > 0;
#X connect 0 0 1 0;
#X connect 1 0 41 0;
#X connect 2 0 7 0;
#X connect 3 0 7 0;
#X connect 5 0 8 0;
#X connect 6 0 9 0;
#X connect 8 0 4 0;
#X connect 9 0 4 0;
#X connect 10 0 5 0;
#X connect 12 0 6 0;
#X connect 13 0 14 0;
#X connect 14 0 15 0;
#X connect 15 0 4 0;
#X connect 16 0 18 0;
#X connect 17 0 4 0;
#X connect 18 0 17 0;
#X connect 19 0 20 0;
#X connect 20 0 21 0;
#X connect 21 0 4 0;
#X connect 22 0 27 0;
#X connect 23 0 29 0;
#X connect 24 0 31 0;
#X connect 25 0 33 0;
#X connect 26 0 35 0;
#X connect 27 0 28 0;
#X connect 28 0 4 0;
#X connect 29 0 30 0;
#X connect 30 0 4 0;
#X connect 31 0 32 0;
#X connect 32 0 4 0;
#X connect 33 0 34 0;
#X connect 34 0 4 0;
#X connect 35 0 36 0;
#X connect 36 0 4 0;
#X connect 37 0 2 0;
#X connect 37 1 3 0;
#X connect 38 0 39 1;
#X connect 38 0 40 0;
#X connect 39 0 37 0;
#X connect 41 0 38 0;
#X connect 41 0 39 0;
#X connect 41 0 11 0;
#X connect 42 0 44 0;
#X connect 42 0 49 0;
#X connect 42 0 50 0;
#X connect 43 0 4 0;
#X connect 44 0 43 0;
#X connect 45 0 4 0;
#X connect 46 0 48 0;
#X connect 49 0 45 0;
#X connect 50 0 44 1;
#X restore 33 586 pd sessionSelection;
#X text 26 567 Select bank for save/load;
#X obj 604 290 s clear;
#X msg 1163 678 0;
#X obj 1163 655 r clear;
#X msg 1163 704 list /load enable \$1 \, list /fakeSave enable \$1
, f 25;
#X obj 1196 679 r saveLoadEnable;
#X text 1322 704 enable save/load;
#N canvas 21 97 1378 707 sessionNaming 0;
#X obj 740 195 textfile;
#X msg 657 145 rewind \, bang;
#X obj 740 280 send toGUI;
#X obj 683 63 loadbang;
#X obj 683 95 delay 20;
#X obj 139 516 textfile;
#X msg 35 304 set \$1;
#X obj 75 8 receive fromGUI;
#X obj 75 61 list trim;
#X obj 256 260 r bank;
#X obj 223 284 symbol;
#X msg 223 305 write ../exports/\$1/name.txt;
#X obj 68 252 r namedSession;
#X obj 35 279 symbol;
#X obj 740 224 symbol;
#X msg 740 250 list /Name-1 \$1;
#X msg 740 146 read ../exports/Session-01/name.txt cr;
#X obj 1070 195 textfile;
#X msg 987 145 rewind \, bang;
#X obj 1070 280 send toGUI;
#X obj 1013 63 loadbang;
#X obj 1013 95 delay 20;
#X obj 1070 224 symbol;
#X msg 1070 146 read ../exports/Session-02/name.txt cr;
#X msg 1070 250 list /Name-2 \$1;
#X obj 1400 195 textfile;
#X msg 1317 145 rewind \, bang;
#X obj 1400 280 send toGUI;
#X obj 1343 63 loadbang;
#X obj 1343 95 delay 20;
#X obj 1400 224 symbol;
#X msg 1400 146 read ../exports/Session-03/name.txt cr;
#X msg 1400 250 list /Name-3 \$1;
#X obj 1729 195 textfile;
#X msg 1646 145 rewind \, bang;
#X obj 1729 280 send toGUI;
#X obj 1672 63 loadbang;
#X obj 1672 95 delay 20;
#X obj 1729 224 symbol;
#X msg 1729 146 read ../exports/Session-04/name.txt cr;
#X msg 1729 250 list /Name-4 \$1;
#X obj 2079 195 textfile;
#X msg 1996 145 rewind \, bang;
#X obj 2079 280 send toGUI;
#X obj 2022 63 loadbang;
#X obj 2022 95 delay 20;
#X obj 2079 224 symbol;
#X msg 2079 146 read ../exports/Session-05/name.txt cr;
#X msg 2079 250 list /Name-5 \$1;
#X obj 740 495 textfile;
#X msg 657 445 rewind \, bang;
#X obj 740 580 send toGUI;
#X obj 683 363 loadbang;
#X obj 683 395 delay 20;
#X obj 740 524 symbol;
#X obj 1070 495 textfile;
#X msg 987 445 rewind \, bang;
#X obj 1070 580 send toGUI;
#X obj 1013 363 loadbang;
#X obj 1013 395 delay 20;
#X obj 1070 524 symbol;
#X obj 1400 495 textfile;
#X msg 1317 445 rewind \, bang;
#X obj 1400 580 send toGUI;
#X obj 1343 363 loadbang;
#X obj 1343 395 delay 20;
#X obj 1400 524 symbol;
#X msg 740 446 read ../exports/Session-06/name.txt cr;
#X msg 740 550 list /Name-6 \$1;
#X msg 1070 446 read ../exports/Session-07/name.txt cr;
#X msg 1070 550 list /Name-7 \$1;
#X msg 1400 446 read ../exports/Session-08/name.txt cr;
#X msg 1400 550 list /Name-8 \$1;
#X obj 1729 495 textfile;
#X msg 1646 445 rewind \, bang;
#X obj 1729 580 send toGUI;
#X obj 1672 363 loadbang;
#X obj 1672 395 delay 20;
#X obj 1729 524 symbol;
#X obj 2079 495 textfile;
#X msg 1996 445 rewind \, bang;
#X obj 2079 580 send toGUI;
#X obj 2022 363 loadbang;
#X obj 2022 395 delay 20;
#X obj 2079 524 symbol;
#X msg 1729 446 read ../exports/Session-09/name.txt cr;
#X msg 1729 550 list /Name-9 \$1;
#X msg 2079 446 read ../exports/Session-10/name.txt cr;
#X msg 2079 550 list /Name-10 \$1;
#X obj 142 111 sel 1;
#X obj 142 172 send toSystem;
#X obj 361 362 r fromSystem;
#X obj 361 384 list trim;
#X obj 361 410 route /textDialog /confirmationDialog;
#X obj 361 439 route /textDialogTag;
#X obj 361 531 list prepend /panel7TextDialogLabel result:;
#X obj 361 492 s namedSession;
#X obj 75 144 sel 1 0;
#X obj 75 84 route /export /fakeSave;
#X obj 233 357 s reloadNames;
#X obj 233 332 bng 15 250 50 0 empty empty empty 17 7 0 10 -262144
-1 -1;
#X obj 749 63 r reloadNames;
#X obj 749 363 r reloadNames;
#X obj 1079 363 r reloadNames;
#X obj 1079 63 r reloadNames;
#X obj 1399 63 r reloadNames;
#X obj 1399 363 r reloadNames;
#X obj 1729 363 r reloadNames;
#X obj 1729 63 r reloadNames;
#X obj 2089 63 r reloadNames;
#X obj 2089 363 r reloadNames;
#X obj 361 464 symbol;
#X msg 142 135 list /textDialog /textDialogTag Name (no spaces). This
will override that session!;
#X msg 225 618 list /export 1;
#X obj 225 643 send toGUI;
#X obj 34 133 print;
#X obj 91 557 loadbang;
#X msg 91 585 list /export enable 0;
#X connect 0 0 14 0;
#X connect 1 0 0 0;
#X connect 3 0 4 0;
#X connect 4 0 16 0;
#X connect 4 0 1 0;
#X connect 6 0 5 0;
#X connect 7 0 8 0;
#X connect 8 0 98 0;
#X connect 9 0 10 1;
#X connect 10 0 11 0;
#X connect 11 0 5 0;
#X connect 11 0 100 0;
#X connect 12 0 13 1;
#X connect 13 0 6 0;
#X connect 14 0 15 0;
#X connect 15 0 2 0;
#X connect 16 0 0 0;
#X connect 17 0 22 0;
#X connect 18 0 17 0;
#X connect 20 0 21 0;
#X connect 21 0 23 0;
#X connect 21 0 18 0;
#X connect 22 0 24 0;
#X connect 23 0 17 0;
#X connect 24 0 19 0;
#X connect 25 0 30 0;
#X connect 26 0 25 0;
#X connect 28 0 29 0;
#X connect 29 0 31 0;
#X connect 29 0 26 0;
#X connect 30 0 32 0;
#X connect 31 0 25 0;
#X connect 32 0 27 0;
#X connect 33 0 38 0;
#X connect 34 0 33 0;
#X connect 36 0 37 0;
#X connect 37 0 39 0;
#X connect 37 0 34 0;
#X connect 38 0 40 0;
#X connect 39 0 33 0;
#X connect 40 0 35 0;
#X connect 41 0 46 0;
#X connect 42 0 41 0;
#X connect 44 0 45 0;
#X connect 45 0 47 0;
#X connect 45 0 42 0;
#X connect 46 0 48 0;
#X connect 47 0 41 0;
#X connect 48 0 43 0;
#X connect 49 0 54 0;
#X connect 50 0 49 0;
#X connect 52 0 53 0;
#X connect 53 0 67 0;
#X connect 53 0 50 0;
#X connect 54 0 68 0;
#X connect 55 0 60 0;
#X connect 56 0 55 0;
#X connect 58 0 59 0;
#X connect 59 0 69 0;
#X connect 59 0 56 0;
#X connect 60 0 70 0;
#X connect 61 0 66 0;
#X connect 62 0 61 0;
#X connect 64 0 65 0;
#X connect 65 0 71 0;
#X connect 65 0 62 0;
#X connect 66 0 72 0;
#X connect 67 0 49 0;
#X connect 68 0 51 0;
#X connect 69 0 55 0;
#X connect 70 0 57 0;
#X connect 71 0 61 0;
#X connect 72 0 63 0;
#X connect 73 0 78 0;
#X connect 74 0 73 0;
#X connect 76 0 77 0;
#X connect 77 0 85 0;
#X connect 77 0 74 0;
#X connect 78 0 86 0;
#X connect 79 0 84 0;
#X connect 80 0 79 0;
#X connect 82 0 83 0;
#X connect 83 0 87 0;
#X connect 83 0 80 0;
#X connect 84 0 88 0;
#X connect 85 0 73 0;
#X connect 86 0 75 0;
#X connect 87 0 79 0;
#X connect 88 0 81 0;
#X connect 89 0 112 0;
#X connect 91 0 92 0;
#X connect 92 0 93 0;
#X connect 93 0 94 0;
#X connect 94 0 111 0;
#X connect 97 0 13 0;
#X connect 97 1 10 0;
#X connect 98 0 97 0;
#X connect 98 0 115 0;
#X connect 98 1 89 0;
#X connect 100 0 99 0;
#X connect 101 0 4 0;
#X connect 102 0 53 0;
#X connect 103 0 59 0;
#X connect 104 0 21 0;
#X connect 105 0 29 0;
#X connect 106 0 65 0;
#X connect 107 0 77 0;
#X connect 108 0 37 0;
#X connect 109 0 45 0;
#X connect 110 0 83 0;
#X connect 111 0 96 0;
#X connect 111 0 113 0;
#X connect 112 0 90 0;
#X connect 113 0 114 0;
#X connect 116 0 117 0;
#X connect 117 0 114 0;
#X restore 37 488 pd sessionNaming;
#X text 1051 406 This is all disabled now with file naming, f 16;
#X obj 939 559 spigot 0;
#X obj 948 483 r loopChange;
#X msg 948 505 1;
#X msg 984 530 0;
#X obj 984 507 r clear;
#X obj 939 634 bng 15 250 50 0 empty empty empty 17 7 0 10 -262144
-1 -1;
#X obj 834 559 spigot 1;
#X obj 794 473 r loopChange;
#X obj 879 505 r clear;
#X msg 879 528 1;
#X msg 794 495 0;
#X obj 834 590 delay 500;
#X connect 0 0 65 0;
#X connect 0 0 83 0;
#X connect 1 0 2 0;
#X connect 2 0 96 0;
#X connect 3 0 63 0;
#X connect 4 0 63 1;
#X connect 5 0 63 2;
#X connect 6 0 63 3;
#X connect 7 0 63 4;
#X connect 8 0 63 5;
#X connect 9 0 63 6;
#X connect 10 0 63 7;
#X connect 11 0 35 0;
#X connect 13 0 63 16;
#X connect 14 0 63 17;
#X connect 15 0 63 18;
#X connect 16 0 63 19;
#X connect 17 0 63 20;
#X connect 18 0 63 21;
#X connect 19 0 63 22;
#X connect 20 0 63 23;
#X connect 27 0 58 1;
#X connect 28 0 31 0;
#X connect 29 0 30 0;
#X connect 30 0 31 0;
#X connect 33 0 34 0;
#X connect 34 0 0 0;
#X connect 35 0 37 0;
#X connect 36 0 35 1;
#X connect 37 0 0 0;
#X connect 38 0 40 0;
#X connect 39 0 38 1;
#X connect 40 0 0 0;
#X connect 41 0 31 0;
#X connect 42 0 63 8;
#X connect 43 0 63 9;
#X connect 44 0 63 10;
#X connect 45 0 63 11;
#X connect 46 0 63 12;
#X connect 47 0 63 13;
#X connect 48 0 63 14;
#X connect 49 0 63 15;
#X connect 50 0 63 24;
#X connect 51 0 63 25;
#X connect 52 0 63 26;
#X connect 53 0 63 27;
#X connect 54 0 63 28;
#X connect 55 0 63 29;
#X connect 56 0 63 30;
#X connect 57 0 63 31;
#X connect 58 0 118 0;
#X connect 59 0 105 0;
#X connect 59 0 38 0;
#X connect 59 1 61 0;
#X connect 60 0 113 0;
#X connect 60 0 119 0;
#X connect 60 1 28 0;
#X connect 61 0 0 0;
#X connect 63 0 64 0;
#X connect 64 0 0 0;
#X connect 64 0 11 0;
#X connect 65 0 12 0;
#X connect 66 0 67 0;
#X connect 66 1 68 0;
#X connect 66 2 69 0;
#X connect 66 3 70 0;
#X connect 66 4 71 0;
#X connect 66 5 72 0;
#X connect 66 6 73 0;
#X connect 66 7 74 0;
#X connect 66 8 75 0;
#X connect 66 9 76 0;
#X connect 66 10 77 0;
#X connect 66 11 78 0;
#X connect 66 12 79 0;
#X connect 66 13 80 0;
#X connect 66 14 81 0;
#X connect 66 15 82 0;
#X connect 83 0 66 0;
#X connect 84 0 85 0;
#X connect 85 0 86 0;
#X connect 86 0 62 0;
#X connect 87 0 89 0;
#X connect 87 0 94 0;
#X connect 89 0 91 0;
#X connect 90 0 91 0;
#X connect 92 0 95 0;
#X connect 92 0 90 0;
#X connect 94 0 93 0;
#X connect 95 0 93 0;
#X connect 96 0 59 0;
#X connect 96 1 60 0;
#X connect 97 0 98 0;
#X connect 98 0 99 0;
#X connect 99 0 87 0;
#X connect 99 1 92 0;
#X connect 99 2 100 0;
#X connect 100 0 90 0;
#X connect 100 0 95 0;
#X connect 102 0 90 0;
#X connect 102 0 95 0;
#X connect 106 0 108 0;
#X connect 107 0 106 0;
#X connect 108 0 31 0;
#X connect 109 0 108 0;
#X connect 113 0 58 0;
#X connect 114 0 115 0;
#X connect 115 0 113 1;
#X connect 116 0 113 1;
#X connect 117 0 116 0;
#X connect 118 0 41 0;
#X connect 118 0 29 0;
#X connect 119 0 124 0;
#X connect 120 0 123 0;
#X connect 121 0 122 0;
#X connect 122 0 119 1;
#X connect 123 0 119 1;
#X connect 124 0 118 0;
#X restore 31 131 pd saveGUI;
#X text 98 131 Create Textfile that saves GUI positions;
#X text 84 17 Clock Heart;
#X obj 650 441 - 5;
#X msg 568 485 1 5;
#X msg 605 490 0 5;
#X obj 797 379 midiin;
#X msg 712 497 1 15;
#X msg 520 511 0 15;
#X obj 712 468 r start;
#X obj 520 480 r stop;
#X obj 814 413 sel 252;
#X obj 756 413 sel 250;
#X obj 814 438 s stop;
#X obj 688 446 r lp;
#N canvas 185 158 1104 702 autoRecord 0;
#X msg 336 318 list /autoRecLed highlight \$1;
#X obj 326 62 inlet~;
#X obj 572 49 list trim;
#X obj 572 75 route /autoRecEnable /autoRecThresh /autoRecActive;
#X obj 596 661 send toGUI;
#X obj 611 355 loadbang;
#X msg 611 387 0;
#X obj 572 19 receive fromGUI;
#X obj 336 348 spigot 0;
#X obj 325 493 spigot 0;
#X msg 335 176 set \$1 500 \$1 500;
#X msg 325 245 1;
#X msg 354 245 0;
#X obj 325 200 threshold~ 0.5 500 0 500, f 13;
#X obj 335 154 / 2;
#X obj 387 539 delay 500;
#X msg 436 453 0;
#X obj 325 594 s lp1;
#X obj 695 490 r ms;
#X obj 827 435 r clear;
#X msg 574 411 list /autoRecThresh enable \$1 \, list /autoRecActive
enable \$1 \, list /autoRecThresh 0.2, f 32;
#X msg 696 516 list /autoRecEnable enable 0 \, list /autoRecEnable
0 \, list /autoRecThresh enable 0 \, list /autoRecActive enable 0 \,
list /autoRecActive set 0 \, list /autoRecThresh 0.2, f 29;
#X msg 886 516 list /autoRecEnable enable 1 \, list /autoRecEnable
0 \, list /autoRecThresh enable 0 \, list /autoRecActive enable 0 \,
list /autoRecActive set 0 \, list /autoRecThresh 0.2, f 29;
#X connect 0 0 8 0;
#X connect 1 0 13 0;
#X connect 2 0 3 0;
#X connect 3 0 20 0;
#X connect 3 0 8 1;
#X connect 3 1 14 0;
#X connect 3 2 9 1;
#X connect 5 0 6 0;
#X connect 6 0 20 0;
#X connect 7 0 2 0;
#X connect 8 0 4 0;
#X connect 9 0 15 0;
#X connect 9 0 17 0;
#X connect 10 0 13 0;
#X connect 11 0 0 0;
#X connect 11 0 9 0;
#X connect 12 0 0 0;
#X connect 13 0 11 0;
#X connect 13 1 12 0;
#X connect 14 0 10 0;
#X connect 15 0 16 0;
#X connect 16 0 9 1;
#X connect 18 0 21 0;
#X connect 19 0 22 0;
#X connect 20 0 4 0;
#X connect 21 0 4 0;
#X connect 22 0 4 0;
#X restore 492 92 pd autoRecord;
#X obj 74 215 loops 2;
#X obj 126 215 loops 3;
#X obj 179 215 loops 4;
#X obj 228 215 loops 5;
#X obj 278 215 loops 6;
#X obj 328 215 loops 7;
#X obj 383 215 loops 8;
#X obj 435 215 loops 9;
#X obj 486 215 loops 10;
#X obj 544 215 loops 11;
#X obj 600 215 loops 12;
#X obj 656 215 loops 13;
#X obj 713 215 loops 14;
#X obj 769 215 loops 15;
#X obj 824 215 loops 16;
#X connect 3 0 16 0;
#X connect 3 0 33 0;
#X connect 3 0 34 0;
#X connect 3 0 35 0;
#X connect 3 0 36 0;
#X connect 3 0 37 0;
#X connect 3 0 38 0;
#X connect 3 0 39 0;
#X connect 3 0 40 0;
#X connect 3 0 41 0;
#X connect 3 0 42 0;
#X connect 3 0 43 0;
#X connect 3 0 44 0;
#X connect 3 0 45 0;
#X connect 3 0 46 0;
#X connect 3 0 47 0;
#X connect 10 0 2 0;
#X connect 10 0 32 0;
#X connect 11 0 15 1;
#X connect 12 0 20 0;
#X connect 13 0 21 0;
#X connect 13 0 14 0;
#X connect 14 0 22 0;
#X connect 15 0 0 0;
#X connect 16 0 15 0;
#X connect 20 0 14 1;
#X connect 21 0 11 0;
#X connect 22 0 11 0;
#X connect 23 0 28 0;
#X connect 23 0 29 0;
#X connect 24 0 11 0;
#X connect 25 0 11 0;
#X connect 26 0 24 0;
#X connect 27 0 25 0;
#X connect 28 0 30 0;
#X connect 29 0 24 0;
#X connect 33 0 15 0;
#X connect 34 0 15 0;
#X connect 35 0 15 0;
#X connect 36 0 15 0;
#X connect 37 0 15 0;
#X connect 38 0 15 0;
#X connect 39 0 15 0;
#X connect 40 0 15 0;
#X connect 41 0 15 0;
#X connect 42 0 15 0;
#X connect 43 0 15 0;
#X connect 44 0 15 0;
#X connect 45 0 15 0;
#X connect 46 0 15 0;
#X connect 47 0 15 0;
