#N canvas 588 23 669 851 10;
#X obj 121 832 outlet~;
#X obj 258 8 receive fromGUI;
#X obj 258 33 list trim;
#X obj 258 56 route /pshift;
#X obj 20 80 inlet~;
#X obj 208 174 +~;
#X obj 232 517 hsl 200 25 0 1 0 0 empty empty output-level 20 12 0
14 -228856 -260097 -1 19900 1;
#X floatatom 443 542 5 0 0 0 - - -, f 5;
#X obj 208 555 *~ 0;
#X obj 226 208 delwrite~ \$0-delay 2000;
#X obj 204 584 hip~ 40;
#N canvas 741 374 236 296 triangle 0;
#X obj 24 57 phasor~ 1;
#X obj 24 160 abs~;
#X obj 24 137 *~ 2;
#X obj 24 243 outlet~;
#X obj 166 132 wrap~;
#X obj 166 204 abs~;
#X obj 166 181 *~ 2;
#X obj 166 157 -~ 0.5;
#X obj 88 243 outlet~;
#X obj 166 244 outlet~;
#X obj 88 136 wrap~;
#X obj 88 208 abs~;
#X obj 88 185 *~ 2;
#X obj 88 161 -~ 0.5;
#X obj 24 27 inlet;
#X obj 24 113 -~ 0.5;
#X obj 88 106 -~ 0.3;
#X obj 166 103 -~ 0.7;
#X connect 0 0 15 0;
#X connect 0 0 16 0;
#X connect 0 0 17 0;
#X connect 1 0 3 0;
#X connect 2 0 1 0;
#X connect 4 0 7 0;
#X connect 5 0 9 0;
#X connect 6 0 5 0;
#X connect 7 0 6 0;
#X connect 10 0 13 0;
#X connect 11 0 8 0;
#X connect 12 0 11 0;
#X connect 13 0 12 0;
#X connect 14 0 0 0;
#X connect 15 0 2 0;
#X connect 16 0 10 0;
#X connect 17 0 4 0;
#X restore 329 289 pd triangle;
#N canvas 0 22 187 273 window 0;
#X obj 23 43 inlet~;
#X obj 23 178 +~ 0.5;
#X obj 23 243 outlet~;
#X obj 23 85 cos~;
#X obj 23 138 *~ -0.5;
#X obj 23 208 sqrt~;
#X connect 0 0 3 0;
#X connect 1 0 5 0;
#X connect 3 0 4 0;
#X connect 4 0 1 0;
#X connect 5 0 2 0;
#X restore 478 407 pd window;
#N canvas 0 22 187 273 window 0;
#X obj 23 43 inlet~;
#X obj 23 178 +~ 0.5;
#X obj 22 245 outlet~;
#X obj 23 85 cos~;
#X obj 23 138 *~ -0.5;
#X obj 25 210 sqrt~;
#X connect 0 0 3 0;
#X connect 1 0 5 0;
#X connect 3 0 4 0;
#X connect 4 0 1 0;
#X connect 5 0 2 0;
#X restore 244 407 pd window;
#X obj 229 437 *~;
#X obj 463 437 *~;
#X obj 229 471 +~;
#N canvas 0 22 187 273 window 0;
#X obj 23 43 inlet~;
#X obj 22 187 +~ 0.5;
#X obj 23 239 outlet~;
#X obj 23 85 cos~;
#X obj 23 138 *~ -0.5;
#X obj 22 212 sqrt~;
#X connect 0 0 3 0;
#X connect 1 0 5 0;
#X connect 3 0 4 0;
#X connect 4 0 1 0;
#X connect 5 0 2 0;
#X restore 360 408 pd window;
#X obj 345 439 *~;
#N canvas 0 22 160 266 delay 0;
#X obj 24 20 inlet;
#X obj 24 197 line~;
#X msg 24 171 \$1 100;
#X obj 24 120 /;
#X obj 24 65 t b f;
#X msg 24 95 250;
#X obj 24 226 outlet~;
#X floatatom 38 143 5 0 0 0 - - -, f 5;
#X connect 0 0 4 0;
#X connect 1 0 6 0;
#X connect 2 0 1 0;
#X connect 3 0 2 0;
#X connect 3 0 7 0;
#X connect 4 0 5 0;
#X connect 4 1 3 1;
#X connect 5 0 3 0;
#X restore 229 304 pd delay;
#X obj 229 346 *~;
#X obj 232 239 hsl 200 25 1 2 0 1 empty empty speed 20 12 0 14 -228856
-260097 -1 19900 1;
#X obj 345 350 *~;
#X obj 463 347 *~;
#X floatatom 443 264 5 0 0 0 - - -, f 5;
#X text 442 243 Hz;
#X obj 229 375 vd~ \$0-delay 260;
#X obj 345 375 vd~ \$0-delay 260;
#X obj 463 375 vd~ \$0-delay 260;
#X obj 55 567 expr 1 - $f1;
#X obj 58 538 hsl 90 15 0 1 0 0 empty distmix empty -2 -8 0 10 -262144
-1 -1 0 1;
#X obj 41 635 *~;
#X obj 240 729 *~;
#X msg 55 592 \$1 15;
#X msg 55 592 \$1 15;
#X msg 255 681 \$1 15;
#X msg 255 681 \$1 15;
#X obj 56 614 line~;
#X obj 255 703 line~;
#X obj 141 82 loadbang;
#X msg 141 107 2;
#X msg 171 106 1;
#X msg 111 107 0;
#X obj 258 81 / 127;
#X connect 1 0 2 0;
#X connect 2 0 3 0;
#X connect 3 0 43 0;
#X connect 4 0 5 0;
#X connect 4 0 31 0;
#X connect 5 0 8 0;
#X connect 5 0 9 0;
#X connect 6 0 7 0;
#X connect 6 0 8 1;
#X connect 8 0 10 0;
#X connect 10 0 32 0;
#X connect 11 0 13 0;
#X connect 11 0 20 1;
#X connect 11 1 17 0;
#X connect 11 1 22 1;
#X connect 11 2 12 0;
#X connect 11 2 23 1;
#X connect 12 0 15 1;
#X connect 13 0 14 1;
#X connect 14 0 16 0;
#X connect 15 0 16 1;
#X connect 16 0 8 0;
#X connect 17 0 18 1;
#X connect 18 0 16 1;
#X connect 19 0 20 0;
#X connect 19 0 22 0;
#X connect 19 0 23 0;
#X connect 20 0 26 0;
#X connect 21 0 19 0;
#X connect 21 0 24 0;
#X connect 21 0 11 0;
#X connect 22 0 27 0;
#X connect 23 0 28 0;
#X connect 26 0 14 0;
#X connect 27 0 18 0;
#X connect 28 0 15 0;
#X connect 29 0 33 0;
#X connect 30 0 29 0;
#X connect 30 0 35 0;
#X connect 31 0 0 0;
#X connect 32 0 0 0;
#X connect 33 0 37 0;
#X connect 35 0 38 0;
#X connect 37 0 31 1;
#X connect 38 0 32 1;
#X connect 39 0 40 0;
#X connect 39 0 41 0;
#X connect 39 0 42 0;
#X connect 40 0 21 0;
#X connect 41 0 6 0;
#X connect 42 0 30 0;
#X connect 43 0 30 0;
