#N canvas 755 149 798 697 10;
#X obj 148 193 metro 500;
#X obj 417 542 dac~;
#X obj 302 337 *~;
#X obj 302 361 *~;
#X obj 465 323 hsl 50 15 1 127 0 0 empty empty empty -2 -8 0 10 -262144
-1 -1 0 1;
#X obj 313 151 vsl 15 50 1 3000 0 0 empty empty empty 0 -9 0 10 -262144
-1 -1 1273 1;
#X obj 419 485 *~;
#X obj 446 452 line~;
#X obj 446 430 pack 0 50;
#X obj 566 347 vsl 15 50 0 1 0 0 empty empty empty 0 -9 0 10 -262144
-1 -1 2199 1;
#X obj 566 321 / 127;
#X obj 462 367 +~ 1;
#X obj 462 389 *~ 0.5;
#X obj 419 510 *~ 2;
#X obj 462 344 osc~;
#X obj 566 259 receive fromGUI;
#X obj 566 279 route list;
#X obj 566 299 route /vol;
#X obj 462 198 receive fromGUI;
#X obj 462 218 route list;
#X obj 462 238 route /tremo;
#X obj 313 63 receive fromGUI;
#X obj 313 83 route list;
#X obj 313 103 route /pitch;
#X obj 211 -44 receive fromGUI;
#X obj 211 -24 route list;
#X obj 211 -4 route /metro;
#X obj 211 303 phasor~;
#X obj 211 120 vsl 15 50 0 1000 0 0 empty empty empty 0 -9 0 10 -262144
-1 -1 2278 1;
#X obj 334 279 random 10000;
#X obj 152 287 *~ 0.7;
#X obj 152 310 osc~;
#X obj 282 306 osc~;
#X floatatom 382 146 5 0 0 0 - - -, f 5;
#X obj 313 124 * 20;
#X obj 211 92 * 5;
#X obj 95 288 *~ 0.5;
#X obj 95 313 osc~;
#X obj 213 278 *~ 0.2;
#N canvas 1099 71 383 337 cutoffUnit 0;
#X obj 111 183 hsl 50 15 5000 100 0 0 empty empty empty -2 -8 0 10
-262144 -1 -1 1080 1;
#X text 19 185 cutoff filter;
#X obj 168 198 inlet~;
#X obj 168 270 outlet~;
#X obj 252 181 hsl 50 15 1 6 0 0 empty empty empty -2 -8 0 10 -262144
-1 -1 4900 1;
#X obj 168 244 vcf~ 220 1;
#X obj 249 135 loadbang;
#X obj 108 152 * 40;
#X msg 249 158 6;
#X obj 108 14 receive fromGUI;
#X obj 108 35 route list;
#X obj 108 58 route /cut;
#X obj 108 128 * 127;
#X obj 108 107 expr 1 - $f1;
#X obj 108 84 / 127;
#X connect 0 0 5 1;
#X connect 2 0 5 0;
#X connect 4 0 5 2;
#X connect 5 0 3 0;
#X connect 6 0 8 0;
#X connect 7 0 0 0;
#X connect 8 0 4 0;
#X connect 9 0 10 0;
#X connect 10 0 11 0;
#X connect 11 0 14 0;
#X connect 12 0 7 0;
#X connect 13 0 12 0;
#X connect 14 0 13 0;
#X restore 302 423 pd cutoffUnit;
#N canvas 743 207 873 518 delayUnit 0;
#X obj 367 160 vd~ pitch;
#X obj 507 26 vsl 15 50 0 1 0 1 empty empty empty 0 -9 0 10 -262144
-1 -1 3511 1;
#X obj 41 94 s~ pitch;
#X obj 291 55 vsl 15 50 5 2000 0 0 empty empty empty 0 -9 0 10 -262144
-1 -1 1157 1;
#X obj 291 140 vline~;
#X obj 387 194 *~;
#X obj 386 141 delwrite~ pitch 2000;
#X msg 291 119 \$1 200;
#X obj 18 68 inlet~;
#X obj 74 220 outlet~;
#X obj 291 -53 receive fromGUI;
#X obj 291 -32 route list;
#X floatatom 291 10 5 0 0 0 - - -, f 5;
#X obj 507 -57 receive fromGUI;
#X obj 507 -36 route list;
#X text 223 81 Delay Time;
#X text 414 63 Delay Feedback;
#X obj 385 116 r~ pitch;
#X obj 60 174 *~;
#X obj 101 172 *~;
#X obj 128 78 expr 1 - $f1;
#X obj 141 49 hsl 90 15 0 1 0 0 empty empty empty -2 -8 0 10 -262144
-1 -1 4450 1;
#X floatatom 171 116 5 0 0 0 - - -, f 5;
#X text 185 27 wet/dry;
#X obj 138 0 loadbang;
#X msg 138 24 0.5;
#X obj 291 28 * 14;
#X obj 291 -11 route /dtime;
#X obj 507 -16 route /dback;
#X obj 507 3 / 127;
#X obj 588 178 metro 500;
#X obj 588 205 random 2000;
#X obj 653 110 vsl 15 50 100 2000 0 0 empty empty empty 0 -9 0 10 -262144
-1 -1 4900 1;
#X obj 588 155 loadbang;
#X obj 653 84 * 70;
#X obj 653 -45 receive fromGUI;
#X obj 653 -25 route list;
#X obj 588 352 send toGUI;
#X msg 588 251 list /dtime \$1;
#X obj 588 229 / 14;
#X obj 653 63 * 127;
#X obj 653 42 expr 1 - $f1;
#X obj 653 19 / 127;
#X obj 588 291 spigot;
#X floatatom 669 294 5 0 0 0 - - -, f 5;
#X obj 689 209 receive fromGUI;
#X obj 689 232 route list;
#X obj 689 255 route /tog;
#X obj 653 -5 route /vdelay;
#X connect 0 0 5 0;
#X connect 1 0 5 1;
#X connect 3 0 7 0;
#X connect 4 0 0 0;
#X connect 5 0 6 0;
#X connect 5 0 19 0;
#X connect 7 0 4 0;
#X connect 8 0 2 0;
#X connect 8 0 18 0;
#X connect 10 0 11 0;
#X connect 11 0 27 0;
#X connect 12 0 26 0;
#X connect 13 0 14 0;
#X connect 14 0 28 0;
#X connect 17 0 6 0;
#X connect 18 0 9 0;
#X connect 19 0 9 0;
#X connect 20 0 18 1;
#X connect 21 0 20 0;
#X connect 21 0 22 0;
#X connect 22 0 19 1;
#X connect 24 0 25 0;
#X connect 25 0 21 0;
#X connect 26 0 3 0;
#X connect 27 0 12 0;
#X connect 28 0 29 0;
#X connect 29 0 1 0;
#X connect 30 0 31 0;
#X connect 31 0 39 0;
#X connect 32 0 30 1;
#X connect 33 0 30 0;
#X connect 34 0 32 0;
#X connect 35 0 36 0;
#X connect 36 0 48 0;
#X connect 38 0 43 0;
#X connect 39 0 38 0;
#X connect 40 0 34 0;
#X connect 41 0 40 0;
#X connect 42 0 41 0;
#X connect 43 0 37 0;
#X connect 44 0 43 1;
#X connect 45 0 46 0;
#X connect 46 0 47 0;
#X connect 47 0 44 0;
#X connect 48 0 42 0;
#X restore 302 397 pd delayUnit;
#X obj 148 167 loadbang;
#N canvas 731 71 699 446 midicontrols 0;
#X obj 133 242 send toGUI;
#X msg 133 220 list /metro \$1;
#X obj 228 241 send toGUI;
#X msg 228 219 list /pitch \$1;
#X obj 434 241 send toGUI;
#X obj 328 239 send toGUI;
#X msg 328 217 list /tremo \$1;
#X obj 133 318 send toGUI;
#X obj 228 317 send toGUI;
#X obj 325 316 send toGUI;
#X obj 427 318 send toGUI;
#X msg 133 296 list /dtime \$1;
#X msg 228 295 list /dback \$1;
#X msg 325 294 list /cut \$1;
#X msg 427 296 list /vol \$1;
#X obj 304 114 loadbang;
#X msg 304 136 63.5;
#X obj 133 198 ctlin 1 1;
#X obj 228 197 ctlin 2 1;
#X obj 133 274 ctlin 5 1;
#X obj 228 273 ctlin 6 1;
#X obj 325 272 ctlin 7 1;
#X obj 427 274 ctlin 8 1;
#X obj 328 195 ctlin 3 1;
#X msg 434 219 list /vdelay \$1;
#X obj 434 197 ctlin 4 1;
#X connect 1 0 0 0;
#X connect 3 0 2 0;
#X connect 6 0 5 0;
#X connect 11 0 7 0;
#X connect 12 0 8 0;
#X connect 13 0 9 0;
#X connect 14 0 10 0;
#X connect 15 0 16 0;
#X connect 16 0 1 0;
#X connect 16 0 3 0;
#X connect 16 0 24 0;
#X connect 16 0 6 0;
#X connect 16 0 14 0;
#X connect 16 0 13 0;
#X connect 16 0 12 0;
#X connect 16 0 11 0;
#X connect 17 0 1 0;
#X connect 18 0 3 0;
#X connect 19 0 11 0;
#X connect 20 0 12 0;
#X connect 21 0 13 0;
#X connect 22 0 14 0;
#X connect 23 0 6 0;
#X connect 24 0 4 0;
#X connect 25 0 24 0;
#X restore 332 18 pd midicontrols;
#X obj 334 305 phasor~;
#X obj 211 65 * 127;
#X obj 211 44 expr 1 - $f1;
#X obj 211 21 / 127;
#X floatatom 417 343 5 0 0 0 - - -, f 5;
#X obj 487 293 / 5;
#X connect 0 0 29 0;
#X connect 2 0 3 0;
#X connect 3 0 40 0;
#X connect 4 0 14 0;
#X connect 4 0 47 0;
#X connect 5 0 32 0;
#X connect 5 0 30 0;
#X connect 5 0 36 0;
#X connect 5 0 38 0;
#X connect 6 0 13 0;
#X connect 7 0 6 1;
#X connect 8 0 7 0;
#X connect 9 0 8 0;
#X connect 10 0 9 0;
#X connect 11 0 12 0;
#X connect 12 0 3 1;
#X connect 13 0 1 1;
#X connect 13 0 1 0;
#X connect 14 0 11 0;
#X connect 15 0 16 0;
#X connect 16 0 17 0;
#X connect 17 0 10 0;
#X connect 18 0 19 0;
#X connect 19 0 20 0;
#X connect 20 0 48 0;
#X connect 21 0 22 0;
#X connect 22 0 23 0;
#X connect 23 0 34 0;
#X connect 24 0 25 0;
#X connect 25 0 26 0;
#X connect 26 0 46 0;
#X connect 27 0 2 0;
#X connect 28 0 0 1;
#X connect 29 0 43 0;
#X connect 30 0 31 0;
#X connect 31 0 2 0;
#X connect 32 0 2 0;
#X connect 34 0 5 0;
#X connect 34 0 33 0;
#X connect 35 0 28 0;
#X connect 36 0 37 0;
#X connect 37 0 2 0;
#X connect 38 0 27 0;
#X connect 39 0 6 0;
#X connect 40 0 39 0;
#X connect 41 0 0 0;
#X connect 43 0 2 1;
#X connect 44 0 35 0;
#X connect 45 0 44 0;
#X connect 46 0 45 0;
#X connect 48 0 4 0;
