#N canvas 372 130 652 512 10;
#X obj 267 337 line~;
#X obj 267 314 pack 0 50;
#X obj 267 265 / 127;
#X obj 267 198 receive fromGUI;
#X obj 267 220 route list;
#N canvas 45 26 1280 699 ss 0;
#X text -76 37 Bank One;
#X text 620 38 Bank Two;
#X obj 550 704 outlet~;
#X obj 945 93 samp 74 /btn27 kick_12.wav;
#X obj -79 151 samp 48 /btn1 kick_01.wav;
#X obj -89 65 samp 60 /btn13 snare_04.wav;
#X obj 81 65 samp 61 /btn14 snare_05.wav;
#X obj 251 65 samp 62 /btn15 snare_06.wav;
#X obj 421 65 samp 63 /btn16 crash_01.wav;
#X obj 409 94 samp 59 /btn12 hh_03.wav;
#X obj 245 94 samp 58 /btn11 kick_06.wav;
#X obj 81 94 samp 57 /btn10 kick_05.wav;
#X obj -79 94 samp 56 /btn9 kick_04.wav;
#X obj -85 122 samp 52 /btn5 snare_01.wav;
#X obj 81 122 samp 53 /btn6 snare_02.wav;
#X obj 246 122 samp 54 /btn7 snare_03.wav;
#X obj 409 122 samp 55 /btn8 hh_02.wav;
#X obj 403 151 samp 51 /btn4 hh_01.wav;
#X obj 240 151 samp 50 /btn3 kick_03.wav;
#X obj 81 151 samp 49 /btn2 kick_02.wav;
#X obj 605 64 samp 76 /btn29 snare_10.wav;
#X obj 781 64 samp 77 /btn30 snare_11.wav;
#X obj 951 64 samp 78 /btn31 snare_12.wav;
#X obj 1125 64 samp 79 /btn32 crash_02.wav;
#X obj 1109 93 samp 75 /btn28 hh_06.wav;
#X obj 781 93 samp 73 /btn26 kick_11.wav;
#X obj 612 93 samp 72 /btn25 kick_10.wav;
#X obj 610 121 samp 68 /btn21 snare_07.wav;
#X obj 615 150 samp 64 /btn17 kick_07.wav;
#X obj 781 150 samp 65 /btn18 kick_08.wav;
#X obj 781 121 samp 69 /btn22 snare_08.wav;
#X obj 955 121 samp 70 /btn23 snare_09.wav;
#X obj 951 150 samp 66 /btn19 kick_09.wav;
#X obj 1114 150 samp 67 /btn20 hh_04.wav;
#X obj 1127 121 samp 71 /btn24 hh_05.wav;
#X connect 3 0 2 0;
#X connect 4 0 2 0;
#X connect 5 0 2 0;
#X connect 6 0 2 0;
#X connect 7 0 2 0;
#X connect 8 0 2 0;
#X connect 9 0 2 0;
#X connect 10 0 2 0;
#X connect 11 0 2 0;
#X connect 12 0 2 0;
#X connect 13 0 2 0;
#X connect 14 0 2 0;
#X connect 15 0 2 0;
#X connect 16 0 2 0;
#X connect 17 0 2 0;
#X connect 18 0 2 0;
#X connect 19 0 2 0;
#X connect 20 0 2 0;
#X connect 21 0 2 0;
#X connect 22 0 2 0;
#X connect 23 0 2 0;
#X connect 24 0 2 0;
#X connect 25 0 2 0;
#X connect 26 0 2 0;
#X connect 27 0 2 0;
#X connect 28 0 2 0;
#X connect 29 0 2 0;
#X connect 30 0 2 0;
#X connect 31 0 2 0;
#X connect 32 0 2 0;
#X connect 33 0 2 0;
#X connect 34 0 2 0;
#X restore 304 73 pd ss;
#X obj 140 371 *~;
#X obj 383 197 loadbang;
#X obj 270 291 hsl 50 15 0 1 0 0 empty empty empty -2 -8 0 10 -262144
-1 -1 2546 1;
#X obj 383 245 send toGUI;
#X obj 140 426 outlet~;
#N canvas 204 23 600 720 drumDelayDie 0;
#X obj 369 476 vsl 15 50 0 1 0 1 empty dieback empty 0 -9 0 10 -262144
-1 -1 3511 1;
#X obj 199 443 vline~;
#X obj 306 553 *~;
#X obj 74 466 inlet~;
#X obj 74 648 outlet~;
#X text 399 561 Delay Feedback;
#X obj 74 602 *~;
#X obj 115 600 *~;
#X obj 369 375 receive fromGUI;
#X obj 369 406 route list;
#X obj 369 449 / 127;
#X obj 211 80 metro 50;
#X obj 293 12 receive ms;
#X obj 369 426 route /drumPitch;
#X obj 321 616 delwrite~ drumpitchdie 2000;
#X obj 199 467 vd~ drumpitchdie;
#X obj 89 535 loadbang;
#X msg 89 566 0.5;
#X msg 130 565 0.5;
#X obj 342 142 r ms;
#X obj 342 175 \$1;
#X msg 298 142 bang;
#X obj 115 263 spigot;
#X obj 162 263 spigot;
#X obj 208 263 spigot;
#X obj 252 263 spigot;
#X obj 296 263 spigot;
#X floatatom 131 172 5 0 0 0 - - -, f 5;
#X floatatom 199 355 10 0 0 0 - - -, f 10;
#X msg 211 50 bang;
#X obj 66 206 == 0;
#X obj 99 206 == 1;
#X obj 131 206 == 2;
#X obj 165 206 == 3;
#X obj 197 206 == 4;
#X obj 131 148 random 5;
#X obj 231 206 == 5;
#X obj 341 263 spigot;
#X msg 98 113 seed 2;
#X text 264 355 Delay Time;
#X msg 199 421 \$1 \$1;
#X obj 486 407 loadbang;
#X msg 486 429 0;
#X obj 211 20 r f;
#X obj 293 41 / 16;
#X obj 273 206 / 64;
#X obj 306 206 / 32;
#X obj 338 206 / 16;
#X obj 372 206 / 8;
#X obj 399 206 / 4;
#X obj 427 206 / 2;
#X connect 0 0 2 1;
#X connect 1 0 15 0;
#X connect 2 0 7 0;
#X connect 2 0 14 0;
#X connect 3 0 6 0;
#X connect 3 0 14 0;
#X connect 6 0 4 0;
#X connect 7 0 4 0;
#X connect 8 0 9 0;
#X connect 9 0 13 0;
#X connect 10 0 0 0;
#X connect 11 0 21 0;
#X connect 11 0 35 0;
#X connect 12 0 44 0;
#X connect 13 0 10 0;
#X connect 15 0 2 0;
#X connect 16 0 18 0;
#X connect 16 0 17 0;
#X connect 17 0 6 1;
#X connect 18 0 7 1;
#X connect 19 0 20 0;
#X connect 20 0 45 0;
#X connect 20 0 46 0;
#X connect 20 0 47 0;
#X connect 20 0 48 0;
#X connect 20 0 49 0;
#X connect 20 0 50 0;
#X connect 21 0 20 0;
#X connect 22 0 28 0;
#X connect 23 0 28 0;
#X connect 24 0 28 0;
#X connect 25 0 28 0;
#X connect 26 0 28 0;
#X connect 27 0 30 0;
#X connect 27 0 31 0;
#X connect 27 0 32 0;
#X connect 27 0 33 0;
#X connect 27 0 34 0;
#X connect 27 0 36 0;
#X connect 28 0 40 0;
#X connect 29 0 11 0;
#X connect 29 0 38 0;
#X connect 30 0 22 1;
#X connect 31 0 23 1;
#X connect 32 0 24 1;
#X connect 33 0 25 1;
#X connect 34 0 26 1;
#X connect 35 0 27 0;
#X connect 36 0 37 1;
#X connect 37 0 28 0;
#X connect 38 0 35 0;
#X connect 40 0 1 0;
#X connect 41 0 42 0;
#X connect 42 0 0 0;
#X connect 43 0 29 0;
#X connect 44 0 11 1;
#X connect 45 0 22 0;
#X connect 46 0 23 0;
#X connect 47 0 24 0;
#X connect 48 0 25 0;
#X connect 49 0 26 0;
#X connect 50 0 37 0;
#X restore 100 172 pd drumDelayDie;
#N canvas 228 203 436 385 drumDist 0;
#X obj 14 13 inlet~;
#X obj 91 317 outlet~;
#X obj 93 61 *~ 40;
#X obj 134 116 clip~ -0.5 0.5;
#X obj 71 201 *~;
#X obj 128 201 *~;
#X obj 252 157 expr 1 - $f1;
#X obj 255 128 hsl 90 15 0 1 0 0 empty distmix empty -2 -8 0 10 -262144
-1 -1 0 1;
#X obj 254 37 receive fromGUI;
#X obj 254 58 route list;
#X obj 254 97 / 127;
#X obj 254 78 route /drumDist;
#X obj 98 134 loadbang;
#X msg 82 166 1;
#X msg 113 165 0;
#X obj 137 249 *~ 0.3;
#X connect 0 0 2 0;
#X connect 0 0 4 0;
#X connect 2 0 3 0;
#X connect 3 0 5 0;
#X connect 4 0 1 0;
#X connect 5 0 15 0;
#X connect 6 0 4 1;
#X connect 7 0 6 0;
#X connect 7 0 5 1;
#X connect 8 0 9 0;
#X connect 9 0 11 0;
#X connect 10 0 7 0;
#X connect 11 0 10 0;
#X connect 12 0 14 0;
#X connect 12 0 13 0;
#X connect 13 0 4 1;
#X connect 14 0 5 1;
#X connect 15 0 1 0;
#X restore 100 196 pd drumDist;
#N canvas 211 72 474 414 drumVerb 0;
#X obj 51 375 outlet~;
#X obj 55 266 inlet~;
#X obj 310 293 expr 1 - $f1;
#X obj 311 139 receive fromGUI;
#X obj 311 160 route list;
#X obj 311 183 route /drumVerbMix;
#X obj 296 59 loadbang;
#X obj 112 119 hsl 128 15 0 1 0 1 empty empty 'roomsize' 20 8 0 10
-262144 -260097 -1 12300 0;
#X obj 127 162 hsl 128 15 0 2.4 0 1 empty empty damp 20 8 0 10 -262144
-260097 -1 0 0;
#X floatatom 118 140 5 0 0 0 - - -, f 5;
#X floatatom 133 182 5 0 0 0 - - -, f 5;
#X obj 157 255 hsl 128 15 0 1 0 1 empty empty wet 20 8 0 10 -262144
-260097 -1 3075 0;
#X obj 142 205 hsl 128 15 0 1 0 1 empty empty dry 20 8 0 10 -262144
-260097 -1 9625 0;
#X floatatom 168 278 5 0 0 0 - - -, f 5;
#X floatatom 147 229 5 0 0 0 - - -, f 5;
#N canvas 92 310 634 321 vfreeverb~ 0;
#N canvas 261 41 778 367 combfilters-left1 0;
#X obj 46 244 +~;
#X obj 61 219 *~ 0.3;
#X obj 61 194 lop~ 1000;
#X obj 231 244 +~;
#X obj 246 219 *~ 0.3;
#X obj 246 194 lop~ 1000;
#X obj 429 218 *~ 0.3;
#X obj 429 193 lop~ 1000;
#X obj 414 241 +~;
#X obj 610 218 *~ 0.3;
#X obj 610 193 lop~ 1000;
#X obj 595 241 +~;
#X obj 61 141 delread~ \$0-comb1left;
#X obj 246 142 delread~ \$0-comb2left;
#X obj 429 141 delread~ \$0-comb3left;
#X obj 610 141 delread~ \$0-comb4left;
#X obj 46 268 delwrite~ \$0-comb1left 100;
#X obj 231 268 delwrite~ \$0-comb2left 100;
#X obj 414 267 delwrite~ \$0-comb3left 100;
#X obj 595 267 delwrite~ \$0-comb4left 100;
#X obj 61 97 r \$0-comb1left;
#X obj 246 97 r \$0-comb2left;
#X obj 429 95 r \$0-comb3left;
#X obj 610 96 r \$0-comb4left;
#X obj 112 170 r \$0-frequency;
#X obj 297 170 r \$0-frequency;
#X obj 480 167 r \$0-frequency;
#X obj 661 167 r \$0-frequency;
#X obj 46 28 inlet~;
#X obj 338 326 outlet~;
#X floatatom 70 119 5 0 0 0 - - -, f 5;
#X floatatom 255 121 5 0 0 0 - - -, f 5;
#X floatatom 439 119 5 0 0 0 - - -, f 5;
#X floatatom 622 121 5 0 0 0 - - -, f 5;
#X obj 279 58 clip 0 0.99;
#X obj 279 29 r \$0-room;
#X connect 0 0 16 0;
#X connect 1 0 0 1;
#X connect 2 0 1 0;
#X connect 2 0 29 0;
#X connect 3 0 17 0;
#X connect 4 0 3 1;
#X connect 5 0 4 0;
#X connect 5 0 29 0;
#X connect 6 0 8 1;
#X connect 7 0 6 0;
#X connect 7 0 29 0;
#X connect 8 0 18 0;
#X connect 9 0 11 1;
#X connect 10 0 9 0;
#X connect 10 0 29 0;
#X connect 11 0 19 0;
#X connect 12 0 2 0;
#X connect 13 0 5 0;
#X connect 14 0 7 0;
#X connect 15 0 10 0;
#X connect 20 0 12 0;
#X connect 20 0 30 0;
#X connect 21 0 13 0;
#X connect 21 0 31 0;
#X connect 22 0 14 0;
#X connect 22 0 32 0;
#X connect 23 0 15 0;
#X connect 23 0 33 0;
#X connect 24 0 2 1;
#X connect 25 0 5 1;
#X connect 26 0 7 1;
#X connect 27 0 10 1;
#X connect 28 0 0 0;
#X connect 28 0 3 0;
#X connect 28 0 8 0;
#X connect 28 0 11 0;
#X connect 34 0 1 1;
#X connect 34 0 4 1;
#X connect 34 0 6 1;
#X connect 34 0 9 1;
#X connect 35 0 34 0;
#X restore 15 100 pd combfilters-left1;
#N canvas 27 56 358 650 diffusor-left 0;
#X obj 51 107 *~ 0.5;
#X obj 36 132 +~;
#X obj 66 132 -~;
#X obj 36 26 inlet~;
#X obj 81 238 *~ 0.5;
#X obj 66 263 +~;
#X obj 96 263 -~;
#X obj 111 368 *~ 0.5;
#X obj 96 393 +~;
#X obj 126 393 -~;
#X obj 141 498 *~ 0.5;
#X obj 126 523 +~;
#X obj 156 523 -~;
#X obj 156 605 outlet~;
#X text 95 28 freeverb's diffusor;
#X obj 156 576 hip~ 5;
#X floatatom 214 70 5 0 0 0 - - -, f 5;
#X floatatom 246 203 5 0 0 0 - - -, f 5;
#X floatatom 280 334 5 0 0 0 - - -, f 5;
#X floatatom 304 464 5 0 0 0 - - -, f 5;
#X obj 51 53 r \$0-allpass1left;
#X obj 51 80 delread~ \$0-allpass1left;
#X obj 36 158 delwrite~ \$0-allpass1left 40;
#X obj 81 186 r \$0-allpass2left;
#X obj 81 211 delread~ \$0-allpass2left;
#X obj 66 290 delwrite~ \$0-allpass2left 40;
#X obj 111 317 r \$0-allpass3left;
#X obj 111 341 delread~ \$0-allpass3left;
#X obj 96 420 delwrite~ \$0-allpass3left 40;
#X obj 141 447 r \$0-allpass4left;
#X obj 141 471 delread~ \$0-allpass4left;
#X obj 126 550 delwrite~ \$0-allpass4left 40;
#X connect 0 0 1 1;
#X connect 1 0 22 0;
#X connect 2 0 5 0;
#X connect 2 0 6 1;
#X connect 3 0 1 0;
#X connect 3 0 2 1;
#X connect 4 0 5 1;
#X connect 5 0 25 0;
#X connect 6 0 8 0;
#X connect 6 0 9 1;
#X connect 7 0 8 1;
#X connect 8 0 28 0;
#X connect 9 0 11 0;
#X connect 9 0 12 1;
#X connect 10 0 11 1;
#X connect 11 0 31 0;
#X connect 12 0 15 0;
#X connect 15 0 13 0;
#X connect 20 0 16 0;
#X connect 20 0 21 0;
#X connect 21 0 0 0;
#X connect 21 0 2 0;
#X connect 23 0 17 0;
#X connect 23 0 24 0;
#X connect 24 0 4 0;
#X connect 24 0 6 0;
#X connect 26 0 18 0;
#X connect 26 0 27 0;
#X connect 27 0 7 0;
#X connect 27 0 9 0;
#X connect 29 0 19 0;
#X connect 29 0 30 0;
#X connect 30 0 10 0;
#X connect 30 0 12 0;
#X restore 15 168 pd diffusor-left;
#N canvas 312 366 778 367 combfilters-left2 0;
#X obj 46 244 +~;
#X obj 61 219 *~ 0.3;
#X obj 61 194 lop~ 1000;
#X obj 231 244 +~;
#X obj 246 219 *~ 0.3;
#X obj 246 194 lop~ 1000;
#X obj 429 218 *~ 0.3;
#X obj 429 193 lop~ 1000;
#X obj 414 241 +~;
#X obj 610 218 *~ 0.3;
#X obj 610 193 lop~ 1000;
#X obj 595 241 +~;
#X obj 112 170 r \$0-frequency;
#X obj 297 170 r \$0-frequency;
#X obj 480 167 r \$0-frequency;
#X obj 661 167 r \$0-frequency;
#X obj 46 28 inlet~;
#X obj 338 326 outlet~;
#X obj 61 90 r \$0-comb5left;
#X obj 61 141 delread~ \$0-comb5left;
#X obj 46 268 delwrite~ \$0-comb5left 100;
#X obj 246 90 r \$0-comb6left;
#X obj 246 142 delread~ \$0-comb6left;
#X obj 231 268 delwrite~ \$0-comb6left 100;
#X obj 429 88 r \$0-comb7left;
#X obj 429 141 delread~ \$0-comb7left;
#X obj 414 267 delwrite~ \$0-comb7left 100;
#X obj 610 89 r \$0-comb8left;
#X obj 610 141 delread~ \$0-comb8left;
#X obj 595 267 delwrite~ \$0-comb8left 100;
#X floatatom 70 116 5 0 0 0 - - -, f 5;
#X floatatom 261 118 5 0 0 0 - - -, f 5;
#X floatatom 440 117 5 0 0 0 - - -, f 5;
#X floatatom 620 116 5 0 0 0 - - -, f 5;
#X obj 279 58 clip 0 0.99;
#X obj 279 28 r \$0-room;
#X connect 0 0 20 0;
#X connect 1 0 0 1;
#X connect 2 0 1 0;
#X connect 2 0 17 0;
#X connect 3 0 23 0;
#X connect 4 0 3 1;
#X connect 5 0 4 0;
#X connect 5 0 17 0;
#X connect 6 0 8 1;
#X connect 7 0 6 0;
#X connect 7 0 17 0;
#X connect 8 0 26 0;
#X connect 9 0 11 1;
#X connect 10 0 9 0;
#X connect 10 0 17 0;
#X connect 11 0 29 0;
#X connect 12 0 2 1;
#X connect 13 0 5 1;
#X connect 14 0 7 1;
#X connect 15 0 10 1;
#X connect 16 0 0 0;
#X connect 16 0 3 0;
#X connect 16 0 8 0;
#X connect 16 0 11 0;
#X connect 18 0 19 0;
#X connect 18 0 30 0;
#X connect 19 0 2 0;
#X connect 21 0 22 0;
#X connect 21 0 31 0;
#X connect 22 0 5 0;
#X connect 24 0 25 0;
#X connect 24 0 32 0;
#X connect 25 0 7 0;
#X connect 27 0 28 0;
#X connect 27 0 33 0;
#X connect 28 0 10 0;
#X connect 34 0 1 1;
#X connect 34 0 4 1;
#X connect 34 0 6 1;
#X connect 34 0 9 1;
#X connect 35 0 34 0;
#X restore 36 134 pd combfilters-left2;
#N canvas 261 41 778 367 combfilters-right1 0;
#X obj 46 244 +~;
#X obj 61 219 *~ 0.3;
#X obj 61 194 lop~ 1000;
#X obj 231 244 +~;
#X obj 246 219 *~ 0.3;
#X obj 246 194 lop~ 1000;
#X obj 429 218 *~ 0.3;
#X obj 429 193 lop~ 1000;
#X obj 414 241 +~;
#X obj 610 218 *~ 0.3;
#X obj 610 193 lop~ 1000;
#X obj 595 241 +~;
#X obj 112 170 r \$0-frequency;
#X obj 297 170 r \$0-frequency;
#X obj 480 167 r \$0-frequency;
#X obj 661 167 r \$0-frequency;
#X obj 46 28 inlet~;
#X obj 338 326 outlet~;
#X floatatom 70 119 5 0 0 0 - - -, f 5;
#X floatatom 255 121 5 0 0 0 - - -, f 5;
#X floatatom 439 119 5 0 0 0 - - -, f 5;
#X floatatom 622 121 5 0 0 0 - - -, f 5;
#X obj 61 141 delread~ \$0-comb1right;
#X obj 246 142 delread~ \$0-comb2right;
#X obj 429 141 delread~ \$0-comb3right;
#X obj 610 141 delread~ \$0-comb4right;
#X obj 61 97 r \$0-comb1right;
#X obj 246 97 r \$0-comb2right;
#X obj 429 95 r \$0-comb3right;
#X obj 610 97 r \$0-comb4right;
#X obj 46 268 delwrite~ \$0-comb1right 100;
#X obj 231 268 delwrite~ \$0-comb2right 100;
#X obj 414 267 delwrite~ \$0-comb3right 100;
#X obj 595 267 delwrite~ \$0-comb4right 100;
#X obj 279 58 clip 0 0.99;
#X obj 279 28 r \$0-room;
#X connect 0 0 30 0;
#X connect 1 0 0 1;
#X connect 2 0 1 0;
#X connect 2 0 17 0;
#X connect 3 0 31 0;
#X connect 4 0 3 1;
#X connect 5 0 4 0;
#X connect 5 0 17 0;
#X connect 6 0 8 1;
#X connect 7 0 6 0;
#X connect 7 0 17 0;
#X connect 8 0 32 0;
#X connect 9 0 11 1;
#X connect 10 0 9 0;
#X connect 10 0 17 0;
#X connect 11 0 33 0;
#X connect 12 0 2 1;
#X connect 13 0 5 1;
#X connect 14 0 7 1;
#X connect 15 0 10 1;
#X connect 16 0 0 0;
#X connect 16 0 3 0;
#X connect 16 0 8 0;
#X connect 16 0 11 0;
#X connect 22 0 2 0;
#X connect 23 0 5 0;
#X connect 24 0 7 0;
#X connect 25 0 10 0;
#X connect 26 0 18 0;
#X connect 26 0 22 0;
#X connect 27 0 19 0;
#X connect 27 0 23 0;
#X connect 28 0 20 0;
#X connect 28 0 24 0;
#X connect 29 0 21 0;
#X connect 29 0 25 0;
#X connect 34 0 1 1;
#X connect 34 0 4 1;
#X connect 34 0 6 1;
#X connect 34 0 9 1;
#X connect 35 0 34 0;
#X restore 208 99 pd combfilters-right1;
#N canvas 312 366 778 367 combfilters-right2 0;
#X obj 46 244 +~;
#X obj 61 219 *~ 0.3;
#X obj 61 194 lop~ 1000;
#X obj 231 244 +~;
#X obj 246 219 *~ 0.3;
#X obj 246 194 lop~ 1000;
#X obj 429 218 *~ 0.3;
#X obj 429 193 lop~ 1000;
#X obj 414 241 +~;
#X obj 610 218 *~ 0.3;
#X obj 610 193 lop~ 1000;
#X obj 595 241 +~;
#X obj 112 170 r \$0-frequency;
#X obj 297 170 r \$0-frequency;
#X obj 480 167 r \$0-frequency;
#X obj 661 167 r \$0-frequency;
#X obj 46 28 inlet~;
#X obj 338 326 outlet~;
#X floatatom 70 116 5 0 0 0 - - -, f 5;
#X floatatom 261 118 5 0 0 0 - - -, f 5;
#X floatatom 440 117 5 0 0 0 - - -, f 5;
#X floatatom 620 116 5 0 0 0 - - -, f 5;
#X obj 279 58 clip 0 0.99;
#X obj 61 90 r \$0-comb5right;
#X obj 246 90 r \$0-comb6right;
#X obj 429 88 r \$0-comb7right;
#X obj 610 89 r \$0-comb8right;
#X obj 61 141 delread~ \$0-comb5right;
#X obj 246 142 delread~ \$0-comb6right;
#X obj 429 141 delread~ \$0-comb7right;
#X obj 610 141 delread~ \$0-comb8right;
#X obj 46 268 delwrite~ \$0-comb5right 100;
#X obj 231 268 delwrite~ \$0-comb6right 100;
#X obj 414 267 delwrite~ \$0-comb7right 100;
#X obj 595 267 delwrite~ \$0-comb8right 100;
#X obj 279 28 r \$0-room;
#X connect 0 0 31 0;
#X connect 1 0 0 1;
#X connect 2 0 1 0;
#X connect 2 0 17 0;
#X connect 3 0 32 0;
#X connect 4 0 3 1;
#X connect 5 0 4 0;
#X connect 5 0 17 0;
#X connect 6 0 8 1;
#X connect 7 0 6 0;
#X connect 7 0 17 0;
#X connect 8 0 33 0;
#X connect 9 0 11 1;
#X connect 10 0 9 0;
#X connect 10 0 17 0;
#X connect 11 0 34 0;
#X connect 12 0 2 1;
#X connect 13 0 5 1;
#X connect 14 0 7 1;
#X connect 15 0 10 1;
#X connect 16 0 0 0;
#X connect 16 0 3 0;
#X connect 16 0 8 0;
#X connect 16 0 11 0;
#X connect 22 0 1 1;
#X connect 22 0 4 1;
#X connect 22 0 6 1;
#X connect 22 0 9 1;
#X connect 23 0 18 0;
#X connect 23 0 27 0;
#X connect 24 0 19 0;
#X connect 24 0 28 0;
#X connect 25 0 20 0;
#X connect 25 0 29 0;
#X connect 26 0 21 0;
#X connect 26 0 30 0;
#X connect 27 0 2 0;
#X connect 28 0 5 0;
#X connect 29 0 7 0;
#X connect 30 0 10 0;
#X connect 35 0 22 0;
#X restore 225 133 pd combfilters-right2;
#N canvas 27 56 358 650 diffusor-right 0;
#X obj 51 107 *~ 0.5;
#X obj 36 132 +~;
#X obj 66 132 -~;
#X obj 36 26 inlet~;
#X obj 81 238 *~ 0.5;
#X obj 66 263 +~;
#X obj 96 263 -~;
#X obj 111 368 *~ 0.5;
#X obj 96 393 +~;
#X obj 126 393 -~;
#X obj 141 498 *~ 0.5;
#X obj 126 523 +~;
#X obj 156 523 -~;
#X obj 156 605 outlet~;
#X text 95 28 freeverb's diffusor;
#X obj 156 576 hip~ 5;
#X floatatom 214 70 5 0 0 0 - - -, f 5;
#X floatatom 244 203 5 0 0 0 - - -, f 5;
#X floatatom 280 334 5 0 0 0 - - -, f 5;
#X floatatom 304 464 5 0 0 0 - - -, f 5;
#X obj 51 53 r \$0-allpass1right;
#X obj 51 80 delread~ \$0-allpass1right;
#X obj 36 158 delwrite~ \$0-allpass1right 40;
#X obj 81 186 r \$0-allpass2right;
#X obj 81 211 delread~ \$0-allpass2right;
#X obj 66 290 delwrite~ \$0-allpass2right 40;
#X obj 111 317 r \$0-allpass3right;
#X obj 111 341 delread~ \$0-allpass3right;
#X obj 96 420 delwrite~ \$0-allpass3right 40;
#X obj 141 447 r \$0-allpass4right;
#X obj 141 471 delread~ \$0-allpass4right;
#X obj 126 550 delwrite~ \$0-allpass4right 40;
#X connect 0 0 1 1;
#X connect 1 0 22 0;
#X connect 2 0 5 0;
#X connect 2 0 6 1;
#X connect 3 0 1 0;
#X connect 3 0 2 1;
#X connect 4 0 5 1;
#X connect 5 0 25 0;
#X connect 6 0 8 0;
#X connect 6 0 9 1;
#X connect 7 0 8 1;
#X connect 8 0 28 0;
#X connect 9 0 11 0;
#X connect 9 0 12 1;
#X connect 10 0 11 1;
#X connect 11 0 31 0;
#X connect 12 0 15 0;
#X connect 15 0 13 0;
#X connect 20 0 16 0;
#X connect 20 0 21 0;
#X connect 21 0 0 0;
#X connect 21 0 2 0;
#X connect 23 0 17 0;
#X connect 23 0 24 0;
#X connect 24 0 4 0;
#X connect 24 0 6 0;
#X connect 26 0 18 0;
#X connect 26 0 27 0;
#X connect 27 0 7 0;
#X connect 27 0 9 0;
#X connect 29 0 19 0;
#X connect 29 0 30 0;
#X connect 30 0 10 0;
#X connect 30 0 12 0;
#X restore 208 169 pd diffusor-right;
#X obj 208 61 *~ 0.015;
#X obj 15 226 *~ 1;
#X obj 208 228 *~ 1;
#X obj 94 228 *~ 1;
#X obj 169 228 *~ 1;
#X obj 115 202 r \$0-dry;
#X obj 229 203 r \$0-wet;
#X obj 36 201 r \$0-wet;
#X obj 94 14 inlet~;
#X obj 208 14 inlet~;
#X obj 15 268 outlet~;
#X obj 169 269 outlet~;
#X obj 312 14 inlet;
#X obj 374 14 inlet;
#X obj 462 14 inlet;
#X obj 544 16 inlet;
#N canvas 0 22 207 207 room 0;
#X obj 32 35 inlet;
#X obj 32 63 * 0.28;
#X obj 32 94 + 0.7;
#X obj 32 160 outlet;
#X text 80 65 scaleroom;
#X text 76 94 offsetroom;
#X obj 47 126 s \$0-room;
#X connect 0 0 1 0;
#X connect 1 0 2 0;
#X connect 2 0 3 0;
#X connect 2 0 6 0;
#X restore 312 45 pd room;
#N canvas 684 169 244 376 frequency 0;
#X obj 60 222 samplerate~;
#X obj 33 8 inlet;
#X obj 33 194 t f b;
#X obj 33 249 *;
#X obj 53 303 s \$0-frequency;
#X obj 33 327 outlet;
#X obj 33 64 * 0.4;
#X text 76 66 scaledamp;
#X obj 33 90 t b f;
#X obj 33 141 -;
#X msg 33 116 1;
#X obj 33 168 abs;
#X obj 33 275 * 0.5;
#X text 153 303 for [lop~];
#X obj 33 38 clip 0 2.4;
#X connect 0 0 3 1;
#X connect 1 0 14 0;
#X connect 2 0 3 0;
#X connect 2 1 0 0;
#X connect 3 0 12 0;
#X connect 6 0 8 0;
#X connect 8 0 10 0;
#X connect 8 1 9 1;
#X connect 9 0 11 0;
#X connect 10 0 9 0;
#X connect 11 0 2 0;
#X connect 12 0 5 0;
#X connect 12 0 4 0;
#X connect 14 0 6 0;
#X restore 374 45 pd frequency;
#N canvas 0 22 170 187 scalewet 0;
#X obj 22 42 inlet;
#X obj 22 143 outlet;
#X obj 22 73 * 3;
#X text 49 74 scalewet;
#X obj 40 112 s \$0-wet;
#X connect 0 0 2 0;
#X connect 2 0 1 0;
#X connect 2 0 4 0;
#X restore 544 45 pd scalewet;
#N canvas 0 22 220 198 scaledry 0;
#X obj 32 74 * 2;
#X obj 32 40 inlet;
#X obj 32 141 outlet;
#X text 58 75 scaledry;
#X obj 41 105 s \$0-dry;
#X connect 0 0 2 0;
#X connect 0 0 4 0;
#X connect 1 0 0 0;
#X restore 462 45 pd scaledry;
#X floatatom 312 70 5 0 0 0 - - -, f 5;
#X floatatom 374 70 10 0 0 0 - - -, f 10;
#X floatatom 462 69 5 0 0 0 - - -, f 5;
#X floatatom 544 69 5 0 0 0 - - -, f 5;
#N canvas 405 27 635 684 tuning 0;
#X msg 332 81 1139 \, 1211 \, 1300 \, 1379 \, 1445 \, 1514 \, 1580
\, 1640;
#X text 72 57 combfilter tunings left;
#X text 377 56 combfilter tunings right;
#X text 71 360 allpass tunings left;
#X text 383 355 allpass tunings right;
#N canvas 243 170 195 233 sampstoms 0;
#X obj 27 21 inlet;
#X obj 54 86 samplerate~;
#X obj 27 111 /;
#X obj 27 57 t f b;
#X obj 27 136 * 1000;
#X obj 27 162 outlet;
#X connect 0 0 3 0;
#X connect 1 0 2 1;
#X connect 2 0 4 0;
#X connect 3 0 2 0;
#X connect 3 1 1 0;
#X connect 4 0 5 0;
#X restore 30 107 pd sampstoms;
#X msg 30 82 1116 \, 1188 \, 1277 \, 1356 \, 1422 \, 1491 \, 1557 \,
1617;
#X obj 57 188 +;
#X msg 57 159 1;
#X obj 30 135 t f b;
#X obj 87 188 f;
#X obj 30 56 t b b;
#X msg 87 159 0;
#X obj 57 212 pack f \$0;
#X msg 57 238 \$2-comb\$1left;
#X obj 30 282 s;
#X obj 57 265 symbol;
#N canvas 0 22 195 233 sampstoms 0;
#X obj 27 21 inlet;
#X obj 54 86 samplerate~;
#X obj 27 111 /;
#X obj 27 57 t f b;
#X obj 27 136 * 1000;
#X obj 27 162 outlet;
#X connect 0 0 3 0;
#X connect 1 0 2 1;
#X connect 2 0 4 0;
#X connect 3 0 2 0;
#X connect 3 1 1 0;
#X connect 4 0 5 0;
#X restore 332 107 pd sampstoms;
#X obj 359 188 +;
#X msg 359 159 1;
#X obj 332 135 t f b;
#X obj 389 188 f;
#X msg 389 159 0;
#X obj 359 212 pack f \$0;
#X obj 332 282 s;
#X obj 359 265 symbol;
#X obj 332 56 t b b;
#X msg 359 238 \$2-comb\$1right;
#X obj 30 360 t b b;
#N canvas 0 22 195 233 sampstoms 0;
#X obj 27 21 inlet;
#X obj 54 86 samplerate~;
#X obj 27 111 /;
#X obj 27 57 t f b;
#X obj 27 136 * 1000;
#X obj 27 162 outlet;
#X connect 0 0 3 0;
#X connect 1 0 2 1;
#X connect 2 0 4 0;
#X connect 3 0 2 0;
#X connect 3 1 1 0;
#X connect 4 0 5 0;
#X restore 30 411 pd sampstoms;
#X obj 57 492 +;
#X msg 57 463 1;
#X obj 30 439 t f b;
#X obj 87 492 f;
#X msg 87 463 0;
#X obj 57 516 pack f \$0;
#X obj 30 586 s;
#X obj 57 569 symbol;
#X obj 334 356 t b b;
#N canvas 0 22 195 233 sampstoms 0;
#X obj 27 21 inlet;
#X obj 54 86 samplerate~;
#X obj 27 111 /;
#X obj 27 57 t f b;
#X obj 27 136 * 1000;
#X obj 27 162 outlet;
#X connect 0 0 3 0;
#X connect 1 0 2 1;
#X connect 2 0 4 0;
#X connect 3 0 2 0;
#X connect 3 1 1 0;
#X connect 4 0 5 0;
#X restore 334 407 pd sampstoms;
#X obj 361 488 +;
#X msg 361 459 1;
#X obj 334 435 t f b;
#X obj 391 488 f;
#X msg 391 459 0;
#X obj 361 512 pack f \$0;
#X obj 334 582 s;
#X obj 361 565 symbol;
#X obj 30 22 loadbang;
#X obj 332 27 loadbang;
#X obj 30 334 loadbang;
#X obj 334 331 loadbang;
#X obj 268 41 bng 15 250 50 0 empty empty empty 17 7 0 10 -262144 -1
-1;
#X msg 30 386 225 \, 556 \, 441 \, 341;
#X msg 334 380 248 \, 579 \, 464 \, 364;
#X msg 57 542 \$2-allpass\$1left;
#X msg 361 539 \$2-allpass\$1right;
#X text 27 624 Original Freeverb delay line lengths are converted to
milliseconds \, based on samplerate.;
#X connect 0 0 17 0;
#X connect 5 0 9 0;
#X connect 6 0 5 0;
#X connect 7 0 10 0;
#X connect 7 0 13 0;
#X connect 8 0 7 0;
#X connect 9 0 15 0;
#X connect 9 1 8 0;
#X connect 10 0 7 1;
#X connect 11 0 6 0;
#X connect 11 1 12 0;
#X connect 12 0 10 0;
#X connect 13 0 14 0;
#X connect 14 0 16 0;
#X connect 16 0 15 1;
#X connect 17 0 20 0;
#X connect 18 0 21 0;
#X connect 18 0 23 0;
#X connect 19 0 18 0;
#X connect 20 0 24 0;
#X connect 20 1 19 0;
#X connect 21 0 18 1;
#X connect 22 0 21 0;
#X connect 23 0 27 0;
#X connect 25 0 24 1;
#X connect 26 0 0 0;
#X connect 26 1 22 0;
#X connect 27 0 25 0;
#X connect 28 0 53 0;
#X connect 28 1 34 0;
#X connect 29 0 32 0;
#X connect 30 0 33 0;
#X connect 30 0 35 0;
#X connect 31 0 30 0;
#X connect 32 0 36 0;
#X connect 32 1 31 0;
#X connect 33 0 30 1;
#X connect 34 0 33 0;
#X connect 35 0 55 0;
#X connect 37 0 36 1;
#X connect 38 0 54 0;
#X connect 38 1 44 0;
#X connect 39 0 42 0;
#X connect 40 0 43 0;
#X connect 40 0 45 0;
#X connect 41 0 40 0;
#X connect 42 0 46 0;
#X connect 42 1 41 0;
#X connect 43 0 40 1;
#X connect 44 0 43 0;
#X connect 45 0 56 0;
#X connect 47 0 46 1;
#X connect 48 0 11 0;
#X connect 49 0 26 0;
#X connect 50 0 28 0;
#X connect 51 0 38 0;
#X connect 52 0 11 0;
#X connect 52 0 28 0;
#X connect 52 0 26 0;
#X connect 52 0 38 0;
#X connect 53 0 29 0;
#X connect 54 0 39 0;
#X connect 55 0 37 0;
#X connect 56 0 47 0;
#X restore 410 141 pd tuning;
#X connect 0 0 1 0;
#X connect 1 0 7 0;
#X connect 2 0 1 0;
#X connect 3 0 5 0;
#X connect 4 0 5 0;
#X connect 5 0 8 0;
#X connect 6 0 3 0;
#X connect 6 0 0 0;
#X connect 6 0 4 0;
#X connect 6 0 2 0;
#X connect 7 0 16 0;
#X connect 8 0 17 0;
#X connect 9 0 16 0;
#X connect 10 0 17 0;
#X connect 11 0 10 1;
#X connect 11 0 9 1;
#X connect 12 0 8 1;
#X connect 13 0 7 1;
#X connect 14 0 6 0;
#X connect 14 0 9 0;
#X connect 15 0 6 0;
#X connect 15 0 10 0;
#X connect 18 0 22 0;
#X connect 19 0 23 0;
#X connect 20 0 25 0;
#X connect 21 0 24 0;
#X connect 22 0 26 0;
#X connect 23 0 27 0;
#X connect 24 0 29 0;
#X connect 25 0 28 0;
#X restore 79 311 pd vfreeverb~;
#X obj 311 267 / 508, f 8;
#X msg 235 74 0;
#X msg 295 87 0;
#X obj 343 222 / 127;
#X connect 1 0 15 0;
#X connect 1 0 15 1;
#X connect 2 0 12 0;
#X connect 3 0 4 0;
#X connect 4 0 5 0;
#X connect 5 0 16 0;
#X connect 5 0 19 0;
#X connect 6 0 18 0;
#X connect 6 0 17 0;
#X connect 7 0 9 0;
#X connect 7 0 15 2;
#X connect 8 0 10 0;
#X connect 8 0 15 3;
#X connect 11 0 13 0;
#X connect 11 0 15 5;
#X connect 12 0 14 0;
#X connect 12 0 15 4;
#X connect 15 0 0 0;
#X connect 15 1 0 0;
#X connect 16 0 2 0;
#X connect 16 0 11 0;
#X connect 17 0 7 0;
#X connect 17 0 11 0;
#X connect 18 0 8 0;
#X connect 19 0 7 0;
#X restore 100 291 pd drumVerb;
#N canvas 0 22 587 504 drumBits 0;
#X obj 349 296 samphold~;
#X obj 404 273 phasor~;
#X obj 91 261 inlet~;
#X obj 124 450 outlet~;
#X obj 108 417 *~;
#X obj 149 415 *~;
#X obj 187 260 expr 1 - $f1;
#X obj 189 232 hsl 90 15 0 1 0 0 empty bitmix empty -2 -8 0 10 -262144
-1 -1 0 1;
#X floatatom 219 299 5 0 0 0 - - -, f 5;
#X text 284 232 wet/dry;
#X obj 404 21 receive fromGUI;
#X obj 404 44 route list;
#X floatatom 165 295 5 0 0 0 - - -, f 5;
#X obj 404 90 / 127;
#X obj 404 114 expr 1 - $f1;
#X obj 404 138 * 127;
#X obj 407 189 hsl 128 15 1000 9000 0 0 empty bits empty -2 -8 0 10
-262144 -1 -1 10509 1;
#X obj 404 163 * 60;
#X obj 404 67 route /drumBits;
#X obj 138 324 loadbang;
#X msg 122 356 1;
#X msg 153 355 0;
#X connect 0 0 5 0;
#X connect 1 0 0 1;
#X connect 2 0 4 0;
#X connect 2 0 0 0;
#X connect 4 0 3 0;
#X connect 5 0 3 0;
#X connect 6 0 12 0;
#X connect 7 0 6 0;
#X connect 7 0 8 0;
#X connect 8 0 5 1;
#X connect 10 0 11 0;
#X connect 11 0 18 0;
#X connect 12 0 4 1;
#X connect 13 0 14 0;
#X connect 13 0 7 0;
#X connect 14 0 15 0;
#X connect 15 0 17 0;
#X connect 16 0 1 0;
#X connect 17 0 16 0;
#X connect 18 0 13 0;
#X connect 19 0 21 0;
#X connect 19 0 20 0;
#X connect 20 0 4 1;
#X connect 21 0 5 1;
#X restore 100 218 pd drumBits;
#N canvas 438 90 1081 633 drumPatternDelay 0;
#X obj 715 73 hsl 128 15 0 1 0 0 empty empty empty -2 -8 0 10 -262144
-1 -1 0 1;
#X obj 712 -44 receive fromGUI;
#X obj 712 -23 route list;
#X obj 22 -87 inlet~;
#X obj 637 229 outlet~;
#X obj 698 187 *~;
#X obj 579 189 *~;
#X obj 713 98 expr 1 - $f1;
#X text 714 -64 wet/dry;
#X obj 712 21 / 127;
#X obj 712 -2 route /drumPatternDelay;
#X obj 208 5 metro \$1;
#X obj 208 -51 r ms;
#X obj 318 5 metro \$1;
#X obj 363 -45 r ms;
#X obj 751 21 loadbang;
#X msg 751 42 0;
#X obj 339 50 random 9000;
#X obj 262 110 line;
#X obj 208 84 line;
#X msg 208 59 \$1 15;
#X msg 262 85 \$1 15;
#X obj 339 98 line;
#X msg 339 73 \$1 20;
#X msg 266 -30 bang;
#X obj 266 -63 r f;
#X obj 344 226 sig~;
#X obj 155 160 sig~;
#X obj 154 471 s~ modSig;
#X obj 579 146 r~ modSig;
#X obj 34 -63 s~ dryMod;
#X obj 655 147 r~ dryMod;
#X obj 262 62 random 5000;
#X obj 325 185 r~ dryMod;
#X obj 174 332 samphold~;
#X obj 228 271 hsl 50 20 2000 9000 0 0 empty empty empty -2 -8 0 10
-262144 -1 -1 1821 1;
#X floatatom 208 138 10 0 0 0 - - -, f 10;
#X obj 225 306 phasor~ 4000;
#X obj 354 344 delwrite~ modd 500;
#X obj 27 264 delread~ modd 500;
#X obj 23 172 r ms;
#X obj 208 36 random 9000;
#X obj 127 189 vcf~ 20;
#X obj 325 250 vcf~ 10;
#X obj 154 386 *~ 2;
#X obj 59 401 r~ dryMod;
#X obj 82 426 lop~ 300;
#X obj 21 201 / 32;
#X obj 208 -26 / 32;
#X obj 363 -21 / 64;
#X connect 0 0 7 0;
#X connect 0 0 6 1;
#X connect 1 0 2 0;
#X connect 2 0 10 0;
#X connect 3 0 30 0;
#X connect 3 0 42 0;
#X connect 5 0 4 0;
#X connect 6 0 4 0;
#X connect 7 0 5 1;
#X connect 9 0 0 0;
#X connect 10 0 9 0;
#X connect 11 0 32 0;
#X connect 11 0 41 0;
#X connect 12 0 48 0;
#X connect 13 0 17 0;
#X connect 14 0 49 0;
#X connect 15 0 16 0;
#X connect 16 0 0 0;
#X connect 17 0 23 0;
#X connect 19 0 36 0;
#X connect 20 0 19 0;
#X connect 21 0 18 0;
#X connect 22 0 35 0;
#X connect 22 0 26 0;
#X connect 23 0 22 0;
#X connect 24 0 13 0;
#X connect 24 0 11 0;
#X connect 25 0 24 0;
#X connect 26 0 43 1;
#X connect 27 0 42 1;
#X connect 29 0 6 0;
#X connect 31 0 5 0;
#X connect 32 0 21 0;
#X connect 33 0 43 0;
#X connect 34 0 44 0;
#X connect 35 0 37 0;
#X connect 36 0 27 0;
#X connect 37 0 34 1;
#X connect 39 0 34 0;
#X connect 40 0 47 0;
#X connect 41 0 20 0;
#X connect 42 0 44 0;
#X connect 42 1 34 0;
#X connect 43 0 38 0;
#X connect 44 0 28 0;
#X connect 45 0 46 0;
#X connect 46 0 28 0;
#X connect 47 0 39 0;
#X connect 48 0 11 1;
#X connect 49 0 13 1;
#X restore 100 267 pd drumPatternDelay;
#N canvas 163 69 808 461 drumDelay 0;
#X obj 262 119 vsl 15 50 0 1 0 1 empty dback empty 0 -9 0 10 -262144
-1 -1 3087 1;
#X obj 116 113 vsl 15 50 0 2000 0 0 empty dtime empty 0 -9 0 10 -262144
-1 -1 1773 1;
#X obj 116 243 vline~;
#X obj 154 322 *~;
#X msg 116 222 \$1 200;
#X obj 17 258 inlet~;
#X obj 33 429 outlet~;
#X obj 262 6 receive fromGUI;
#X obj 262 27 route list;
#X text 169 156 Delay Feedback;
#X obj 19 383 *~;
#X obj 60 381 *~;
#X obj 262 96 / 127;
#X obj 445 290 spigot;
#X floatatom 527 365 10 0 0 0 - - -, f 10;
#X obj 501 290 spigot;
#X obj 555 289 spigot;
#X obj 612 290 spigot;
#X obj 498 2 receive fromGUI;
#X obj 498 23 route list;
#X obj 498 44 route /drumDelayTime;
#X obj 527 390 s drumDelayTimeInc;
#X obj 116 87 r drumDelayTimeInc;
#X obj 40 284 s~ drumPitch;
#X obj 208 348 r~ drumPitch;
#X obj 134 280 vd~ drumPitch;
#X obj 204 386 delwrite~ drumPitch 2000;
#X obj 437 138 \$1;
#X obj 452 108 r ms;
#X msg 401 101 bang;
#X obj 34 308 loadbang;
#X msg 34 340 0.5;
#X msg 75 339 0.5;
#X obj 201 17 loadbang;
#X msg 201 41 0;
#X floatatom 499 78 5 0 0 0 - - -, f 5;
#X obj 662 290 spigot;
#X obj 395 290 spigot;
#X obj 428 262 == 0;
#X obj 478 262 == 1;
#X obj 534 256 == 2;
#X obj 588 258 == 3;
#X obj 645 255 == 4;
#X obj 695 256 == 5;
#X obj 436 23 loadbang;
#X msg 436 47 0;
#X obj 317 151 * 16;
#X obj 262 47 route /drumDelayBack /freeDelayTime, f 19;
#X obj 395 313 / 128;
#X obj 445 313 / 64;
#X obj 501 313 / 32;
#X obj 555 312 / 16;
#X obj 612 317 / 8;
#X obj 662 317 / 4;
#X text 35 118 Quantize Delay Time, f 12;
#X connect 0 0 3 1;
#X connect 1 0 4 0;
#X connect 2 0 25 0;
#X connect 3 0 26 0;
#X connect 3 0 11 0;
#X connect 4 0 2 0;
#X connect 5 0 10 0;
#X connect 5 0 23 0;
#X connect 7 0 8 0;
#X connect 8 0 47 0;
#X connect 10 0 6 0;
#X connect 11 0 6 0;
#X connect 12 0 0 0;
#X connect 13 0 49 0;
#X connect 14 0 21 0;
#X connect 15 0 50 0;
#X connect 16 0 51 0;
#X connect 17 0 52 0;
#X connect 18 0 19 0;
#X connect 19 0 20 0;
#X connect 20 0 35 0;
#X connect 22 0 1 0;
#X connect 24 0 26 0;
#X connect 25 0 3 0;
#X connect 27 0 13 0;
#X connect 27 0 15 0;
#X connect 27 0 16 0;
#X connect 27 0 17 0;
#X connect 27 0 37 0;
#X connect 27 0 36 0;
#X connect 28 0 27 1;
#X connect 29 0 27 0;
#X connect 30 0 32 0;
#X connect 30 0 31 0;
#X connect 31 0 10 1;
#X connect 32 0 11 1;
#X connect 33 0 34 0;
#X connect 34 0 0 0;
#X connect 35 0 38 0;
#X connect 35 0 39 0;
#X connect 35 0 40 0;
#X connect 35 0 41 0;
#X connect 35 0 42 0;
#X connect 35 0 43 0;
#X connect 35 0 29 0;
#X connect 36 0 53 0;
#X connect 37 0 48 0;
#X connect 38 0 37 1;
#X connect 39 0 13 1;
#X connect 40 0 15 1;
#X connect 41 0 16 1;
#X connect 42 0 17 1;
#X connect 43 0 36 1;
#X connect 44 0 45 0;
#X connect 45 0 35 0;
#X connect 46 0 4 0;
#X connect 47 0 12 0;
#X connect 47 1 46 0;
#X connect 48 0 14 0;
#X connect 49 0 14 0;
#X connect 50 0 14 0;
#X connect 51 0 14 0;
#X connect 52 0 14 0;
#X connect 53 0 14 0;
#X restore 100 244 pd drumDelay;
#X obj 267 242 route /drumVol;
#N canvas 463 224 685 506 drumCutoff 0;
#X text 304 224 cutoff filter;
#X obj 311 277 inlet~;
#X obj 115 425 *~;
#X obj 166 423 *~;
#X obj 136 195 expr 1 - $f1;
#X obj 149 166 hsl 90 15 0.01 1 0 0 empty cutmix empty -2 -8 0 10 -262144
-1 -1 8900 1;
#X text 94 165 wet/dry;
#X obj 246 10 receive fromGUI;
#X obj 246 33 route list;
#X obj 127 474 outlet~;
#X obj 391 132 / 127;
#X obj 391 157 expr 1 - $f1;
#X obj 391 179 * 127;
#X obj 391 282 sig~;
#X obj 246 58 route /drumCutoff;
#X obj 125 81 loadbang;
#X obj 130 301 vline~;
#X msg 130 276 \$1 50;
#X obj 181 301 vline~;
#X msg 181 276 \$1 50;
#X msg 125 105 0;
#X obj 201 134 clip 0 1;
#X floatatom 391 200 5 0 0 0 - - -, f 5;
#X floatatom 476 267 5 0 0 0 - - -, f 5;
#X obj 422 312 lop~;
#X obj 391 224 * 30;
#X obj 372 313 vcf~ 15;
#X connect 1 0 2 0;
#X connect 1 0 24 0;
#X connect 1 0 26 0;
#X connect 2 0 9 0;
#X connect 3 0 9 0;
#X connect 4 0 17 0;
#X connect 5 0 4 0;
#X connect 5 0 19 0;
#X connect 7 0 8 0;
#X connect 8 0 14 0;
#X connect 10 0 11 0;
#X connect 11 0 12 0;
#X connect 12 0 22 0;
#X connect 13 0 26 1;
#X connect 14 0 10 0;
#X connect 14 0 21 0;
#X connect 15 0 20 0;
#X connect 16 0 2 1;
#X connect 17 0 16 0;
#X connect 18 0 3 1;
#X connect 19 0 18 0;
#X connect 20 0 5 0;
#X connect 21 0 5 0;
#X connect 22 0 25 0;
#X connect 23 0 24 1;
#X connect 24 0 3 0;
#X connect 25 0 13 0;
#X connect 25 0 23 0;
#X connect 26 0 3 0;
#X restore 100 315 pd drumCutoff;
#X obj 135 99 vline~;
#X obj 70 126 *~;
#X obj 135 7 receive fromGUI;
#X obj 135 29 list trim;
#X msg 135 74 \$1 15;
#X obj 135 50 route /gate;
#X obj 70 91 adc~;
#X text 6 93 Live Input;
#X obj 232 29 loadbang;
#X text 89 8 Monitor;
#X obj 140 398 *~ 0.5;
#X msg 232 52 0;
#N canvas 87 132 371 337 sliderSynth 0;
#X obj 79 209 outlet~;
#N canvas 211 115 684 659 synth 0;
#X obj 450 370 mtof;
#X obj 453 346 hsl 128 15 0 127 0 0 empty empty empty -2 -8 0 10 -262144
-1 -1 0 1;
#X obj 216 488 vline~;
#X obj 201 521 *~;
#X obj 6 450 expr~ $v1 > 0.5;
#X obj 152 152 mtof;
#X obj 159 83 hsl 128 15 0 127 0 0 empty empty empty -2 -8 0 10 -262144
-1 -1 0 1;
#X obj 203 599 outlet~;
#X obj 525 65 receive fromGUI;
#X obj 525 87 list trim;
#X obj 526 156 * 127;
#X floatatom 526 177 5 0 0 0 - - -, f 5;
#X floatatom 583 185 5 0 0 0 - - -, f 5;
#X obj 525 112 route /slider;
#X obj 526 133 unpack f f;
#X floatatom 156 54 5 0 0 0 - - -, f 5;
#X obj 79 387 osc~;
#X floatatom 212 54 5 0 0 0 - - -, f 5;
#X obj 207 146 select 0;
#X msg 206 208 0 1000;
#X msg 256 208 1 10 \, 0.75 1000 10;
#X obj 143 279 osc~;
#X obj 6 427 phasor~;
#X obj 445 310 line;
#X msg 380 209 90 500;
#X obj 141 256 / 2;
#X msg 430 208 127 1000;
#X obj 201 546 vcf~ 2;
#X obj 155 9 inlet;
#X obj 155 30 unpack 0 0;
#X obj 203 572 *~ 0.2;
#X obj 583 210 * 127;
#X msg 380 347 \$1 100;
#X obj 170 598 env~;
#X msg 139 598 1;
#X obj 153 622 switch~;
#X connect 0 0 27 1;
#X connect 1 0 0 0;
#X connect 2 0 3 1;
#X connect 3 0 27 0;
#X connect 4 0 3 0;
#X connect 5 0 25 0;
#X connect 5 0 16 0;
#X connect 5 0 22 0;
#X connect 6 0 5 0;
#X connect 6 0 34 0;
#X connect 8 0 9 0;
#X connect 9 0 13 0;
#X connect 10 0 11 0;
#X connect 11 0 6 0;
#X connect 12 0 31 0;
#X connect 12 0 32 0;
#X connect 13 0 14 0;
#X connect 14 0 10 0;
#X connect 14 1 12 0;
#X connect 15 0 6 0;
#X connect 16 0 3 0;
#X connect 17 0 18 0;
#X connect 18 0 19 0;
#X connect 18 0 24 0;
#X connect 18 1 20 0;
#X connect 18 1 26 0;
#X connect 19 0 2 0;
#X connect 20 0 2 0;
#X connect 21 0 3 0;
#X connect 22 0 4 0;
#X connect 23 0 1 0;
#X connect 24 0 23 0;
#X connect 25 0 21 0;
#X connect 26 0 23 0;
#X connect 27 0 30 0;
#X connect 28 0 29 0;
#X connect 29 0 15 0;
#X connect 29 1 17 0;
#X connect 30 0 7 0;
#X connect 30 0 33 0;
#X connect 31 0 1 0;
#X connect 32 0 2 0;
#X connect 33 0 35 0;
#X connect 34 0 35 0;
#X restore 32 67 pd synth;
#X obj 63 9 pack 0 0 0;
#X obj 63 -41 notein 2;
#N canvas 22 126 764 669 synth 0;
#X obj 468 327 mtof;
#X obj 471 303 hsl 128 15 0 127 0 0 empty empty empty -2 -8 0 10 -262144
-1 -1 9000 1;
#X obj 234 445 vline~;
#X obj 219 478 *~;
#X obj 24 407 expr~ $v1 > 0.5;
#X obj 170 109 mtof;
#X obj 177 40 hsl 128 15 0 127 0 0 empty empty empty -2 -8 0 10 -262144
-1 -1 0 1;
#X obj 221 556 outlet~;
#X obj 543 22 receive fromGUI;
#X obj 543 44 list trim;
#X obj 544 113 * 127;
#X floatatom 544 134 5 0 0 0 - - -, f 5;
#X floatatom 654 112 5 0 0 0 - - -, f 5;
#X obj 543 69 route /slider;
#X obj 544 90 unpack f f;
#X floatatom 174 11 5 0 0 0 - - -, f 5;
#X obj 97 344 osc~;
#X floatatom 230 11 5 0 0 0 - - -, f 5;
#X obj 225 103 select 0;
#X msg 224 165 0 1000;
#X msg 659 347 \$1 200;
#X msg 274 165 1 10 \, 0.75 1000 10;
#X obj 161 236 osc~;
#X obj 24 384 phasor~;
#X obj 463 267 line;
#X msg 398 166 90 500;
#X obj 159 213 / 2;
#X msg 448 165 127 1000;
#X obj 219 503 vcf~ 2;
#X obj 173 -34 inlet;
#X obj 173 -13 unpack 0 0;
#X obj 221 529 *~ 0.2;
#X connect 0 0 28 1;
#X connect 1 0 0 0;
#X connect 2 0 3 1;
#X connect 3 0 28 0;
#X connect 4 0 3 0;
#X connect 5 0 26 0;
#X connect 5 0 16 0;
#X connect 5 0 23 0;
#X connect 6 0 5 0;
#X connect 8 0 9 0;
#X connect 9 0 13 0;
#X connect 10 0 11 0;
#X connect 11 0 6 0;
#X connect 12 0 20 0;
#X connect 13 0 14 0;
#X connect 14 0 10 0;
#X connect 14 1 12 0;
#X connect 15 0 6 0;
#X connect 16 0 3 0;
#X connect 17 0 18 0;
#X connect 18 0 19 0;
#X connect 18 0 25 0;
#X connect 18 1 21 0;
#X connect 18 1 27 0;
#X connect 19 0 2 0;
#X connect 20 0 2 0;
#X connect 21 0 2 0;
#X connect 22 0 3 0;
#X connect 23 0 4 0;
#X connect 24 0 1 0;
#X connect 25 0 24 0;
#X connect 26 0 22 0;
#X connect 27 0 24 0;
#X connect 28 0 31 0;
#X connect 29 0 30 0;
#X connect 30 0 15 0;
#X connect 30 1 17 0;
#X connect 31 0 7 0;
#X restore 92 67 pd synth;
#N canvas 22 126 764 669 synth 0;
#X obj 468 327 mtof;
#X obj 471 303 hsl 128 15 0 127 0 0 empty empty empty -2 -8 0 10 -262144
-1 -1 9000 1;
#X obj 234 445 vline~;
#X obj 219 478 *~;
#X obj 24 407 expr~ $v1 > 0.5;
#X obj 170 109 mtof;
#X obj 177 40 hsl 128 15 0 127 0 0 empty empty empty -2 -8 0 10 -262144
-1 -1 0 1;
#X obj 221 556 outlet~;
#X obj 543 22 receive fromGUI;
#X obj 543 44 list trim;
#X obj 544 113 * 127;
#X floatatom 544 134 5 0 0 0 - - -, f 5;
#X floatatom 654 112 5 0 0 0 - - -, f 5;
#X obj 543 69 route /slider;
#X obj 544 90 unpack f f;
#X floatatom 174 11 5 0 0 0 - - -, f 5;
#X obj 97 344 osc~;
#X floatatom 230 11 5 0 0 0 - - -, f 5;
#X obj 225 103 select 0;
#X msg 224 165 0 1000;
#X msg 659 347 \$1 200;
#X msg 274 165 1 10 \, 0.75 1000 10;
#X obj 161 236 osc~;
#X obj 24 384 phasor~;
#X obj 463 267 line;
#X msg 398 166 90 500;
#X obj 159 213 / 2;
#X msg 448 165 127 1000;
#X obj 219 503 vcf~ 2;
#X obj 173 -34 inlet;
#X obj 173 -13 unpack 0 0;
#X obj 221 529 *~ 0.2;
#X connect 0 0 28 1;
#X connect 1 0 0 0;
#X connect 2 0 3 1;
#X connect 3 0 28 0;
#X connect 4 0 3 0;
#X connect 5 0 26 0;
#X connect 5 0 16 0;
#X connect 5 0 23 0;
#X connect 6 0 5 0;
#X connect 8 0 9 0;
#X connect 9 0 13 0;
#X connect 10 0 11 0;
#X connect 11 0 6 0;
#X connect 12 0 20 0;
#X connect 13 0 14 0;
#X connect 14 0 10 0;
#X connect 14 1 12 0;
#X connect 15 0 6 0;
#X connect 16 0 3 0;
#X connect 17 0 18 0;
#X connect 18 0 19 0;
#X connect 18 0 25 0;
#X connect 18 1 21 0;
#X connect 18 1 27 0;
#X connect 19 0 2 0;
#X connect 20 0 2 0;
#X connect 21 0 2 0;
#X connect 22 0 3 0;
#X connect 23 0 4 0;
#X connect 24 0 1 0;
#X connect 25 0 24 0;
#X connect 26 0 22 0;
#X connect 27 0 24 0;
#X connect 28 0 31 0;
#X connect 29 0 30 0;
#X connect 30 0 15 0;
#X connect 30 1 17 0;
#X connect 31 0 7 0;
#X restore 152 67 pd synth;
#N canvas 22 126 764 669 synth 0;
#X obj 468 327 mtof;
#X obj 471 303 hsl 128 15 0 127 0 0 empty empty empty -2 -8 0 10 -262144
-1 -1 9000 1;
#X obj 234 445 vline~;
#X obj 219 478 *~;
#X obj 24 407 expr~ $v1 > 0.5;
#X obj 170 109 mtof;
#X obj 177 40 hsl 128 15 0 127 0 0 empty empty empty -2 -8 0 10 -262144
-1 -1 0 1;
#X obj 221 556 outlet~;
#X obj 543 22 receive fromGUI;
#X obj 543 44 list trim;
#X obj 544 113 * 127;
#X floatatom 544 134 5 0 0 0 - - -, f 5;
#X floatatom 654 112 5 0 0 0 - - -, f 5;
#X obj 543 69 route /slider;
#X obj 544 90 unpack f f;
#X floatatom 174 11 5 0 0 0 - - -, f 5;
#X obj 97 344 osc~;
#X floatatom 230 11 5 0 0 0 - - -, f 5;
#X obj 225 103 select 0;
#X msg 224 165 0 1000;
#X msg 659 347 \$1 200;
#X msg 274 165 1 10 \, 0.75 1000 10;
#X obj 161 236 osc~;
#X obj 24 384 phasor~;
#X obj 463 267 line;
#X msg 398 166 90 500;
#X obj 159 213 / 2;
#X msg 448 165 127 1000;
#X obj 219 503 vcf~ 2;
#X obj 173 -34 inlet;
#X obj 173 -13 unpack 0 0;
#X obj 221 529 *~ 0.2;
#X connect 0 0 28 1;
#X connect 1 0 0 0;
#X connect 2 0 3 1;
#X connect 3 0 28 0;
#X connect 4 0 3 0;
#X connect 5 0 26 0;
#X connect 5 0 16 0;
#X connect 5 0 23 0;
#X connect 6 0 5 0;
#X connect 8 0 9 0;
#X connect 9 0 13 0;
#X connect 10 0 11 0;
#X connect 11 0 6 0;
#X connect 12 0 20 0;
#X connect 13 0 14 0;
#X connect 14 0 10 0;
#X connect 14 1 12 0;
#X connect 15 0 6 0;
#X connect 16 0 3 0;
#X connect 17 0 18 0;
#X connect 18 0 19 0;
#X connect 18 0 25 0;
#X connect 18 1 21 0;
#X connect 18 1 27 0;
#X connect 19 0 2 0;
#X connect 20 0 2 0;
#X connect 21 0 2 0;
#X connect 22 0 3 0;
#X connect 23 0 4 0;
#X connect 24 0 1 0;
#X connect 25 0 24 0;
#X connect 26 0 22 0;
#X connect 27 0 24 0;
#X connect 28 0 31 0;
#X connect 29 0 30 0;
#X connect 30 0 15 0;
#X connect 30 1 17 0;
#X connect 31 0 7 0;
#X restore 212 67 pd synth;
#X obj 63 32 route 1 2 3 4;
#X obj 63 -17 poly 4 1;
#X obj 35 108 expr~ $v1+$v2+$v3+$v4;
#X connect 1 0 9 0;
#X connect 2 0 7 0;
#X connect 3 0 8 0;
#X connect 3 1 8 1;
#X connect 4 0 9 0;
#X connect 5 0 9 0;
#X connect 6 0 9 0;
#X connect 7 0 1 0;
#X connect 7 1 4 0;
#X connect 7 2 5 0;
#X connect 7 3 6 0;
#X connect 8 0 2 0;
#X connect 8 1 2 1;
#X connect 8 2 2 2;
#X connect 9 0 0 0;
#X restore 305 102 pd sliderSynth;
#X msg 383 221 list /drumVol 63.5;
#X text 341 72 Drum Pads;
#X text 396 102 Synth;
#X text 48 233 Effects;
#X text 264 180 Input Volume;
#N canvas 568 152 520 600 noiseBox 1;
#X obj 290 64 vsl 15 128 0 30 0 0 empty empty empty 0 -9 0 10 -262144
-1 -1 12700 1;
#X obj 160 241 phasor~;
#X obj 243 352 vcf~ 5;
#X obj 255 321 sig~;
#X obj 287 19 ctlin 120 1;
#X obj 111 272 osc~;
#X obj 135 309 +~;
#X obj 111 242 + 100;
#X obj 122 345 bp~, f 8;
#X obj 243 44 + 5;
#X obj 244 581 outlet~;
#X obj 30 157 noise~;
#X obj 250 274 * 200;
#X obj 66 263 osc~;
#X obj 66 288 *~;
#X obj 46 316 *~;
#X obj 29 204 lop~ 300;
#X obj 244 506 *~;
#X obj 259 399 ctlin 119 1;
#X obj 259 421 / 127;
#X floatatom 259 441 5 0 0 0 - - -, f 5;
#X obj 259 483 line;
#X msg 259 460 \$1 15;
#X obj 39 355 *~ 0.5;
#X obj 319 263 osc~;
#X obj 319 240 * 20;
#X obj 330 327 *~ 10;
#X obj 244 543 *~ 0.5;
#X connect 0 0 1 0;
#X connect 0 0 2 2;
#X connect 0 0 7 0;
#X connect 0 0 12 0;
#X connect 0 0 25 0;
#X connect 1 0 2 0;
#X connect 1 0 6 1;
#X connect 2 0 17 0;
#X connect 3 0 2 1;
#X connect 4 0 9 0;
#X connect 4 0 14 1;
#X connect 4 0 13 0;
#X connect 5 0 6 0;
#X connect 6 0 2 0;
#X connect 6 0 8 0;
#X connect 7 0 5 0;
#X connect 8 0 2 0;
#X connect 9 0 0 0;
#X connect 11 0 16 0;
#X connect 12 0 3 0;
#X connect 12 0 8 1;
#X connect 13 0 14 0;
#X connect 14 0 15 1;
#X connect 15 0 23 0;
#X connect 16 0 8 0;
#X connect 16 0 2 0;
#X connect 16 0 15 0;
#X connect 17 0 27 0;
#X connect 18 0 19 0;
#X connect 19 0 20 0;
#X connect 20 0 22 0;
#X connect 21 0 17 1;
#X connect 22 0 21 0;
#X connect 23 0 2 0;
#X connect 23 0 8 0;
#X connect 24 0 26 0;
#X connect 25 0 24 0;
#X connect 26 0 2 0;
#X connect 27 0 10 0;
#X restore 301 132 pd noiseBox;
#X connect 0 0 6 1;
#X connect 1 0 0 0;
#X connect 2 0 8 0;
#X connect 3 0 4 0;
#X connect 4 0 17 0;
#X connect 5 0 11 0;
#X connect 6 0 29 0;
#X connect 7 0 32 0;
#X connect 8 0 1 0;
#X connect 11 0 12 0;
#X connect 12 0 14 0;
#X connect 13 0 18 0;
#X connect 14 0 16 0;
#X connect 15 0 13 0;
#X connect 16 0 15 0;
#X connect 17 0 2 0;
#X connect 18 0 6 0;
#X connect 19 0 20 1;
#X connect 20 0 11 0;
#X connect 21 0 22 0;
#X connect 22 0 24 0;
#X connect 23 0 19 0;
#X connect 24 0 23 0;
#X connect 25 0 20 0;
#X connect 25 1 20 0;
#X connect 27 0 30 0;
#X connect 29 0 10 0;
#X connect 30 0 23 0;
#X connect 31 0 11 0;
#X connect 32 0 9 0;
#X connect 37 0 11 0;
