#N canvas 322 182 930 618 10;
#X obj 399 590 s~ loopSignal;
#N canvas 51 23 1352 749 controls 1;
#X obj 703 168 s clear;
#X obj 105 21 receive fromGUI;
#X obj 105 46 list trim;
#X obj 800 411 s lp, f 5;
#X obj 20 159 s lp1;
#X obj 60 159 s lp2;
#X obj 100 159 s lp3;
#X obj 140 159 s lp4;
#X obj 186 159 s lp5;
#X obj 230 159 s lp6;
#X obj 270 159 s lp7;
#X obj 310 159 s lp8;
#X obj 328 402 bng 15 250 50 0 empty empty empty 17 7 0 10 -262144
-1 -1;
#X obj 349 402 bng 15 250 50 0 empty empty empty 17 7 0 10 -262144
-1 -1;
#X obj 371 402 bng 15 250 50 0 empty empty empty 17 7 0 10 -262144
-1 -1;
#X obj 393 402 bng 15 250 50 0 empty empty empty 17 7 0 10 -262144
-1 -1;
#X text 331 253 clock seq on GUI;
#X obj 92 277 r ms;
#X msg 30 455 list /bpm \$1;
#X obj 30 384 /, f 4;
#X msg 30 344 60000;
#X obj 30 305 t b b;
#X obj 77 342 \$1;
#X floatatom 30 410 5 0 0 0 - - -, f 5;
#X obj 667 299 r lp1;
#X obj 707 299 r lp2;
#X obj 747 299 r lp3;
#X obj 787 299 r lp4;
#X obj 827 299 r lp5;
#X obj 867 299 r lp6;
#X obj 907 299 r lp7;
#X obj 947 299 r lp8;
#X obj 800 375 bng 15 250 50 0 empty empty empty 17 7 0 10 -262144
-1 -1;
#X obj 913 389 r clear;
#X obj 49 483 r clear;
#X msg 49 507 list /bpm 0;
#X obj 703 143 loadbang;
#X obj 1088 247 receive fromGUI;
#X obj 1088 271 list trim;
#X obj 1088 293 route /start /stop;
#X obj 1088 318 sel 0 1;
#X obj 1140 317 sel 0 1;
#X obj 1159 347 s stop;
#X obj 1107 347 s start;
#X obj 1197 318 r clear;
#X obj 30 540 send toGUI;
#X msg 913 413 0;
#X obj 338 350 mod 4;
#X obj 338 377 sel 0 1 2 3;
#X obj 373 325 + 1;
#X obj 385 272 r stop;
#X obj 328 644 send toGUI;
#X obj 328 487 1;
#X obj 355 487 2;
#X obj 383 487 3;
#X obj 410 487 4;
#X obj 815 55 receive fromGUI;
#X obj 815 78 route list;
#X obj 815 175 send toGUI;
#X msg 815 127 list /gate set \$1;
#X text 798 20 Persistance between pages for monitor/volume, f 25
;
#X msg 789 147 list /mainVol set \$1;
#N canvas 46 67 523 375 met 0;
#X obj 256 341 dac~;
#X obj 292 170 vline~;
#X msg 285 124 1 15;
#X msg 325 124 0 15;
#X obj 262 216 *~;
#X obj 326 104 delay 100;
#X obj 206 171 vcf~ 3;
#X obj 384 240 line~;
#X obj 384 218 pack 0 50;
#X obj 384 195 / 127;
#X obj 384 133 receive fromGUI;
#X obj 384 153 route list;
#X obj 384 173 route /metVol;
#X obj 262 312 *~;
#X obj 102 170 vline~;
#X msg 95 124 1 15;
#X msg 135 124 0 15;
#X obj 136 104 delay 100;
#X obj 16 165 vcf~ 3;
#X obj 83 211 *~;
#X obj 16 96 osc~ 700;
#X obj 206 102 osc~ 500;
#X msg 32 144 5000;
#X msg 222 150 5000;
#X obj 32 122 loadbang;
#X obj 222 124 loadbang;
#X obj 177 13 inlet;
#X obj 216 13 inlet;
#X obj 257 13 inlet;
#X obj 296 13 inlet, f 6;
#X obj 71 326 switch~;
#X obj 92 299 env~;
#X msg 58 299 1;
#X connect 1 0 4 1;
#X connect 2 0 1 0;
#X connect 3 0 1 0;
#X connect 4 0 13 0;
#X connect 5 0 3 0;
#X connect 6 0 4 0;
#X connect 7 0 13 1;
#X connect 8 0 7 0;
#X connect 9 0 8 0;
#X connect 10 0 11 0;
#X connect 11 0 12 0;
#X connect 12 0 9 0;
#X connect 13 0 0 0;
#X connect 13 0 0 1;
#X connect 13 0 31 0;
#X connect 14 0 19 1;
#X connect 15 0 14 0;
#X connect 16 0 14 0;
#X connect 17 0 16 0;
#X connect 18 0 19 0;
#X connect 19 0 13 0;
#X connect 20 0 18 0;
#X connect 21 0 6 0;
#X connect 22 0 18 1;
#X connect 23 0 6 1;
#X connect 24 0 22 0;
#X connect 25 0 23 0;
#X connect 26 0 15 0;
#X connect 26 0 17 0;
#X connect 26 0 32 0;
#X connect 27 0 2 0;
#X connect 27 0 5 0;
#X connect 27 0 32 0;
#X connect 28 0 2 0;
#X connect 28 0 5 0;
#X connect 28 0 32 0;
#X connect 29 0 2 0;
#X connect 29 0 5 0;
#X connect 29 0 32 0;
#X connect 31 0 30 0;
#X connect 32 0 30 0;
#X restore 181 526 pd met;
#X obj 898 470 sel 0 1;
#X obj 898 439 f;
#X obj 935 439 + 1;
#X obj 338 325 f;
#X msg 385 296 0;
#X obj 898 503 s tapOne;
#X obj 953 503 s tapTwo;
#X text 13 275 Display BPM;
#X obj 338 278 r trig;
#X obj 178 391 bng 15 250 50 0 empty empty empty 17 7 0 10 -262144
-1 -1;
#X obj 199 391 bng 15 250 50 0 empty empty empty 17 7 0 10 -262144
-1 -1;
#X obj 221 391 bng 15 250 50 0 empty empty empty 17 7 0 10 -262144
-1 -1;
#X obj 243 391 bng 15 250 50 0 empty empty empty 17 7 0 10 -262144
-1 -1;
#X obj 188 339 mod 4;
#X obj 188 366 sel 0 1 2 3;
#X obj 223 314 + 1;
#X obj 235 261 r stop;
#X obj 188 314 f;
#X msg 235 285 0;
#X obj 168 267 r trigMet;
#X obj 30 432 * 16;
#X msg 328 550 list /measure \$1;
#X obj 158 446 1;
#X obj 185 446 2;
#X obj 213 446 3;
#X obj 240 446 4;
#X msg 231 506 list /pos .\$1;
#X msg 338 588 list /posGrid clear;
#X obj 492 486 0;
#X obj 519 486 1;
#X obj 547 486 2;
#X obj 574 486 3;
#X msg 468 600 list /posGrid \$1 0 1;
#X obj 449 459 delay 1;
#X obj 349 159 s lp9;
#X obj 386 159 s lp10;
#X obj 430 159 s lp11;
#X obj 474 159 s lp12;
#X obj 518 159 s lp13;
#X obj 562 159 s lp14;
#X obj 606 159 s lp15;
#X obj 650 159 s lp16;
#X obj 105 74 route /lp1 /lp2 /lp3 /lp4 /lp5 /lp6 /lp7 /lp8 /lp9 /lp10
/lp11 /lp12 /lp13 /lp14 /lp15 /lp16 /clear, f 93;
#X obj 658 325 r lp9;
#X obj 695 325 r lp10;
#X obj 739 325 r lp11;
#X obj 783 325 r lp12;
#X obj 827 325 r lp13;
#X obj 871 325 r lp14;
#X obj 915 325 r lp15;
#X obj 959 325 r lp16;
#X obj 993 88 clears 1;
#X obj 1051 88 clears 2;
#X obj 1110 88 clears 3;
#X obj 1167 88 clears 4;
#X obj 993 118 clears 5;
#X obj 1051 118 clears 6;
#X obj 1110 118 clears 7;
#X obj 1167 118 clears 8;
#X obj 994 143 clears 9;
#X obj 1052 143 clears 10;
#X obj 1118 143 clears 11;
#X obj 1179 143 clears 12;
#X obj 994 173 clears 13;
#X obj 1056 173 clears 14;
#X obj 1118 173 clears 15;
#X obj 1179 173 clears 16;
#X obj 815 102 route /gate /mainVol;
#N canvas 0 22 1348 850 sessionSelection 0;
#X obj 580 13 receive fromGUI;
#X obj 580 38 route list;
#X obj 580 99 sel 1;
#X obj 609 145 sel 1;
#X obj 701 417 s bank;
#X text 679 5 Select where you want to save shit, f 15;
#X obj 580 60 route /bankOne /bankTwo /bankThree /bankFour /bankFive
/bankSix /bankSeven /bankEight /bankNine /bankTen;
#X obj 639 195 sel 1;
#X obj 659 245 sel 1;
#X obj 679 290 sel 1;
#X obj 740 99 sel 1;
#X obj 769 145 sel 1;
#X obj 799 195 sel 1;
#X obj 819 245 sel 1;
#X obj 839 290 sel 1;
#X obj 112 178 send toGUI;
#X obj 112 338 send toGUI;
#X obj 112 488 send toGUI;
#X obj 112 628 send toGUI;
#X obj 344 568 send toGUI;
#X obj 1017 106 send toGUI;
#X obj 1025 266 send toGUI;
#X obj 1031 426 send toGUI;
#X obj 1031 576 send toGUI;
#X obj 1031 726 send toGUI;
#X msg 580 121 symbol Session-01;
#X msg 609 168 symbol Session-02;
#X msg 639 218 symbol Session-03;
#X msg 659 268 symbol Session-04;
#X msg 679 313 symbol Session-05;
#X msg 740 121 symbol Session-06;
#X msg 769 168 symbol Session-07;
#X msg 799 218 symbol Session-08;
#X msg 819 268 symbol Session-09;
#X msg 839 313 symbol Session-10;
#X msg 112 68 list /bankTwo 0 \, list /bankThree 0 \, list /bankFour
0 \, list /bankFive 0 \, list /bankSix 0 \, list /bankSeven 0 \, list
/bankEight 0 \, list /bankNine 0 \, list /bankTen 0, f 31;
#X msg 112 228 list /bankOne 0 \, list /bankThree 0 \, list /bankFour
0 \, list /bankFive 0 \, list /bankSix 0 \, list /bankSeven 0 \, list
/bankEight 0 \, list /bankNine 0 \, list /bankTen 0, f 35;
#X msg 112 378 list /bankOne 0 \, list /bankTwo 0 \, list /bankFour
0 \, list /bankFive 0 \, list /bankSix 0 \, list /bankSeven 0 \, list
/bankEight 0 \, list /bankNine 0 \, list /bankTen 0, f 32;
#X msg 112 525 list /bankOne 0 \, list /bankTwo 0 \, list /bankThree
0 \, list /bankFive 0 \, list /bankSix 0 \, list /bankSeven 0 \, list
/bankEight 0 \, list /bankNine 0 \, list /bankTen 0, f 29;
#X msg 344 478 list /bankOne 0 \, list /bankTwo 0 \, list /bankThree
0 \, list /bankFour 0 \, list /bankSix 0 \, list /bankSeven 0 \, list
/bankEight 0 \, list /bankNine 0 \, list /bankTen 0, f 34;
#X msg 1017 25 list /bankOne 0 \, list /bankTwo 0 \, list /bankThree
0 \, list /bankFour 0 \, list /bankFive 0 \, list /bankSeven 0 \, list
/bankEight 0 \, list /bankNine 0 \, list /bankTen 0, f 34;
#X msg 1025 187 list /bankOne 0 \, list /bankTwo 0 \, list /bankThree
0 \, list /bankFour 0 \, list /bankFive 0 \, list /bankSix 0 \, list
/bankEight 0 \, list /bankNine 0 \, list /bankTen 0, f 36;
#X msg 1031 346 list /bankOne 0 \, list /bankTwo 0 \, list /bankThree
0 \, list /bankFour 0 \, list /bankFive 0 \, list /bankSix 0 \, list
/bankSeven 0 \, list /bankNine 0 \, list /bankTen 0, f 34;
#X msg 1031 496 list /bankOne 0 \, list /bankTwo 0 \, list /bankThree
0 \, list /bankFour 0 \, list /bankFive 0 \, list /bankSix 0 \, list
/bankSeven 0 \, list /bankEight 0 \, list /bankTen 0, f 37;
#X msg 1031 646 list /bankOne 0 \, list /bankTwo 0 \, list /bankThree
0 \, list /bankFour 0 \, list /bankFive 0 \, list /bankSix 0 \, list
/bankSeven 0 \, list /bankEight 0 \, list /bankNine 0, f 36;
#X connect 0 0 1 0;
#X connect 1 0 6 0;
#X connect 2 0 25 0;
#X connect 2 0 35 0;
#X connect 3 0 26 0;
#X connect 3 0 36 0;
#X connect 6 0 2 0;
#X connect 6 1 3 0;
#X connect 6 2 7 0;
#X connect 6 3 8 0;
#X connect 6 4 9 0;
#X connect 6 5 10 0;
#X connect 6 6 11 0;
#X connect 6 7 12 0;
#X connect 6 8 13 0;
#X connect 6 9 14 0;
#X connect 7 0 27 0;
#X connect 7 0 37 0;
#X connect 8 0 28 0;
#X connect 8 0 38 0;
#X connect 9 0 29 0;
#X connect 9 0 39 0;
#X connect 10 0 30 0;
#X connect 10 0 40 0;
#X connect 11 0 31 0;
#X connect 11 0 41 0;
#X connect 12 0 32 0;
#X connect 12 0 42 0;
#X connect 13 0 33 0;
#X connect 13 0 43 0;
#X connect 14 0 34 0;
#X connect 14 0 44 0;
#X connect 25 0 4 0;
#X connect 26 0 4 0;
#X connect 27 0 4 0;
#X connect 28 0 4 0;
#X connect 29 0 4 0;
#X connect 30 0 4 0;
#X connect 31 0 4 0;
#X connect 32 0 4 0;
#X connect 33 0 4 0;
#X connect 34 0 4 0;
#X connect 35 0 15 0;
#X connect 36 0 16 0;
#X connect 37 0 17 0;
#X connect 38 0 18 0;
#X connect 39 0 19 0;
#X connect 40 0 20 0;
#X connect 41 0 21 0;
#X connect 42 0 22 0;
#X connect 43 0 23 0;
#X connect 44 0 24 0;
#X restore 1145 40 pd sessionSelection;
#X text 1138 21 Select bank for save/load;
#X text 164 239 audible metronome;
#X obj 671 121 bng 15 250 50 0 empty empty empty 17 7 0 10 -262144
-1 -1;
#X obj 1031 370 loadbang;
#X obj 1070 701 send toGUI;
#X msg 623 526 list /midiMenu LOOPS Record/Mute:CC#1-16 Volume:CC#49-64
Clear:CC#33-48 -- POST-LOOP-FX Effects_Toggle:CC#69 Cuttoff:CC#65 Delay_Time:CC#66
Delay_Feedback:CC#67 Reverb:CC#68 -- TRANSPORT Clear_All:CC#70 Start:CC#71
Stop:CC#72 Main_Volume:CC#73 Input_Volume:CC#74 Monitor_Toggle:CC#75
Tap_Tempo:CC#76 -- INPUT/DRUM/SYNTH-FX Free_Delay_Time:CC#77 Quantized_Delay_Time:CC#78
Delay_Feedback:CC#79 Reverb:CC#80 Cutoff:CC#81 Mod_Filter:CC#82 Bit_Crush:CC#83
Distortion:CC#84 Glitch_Delay:CC#85 -- DRUMS Notes:#48-79 -- SYNTH
Channel:2 -- SYNC Channel:16 -- LED Output_Channel:10, f 108;
#X connect 1 0 2 0;
#X connect 2 0 105 0;
#X connect 12 0 52 0;
#X connect 12 0 90 0;
#X connect 12 0 96 0;
#X connect 13 0 53 0;
#X connect 13 0 92 0;
#X connect 14 0 54 0;
#X connect 14 0 93 0;
#X connect 15 0 55 0;
#X connect 15 0 94 0;
#X connect 17 0 22 1;
#X connect 17 0 21 0;
#X connect 18 0 45 0;
#X connect 19 0 23 0;
#X connect 20 0 19 0;
#X connect 21 0 20 0;
#X connect 21 1 22 0;
#X connect 22 0 19 1;
#X connect 23 0 83 0;
#X connect 24 0 32 0;
#X connect 25 0 32 0;
#X connect 26 0 32 0;
#X connect 27 0 32 0;
#X connect 28 0 32 0;
#X connect 29 0 32 0;
#X connect 30 0 32 0;
#X connect 31 0 32 0;
#X connect 32 0 3 0;
#X connect 32 0 64 0;
#X connect 33 0 46 0;
#X connect 34 0 35 0;
#X connect 35 0 45 0;
#X connect 36 0 0 0;
#X connect 37 0 38 0;
#X connect 38 0 39 0;
#X connect 39 0 40 0;
#X connect 39 1 41 0;
#X connect 40 0 43 0;
#X connect 41 0 42 0;
#X connect 44 0 42 0;
#X connect 46 0 64 1;
#X connect 47 0 48 0;
#X connect 48 0 12 0;
#X connect 48 1 13 0;
#X connect 48 2 14 0;
#X connect 48 3 15 0;
#X connect 49 0 66 1;
#X connect 50 0 67 0;
#X connect 52 0 84 0;
#X connect 53 0 84 0;
#X connect 54 0 84 0;
#X connect 55 0 84 0;
#X connect 56 0 57 0;
#X connect 57 0 130 0;
#X connect 59 0 58 0;
#X connect 61 0 58 0;
#X connect 63 0 68 0;
#X connect 63 1 69 0;
#X connect 64 0 65 0;
#X connect 64 0 63 0;
#X connect 65 0 64 1;
#X connect 66 0 49 0;
#X connect 66 0 47 0;
#X connect 67 0 66 1;
#X connect 71 0 66 0;
#X connect 72 0 62 0;
#X connect 72 0 85 0;
#X connect 73 0 62 1;
#X connect 73 0 86 0;
#X connect 74 0 62 2;
#X connect 74 0 87 0;
#X connect 75 0 62 3;
#X connect 75 0 88 0;
#X connect 76 0 77 0;
#X connect 77 0 72 0;
#X connect 77 1 73 0;
#X connect 77 2 74 0;
#X connect 77 3 75 0;
#X connect 78 0 80 1;
#X connect 79 0 81 0;
#X connect 80 0 78 0;
#X connect 80 0 76 0;
#X connect 81 0 80 1;
#X connect 82 0 80 0;
#X connect 83 0 18 0;
#X connect 84 0 51 0;
#X connect 85 0 89 0;
#X connect 86 0 89 0;
#X connect 87 0 89 0;
#X connect 88 0 89 0;
#X connect 89 0 51 0;
#X connect 90 0 51 0;
#X connect 91 0 95 0;
#X connect 92 0 95 0;
#X connect 93 0 95 0;
#X connect 94 0 95 0;
#X connect 95 0 51 0;
#X connect 96 0 91 0;
#X connect 105 0 4 0;
#X connect 105 1 5 0;
#X connect 105 2 6 0;
#X connect 105 3 7 0;
#X connect 105 4 8 0;
#X connect 105 5 9 0;
#X connect 105 6 10 0;
#X connect 105 7 11 0;
#X connect 105 8 97 0;
#X connect 105 9 98 0;
#X connect 105 10 99 0;
#X connect 105 11 100 0;
#X connect 105 12 101 0;
#X connect 105 13 102 0;
#X connect 105 14 103 0;
#X connect 105 15 104 0;
#X connect 105 16 134 0;
#X connect 106 0 32 0;
#X connect 107 0 32 0;
#X connect 108 0 32 0;
#X connect 109 0 32 0;
#X connect 110 0 32 0;
#X connect 111 0 32 0;
#X connect 112 0 32 0;
#X connect 113 0 32 0;
#X connect 130 0 59 0;
#X connect 130 1 61 0;
#X connect 134 0 0 0;
#X connect 135 0 137 0;
#X connect 137 0 136 0;
#X restore 30 45 pd controls;
#X obj 388 130 s~ mainInput;
#X obj 388 160 r~ mainInput;
#N canvas 84 41 1129 699 clock 0;
#X obj 358 376 s ms;
#X obj 444 376 r start;
#X obj 403 445 s f;
#X obj 247 457 s trig;
#X obj 358 237 spigot;
#X msg 525 195 0;
#X obj 525 156 r clear;
#X obj 901 23 midiin;
#X text 872 4 Midi Clock Input;
#X obj 644 506 receive fromGUI;
#X obj 644 530 list trim;
#X obj 644 556 route /tap;
#X text 643 480 tap Tempo;
#X msg 659 630 0;
#X obj 496 352 r stop;
#X msg 496 375 stop;
#X obj 229 349 r stop;
#X msg 229 376 stop;
#X obj 358 334 \$1;
#X msg 467 178 1;
#X obj 358 115 f;
#X obj 389 115 + 1;
#X msg 373 86 0;
#X obj 358 138 mod 2;
#X obj 358 41 r tapOne;
#X obj 467 156 r tapOne;
#X obj 575 156 r tapTwo;
#X obj 271 376 t b f;
#X obj 403 376 t b f;
#X obj 302 41 r tapTwo;
#X obj 358 193 timer;
#X obj 422 131 r clear;
#X obj 373 64 r clear;
#X obj 358 165 sel 0 1, f 8;
#X obj 644 658 f;
#X obj 675 658 + 1;
#X obj 659 604 r clear;
#X obj 644 581 sel 1;
#X obj 939 211 + 1;
#X obj 901 211 f;
#X obj 901 138 select 248;
#X obj 928 162 r clear;
#X obj 833 138 select 252;
#X obj 180 349 r start;
#X obj 358 300 spigot 1;
#X msg 403 272 0;
#X obj 487 251 r clear;
#X msg 487 274 1;
#X obj 841 308 s trig;
#X obj 962 320 timer;
#X obj 962 374 s ms;
#X obj 901 332 s f;
#X obj 403 251 r clockBlock;
#X obj 937 234 s clockBlock;
#X msg 928 187 0;
#X obj 247 432 metro 500;
#X obj 403 420 metro 500;
#X obj 794 506 ctlin 1 16;
#X obj 896 528 s clockBlock;
#X obj 814 552 s f;
#X obj 874 552 s trig;
#X obj 794 529 bng 15 250 50 0 empty empty empty 17 7 0 10 -262144
-1 -1;
#X obj 874 529 bng 15 250 50 0 empty empty empty 17 7 0 10 -262144
-1 -1;
#X msg 210 457 127;
#X obj 210 531 ctlout 2 16;
#X obj 874 506 ctlin 2 16;
#X msg 370 445 127;
#X obj 370 529 ctlout 1 16;
#X obj 929 628 r clockBlock;
#X msg 929 704 list /slave highlight \$1;
#X msg 929 677 1;
#X obj 929 727 send toGUI;
#X obj 969 651 r clear;
#X msg 969 677 0;
#X obj 794 635 f;
#X obj 825 635 + 1;
#X msg 809 606 0;
#X obj 794 658 mod 2;
#X obj 794 713 timer;
#X obj 855 685 r clear;
#X obj 809 584 r clear;
#X obj 794 685 sel 0 1, f 8;
#X obj 794 741 s ms;
#X obj 925 552 s syncBlock;
#X text 928 608 GUI slave Flag;
#X text 288 21 Tap tempo or manual loop;
#X text 193 551 Send ctl values for slave Midi Clock hack;
#X text 790 484 Receive ctl values through Midi Clock Hack;
#X msg 934 78 1;
#X obj 901 109 spigot;
#X msg 1004 78 0;
#X obj 934 47 select 250 251 252;
#X obj 80 384 r stop;
#X msg 80 411 stop;
#X obj 122 411 t b f;
#X obj 31 384 r start;
#X obj 98 467 metro 500;
#X obj 98 492 s trigMet;
#X text 13 364 double time for metro;
#N canvas 269 138 673 523 saveTime 0;
#X obj 139 336 textfile;
#X obj 90 142 r ms;
#X obj 75 169 \$1;
#X msg 75 194 set \$1;
#X obj 75 8 receive fromGUI;
#X obj 75 31 list trim;
#X obj 75 54 route /export /load;
#X obj 139 374 outlet;
#X obj 184 375 s clockBlock;
#X obj 107 374 s ms;
#X obj 156 150 r bank;
#X obj 123 174 symbol;
#X obj 185 223 r bank;
#X obj 152 250 symbol;
#X obj 152 81 sel 1 0;
#X msg 123 195 write ../exports/\$1/time.txt;
#X msg 152 273 read ../exports/\$1/time.txt;
#X obj 75 109 sel 1 0;
#X msg 411 227 rewind \, bang;
#X connect 0 0 7 0;
#X connect 0 0 8 0;
#X connect 0 0 9 0;
#X connect 1 0 2 1;
#X connect 2 0 3 0;
#X connect 3 0 0 0;
#X connect 4 0 5 0;
#X connect 5 0 6 0;
#X connect 6 0 17 0;
#X connect 6 1 14 0;
#X connect 10 0 11 1;
#X connect 11 0 15 0;
#X connect 12 0 13 1;
#X connect 13 0 16 0;
#X connect 14 0 13 0;
#X connect 14 1 18 0;
#X connect 15 0 0 0;
#X connect 16 0 0 0;
#X connect 17 0 2 0;
#X connect 17 1 11 0;
#X connect 18 0 0 0;
#X restore 236 265 pd saveTime;
#X text 145 245 save/load text file for ms;
#X obj 298 403 / 4;
#X obj 149 438 / 16;
#X obj 644 684 mod 4;
#X obj 644 709 sel 0 3;
#X obj 644 733 timer;
#X obj 644 785 s ms;
#X obj 705 685 r clear;
#X obj 693 734 s start;
#X obj 644 757 * 4;
#X obj 568 615 s clockBlock;
#N canvas 0 23 1280 599 TableResizing 0;
#X obj 112 225 *;
#X obj 139 198 samplerate~;
#X obj 112 175 t f b;
#X obj 112 151 / 1000;
#X obj 112 1 r ms;
#X obj 17 256 s loopResize;
#X obj 113 258 t b b b b b b b b b b b b b b b b, f 165;
#X obj 23 325 s tableCrop-1;
#X obj 119 325 s tableCrop-2;
#X obj 209 325 s tableCrop-3;
#X obj 300 324 s tableCrop-4;
#X obj 60 538 s tableCrop-5;
#X obj 150 538 s tableCrop-6;
#X obj 240 538 s tableCrop-7;
#X obj 330 538 s tableCrop-8;
#X obj 420 538 s tableCrop-9;
#X obj 510 538 s tableCrop-10;
#X obj 610 538 s tableCrop-11;
#X obj 710 538 s tableCrop-12;
#X obj 805 537 s tableCrop-13;
#X obj 915 537 s tableCrop-14;
#X obj 1015 537 s tableCrop-15;
#X obj 1125 537 s tableCrop-16;
#X text 362 195 Stagger table resizes so we don't get glitches;
#X obj 112 117 spigot;
#X msg 145 92 1;
#X msg 186 92 0;
#X obj 186 55 r clear;
#X obj 130 55 delay 50;
#X obj 130 29 bng 15 250 50 0 empty empty empty 17 7 0 10 -262144 -1
-1;
#X obj 23 301 delay 20;
#X obj 119 301 delay 40;
#X obj 209 301 delay 60;
#X obj 300 300 delay 80;
#X obj 60 514 delay 100;
#X obj 150 514 delay 120;
#X obj 240 514 delay 140;
#X obj 330 514 delay 160;
#X obj 420 514 delay 180;
#X obj 510 514 delay 200;
#X obj 610 514 delay 220;
#X obj 710 514 delay 240;
#X obj 805 513 delay 260;
#X obj 915 513 delay 280;
#X obj 1015 513 delay 300;
#X obj 1125 513 delay 320;
#X obj 45 193 r clear;
#X connect 0 0 6 0;
#X connect 0 0 5 0;
#X connect 1 0 0 1;
#X connect 2 0 0 0;
#X connect 2 1 1 0;
#X connect 3 0 2 0;
#X connect 4 0 29 0;
#X connect 4 0 24 0;
#X connect 6 0 30 0;
#X connect 6 1 31 0;
#X connect 6 2 32 0;
#X connect 6 3 33 0;
#X connect 6 4 34 0;
#X connect 6 5 35 0;
#X connect 6 6 36 0;
#X connect 6 7 37 0;
#X connect 6 8 38 0;
#X connect 6 9 39 0;
#X connect 6 10 40 0;
#X connect 6 11 41 0;
#X connect 6 12 42 0;
#X connect 6 13 43 0;
#X connect 6 14 44 0;
#X connect 6 15 45 0;
#X connect 24 0 3 0;
#X connect 25 0 24 1;
#X connect 26 0 24 1;
#X connect 27 0 25 0;
#X connect 28 0 26 0;
#X connect 29 0 28 0;
#X connect 30 0 7 0;
#X connect 31 0 8 0;
#X connect 32 0 9 0;
#X connect 33 0 10 0;
#X connect 34 0 11 0;
#X connect 35 0 12 0;
#X connect 36 0 13 0;
#X connect 37 0 14 0;
#X connect 38 0 15 0;
#X connect 39 0 16 0;
#X connect 40 0 17 0;
#X connect 41 0 18 0;
#X connect 42 0 19 0;
#X connect 43 0 20 0;
#X connect 44 0 21 0;
#X connect 45 0 22 0;
#X connect 46 0 6 0;
#X restore 227 688 pd TableResizing;
#X text 87 659 take ms and resize all tables \, one at at time. So
tables will zoom on wav in gui, f 22;
#X obj 775 309 s trigMet;
#X obj 901 282 sel 0;
#X obj 901 257 mod 384;
#X obj 775 256 mod 24;
#X obj 841 257 mod 96;
#X msg 65 491 127;
#X obj 962 348 * 4;
#X obj 775 281 sel 0;
#X obj 841 282 sel 0 95;
#X obj 1004 529 bng 15 250 50 0 empty empty empty 17 7 0 10 -262144
-1 -1;
#X obj 1004 552 s trigMet;
#X obj 65 523 ctlout 5 16;
#X obj 1004 506 ctlin 5 16;
#X connect 1 0 56 0;
#X connect 4 0 44 0;
#X connect 5 0 4 1;
#X connect 6 0 5 0;
#X connect 7 0 42 0;
#X connect 7 0 89 0;
#X connect 7 0 91 0;
#X connect 9 0 10 0;
#X connect 10 0 11 0;
#X connect 11 0 37 0;
#X connect 13 0 34 1;
#X connect 14 0 15 0;
#X connect 15 0 56 0;
#X connect 16 0 17 0;
#X connect 17 0 55 0;
#X connect 18 0 0 0;
#X connect 18 0 27 0;
#X connect 18 0 28 0;
#X connect 18 0 94 0;
#X connect 19 0 4 1;
#X connect 20 0 21 0;
#X connect 20 0 23 0;
#X connect 21 0 20 1;
#X connect 22 0 20 1;
#X connect 23 0 33 0;
#X connect 24 0 20 0;
#X connect 25 0 19 0;
#X connect 26 0 5 0;
#X connect 27 0 55 0;
#X connect 27 1 101 0;
#X connect 28 0 56 0;
#X connect 28 1 56 1;
#X connect 29 0 20 0;
#X connect 30 0 4 0;
#X connect 31 0 30 1;
#X connect 32 0 22 0;
#X connect 33 0 30 0;
#X connect 33 1 30 1;
#X connect 34 0 35 0;
#X connect 34 0 103 0;
#X connect 35 0 34 1;
#X connect 36 0 13 0;
#X connect 37 0 34 0;
#X connect 37 0 110 0;
#X connect 38 0 39 1;
#X connect 39 0 38 0;
#X connect 39 0 53 0;
#X connect 39 0 115 0;
#X connect 39 0 116 0;
#X connect 39 0 117 0;
#X connect 40 0 39 0;
#X connect 41 0 54 0;
#X connect 42 0 54 0;
#X connect 43 0 55 0;
#X connect 44 0 18 0;
#X connect 45 0 44 1;
#X connect 46 0 47 0;
#X connect 47 0 44 1;
#X connect 49 0 119 0;
#X connect 52 0 45 0;
#X connect 54 0 39 1;
#X connect 55 0 3 0;
#X connect 55 0 63 0;
#X connect 56 0 2 0;
#X connect 56 0 66 0;
#X connect 57 0 61 0;
#X connect 61 0 59 0;
#X connect 61 0 74 0;
#X connect 62 0 60 0;
#X connect 62 0 83 0;
#X connect 63 0 64 0;
#X connect 65 0 62 0;
#X connect 65 0 58 0;
#X connect 66 0 67 0;
#X connect 68 0 70 0;
#X connect 69 0 71 0;
#X connect 70 0 69 0;
#X connect 72 0 73 0;
#X connect 73 0 69 0;
#X connect 74 0 75 0;
#X connect 74 0 77 0;
#X connect 75 0 74 1;
#X connect 76 0 74 1;
#X connect 77 0 81 0;
#X connect 78 0 82 0;
#X connect 80 0 76 0;
#X connect 81 0 78 0;
#X connect 81 1 78 1;
#X connect 88 0 89 1;
#X connect 89 0 40 0;
#X connect 90 0 89 1;
#X connect 91 0 88 0;
#X connect 91 1 88 0;
#X connect 91 2 90 0;
#X connect 92 0 93 0;
#X connect 93 0 96 0;
#X connect 94 0 96 0;
#X connect 94 1 102 0;
#X connect 95 0 96 0;
#X connect 96 0 97 0;
#X connect 96 0 118 0;
#X connect 99 0 56 1;
#X connect 99 0 101 0;
#X connect 99 0 102 0;
#X connect 101 0 55 1;
#X connect 102 0 96 1;
#X connect 103 0 104 0;
#X connect 104 0 105 0;
#X connect 104 1 105 1;
#X connect 104 1 108 0;
#X connect 105 0 109 0;
#X connect 109 0 106 0;
#X connect 109 0 56 1;
#X connect 109 0 101 0;
#X connect 109 0 102 0;
#X connect 114 0 51 0;
#X connect 115 0 114 0;
#X connect 116 0 120 0;
#X connect 117 0 121 0;
#X connect 118 0 124 0;
#X connect 119 0 50 0;
#X connect 120 0 113 0;
#X connect 121 0 48 0;
#X connect 121 0 49 0;
#X connect 121 1 49 1;
#X connect 122 0 123 0;
#X connect 125 0 122 0;
#X restore 30 15 pd clock;
#N canvas 200 23 1101 847 midi 0;
#X obj 272 153 send toGUI;
#X obj 396 139 send toGUI;
#X msg 396 117 list /dtime \$1;
#X obj 506 93 send toGUI;
#X msg 506 71 list /dback \$1;
#X obj 626 93 send toGUI;
#X msg 272 131 list /cutofff \$1;
#X obj 171 115 send toGUI;
#X text 171 23 FX Togg;
#X msg 171 91 list /tfx \$1;
#X obj 171 68 / 127, f 8;
#X obj 101 482 send toGUI;
#X text 51 71 Post Loop Effects;
#X obj 461 479 send toGUI;
#X obj 298 712 send toGUI;
#X obj 448 667 send toGUI;
#X obj 600 667 send toGUI;
#X obj 737 667 send toGUI;
#X text 737 601 cutoff mix;
#X text 600 601 verb mix;
#X text 448 601 delay fback;
#X obj 148 811 send toGUI;
#X obj 313 812 send toGUI;
#X obj 428 812 send toGUI;
#X obj 551 811 send toGUI;
#X text 310 746 crush bits;
#X text 553 742 pitch;
#X text 427 744 distortion mix;
#X text 147 743 pattern delay mix;
#X msg 461 455 list /drumVol \$1;
#X msg 298 688 list /drumDelayTime \$1;
#X msg 448 643 list /drumDelayBack \$1;
#X msg 600 643 list /drumVerbMix \$1;
#X msg 737 643 list /drumCutoff \$1;
#X msg 313 787 list /drumBits \$1;
#X msg 428 788 list /drumDist \$1;
#X msg 551 787 list /drumPitch \$1;
#X msg 148 787 list /drumPatternDelay \$1;
#X text 32 653 input/drum/synth effects, f 12;
#X text 11 256 Loop Volume \, Mutes & Clears, f 15;
#X text 102 410 Clear All;
#X obj 298 644 / 21;
#X text 463 413 Input Volume;
#X obj 348 479 send toGUI;
#X text 350 413 Main Volume;
#X msg 348 455 list /mainVol \$1;
#X text 275 23 Cutoff;
#X text 394 24 Delay Time;
#X text 502 21 Delay Feedback;
#X text 626 21 Distortion;
#X obj 570 502 send toGUI;
#X obj 570 455 / 127, f 8;
#X text 571 410 Monitor;
#X msg 570 478 list /gate \$1;
#X obj 673 481 send toGUI;
#X text 674 390 TapTempo;
#X msg 673 457 list /tap 1;
#X obj 399 93 hsl 50 15 0 7 0 0 empty empty empty -2 -8 0 10 -262144
-1 -1 0 1;
#X obj 301 666 hsl 50 15 0 5 0 0 empty empty empty -2 -8 0 10 -262144
-1 -1 0 1;
#X text 269 412 Stop;
#X text 198 411 Start;
#X msg 101 458 list /clear 1;
#X obj 198 456 sel 0;
#X obj 270 456 sel 0;
#X obj 198 479 s start;
#X obj 270 478 s stop;
#X obj 272 88 expr 1 - $f1;
#X obj 272 68 / 127;
#X obj 272 108 * 127;
#X msg 626 71 list /mainVerb \$1;
#X obj 101 432 ctlin 70 1;
#X obj 171 44 ctlin 69 1;
#X obj 272 44 ctlin 65 1;
#X obj 396 44 ctlin 66 1;
#X obj 506 45 ctlin 67 1;
#X obj 626 45 ctlin 68 1;
#X obj 570 432 ctlin 75 1;
#X obj 198 433 ctlin 71 1;
#X obj 270 433 ctlin 72 1;
#X obj 348 432 ctlin 73 1;
#X obj 461 432 ctlin 74 1;
#X obj 673 412 ctlin 76 1;
#X text 108 209 lp# \, rec \, mute \, clear \, vol;
#X obj 111 228 MIDIAssign 1 1 17 33 49;
#X obj 148 672 send toGUI;
#X text 145 601 freeDelay time;
#X obj 148 620 ctlin 77 1;
#X msg 148 648 list /freeDelayTime \$1;
#X text 295 601 Qdelay time;
#X obj 298 620 ctlin 78 1;
#X obj 448 620 ctlin 79 1;
#X obj 600 620 ctlin 80 1;
#X obj 737 620 ctlin 81 1;
#X obj 148 764 ctlin 82 1;
#X obj 313 765 ctlin 83 1;
#X obj 428 765 ctlin 84 1;
#X obj 551 764 ctlin 85 1;
#X obj 677 436 sel 0;
#X msg 973 246 127;
#X obj 973 270 ctlout 3 16;
#X obj 865 56 ctlin 3 16;
#X obj 888 85 bng 15 250 50 0 empty empty empty 17 7 0 10 -262144 -1
-1;
#X obj 1010 56 r clear;
#X obj 888 104 spigot 0;
#X msg 933 81 1;
#X obj 973 224 r stop;
#X msg 968 82 0;
#X obj 888 127 s stop;
#X obj 933 56 r syncBlock;
#X msg 1008 111 127;
#X obj 1008 89 r clear;
#X obj 1008 135 ctlout 4 16;
#X obj 897 192 bng 15 250 50 0 empty empty empty 17 7 0 10 -262144
-1 -1;
#X obj 1019 166 r clear;
#X obj 897 214 spigot 0;
#X msg 942 191 1;
#X msg 977 192 0;
#X obj 942 166 r syncBlock;
#X obj 874 166 ctlin 4 16;
#X obj 897 237 s clear;
#X text 24 450 Transport;
#X text 772 74 MidiClock Hack, f 12;
#X obj 396 66 / 15.9;
#X obj 110 288 MIDIAssign 9 9 25 41 57;
#X obj 261 228 MIDIAssign 2 2 18 34 50;
#X obj 411 228 MIDIAssign 3 3 19 35 51;
#X obj 561 228 MIDIAssign 4 4 20 36 52;
#X obj 111 258 MIDIAssign 5 5 21 37 53;
#X obj 261 258 MIDIAssign 6 6 22 38 54;
#X obj 411 258 MIDIAssign 7 7 23 39 55;
#X obj 561 258 MIDIAssign 8 8 24 40 56;
#X obj 260 288 MIDIAssign 10 10 26 42 58;
#X obj 420 288 MIDIAssign 11 11 27 43 59;
#X obj 580 288 MIDIAssign 12 12 28 44 60;
#X obj 110 318 MIDIAssign 13 13 29 45 61;
#X obj 270 318 MIDIAssign 14 14 30 46 62;
#X obj 430 318 MIDIAssign 15 15 31 47 63;
#X obj 600 318 MIDIAssign 16 16 32 48 64;
#X connect 2 0 1 0;
#X connect 4 0 3 0;
#X connect 6 0 0 0;
#X connect 9 0 7 0;
#X connect 10 0 9 0;
#X connect 29 0 13 0;
#X connect 30 0 14 0;
#X connect 31 0 15 0;
#X connect 32 0 16 0;
#X connect 33 0 17 0;
#X connect 34 0 22 0;
#X connect 35 0 23 0;
#X connect 36 0 24 0;
#X connect 37 0 21 0;
#X connect 41 0 58 0;
#X connect 45 0 43 0;
#X connect 51 0 53 0;
#X connect 53 0 50 0;
#X connect 56 0 54 0;
#X connect 57 0 2 0;
#X connect 58 0 30 0;
#X connect 61 0 11 0;
#X connect 62 0 64 0;
#X connect 63 0 65 0;
#X connect 66 0 68 0;
#X connect 67 0 66 0;
#X connect 68 0 6 0;
#X connect 69 0 5 0;
#X connect 70 0 61 0;
#X connect 71 0 10 0;
#X connect 72 0 67 0;
#X connect 73 0 122 0;
#X connect 74 0 4 0;
#X connect 75 0 69 0;
#X connect 76 0 51 0;
#X connect 77 0 62 0;
#X connect 78 0 63 0;
#X connect 79 0 45 0;
#X connect 80 0 29 0;
#X connect 81 0 97 0;
#X connect 86 0 87 0;
#X connect 87 0 84 0;
#X connect 89 0 41 0;
#X connect 90 0 31 0;
#X connect 91 0 32 0;
#X connect 92 0 33 0;
#X connect 93 0 37 0;
#X connect 94 0 34 0;
#X connect 95 0 35 0;
#X connect 96 0 36 0;
#X connect 97 0 56 0;
#X connect 98 0 99 0;
#X connect 100 0 101 0;
#X connect 101 0 103 0;
#X connect 102 0 106 0;
#X connect 103 0 107 0;
#X connect 104 0 103 1;
#X connect 105 0 98 0;
#X connect 106 0 103 1;
#X connect 108 0 104 0;
#X connect 109 0 111 0;
#X connect 110 0 109 0;
#X connect 112 0 114 0;
#X connect 113 0 116 0;
#X connect 114 0 119 0;
#X connect 115 0 114 1;
#X connect 116 0 114 1;
#X connect 117 0 115 0;
#X connect 118 0 112 0;
#X connect 122 0 57 0;
#X restore 30 75 pd midi;
#X text 103 47 GUI Communication;
#X text 78 77 MIDI Assignments;
#X text 126 106 Main Output and FX;
#N canvas 156 163 1022 595 mainOutandFX 0;
#X obj 362 429 dac~;
#X obj 72 24 r~ loopSignal;
#N canvas 575 217 1016 671 cutoff 0;
#X obj 453 175 hsl 50 15 200 8000 0 0 empty cutoff empty -2 -8 0 10
-262144 -1 -1 4900 1;
#X obj 160 14 receive fromGUI;
#X obj 160 39 route list;
#X obj 14 109 inlet~;
#X obj 9 590 outlet~;
#X obj 160 61 route /cutofff;
#X obj 450 195 sig~;
#X obj 450 122 * 127;
#X obj 450 101 expr 1 - $f1;
#X obj 450 78 / 127;
#X obj 501 126 loadbang;
#X msg 501 149 8000;
#X obj 450 149 * 60;
#X obj 9 486 *~;
#X obj 24 372 expr 1 - $f1;
#X obj 37 343 hsl 90 15 0 1 0 0 empty empty empty -2 -8 0 10 -262144
-1 -1 0 1;
#X text 141 343 wet/dry;
#X obj 78 278 loadbang;
#X msg 78 304 0;
#X obj 62 483 *~;
#X obj 81 429 vline~;
#X msg 81 404 \$1 50;
#X obj 24 429 vline~;
#X msg 24 404 \$1 50;
#X obj 357 269 vcf~ 6;
#X obj 402 269 vcf~ 6;
#X obj 313 269 vcf~ 6;
#X obj 38 249 clip 0 1;
#X connect 0 0 6 0;
#X connect 1 0 2 0;
#X connect 2 0 5 0;
#X connect 3 0 13 0;
#X connect 3 0 24 0;
#X connect 3 0 25 0;
#X connect 3 0 26 0;
#X connect 5 0 9 0;
#X connect 5 0 27 0;
#X connect 6 0 24 1;
#X connect 6 0 25 1;
#X connect 6 0 26 1;
#X connect 7 0 12 0;
#X connect 8 0 7 0;
#X connect 9 0 8 0;
#X connect 10 0 11 0;
#X connect 11 0 0 0;
#X connect 12 0 0 0;
#X connect 13 0 4 0;
#X connect 14 0 23 0;
#X connect 15 0 14 0;
#X connect 15 0 21 0;
#X connect 17 0 18 0;
#X connect 18 0 15 0;
#X connect 19 0 4 0;
#X connect 20 0 19 1;
#X connect 21 0 20 0;
#X connect 22 0 13 1;
#X connect 23 0 22 0;
#X connect 24 1 19 0;
#X connect 25 0 19 0;
#X connect 26 0 19 0;
#X connect 27 0 15 0;
#X restore 27 111 pd cutoff;
#N canvas 206 267 1093 501 dealy 0;
#X obj 342 191 vd~ pitch;
#X obj 490 50 vsl 15 50 0 1 0 1 empty dback empty 0 -9 0 10 -262144
-1 -1 0 1;
#X obj 68 0 s~ pitch;
#X obj 324 74 vsl 15 50 0 2000 0 0 empty dtime empty 0 -9 0 10 -262144
-1 -1 0 1;
#X obj 324 154 vline~;
#X obj 362 233 *~;
#X obj 412 297 delwrite~ pitch 2000;
#X msg 324 133 \$1 200;
#X obj 49 -42 inlet~;
#X obj 57 344 outlet~;
#X obj 490 -33 receive fromGUI;
#X obj 490 -12 route list;
#X text 256 95 Delay Time;
#X text 397 87 Delay Feedback;
#X obj 416 259 r~ pitch;
#X obj 43 268 *~;
#X obj 84 266 *~;
#X obj 111 102 expr 1 - $f1;
#X obj 124 73 hsl 90 15 0 1 0 0 empty dmix empty -2 -8 0 10 -262144
-1 -1 4450 1;
#X floatatom 154 140 5 0 0 0 - - -, f 5;
#X text 69 72 wet/dry;
#X obj 490 8 route /dback;
#X obj 490 27 / 127;
#X obj 665 232 spigot;
#X floatatom 797 366 10 0 0 0 - - -, f 10;
#X obj 710 232 spigot;
#X obj 755 231 spigot;
#X obj 801 231 spigot;
#X obj 797 388 s datime;
#X obj 324 48 r datime;
#X obj 759 -27 receive fromGUI;
#X obj 759 -6 route list;
#X obj 759 15 route /dtime;
#X obj 618 54 r ms;
#X obj 618 113 \$1;
#X obj 150 14 loadbang;
#X msg 152 38 0.5;
#X msg 269 41 0;
#X obj 53 314 *~ 2;
#X obj 665 255 / 128;
#X obj 710 255 / 64;
#X obj 755 254 / 32;
#X obj 801 254 / 16;
#X floatatom 760 43 5 0 0 0 - - -, f 5;
#X obj 847 231 spigot;
#X obj 847 254 / 8;
#X obj 893 231 spigot;
#X obj 893 254 / 4;
#X obj 943 231 spigot;
#X obj 943 254 / 2;
#X msg 636 87 bang;
#X obj 993 231 spigot;
#X obj 698 209 == 1;
#X obj 743 209 == 2;
#X obj 788 208 == 3;
#X obj 834 207 == 4;
#X obj 880 207 == 5;
#X obj 926 206 == 6;
#X obj 976 207 == 7;
#X obj 1026 207 == 8;
#X obj 615 232 spigot;
#X obj 648 209 == 0;
#X obj 615 255 / 256;
#X obj 685 -16 loadbang;
#X msg 685 11 0;
#X connect 0 0 5 0;
#X connect 1 0 5 1;
#X connect 3 0 7 0;
#X connect 4 0 0 0;
#X connect 5 0 6 0;
#X connect 5 0 16 0;
#X connect 7 0 4 0;
#X connect 8 0 2 0;
#X connect 8 0 15 0;
#X connect 10 0 11 0;
#X connect 11 0 21 0;
#X connect 14 0 6 0;
#X connect 15 0 38 0;
#X connect 16 0 38 0;
#X connect 17 0 15 1;
#X connect 18 0 17 0;
#X connect 18 0 19 0;
#X connect 19 0 16 1;
#X connect 21 0 22 0;
#X connect 22 0 1 0;
#X connect 23 0 39 0;
#X connect 24 0 28 0;
#X connect 25 0 40 0;
#X connect 26 0 41 0;
#X connect 27 0 42 0;
#X connect 29 0 3 0;
#X connect 30 0 31 0;
#X connect 31 0 32 0;
#X connect 32 0 43 0;
#X connect 33 0 34 0;
#X connect 34 0 23 0;
#X connect 34 0 25 0;
#X connect 34 0 26 0;
#X connect 34 0 27 0;
#X connect 34 0 44 0;
#X connect 34 0 46 0;
#X connect 34 0 48 0;
#X connect 34 0 51 0;
#X connect 34 0 60 0;
#X connect 35 0 36 0;
#X connect 35 0 37 0;
#X connect 36 0 17 0;
#X connect 36 0 19 0;
#X connect 36 0 18 0;
#X connect 37 0 7 0;
#X connect 37 0 1 0;
#X connect 38 0 9 0;
#X connect 39 0 24 0;
#X connect 40 0 24 0;
#X connect 41 0 24 0;
#X connect 42 0 24 0;
#X connect 43 0 52 0;
#X connect 43 0 53 0;
#X connect 43 0 54 0;
#X connect 43 0 55 0;
#X connect 43 0 56 0;
#X connect 43 0 57 0;
#X connect 43 0 58 0;
#X connect 43 0 59 0;
#X connect 43 0 61 0;
#X connect 43 0 50 0;
#X connect 44 0 45 0;
#X connect 45 0 24 0;
#X connect 46 0 47 0;
#X connect 47 0 24 0;
#X connect 48 0 49 0;
#X connect 49 0 24 0;
#X connect 50 0 34 0;
#X connect 51 0 24 0;
#X connect 52 0 23 1;
#X connect 53 0 25 1;
#X connect 54 0 26 1;
#X connect 55 0 27 1;
#X connect 56 0 44 1;
#X connect 57 0 46 1;
#X connect 58 0 48 1;
#X connect 59 0 51 1;
#X connect 60 0 62 0;
#X connect 61 0 60 1;
#X connect 62 0 24 0;
#X connect 63 0 64 0;
#X connect 64 0 43 0;
#X restore 27 85 pd dealy;
#X obj 367 398 *~;
#X obj 394 365 line~;
#X obj 394 343 pack 0 50;
#X obj 394 319 / 127;
#X obj 394 257 receive fromGUI;
#X obj 394 277 route list;
#X obj 394 297 route /mainVol;
#X obj 517 242 loadbang;
#X obj 517 297 send toGUI;
#X obj 184 345 *~;
#X obj 230 345 *~;
#X obj 242 207 expr 1 - $f1;
#X obj 245 178 hsl 90 15 0 1 0 0 empty empty empty -2 -8 0 10 -262144
-1 -1 8900 1;
#X obj 242 78 receive fromGUI;
#X obj 242 103 list trim;
#X obj 242 126 route /tfx;
#X obj 242 152 expr 1 - $f1;
#X obj 182 113 loadbang;
#X msg 182 136 1;
#X obj 367 222 r~ mainInput;
#X msg 517 269 list /mainVol 63.5;
#N canvas 1021 88 511 405 mainVerb 0;
#X obj 79 365 outlet~;
#X obj 55 266 inlet~;
#X obj 310 293 expr 1 - $f1;
#X obj 311 139 receive fromGUI;
#X obj 311 160 route list;
#X obj 296 59 loadbang;
#X obj 112 119 hsl 128 15 0 1 0 1 empty empty 'roomsize' 20 8 0 10
-262144 -260097 -1 0 0;
#X obj 127 162 hsl 128 15 0 2.4 0 1 empty empty damp 20 8 0 10 -262144
-260097 -1 0 0;
#X floatatom 118 140 5 0 0 0 - - -, f 5;
#X floatatom 133 182 5 0 0 0 - - -, f 5;
#X obj 157 255 hsl 128 15 0 1 0 1 empty empty wet 20 8 0 10 -262144
-260097 -1 0 0;
#X obj 142 205 hsl 128 15 0 1 0 1 empty empty dry 20 8 0 10 -262144
-260097 -1 12700 0;
#X floatatom 168 278 5 0 0 0 - - -, f 5;
#X floatatom 147 229 5 0 0 0 - - -, f 5;
#N canvas 188 449 634 321 vfreeverb~ 0;
#N canvas 261 41 778 367 combfilters-left1 0;
#X obj 46 244 +~;
#X obj 61 219 *~ 0.3;
#X obj 61 194 lop~ 1000;
#X obj 231 244 +~;
#X obj 246 219 *~ 0.3;
#X obj 246 194 lop~ 1000;
#X obj 429 218 *~ 0.3;
#X obj 429 193 lop~ 1000;
#X obj 414 241 +~;
#X obj 610 218 *~ 0.3;
#X obj 610 193 lop~ 1000;
#X obj 595 241 +~;
#X obj 61 141 delread~ \$0-comb1left;
#X obj 246 142 delread~ \$0-comb2left;
#X obj 429 141 delread~ \$0-comb3left;
#X obj 610 141 delread~ \$0-comb4left;
#X obj 46 268 delwrite~ \$0-comb1left 100;
#X obj 231 268 delwrite~ \$0-comb2left 100;
#X obj 414 267 delwrite~ \$0-comb3left 100;
#X obj 595 267 delwrite~ \$0-comb4left 100;
#X obj 61 97 r \$0-comb1left;
#X obj 246 97 r \$0-comb2left;
#X obj 429 95 r \$0-comb3left;
#X obj 610 96 r \$0-comb4left;
#X obj 112 170 r \$0-frequency;
#X obj 297 170 r \$0-frequency;
#X obj 480 167 r \$0-frequency;
#X obj 661 167 r \$0-frequency;
#X obj 46 28 inlet~;
#X obj 338 326 outlet~;
#X floatatom 70 119 5 0 0 0 - - -, f 5;
#X floatatom 255 121 5 0 0 0 - - -, f 5;
#X floatatom 439 119 5 0 0 0 - - -, f 5;
#X floatatom 622 121 5 0 0 0 - - -, f 5;
#X obj 279 58 clip 0 0.99;
#X obj 279 29 r \$0-room;
#X connect 0 0 16 0;
#X connect 1 0 0 1;
#X connect 2 0 1 0;
#X connect 2 0 29 0;
#X connect 3 0 17 0;
#X connect 4 0 3 1;
#X connect 5 0 4 0;
#X connect 5 0 29 0;
#X connect 6 0 8 1;
#X connect 7 0 6 0;
#X connect 7 0 29 0;
#X connect 8 0 18 0;
#X connect 9 0 11 1;
#X connect 10 0 9 0;
#X connect 10 0 29 0;
#X connect 11 0 19 0;
#X connect 12 0 2 0;
#X connect 13 0 5 0;
#X connect 14 0 7 0;
#X connect 15 0 10 0;
#X connect 20 0 12 0;
#X connect 20 0 30 0;
#X connect 21 0 13 0;
#X connect 21 0 31 0;
#X connect 22 0 14 0;
#X connect 22 0 32 0;
#X connect 23 0 15 0;
#X connect 23 0 33 0;
#X connect 24 0 2 1;
#X connect 25 0 5 1;
#X connect 26 0 7 1;
#X connect 27 0 10 1;
#X connect 28 0 0 0;
#X connect 28 0 3 0;
#X connect 28 0 8 0;
#X connect 28 0 11 0;
#X connect 34 0 1 1;
#X connect 34 0 4 1;
#X connect 34 0 6 1;
#X connect 34 0 9 1;
#X connect 35 0 34 0;
#X restore 15 100 pd combfilters-left1;
#N canvas 27 56 358 650 diffusor-left 0;
#X obj 51 107 *~ 0.5;
#X obj 36 132 +~;
#X obj 66 132 -~;
#X obj 36 26 inlet~;
#X obj 81 238 *~ 0.5;
#X obj 66 263 +~;
#X obj 96 263 -~;
#X obj 111 368 *~ 0.5;
#X obj 96 393 +~;
#X obj 126 393 -~;
#X obj 141 498 *~ 0.5;
#X obj 126 523 +~;
#X obj 156 523 -~;
#X obj 156 605 outlet~;
#X text 95 28 freeverb's diffusor;
#X obj 156 576 hip~ 5;
#X floatatom 214 70 5 0 0 0 - - -, f 5;
#X floatatom 246 203 5 0 0 0 - - -, f 5;
#X floatatom 280 334 5 0 0 0 - - -, f 5;
#X floatatom 304 464 5 0 0 0 - - -, f 5;
#X obj 51 53 r \$0-allpass1left;
#X obj 51 80 delread~ \$0-allpass1left;
#X obj 36 158 delwrite~ \$0-allpass1left 40;
#X obj 81 186 r \$0-allpass2left;
#X obj 81 211 delread~ \$0-allpass2left;
#X obj 66 290 delwrite~ \$0-allpass2left 40;
#X obj 111 317 r \$0-allpass3left;
#X obj 111 341 delread~ \$0-allpass3left;
#X obj 96 420 delwrite~ \$0-allpass3left 40;
#X obj 141 447 r \$0-allpass4left;
#X obj 141 471 delread~ \$0-allpass4left;
#X obj 126 550 delwrite~ \$0-allpass4left 40;
#X connect 0 0 1 1;
#X connect 1 0 22 0;
#X connect 2 0 5 0;
#X connect 2 0 6 1;
#X connect 3 0 1 0;
#X connect 3 0 2 1;
#X connect 4 0 5 1;
#X connect 5 0 25 0;
#X connect 6 0 8 0;
#X connect 6 0 9 1;
#X connect 7 0 8 1;
#X connect 8 0 28 0;
#X connect 9 0 11 0;
#X connect 9 0 12 1;
#X connect 10 0 11 1;
#X connect 11 0 31 0;
#X connect 12 0 15 0;
#X connect 15 0 13 0;
#X connect 20 0 16 0;
#X connect 20 0 21 0;
#X connect 21 0 0 0;
#X connect 21 0 2 0;
#X connect 23 0 17 0;
#X connect 23 0 24 0;
#X connect 24 0 4 0;
#X connect 24 0 6 0;
#X connect 26 0 18 0;
#X connect 26 0 27 0;
#X connect 27 0 7 0;
#X connect 27 0 9 0;
#X connect 29 0 19 0;
#X connect 29 0 30 0;
#X connect 30 0 10 0;
#X connect 30 0 12 0;
#X restore 15 168 pd diffusor-left;
#N canvas 312 366 778 367 combfilters-left2 0;
#X obj 46 244 +~;
#X obj 61 219 *~ 0.3;
#X obj 61 194 lop~ 1000;
#X obj 231 244 +~;
#X obj 246 219 *~ 0.3;
#X obj 246 194 lop~ 1000;
#X obj 429 218 *~ 0.3;
#X obj 429 193 lop~ 1000;
#X obj 414 241 +~;
#X obj 610 218 *~ 0.3;
#X obj 610 193 lop~ 1000;
#X obj 595 241 +~;
#X obj 112 170 r \$0-frequency;
#X obj 297 170 r \$0-frequency;
#X obj 480 167 r \$0-frequency;
#X obj 661 167 r \$0-frequency;
#X obj 46 28 inlet~;
#X obj 338 326 outlet~;
#X obj 61 90 r \$0-comb5left;
#X obj 61 141 delread~ \$0-comb5left;
#X obj 46 268 delwrite~ \$0-comb5left 100;
#X obj 246 90 r \$0-comb6left;
#X obj 246 142 delread~ \$0-comb6left;
#X obj 231 268 delwrite~ \$0-comb6left 100;
#X obj 429 88 r \$0-comb7left;
#X obj 429 141 delread~ \$0-comb7left;
#X obj 414 267 delwrite~ \$0-comb7left 100;
#X obj 610 89 r \$0-comb8left;
#X obj 610 141 delread~ \$0-comb8left;
#X obj 595 267 delwrite~ \$0-comb8left 100;
#X floatatom 70 116 5 0 0 0 - - -, f 5;
#X floatatom 261 118 5 0 0 0 - - -, f 5;
#X floatatom 440 117 5 0 0 0 - - -, f 5;
#X floatatom 620 116 5 0 0 0 - - -, f 5;
#X obj 279 58 clip 0 0.99;
#X obj 279 28 r \$0-room;
#X connect 0 0 20 0;
#X connect 1 0 0 1;
#X connect 2 0 1 0;
#X connect 2 0 17 0;
#X connect 3 0 23 0;
#X connect 4 0 3 1;
#X connect 5 0 4 0;
#X connect 5 0 17 0;
#X connect 6 0 8 1;
#X connect 7 0 6 0;
#X connect 7 0 17 0;
#X connect 8 0 26 0;
#X connect 9 0 11 1;
#X connect 10 0 9 0;
#X connect 10 0 17 0;
#X connect 11 0 29 0;
#X connect 12 0 2 1;
#X connect 13 0 5 1;
#X connect 14 0 7 1;
#X connect 15 0 10 1;
#X connect 16 0 0 0;
#X connect 16 0 3 0;
#X connect 16 0 8 0;
#X connect 16 0 11 0;
#X connect 18 0 19 0;
#X connect 18 0 30 0;
#X connect 19 0 2 0;
#X connect 21 0 22 0;
#X connect 21 0 31 0;
#X connect 22 0 5 0;
#X connect 24 0 25 0;
#X connect 24 0 32 0;
#X connect 25 0 7 0;
#X connect 27 0 28 0;
#X connect 27 0 33 0;
#X connect 28 0 10 0;
#X connect 34 0 1 1;
#X connect 34 0 4 1;
#X connect 34 0 6 1;
#X connect 34 0 9 1;
#X connect 35 0 34 0;
#X restore 36 134 pd combfilters-left2;
#N canvas 261 41 778 367 combfilters-right1 0;
#X obj 46 244 +~;
#X obj 61 219 *~ 0.3;
#X obj 61 194 lop~ 1000;
#X obj 231 244 +~;
#X obj 246 219 *~ 0.3;
#X obj 246 194 lop~ 1000;
#X obj 429 218 *~ 0.3;
#X obj 429 193 lop~ 1000;
#X obj 414 241 +~;
#X obj 610 218 *~ 0.3;
#X obj 610 193 lop~ 1000;
#X obj 595 241 +~;
#X obj 112 170 r \$0-frequency;
#X obj 297 170 r \$0-frequency;
#X obj 480 167 r \$0-frequency;
#X obj 661 167 r \$0-frequency;
#X obj 46 28 inlet~;
#X obj 338 326 outlet~;
#X floatatom 70 119 5 0 0 0 - - -, f 5;
#X floatatom 255 121 5 0 0 0 - - -, f 5;
#X floatatom 439 119 5 0 0 0 - - -, f 5;
#X floatatom 622 121 5 0 0 0 - - -, f 5;
#X obj 61 141 delread~ \$0-comb1right;
#X obj 246 142 delread~ \$0-comb2right;
#X obj 429 141 delread~ \$0-comb3right;
#X obj 610 141 delread~ \$0-comb4right;
#X obj 61 97 r \$0-comb1right;
#X obj 246 97 r \$0-comb2right;
#X obj 429 95 r \$0-comb3right;
#X obj 610 97 r \$0-comb4right;
#X obj 46 268 delwrite~ \$0-comb1right 100;
#X obj 231 268 delwrite~ \$0-comb2right 100;
#X obj 414 267 delwrite~ \$0-comb3right 100;
#X obj 595 267 delwrite~ \$0-comb4right 100;
#X obj 279 58 clip 0 0.99;
#X obj 279 28 r \$0-room;
#X connect 0 0 30 0;
#X connect 1 0 0 1;
#X connect 2 0 1 0;
#X connect 2 0 17 0;
#X connect 3 0 31 0;
#X connect 4 0 3 1;
#X connect 5 0 4 0;
#X connect 5 0 17 0;
#X connect 6 0 8 1;
#X connect 7 0 6 0;
#X connect 7 0 17 0;
#X connect 8 0 32 0;
#X connect 9 0 11 1;
#X connect 10 0 9 0;
#X connect 10 0 17 0;
#X connect 11 0 33 0;
#X connect 12 0 2 1;
#X connect 13 0 5 1;
#X connect 14 0 7 1;
#X connect 15 0 10 1;
#X connect 16 0 0 0;
#X connect 16 0 3 0;
#X connect 16 0 8 0;
#X connect 16 0 11 0;
#X connect 22 0 2 0;
#X connect 23 0 5 0;
#X connect 24 0 7 0;
#X connect 25 0 10 0;
#X connect 26 0 18 0;
#X connect 26 0 22 0;
#X connect 27 0 19 0;
#X connect 27 0 23 0;
#X connect 28 0 20 0;
#X connect 28 0 24 0;
#X connect 29 0 21 0;
#X connect 29 0 25 0;
#X connect 34 0 1 1;
#X connect 34 0 4 1;
#X connect 34 0 6 1;
#X connect 34 0 9 1;
#X connect 35 0 34 0;
#X restore 208 99 pd combfilters-right1;
#N canvas 312 366 778 367 combfilters-right2 0;
#X obj 46 244 +~;
#X obj 61 219 *~ 0.3;
#X obj 61 194 lop~ 1000;
#X obj 231 244 +~;
#X obj 246 219 *~ 0.3;
#X obj 246 194 lop~ 1000;
#X obj 429 218 *~ 0.3;
#X obj 429 193 lop~ 1000;
#X obj 414 241 +~;
#X obj 610 218 *~ 0.3;
#X obj 610 193 lop~ 1000;
#X obj 595 241 +~;
#X obj 112 170 r \$0-frequency;
#X obj 297 170 r \$0-frequency;
#X obj 480 167 r \$0-frequency;
#X obj 661 167 r \$0-frequency;
#X obj 46 28 inlet~;
#X obj 338 326 outlet~;
#X floatatom 70 116 5 0 0 0 - - -, f 5;
#X floatatom 261 118 5 0 0 0 - - -, f 5;
#X floatatom 440 117 5 0 0 0 - - -, f 5;
#X floatatom 620 116 5 0 0 0 - - -, f 5;
#X obj 279 58 clip 0 0.99;
#X obj 61 90 r \$0-comb5right;
#X obj 246 90 r \$0-comb6right;
#X obj 429 88 r \$0-comb7right;
#X obj 610 89 r \$0-comb8right;
#X obj 61 141 delread~ \$0-comb5right;
#X obj 246 142 delread~ \$0-comb6right;
#X obj 429 141 delread~ \$0-comb7right;
#X obj 610 141 delread~ \$0-comb8right;
#X obj 46 268 delwrite~ \$0-comb5right 100;
#X obj 231 268 delwrite~ \$0-comb6right 100;
#X obj 414 267 delwrite~ \$0-comb7right 100;
#X obj 595 267 delwrite~ \$0-comb8right 100;
#X obj 279 28 r \$0-room;
#X connect 0 0 31 0;
#X connect 1 0 0 1;
#X connect 2 0 1 0;
#X connect 2 0 17 0;
#X connect 3 0 32 0;
#X connect 4 0 3 1;
#X connect 5 0 4 0;
#X connect 5 0 17 0;
#X connect 6 0 8 1;
#X connect 7 0 6 0;
#X connect 7 0 17 0;
#X connect 8 0 33 0;
#X connect 9 0 11 1;
#X connect 10 0 9 0;
#X connect 10 0 17 0;
#X connect 11 0 34 0;
#X connect 12 0 2 1;
#X connect 13 0 5 1;
#X connect 14 0 7 1;
#X connect 15 0 10 1;
#X connect 16 0 0 0;
#X connect 16 0 3 0;
#X connect 16 0 8 0;
#X connect 16 0 11 0;
#X connect 22 0 1 1;
#X connect 22 0 4 1;
#X connect 22 0 6 1;
#X connect 22 0 9 1;
#X connect 23 0 18 0;
#X connect 23 0 27 0;
#X connect 24 0 19 0;
#X connect 24 0 28 0;
#X connect 25 0 20 0;
#X connect 25 0 29 0;
#X connect 26 0 21 0;
#X connect 26 0 30 0;
#X connect 27 0 2 0;
#X connect 28 0 5 0;
#X connect 29 0 7 0;
#X connect 30 0 10 0;
#X connect 35 0 22 0;
#X restore 225 133 pd combfilters-right2;
#N canvas 27 56 358 650 diffusor-right 0;
#X obj 51 107 *~ 0.5;
#X obj 36 132 +~;
#X obj 66 132 -~;
#X obj 36 26 inlet~;
#X obj 81 238 *~ 0.5;
#X obj 66 263 +~;
#X obj 96 263 -~;
#X obj 111 368 *~ 0.5;
#X obj 96 393 +~;
#X obj 126 393 -~;
#X obj 141 498 *~ 0.5;
#X obj 126 523 +~;
#X obj 156 523 -~;
#X obj 156 605 outlet~;
#X text 95 28 freeverb's diffusor;
#X obj 156 576 hip~ 5;
#X floatatom 214 70 5 0 0 0 - - -, f 5;
#X floatatom 244 203 5 0 0 0 - - -, f 5;
#X floatatom 280 334 5 0 0 0 - - -, f 5;
#X floatatom 304 464 5 0 0 0 - - -, f 5;
#X obj 51 53 r \$0-allpass1right;
#X obj 51 80 delread~ \$0-allpass1right;
#X obj 36 158 delwrite~ \$0-allpass1right 40;
#X obj 81 186 r \$0-allpass2right;
#X obj 81 211 delread~ \$0-allpass2right;
#X obj 66 290 delwrite~ \$0-allpass2right 40;
#X obj 111 317 r \$0-allpass3right;
#X obj 111 341 delread~ \$0-allpass3right;
#X obj 96 420 delwrite~ \$0-allpass3right 40;
#X obj 141 447 r \$0-allpass4right;
#X obj 141 471 delread~ \$0-allpass4right;
#X obj 126 550 delwrite~ \$0-allpass4right 40;
#X connect 0 0 1 1;
#X connect 1 0 22 0;
#X connect 2 0 5 0;
#X connect 2 0 6 1;
#X connect 3 0 1 0;
#X connect 3 0 2 1;
#X connect 4 0 5 1;
#X connect 5 0 25 0;
#X connect 6 0 8 0;
#X connect 6 0 9 1;
#X connect 7 0 8 1;
#X connect 8 0 28 0;
#X connect 9 0 11 0;
#X connect 9 0 12 1;
#X connect 10 0 11 1;
#X connect 11 0 31 0;
#X connect 12 0 15 0;
#X connect 15 0 13 0;
#X connect 20 0 16 0;
#X connect 20 0 21 0;
#X connect 21 0 0 0;
#X connect 21 0 2 0;
#X connect 23 0 17 0;
#X connect 23 0 24 0;
#X connect 24 0 4 0;
#X connect 24 0 6 0;
#X connect 26 0 18 0;
#X connect 26 0 27 0;
#X connect 27 0 7 0;
#X connect 27 0 9 0;
#X connect 29 0 19 0;
#X connect 29 0 30 0;
#X connect 30 0 10 0;
#X connect 30 0 12 0;
#X restore 208 169 pd diffusor-right;
#X obj 208 61 *~ 0.015;
#X obj 15 226 *~ 1;
#X obj 208 228 *~ 1;
#X obj 94 228 *~ 1;
#X obj 169 228 *~ 1;
#X obj 115 202 r \$0-dry;
#X obj 229 203 r \$0-wet;
#X obj 36 201 r \$0-wet;
#X obj 94 14 inlet~;
#X obj 208 14 inlet~;
#X obj 15 268 outlet~;
#X obj 169 269 outlet~;
#X obj 312 14 inlet;
#X obj 374 14 inlet;
#X obj 462 14 inlet;
#X obj 544 16 inlet;
#N canvas 0 22 207 207 room 0;
#X obj 32 35 inlet;
#X obj 32 63 * 0.28;
#X obj 32 94 + 0.7;
#X obj 32 160 outlet;
#X text 80 65 scaleroom;
#X text 76 94 offsetroom;
#X obj 47 126 s \$0-room;
#X connect 0 0 1 0;
#X connect 1 0 2 0;
#X connect 2 0 3 0;
#X connect 2 0 6 0;
#X restore 312 45 pd room;
#N canvas 684 169 244 376 frequency 0;
#X obj 60 222 samplerate~;
#X obj 33 8 inlet;
#X obj 33 194 t f b;
#X obj 33 249 *;
#X obj 53 303 s \$0-frequency;
#X obj 33 327 outlet;
#X obj 33 64 * 0.4;
#X text 76 66 scaledamp;
#X obj 33 90 t b f;
#X obj 33 141 -;
#X msg 33 116 1;
#X obj 33 168 abs;
#X obj 33 275 * 0.5;
#X text 153 303 for [lop~];
#X obj 33 38 clip 0 2.4;
#X connect 0 0 3 1;
#X connect 1 0 14 0;
#X connect 2 0 3 0;
#X connect 2 1 0 0;
#X connect 3 0 12 0;
#X connect 6 0 8 0;
#X connect 8 0 10 0;
#X connect 8 1 9 1;
#X connect 9 0 11 0;
#X connect 10 0 9 0;
#X connect 11 0 2 0;
#X connect 12 0 5 0;
#X connect 12 0 4 0;
#X connect 14 0 6 0;
#X restore 374 45 pd frequency;
#N canvas 0 22 170 187 scalewet 0;
#X obj 22 42 inlet;
#X obj 22 143 outlet;
#X obj 22 73 * 3;
#X text 49 74 scalewet;
#X obj 40 112 s \$0-wet;
#X connect 0 0 2 0;
#X connect 2 0 1 0;
#X connect 2 0 4 0;
#X restore 544 45 pd scalewet;
#N canvas 0 22 220 198 scaledry 0;
#X obj 32 74 * 2;
#X obj 32 40 inlet;
#X obj 32 141 outlet;
#X text 58 75 scaledry;
#X obj 41 105 s \$0-dry;
#X connect 0 0 2 0;
#X connect 0 0 4 0;
#X connect 1 0 0 0;
#X restore 462 45 pd scaledry;
#X floatatom 312 70 5 0 0 0 - - -, f 5;
#X floatatom 374 70 10 0 0 0 - - -, f 10;
#X floatatom 462 69 5 0 0 0 - - -, f 5;
#X floatatom 544 69 5 0 0 0 - - -, f 5;
#N canvas 405 27 635 684 tuning 0;
#X msg 332 81 1139 \, 1211 \, 1300 \, 1379 \, 1445 \, 1514 \, 1580
\, 1640;
#X text 72 57 combfilter tunings left;
#X text 377 56 combfilter tunings right;
#X text 71 360 allpass tunings left;
#X text 383 355 allpass tunings right;
#N canvas 243 170 195 233 sampstoms 0;
#X obj 27 21 inlet;
#X obj 54 86 samplerate~;
#X obj 27 111 /;
#X obj 27 57 t f b;
#X obj 27 136 * 1000;
#X obj 27 162 outlet;
#X connect 0 0 3 0;
#X connect 1 0 2 1;
#X connect 2 0 4 0;
#X connect 3 0 2 0;
#X connect 3 1 1 0;
#X connect 4 0 5 0;
#X restore 30 107 pd sampstoms;
#X msg 30 82 1116 \, 1188 \, 1277 \, 1356 \, 1422 \, 1491 \, 1557 \,
1617;
#X obj 57 188 +;
#X msg 57 159 1;
#X obj 30 135 t f b;
#X obj 87 188 f;
#X obj 30 56 t b b;
#X msg 87 159 0;
#X obj 57 212 pack f \$0;
#X msg 57 238 \$2-comb\$1left;
#X obj 30 282 s;
#X obj 57 265 symbol;
#N canvas 0 22 195 233 sampstoms 0;
#X obj 27 21 inlet;
#X obj 54 86 samplerate~;
#X obj 27 111 /;
#X obj 27 57 t f b;
#X obj 27 136 * 1000;
#X obj 27 162 outlet;
#X connect 0 0 3 0;
#X connect 1 0 2 1;
#X connect 2 0 4 0;
#X connect 3 0 2 0;
#X connect 3 1 1 0;
#X connect 4 0 5 0;
#X restore 332 107 pd sampstoms;
#X obj 359 188 +;
#X msg 359 159 1;
#X obj 332 135 t f b;
#X obj 389 188 f;
#X msg 389 159 0;
#X obj 359 212 pack f \$0;
#X obj 332 282 s;
#X obj 359 265 symbol;
#X obj 332 56 t b b;
#X msg 359 238 \$2-comb\$1right;
#X obj 30 360 t b b;
#N canvas 0 22 195 233 sampstoms 0;
#X obj 27 21 inlet;
#X obj 54 86 samplerate~;
#X obj 27 111 /;
#X obj 27 57 t f b;
#X obj 27 136 * 1000;
#X obj 27 162 outlet;
#X connect 0 0 3 0;
#X connect 1 0 2 1;
#X connect 2 0 4 0;
#X connect 3 0 2 0;
#X connect 3 1 1 0;
#X connect 4 0 5 0;
#X restore 30 411 pd sampstoms;
#X obj 57 492 +;
#X msg 57 463 1;
#X obj 30 439 t f b;
#X obj 87 492 f;
#X msg 87 463 0;
#X obj 57 516 pack f \$0;
#X obj 30 586 s;
#X obj 57 569 symbol;
#X obj 334 356 t b b;
#N canvas 0 22 195 233 sampstoms 0;
#X obj 27 21 inlet;
#X obj 54 86 samplerate~;
#X obj 27 111 /;
#X obj 27 57 t f b;
#X obj 27 136 * 1000;
#X obj 27 162 outlet;
#X connect 0 0 3 0;
#X connect 1 0 2 1;
#X connect 2 0 4 0;
#X connect 3 0 2 0;
#X connect 3 1 1 0;
#X connect 4 0 5 0;
#X restore 334 407 pd sampstoms;
#X obj 361 488 +;
#X msg 361 459 1;
#X obj 334 435 t f b;
#X obj 391 488 f;
#X msg 391 459 0;
#X obj 361 512 pack f \$0;
#X obj 334 582 s;
#X obj 361 565 symbol;
#X obj 30 22 loadbang;
#X obj 332 27 loadbang;
#X obj 30 334 loadbang;
#X obj 334 331 loadbang;
#X obj 268 41 bng 15 250 50 0 empty empty empty 17 7 0 10 -262144 -1
-1;
#X msg 30 386 225 \, 556 \, 441 \, 341;
#X msg 334 380 248 \, 579 \, 464 \, 364;
#X msg 57 542 \$2-allpass\$1left;
#X msg 361 539 \$2-allpass\$1right;
#X text 27 624 Original Freeverb delay line lengths are converted to
milliseconds \, based on samplerate.;
#X connect 0 0 17 0;
#X connect 5 0 9 0;
#X connect 6 0 5 0;
#X connect 7 0 10 0;
#X connect 7 0 13 0;
#X connect 8 0 7 0;
#X connect 9 0 15 0;
#X connect 9 1 8 0;
#X connect 10 0 7 1;
#X connect 11 0 6 0;
#X connect 11 1 12 0;
#X connect 12 0 10 0;
#X connect 13 0 14 0;
#X connect 14 0 16 0;
#X connect 16 0 15 1;
#X connect 17 0 20 0;
#X connect 18 0 21 0;
#X connect 18 0 23 0;
#X connect 19 0 18 0;
#X connect 20 0 24 0;
#X connect 20 1 19 0;
#X connect 21 0 18 1;
#X connect 22 0 21 0;
#X connect 23 0 27 0;
#X connect 25 0 24 1;
#X connect 26 0 0 0;
#X connect 26 1 22 0;
#X connect 27 0 25 0;
#X connect 28 0 53 0;
#X connect 28 1 34 0;
#X connect 29 0 32 0;
#X connect 30 0 33 0;
#X connect 30 0 35 0;
#X connect 31 0 30 0;
#X connect 32 0 36 0;
#X connect 32 1 31 0;
#X connect 33 0 30 1;
#X connect 34 0 33 0;
#X connect 35 0 55 0;
#X connect 37 0 36 1;
#X connect 38 0 54 0;
#X connect 38 1 44 0;
#X connect 39 0 42 0;
#X connect 40 0 43 0;
#X connect 40 0 45 0;
#X connect 41 0 40 0;
#X connect 42 0 46 0;
#X connect 42 1 41 0;
#X connect 43 0 40 1;
#X connect 44 0 43 0;
#X connect 45 0 56 0;
#X connect 47 0 46 1;
#X connect 48 0 11 0;
#X connect 49 0 26 0;
#X connect 50 0 28 0;
#X connect 51 0 38 0;
#X connect 52 0 11 0;
#X connect 52 0 28 0;
#X connect 52 0 26 0;
#X connect 52 0 38 0;
#X connect 53 0 29 0;
#X connect 54 0 39 0;
#X connect 55 0 37 0;
#X connect 56 0 47 0;
#X restore 410 141 pd tuning;
#X connect 0 0 1 0;
#X connect 1 0 7 0;
#X connect 2 0 1 0;
#X connect 3 0 5 0;
#X connect 4 0 5 0;
#X connect 5 0 8 0;
#X connect 6 0 3 0;
#X connect 6 0 0 0;
#X connect 6 0 4 0;
#X connect 6 0 2 0;
#X connect 7 0 16 0;
#X connect 8 0 17 0;
#X connect 9 0 16 0;
#X connect 10 0 17 0;
#X connect 11 0 10 1;
#X connect 11 0 9 1;
#X connect 12 0 8 1;
#X connect 13 0 7 1;
#X connect 14 0 6 0;
#X connect 14 0 9 0;
#X connect 15 0 6 0;
#X connect 15 0 10 0;
#X connect 18 0 22 0;
#X connect 19 0 23 0;
#X connect 20 0 25 0;
#X connect 21 0 24 0;
#X connect 22 0 26 0;
#X connect 23 0 27 0;
#X connect 24 0 29 0;
#X connect 25 0 28 0;
#X restore 79 311 pd vfreeverb~;
#X obj 311 267 / 508, f 8;
#X msg 235 74 0;
#X msg 295 87 0;
#X obj 343 222 / 127;
#X obj 311 183 route /mainVerb;
#X obj 89 342 *~ 0.24;
#X connect 1 0 14 0;
#X connect 1 0 14 1;
#X connect 2 0 11 0;
#X connect 3 0 4 0;
#X connect 4 0 19 0;
#X connect 5 0 17 0;
#X connect 5 0 16 0;
#X connect 6 0 8 0;
#X connect 6 0 14 2;
#X connect 7 0 9 0;
#X connect 7 0 14 3;
#X connect 10 0 12 0;
#X connect 10 0 14 5;
#X connect 11 0 13 0;
#X connect 11 0 14 4;
#X connect 14 0 20 0;
#X connect 14 1 20 0;
#X connect 15 0 2 0;
#X connect 15 0 10 0;
#X connect 16 0 6 0;
#X connect 16 0 10 0;
#X connect 17 0 7 0;
#X connect 18 0 6 0;
#X connect 19 0 15 0;
#X connect 19 0 18 0;
#X connect 20 0 0 0;
#X restore 27 135 pd mainVerb;
#X obj 233 286 line, f 5;
#X msg 233 263 \$1 15;
#X obj 283 286 line, f 5;
#X msg 283 263 \$1 15;
#X text 345 178 post Loop Effects btn;
#X msg 551 398 bang;
#X obj 591 472 bng 15 250 50 0 empty empty empty 17 7 0 10 -262144
-1 -1;
#X msg 607 395 0;
#N canvas 0 22 450 278 (subpatch) 0;
#X array /waves 1000 float 5;
#A 0 0 0 0 0 0 0 0 0 0 0 0 0 0 0 0 0 0 0 0 0 0 0 0 0 0 0 0 0 0 0 0
0 0 0 0 0 0 0 0 0 0 0 0 0 0 0 0 0 0 0 0 0 0 0 0 0 0 0 0 0 0 0 0 0 0
0 0 0 0 0 0 0 0 0 0 0 0 0 0 0 0 0 0 0 0 0 0 0 0 0 0 0 0 0 0 0 0 0 0
0 0 0 0 0 0 0 0 0 0 0 0 0 0 0 0 0 0 0 0 0 0 0 0 0 0 0 0 0 0 0 0 0 0
0 0 0 0 0 0 0 0 0 0 0 0 0 0 0 0 0 0 0 0 0 0 0 0 0 0 0 0 0 0 0 0 0 0
0 0 0 0 0 0 0 0 0 0 0 0 0 0 0 0 0 0 0 0 0 0 0 0 0 0 0 0 0 0 0 0 0 0
0 0 0 0 0 0 0 0 0 0 0 0 0 0 0 0 0 0 0 0 0 0 0 0 0 0 0 0 0 0 0 0 0 0
0 0 0 0 0 0 0 0 0 0 0 0 0 0 0 0 0 0 0 0 0 0 0 0 0 0 0 0 0 0 0 0 0 0
0 0 0 0 0 0 0 0 0 0 0 0 0 0 0 0 0 0 0 0 0 0 0 0 0 0 0 0 0 0 0 0 0 0
0 0 0 0 0 0 0 0 0 0 0 0 0 0 0 0 0 0 0 0 0 0 0 0 0 0 0 0 0 0 0 0 0 0
0 0 0 0 0 0 0 0 0 0 0 0 0 0 0 0 0 0 0 0 0 0 0 0 0 0 0 0 0 0 0 0 0 0
0 0 0 0 0 0 0 0 0 0 0 0 0 0 0 0 0 0 0 0 0 0 0 0 0 0 0 0 0 0 0 0 0 0
0 0 0 0 0 0 0 0 0 0 0 0 0 0 0 0 0 0 0 0 0 0 0 0 0 0 0 0 0 0 0 0 0 0
0 0 0 0 0 0 0 0 0 0 0 0 0 0 0 0 0 0 0 0 0 0 0 0 0 0 0 0 0 0 0 0 0 0
0 0 0 0 0 0 0 0 0 0 0 0 0 0 0 0 0 0 0 0 0 0 0 0 0 0 0 0 0 0 0 0 0 0
0 0 0 0 0 0 0 0 0 0 0 0 0 0 0 0 0 0 0 0 0 0 0 0 0 0 0 0 0 0 0 0 0 0
0 0 0 0 0 0 0 0 0 0 0 0 0 0 0 0 0 0 0 0 0 0 0 0 0 0 0 0 0 0 0 0 0 0
0 0 0 0 0 0 0 0 0 0 0 0 0 0 0 0 0 0 0 0 0 0 0 0 0 0 0 0 0 0 0 0 0 0
0 0 0 0 0 0 0 0 0 0 0 0 0 0 0 0 0 0 0 0 0 0 0 0 0 0 0 0 0 0 0 0 0 0
0 0 0 0 0 0 0 0 0 0 0 0 0 0 0 0 0 0 0 0 0 0 0 0 0 0 0 0 0 0 0 0 0 0
0 0 0 0 0 0 0 0 0 0 0 0 0 0 0 0 0 0 0 0 0 0 0 0 0 0 0 0 0 0 0 0 0 0
0 0 0 0 0 0 0 0 0 0 0 0 0 0 0 0 0 0 0 0 0 0 0 0 0 0 0 0 0 0 0 0 0 0
0 0 0 0 0 0 0 0 0 0 0 0 0 0 0 0 0 0 0 0 0 0 0 0 0 0 0 0 0 0 0 0 0 0
0 0 0 0 0 0 0 0 0 0 0 0 0 0 0 0 0 0 0 0 0 0 0 0 0 0 0 0 0 0 0 0 0 0
0 0 0 0 0 0 0 0 0 0 0 0 0 0 0 0 0 0 0 0 0 0 0 0 0 0 0 0 0 0 0 0 0 0
0 0 0 0 0 0 0 0 0 0 0 0 0 0 0 0 0 0 0 0 0 0 0 0 0 0 0 0 0 0 0 0 0 0
0 0 0 0 0 0 0 0 0 0 0 0 0 0 0 0 0 0 0 0 0 0 0 0 0 0 0 0 0 0 0 0 0 0
0 0 0 0 0 0 0 0 0 0 0 0 0 0 0 0 0 0 0 0 0 0 0 0 0 0 0 0 0 0 0 0 0 0
0 0 0 0 0 0 0 0 0 0 0 0 0 0 0 0 0 0 0 0 0 0 0 0 0 0 0 0 0 0 0 0 0 0
0 0 0 0 0 0 0 0 0 0 0 0 0 0 0 0 0;
#X coords 0 1 999 -1 200 140 1;
#X restore 771 380 graph;
#X obj 544 507 tabwrite~ /waves;
#X msg 649 472 list /waves refresh;
#X obj 672 528 send toGUI;
#X obj 545 429 metro 100;
#X obj 552 364 loadbang;
#X connect 1 0 3 0;
#X connect 1 0 14 0;
#X connect 2 0 25 0;
#X connect 3 0 2 0;
#X connect 4 0 0 0;
#X connect 4 0 0 1;
#X connect 4 0 35 0;
#X connect 5 0 4 1;
#X connect 6 0 5 0;
#X connect 7 0 6 0;
#X connect 8 0 9 0;
#X connect 9 0 10 0;
#X connect 10 0 7 0;
#X connect 11 0 24 0;
#X connect 13 0 4 0;
#X connect 14 0 4 0;
#X connect 15 0 27 0;
#X connect 16 0 15 0;
#X connect 16 0 29 0;
#X connect 17 0 18 0;
#X connect 18 0 19 0;
#X connect 19 0 20 0;
#X connect 20 0 16 0;
#X connect 21 0 22 0;
#X connect 22 0 16 0;
#X connect 23 0 4 0;
#X connect 24 0 12 0;
#X connect 25 0 13 0;
#X connect 26 0 13 1;
#X connect 27 0 26 0;
#X connect 28 0 14 1;
#X connect 29 0 28 0;
#X connect 31 0 38 0;
#X connect 32 0 36 0;
#X connect 33 0 38 0;
#X connect 36 0 37 0;
#X connect 38 0 32 0;
#X connect 38 0 35 0;
#X connect 39 0 31 0;
#X restore 30 105 pd mainOutandFX;
#X obj 388 106 inlet~;
#X obj 568 544 vline~;
#X obj 650 419 r ms;
#X obj 568 441 r f;
#X obj 605 466 delay \$1;
#X obj 399 567 *~;
#X obj 25 215 loops 1;
#N canvas 39 23 1383 839 saveGUI 0;
#X obj 370 508 textfile;
#X obj 726 211 receive fromGUI;
#X obj 726 234 list trim;
#X obj 48 58 r vol-1;
#X obj 101 58 r vol-2;
#X obj 154 58 r vol-3;
#X obj 207 58 r vol-4;
#X obj 258 58 r vol-5;
#X obj 311 58 r vol-6;
#X obj 364 58 r vol-7;
#X obj 417 58 r vol-8;
#X obj 333 350 bng 15 250 50 0 empty empty empty 17 7 0 10 -262144
-1 -1;
#X obj 370 622 send toGUI;
#X obj 505 116 r st-1;
#X obj 549 116 r st-2;
#X obj 595 116 r st-3;
#X obj 639 116 r st-4;
#X obj 685 116 r st-5;
#X obj 729 116 r st-6;
#X obj 775 116 r st-7;
#X obj 819 116 r st-8;
#X obj 505 116 r st-1;
#X obj 549 116 r st-2;
#X obj 595 116 r st-3;
#X obj 639 116 r st-4;
#X text 46 235 This receives values from all loops (vol \, mute \,
active flag) and outputs them as one big ass list in a text file.,
f 28;
#X text 236 551 Read that big ass list and spit that shit back into
the gui., f 21;
#X obj 904 385 r ms;
#X msg 986 380 list /saveProg Saving...;
#X obj 816 460 delay 1000;
#X msg 816 481 list /saveProg;
#X obj 1057 591 send toGUI;
#X text 1071 534 Tell the gui that you are saving that shit, f 17
;
#X obj 726 257 route /load /export;
#X obj 289 455 r clear;
#X msg 289 480 clear;
#X obj 333 378 symbol;
#X obj 366 351 r bank;
#X msg 333 412 write ../exports/\$1/gui.txt cr;
#X obj 538 390 symbol;
#X obj 571 363 r bank;
#X obj 1044 413 r clear;
#X msg 538 412 read ../exports/\$1/gui.txt cr;
#X msg 859 431 list /saveProg Done!, f 21;
#X obj 469 58 r vol-9;
#X obj 521 58 r vol-10;
#X obj 579 58 r vol-11;
#X obj 637 58 r vol-12;
#X obj 695 58 r vol-13;
#X obj 753 58 r vol-14;
#X obj 810 58 r vol-15;
#X obj 867 58 r vol-16;
#X obj 864 116 r st-9;
#X obj 909 116 r st-10;
#X obj 960 116 r st-11;
#X obj 1010 116 r st-12;
#X obj 1060 115 r st-13;
#X obj 1117 115 r st-14;
#X obj 1173 116 r st-15;
#X obj 1227 116 r st-16;
#X msg 1044 452 list /bankOne set 0 \, list /bankTwo set 0 \, list
/bankThree set 0 \, list /bankFour set 0 \, list /bankFive set 0 \,
list /bankSix set 0 \, list /bankSeven set 0 \, list /bankEight set
0 \, list /bankNine set 0 \, list /bankTen set 0, f 46;
#X obj 859 410 delay 50;
#N canvas 29 23 1381 794 saveSaves 0;
#X obj 74 7 receive fromGUI;
#X obj 74 31 route list;
#X obj 74 57 route /bankOne /bankTwo /bankThree /bankFour /bankFive
/bankSix /bankSeven /bankEight /bankNine /bankTen /export, f 115;
#X obj 73 142 spigot;
#X obj 117 142 spigot;
#X obj 161 142 spigot;
#X obj 211 142 spigot;
#X obj 257 142 spigot;
#X obj 393 142 spigot;
#X obj 455 142 spigot;
#X obj 504 142 spigot;
#X obj 552 142 spigot;
#X obj 605 142 spigot;
#X msg 27 195 write ../exports/1.txt cr;
#X msg 175 255 write ../exports/3.txt cr;
#X msg 225 281 write ../exports/4.txt cr;
#X msg 272 307 write ../exports/5.txt cr;
#X msg 394 183 write ../exports/6.txt cr;
#X msg 456 213 write ../exports/7.txt cr;
#X msg 505 243 write ../exports/8.txt cr;
#X msg 553 273 write ../exports/9.txt cr;
#X msg 606 313 write ../exports/10.txt cr;
#X msg 115 480 read ../exports/1.txt cr;
#X msg 101 225 write ../exports/2.txt cr;
#X obj 115 504 textfile;
#X obj 115 550 send toGUI;
#X msg 115 526 list /saveBlockOne set \$1;
#X obj 698 84 sel 0 1;
#X obj 395 371 textfile;
#X msg 717 120 set 1;
#X obj 884 645 textfile;
#X obj 884 691 send toGUI;
#X obj 884 583 loadbang;
#X obj 115 443 loadbang;
#X obj 375 504 textfile;
#X obj 375 550 send toGUI;
#X obj 375 443 loadbang;
#X msg 375 480 read ../exports/2.txt cr;
#X msg 375 526 list /saveBlockTwo set \$1;
#X obj 635 504 textfile;
#X obj 635 550 send toGUI;
#X obj 635 443 loadbang;
#X msg 635 480 read ../exports/3.txt cr;
#X msg 635 526 list /saveBlockThree set \$1;
#X obj 895 504 textfile;
#X obj 895 550 send toGUI;
#X obj 895 443 loadbang;
#X msg 895 480 read ../exports/4.txt cr;
#X msg 895 526 list /saveBlockFour set \$1;
#X obj 115 654 textfile;
#X obj 115 700 send toGUI;
#X obj 115 593 loadbang;
#X obj 375 654 textfile;
#X obj 375 700 send toGUI;
#X obj 375 593 loadbang;
#X obj 635 654 textfile;
#X obj 635 700 send toGUI;
#X obj 635 593 loadbang;
#X obj 1165 504 textfile;
#X obj 1165 550 send toGUI;
#X obj 1165 443 loadbang;
#X msg 1165 480 read ../exports/5.txt cr;
#X msg 1165 527 list /saveBlockFive set \$1;
#X msg 115 630 read ../exports/6.txt cr;
#X msg 115 676 list /saveBlockSix set \$1;
#X msg 375 630 read ../exports/7.txt cr;
#X msg 375 676 list /saveBlockSeven set \$1;
#X msg 635 631 read ../exports/8.txt cr;
#X msg 635 676 list /saveBlockEight set \$1;
#X msg 884 620 read ../exports/9.txt cr;
#X msg 884 667 list /saveBlockNine set \$1;
#X obj 1154 645 textfile;
#X obj 1154 691 send toGUI;
#X obj 1154 583 loadbang;
#X msg 1154 620 read ../exports/10.txt cr;
#X msg 1154 667 list /saveBlockTen set \$1;
#X msg 27 231 1;
#X msg 101 282 1;
#X msg 173 326 1;
#X msg 230 331 1;
#X msg 298 354 1;
#X msg 415 222 1;
#X msg 467 254 1;
#X msg 512 277 1;
#X msg 560 311 1;
#X msg 648 359 1;
#X msg 14 480 rewind \, bang;
#X msg 284 480 rewind \, bang;
#X msg 544 480 rewind \, bang;
#X msg 804 480 rewind \, bang;
#X msg 1074 480 rewind \, bang;
#X msg 26 620 rewind \, bang;
#X msg 277 620 rewind \, bang;
#X msg 548 620 rewind \, bang;
#X msg 797 620 rewind \, bang;
#X msg 1067 620 rewind \, bang;
#X connect 0 0 1 0;
#X connect 1 0 2 0;
#X connect 2 0 3 1;
#X connect 2 1 4 1;
#X connect 2 2 5 1;
#X connect 2 3 6 1;
#X connect 2 4 7 1;
#X connect 2 5 8 1;
#X connect 2 6 9 1;
#X connect 2 7 10 1;
#X connect 2 8 11 1;
#X connect 2 9 12 1;
#X connect 2 10 27 0;
#X connect 3 0 13 0;
#X connect 4 0 23 0;
#X connect 5 0 14 0;
#X connect 6 0 15 0;
#X connect 7 0 16 0;
#X connect 8 0 17 0;
#X connect 9 0 18 0;
#X connect 10 0 19 0;
#X connect 11 0 20 0;
#X connect 12 0 21 0;
#X connect 13 0 28 0;
#X connect 13 0 76 0;
#X connect 14 0 28 0;
#X connect 14 0 78 0;
#X connect 15 0 28 0;
#X connect 15 0 79 0;
#X connect 16 0 28 0;
#X connect 16 0 80 0;
#X connect 17 0 28 0;
#X connect 17 0 81 0;
#X connect 18 0 28 0;
#X connect 18 0 82 0;
#X connect 19 0 28 0;
#X connect 19 0 83 0;
#X connect 20 0 28 0;
#X connect 20 0 84 0;
#X connect 21 0 28 0;
#X connect 21 0 85 0;
#X connect 22 0 24 0;
#X connect 23 0 28 0;
#X connect 23 0 77 0;
#X connect 24 0 26 0;
#X connect 26 0 25 0;
#X connect 27 0 3 0;
#X connect 27 0 4 0;
#X connect 27 0 5 0;
#X connect 27 0 6 0;
#X connect 27 0 7 0;
#X connect 27 0 8 0;
#X connect 27 0 9 0;
#X connect 27 0 10 0;
#X connect 27 0 11 0;
#X connect 27 0 12 0;
#X connect 27 1 29 0;
#X connect 29 0 28 0;
#X connect 30 0 70 0;
#X connect 32 0 69 0;
#X connect 32 0 94 0;
#X connect 33 0 22 0;
#X connect 33 0 86 0;
#X connect 34 0 38 0;
#X connect 36 0 37 0;
#X connect 36 0 87 0;
#X connect 37 0 34 0;
#X connect 38 0 35 0;
#X connect 39 0 43 0;
#X connect 41 0 42 0;
#X connect 41 0 88 0;
#X connect 42 0 39 0;
#X connect 43 0 40 0;
#X connect 44 0 48 0;
#X connect 46 0 47 0;
#X connect 46 0 89 0;
#X connect 47 0 44 0;
#X connect 48 0 45 0;
#X connect 49 0 64 0;
#X connect 51 0 63 0;
#X connect 51 0 91 0;
#X connect 52 0 66 0;
#X connect 54 0 65 0;
#X connect 54 0 92 0;
#X connect 55 0 68 0;
#X connect 57 0 67 0;
#X connect 57 0 93 0;
#X connect 58 0 62 0;
#X connect 60 0 61 0;
#X connect 60 0 90 0;
#X connect 61 0 58 0;
#X connect 62 0 59 0;
#X connect 63 0 49 0;
#X connect 64 0 50 0;
#X connect 65 0 52 0;
#X connect 66 0 53 0;
#X connect 67 0 55 0;
#X connect 68 0 56 0;
#X connect 69 0 30 0;
#X connect 70 0 31 0;
#X connect 71 0 75 0;
#X connect 73 0 74 0;
#X connect 73 0 95 0;
#X connect 74 0 71 0;
#X connect 75 0 72 0;
#X connect 76 0 26 0;
#X connect 77 0 38 0;
#X connect 78 0 43 0;
#X connect 79 0 48 0;
#X connect 80 0 62 0;
#X connect 81 0 64 0;
#X connect 82 0 66 0;
#X connect 83 0 68 0;
#X connect 84 0 70 0;
#X connect 85 0 75 0;
#X connect 86 0 24 0;
#X connect 87 0 34 0;
#X connect 88 0 39 0;
#X connect 89 0 44 0;
#X connect 90 0 58 0;
#X connect 91 0 49 0;
#X connect 92 0 52 0;
#X connect 93 0 55 0;
#X connect 94 0 30 0;
#X connect 95 0 71 0;
#X restore 160 490 pd saveSaves;
#X text 57 462 This Saves the flags that show if a session is saved
on the gui, f 15;
#X obj 726 281 sel 1 0;
#X obj 781 322 sel 1 0;
#X msg 690 370 rewind \, bang;
#X obj 724 537 send toSystem;
#X msg 724 512 list /setPage 1;
#X obj 63 190 pack f f f f f f f f f f f f f f f f f f f f f f f f
f f f f f f f f, f 195;
#X msg 223 231 set \$1 \$2 \$3 \$4 \$5 \$6 \$7 \$8 \$9 \$10 \$11 \$12
\$13 \$14 \$15 \$16 \$17 \$18 \$19 \$20 \$21 \$22 \$23 \$24 \$25 \$26
\$27 \$28 \$29 \$30 \$31 \$32;
#X msg 370 541 list /vol1 \$1 \, list /vol2 \$2 \, list /vol3 \$3 \,
list /vol4 \$4 \, list /vol5 \$5 \, list /vol6 \$6 \, list /vol7 \$7
\, list /vol8 \$8 \, list /vol9 \$9 \, list /vol10 \$10 \, list /vol11
\$11 \, list /vol12 \$12 \, list /vol13 \$13 \, list /vol14 \$14 \,
list /vol15 \$15 \, list /vol16 \$16 \,, f 52;
#X obj 308 716 unpack f f f f f f f f f f f f f f f f, f 82;
#X msg 629 246 1;
#X msg 664 246 0;
#X obj 189 771 s lpd-1;
#X obj 239 771 s lpd-2;
#X obj 289 771 s lpd-3;
#X obj 339 771 s lpd-4;
#X obj 389 771 s lpd-5;
#X obj 439 771 s lpd-6;
#X obj 489 771 s lpd-7;
#X obj 539 771 s lpd-8;
#X obj 590 771 s lpd-9;
#X obj 640 771 s lpd-10;
#X obj 696 771 s lpd-11;
#X obj 752 771 s lpd-12;
#X obj 809 771 s lpd-13;
#X obj 867 771 s lpd-14;
#X obj 925 771 s lpd-15;
#X obj 982 771 s lpd-16;
#X msg 308 653 \$17 \$18 \$19 \$20 \$21 \$22 \$23 \$24 \$25 \$26 \$27
\$28 \$29 \$30 \$31 \$32;
#X connect 0 0 71 0;
#X connect 0 0 91 0;
#X connect 1 0 2 0;
#X connect 2 0 33 0;
#X connect 3 0 69 0;
#X connect 4 0 69 1;
#X connect 5 0 69 2;
#X connect 6 0 69 3;
#X connect 7 0 69 4;
#X connect 8 0 69 5;
#X connect 9 0 69 6;
#X connect 10 0 69 7;
#X connect 11 0 36 0;
#X connect 13 0 69 16;
#X connect 14 0 69 17;
#X connect 15 0 69 18;
#X connect 16 0 69 19;
#X connect 17 0 69 20;
#X connect 18 0 69 21;
#X connect 19 0 69 22;
#X connect 20 0 69 23;
#X connect 27 0 61 1;
#X connect 28 0 31 0;
#X connect 29 0 30 0;
#X connect 30 0 31 0;
#X connect 33 0 64 0;
#X connect 33 1 65 0;
#X connect 34 0 35 0;
#X connect 35 0 0 0;
#X connect 36 0 38 0;
#X connect 37 0 36 1;
#X connect 38 0 0 0;
#X connect 39 0 42 0;
#X connect 40 0 39 1;
#X connect 41 0 60 0;
#X connect 42 0 0 0;
#X connect 43 0 31 0;
#X connect 44 0 69 8;
#X connect 45 0 69 9;
#X connect 46 0 69 10;
#X connect 47 0 69 11;
#X connect 48 0 69 12;
#X connect 49 0 69 13;
#X connect 50 0 69 14;
#X connect 51 0 69 15;
#X connect 52 0 69 24;
#X connect 53 0 69 25;
#X connect 54 0 69 26;
#X connect 55 0 69 27;
#X connect 56 0 69 28;
#X connect 57 0 69 29;
#X connect 58 0 69 30;
#X connect 59 0 69 31;
#X connect 60 0 31 0;
#X connect 61 0 43 0;
#X connect 61 0 29 0;
#X connect 64 0 39 0;
#X connect 64 0 68 0;
#X connect 64 1 66 0;
#X connect 65 0 61 0;
#X connect 65 1 28 0;
#X connect 66 0 0 0;
#X connect 68 0 67 0;
#X connect 69 0 70 0;
#X connect 70 0 0 0;
#X connect 70 0 11 0;
#X connect 71 0 12 0;
#X connect 72 0 75 0;
#X connect 72 1 76 0;
#X connect 72 2 77 0;
#X connect 72 3 78 0;
#X connect 72 4 79 0;
#X connect 72 5 80 0;
#X connect 72 6 81 0;
#X connect 72 7 82 0;
#X connect 72 8 83 0;
#X connect 72 9 84 0;
#X connect 72 10 85 0;
#X connect 72 11 86 0;
#X connect 72 12 87 0;
#X connect 72 13 88 0;
#X connect 72 14 89 0;
#X connect 72 15 90 0;
#X connect 73 0 64 0;
#X connect 74 0 64 0;
#X connect 91 0 72 0;
#X restore 31 131 pd saveGUI;
#X text 98 131 Create Textfile that saves GUI positions;
#X text 84 17 Clock Heart;
#X obj 650 441 - 5;
#X msg 568 485 1 5;
#X msg 605 490 0 5;
#X obj 797 379 midiin;
#X msg 712 497 1 15;
#X msg 520 511 0 15;
#X obj 712 468 r start;
#X obj 520 480 r stop;
#X obj 814 413 sel 252;
#X obj 756 413 sel 250;
#X obj 814 438 s stop;
#X obj 688 446 r lp;
#X obj 77 215 loops 2;
#X obj 183 215 loops 4;
#X obj 235 215 loops 5;
#X obj 128 215 loops 3;
#X obj 287 215 loops 6;
#X obj 338 215 loops 7;
#X obj 389 215 loops 8;
#X obj 442 214 loops 9;
#X obj 493 214 loops 10;
#X obj 549 214 loops 11;
#X obj 606 214 loops 12;
#X obj 663 214 loops 13;
#X obj 719 214 loops 14;
#X obj 776 214 loops 15;
#X obj 833 214 loops 16;
#X connect 3 0 16 0;
#X connect 3 0 32 0;
#X connect 3 0 33 0;
#X connect 3 0 34 0;
#X connect 3 0 35 0;
#X connect 3 0 36 0;
#X connect 3 0 37 0;
#X connect 3 0 38 0;
#X connect 3 0 39 0;
#X connect 3 0 40 0;
#X connect 3 0 41 0;
#X connect 3 0 42 0;
#X connect 3 0 43 0;
#X connect 3 0 44 0;
#X connect 3 0 45 0;
#X connect 3 0 46 0;
#X connect 10 0 2 0;
#X connect 11 0 15 1;
#X connect 12 0 20 0;
#X connect 13 0 21 0;
#X connect 13 0 14 0;
#X connect 14 0 22 0;
#X connect 15 0 0 0;
#X connect 16 0 15 0;
#X connect 20 0 14 1;
#X connect 21 0 11 0;
#X connect 22 0 11 0;
#X connect 23 0 28 0;
#X connect 23 0 29 0;
#X connect 24 0 11 0;
#X connect 25 0 11 0;
#X connect 26 0 24 0;
#X connect 27 0 25 0;
#X connect 28 0 30 0;
#X connect 29 0 24 0;
#X connect 31 0 24 0;
#X connect 32 0 15 0;
#X connect 33 0 15 0;
#X connect 34 0 15 0;
#X connect 35 0 15 0;
#X connect 36 0 15 0;
#X connect 37 0 15 0;
#X connect 38 0 15 0;
#X connect 39 0 15 0;
#X connect 40 0 15 0;
#X connect 41 0 15 0;
#X connect 42 0 15 0;
#X connect 43 0 15 0;
#X connect 44 0 15 0;
#X connect 45 0 15 0;
#X connect 46 0 15 0;
