#N canvas 33 226 551 280 10;
#X obj 53 125 spigot;
#X floatatom 53 72 5 0 0 0 - - -, f 5;
#X obj 53 95 == \$1;
#X obj 53 47 inlet;
#X obj 106 62 receive fromGUI;
#X obj 106 86 route list;
#X obj 106 110 route \$2;
#X text 207 63 Play on Screen;
#X obj 106 199 outlet~;
#X obj 106 171 oneshot \$3;
#X obj 163 146 inlet;
#X text 20 23 midi note #;
#X text 199 145 pass through pad velocity;
#X connect 0 0 9 0;
#X connect 1 0 2 0;
#X connect 2 0 0 1;
#X connect 2 0 0 0;
#X connect 3 0 1 0;
#X connect 4 0 5 0;
#X connect 5 0 6 0;
#X connect 6 0 9 0;
#X connect 9 0 8 0;
#X connect 10 0 9 1;
