#N canvas 183 148 1159 699 10;
#X obj 50 230 osc~;
#X obj 75 461 +~;
#X obj 90 401 *~;
#X obj 105 376 vline~;
#X obj 462 382 *~;
#X obj 485 351 vline~;
#X obj 462 293 osc~;
#X obj 19 466 +~;
#X obj 17 129 mtof~;
#X obj 50 59 mtof;
#X obj 75 487 osc~;
#X obj 19 490 osc~;
#X obj 50 25 inlet;
#X obj 501 803 outlet~;
#X obj 857 137 unpack 0 0;
#X obj 914 170 sel 0;
#X obj 501 773 *~;
#X obj 861 590 vline~;
#X msg 973 527 0 \$2;
#X obj 861 499 pack f f f f;
#X obj 973 494 pack f f;
#X obj 502 563 r cutFreq;
#X obj 517 683 sig~, f 5;
#X obj 91 108 r op1;
#X obj 483 131 r op2;
#X obj 50 264 *~ 10;
#X obj 462 322 *~ 10;
#X obj 462 231 * \$1;
#X obj 50 207 * \$1;
#X obj 125 216 r opOneAmt;
#X obj 514 293 r opTwoAmt;
#X msg 861 528 \$1 \$2 \, \$4 \$3 \$2;
#X obj 861 470 / 127;
#X msg 247 340 0 \$2;
#X obj 135 312 pack f f f f;
#X obj 247 307 pack f f;
#X msg 135 341 1 \$2 \, \$4 \$3 \$2;
#X obj 109 254 r opOneAttack;
#X obj 199 254 r opOneDecay;
#X obj 205 278 r opOneSustain;
#X obj 302 270 r opOneRelease;
#X msg 710 350 0 \$2;
#X obj 598 322 pack f f f f;
#X obj 710 317 pack f f;
#X msg 598 351 1 \$2 \, \$4 \$3 \$2;
#X obj 572 264 r opTwoAttack;
#X obj 662 264 r opTwoDecay;
#X obj 668 288 r opTwoSustain;
#X obj 765 280 r opTwoRelease;
#X obj 551 628 r res;
#X obj 501 723 vcf~ 5;
#X obj 453 669 *~ 1.5;
#X obj 453 644 vcf~ 30;
#X obj 902 416 r attack;
#X obj 914 441 r decay;
#X obj 934 464 r sustain;
#X obj 1016 444 r release;
#X obj 434 174 bng 15 250 50 0 empty empty empty 17 7 0 10 -262144
-1 -1;
#X obj 434 199 \$1;
#X obj 50 177 \$1;
#X obj 64 142 bng 15 250 50 0 empty empty empty 17 7 0 10 -262144 -1
-1;
#X obj 470 604 sig~;
#X connect 0 0 25 0;
#X connect 1 0 10 0;
#X connect 2 0 1 1;
#X connect 3 0 2 1;
#X connect 4 0 7 1;
#X connect 5 0 4 1;
#X connect 6 0 26 0;
#X connect 7 0 11 0;
#X connect 8 0 1 0;
#X connect 8 0 7 0;
#X connect 9 0 58 0;
#X connect 9 0 59 0;
#X connect 10 0 52 0;
#X connect 10 0 50 0;
#X connect 11 0 52 0;
#X connect 11 0 50 0;
#X connect 12 0 8 0;
#X connect 12 0 9 0;
#X connect 12 0 14 0;
#X connect 14 1 15 0;
#X connect 15 0 20 0;
#X connect 15 0 35 0;
#X connect 15 0 43 0;
#X connect 15 1 32 0;
#X connect 15 1 34 0;
#X connect 15 1 42 0;
#X connect 16 0 13 0;
#X connect 17 0 16 1;
#X connect 18 0 17 0;
#X connect 19 0 31 0;
#X connect 20 0 18 0;
#X connect 21 0 22 0;
#X connect 21 0 61 0;
#X connect 22 0 50 1;
#X connect 23 0 28 1;
#X connect 23 0 60 0;
#X connect 24 0 27 1;
#X connect 24 0 57 0;
#X connect 25 0 2 0;
#X connect 26 0 4 0;
#X connect 27 0 6 0;
#X connect 28 0 0 0;
#X connect 29 0 25 1;
#X connect 30 0 26 1;
#X connect 31 0 17 0;
#X connect 32 0 19 0;
#X connect 33 0 3 0;
#X connect 34 0 36 0;
#X connect 35 0 33 0;
#X connect 36 0 3 0;
#X connect 37 0 34 1;
#X connect 38 0 34 2;
#X connect 39 0 34 3;
#X connect 40 0 35 1;
#X connect 41 0 5 0;
#X connect 42 0 44 0;
#X connect 43 0 41 0;
#X connect 44 0 5 0;
#X connect 45 0 42 1;
#X connect 46 0 42 2;
#X connect 47 0 42 3;
#X connect 48 0 43 1;
#X connect 49 0 51 1;
#X connect 50 0 16 0;
#X connect 51 0 16 0;
#X connect 52 0 51 0;
#X connect 53 0 19 1;
#X connect 54 0 19 2;
#X connect 55 0 19 3;
#X connect 56 0 20 1;
#X connect 57 0 58 0;
#X connect 58 0 27 0;
#X connect 59 0 28 0;
#X connect 60 0 59 0;
#X connect 61 0 52 1;
